<?xml version="1.0" encoding="UTF-8"?>
<svg width="280px" height="36px" viewBox="0 0 280 36" version="1.1" xmlns="http://www.w3.org/2000/svg" xmlns:xlink="http://www.w3.org/1999/xlink">
    <!-- Generator: Sketch 58 (84663) - https://sketch.com -->
    <title>Save to Google Pay - Portuguese (Brazil) (Light with Stroke)</title>
    <desc>Created with Sketch.</desc>
    <g id="Buttons-(Save-to-phone)" stroke="none" stroke-width="1" fill="none" fill-rule="evenodd">
        <g id="Language-Variations---Raw-Copy-2" transform="translate(-196.000000, -163.000000)">
            <g id="Save-to-Google-Pay---Portuguese-(Brazil)-(Light-with-Stroke)" transform="translate(196.000000, 163.000000)">
                <path d="M4,0.5 C2.06700338,0.5 0.5,2.06700338 0.5,4 L0.5,32 C0.5,33.9329966 2.06700338,35.5 4,35.5 L276,35.5 C277.932997,35.5 279.5,33.9329966 279.5,32 L279.5,4 C279.5,2.06700338 277.932997,0.5 276,0.5 L4,0.5 Z" id="bg" stroke="#BDC1C6" fill="#FFFFFF"></path>
                <g id="buttonContent" transform="translate(37.000000, 10.000000)">
                    <path d="M63.546,13.224 C62.7153292,13.224 61.96867,12.9813358 61.306,12.496 C60.64333,12.0106642 60.1860013,11.3293377 59.934,10.452 L61.418,9.85 C61.5673341,10.4006694 61.8309981,10.8509982 62.209,11.201 C62.5870019,11.5510018 63.0419973,11.726 63.574,11.726 C64.0686691,11.726 64.4886649,11.5976679 64.834,11.341 C65.1793351,11.0843321 65.352,10.7320022 65.352,10.284 C65.352,9.87333128 65.2003349,9.53500133 64.897,9.269 C64.5936652,9.00299867 64.0640038,8.73466802 63.308,8.464 L62.678,8.24 C62.0059966,8.0066655 61.4413356,7.67066886 60.984,7.232 C60.5266644,6.79333114 60.298,6.21467026 60.298,5.496 C60.298,5.00133086 60.433332,4.5440021 60.704,4.124 C60.974668,3.7039979 61.3503309,3.37033457 61.831,3.123 C62.3116691,2.87566543 62.8553303,2.752 63.462,2.752 C64.3393377,2.752 65.0393307,2.96433121 65.562,3.389 C66.0846693,3.81366879 66.4346658,4.29199734 66.612,4.824 L65.198,5.426 C65.0953328,5.10866508 64.8993348,4.82866788 64.61,4.586 C64.3206652,4.34333212 63.9473356,4.222 63.49,4.222 C63.0326644,4.222 62.6476682,4.3386655 62.335,4.572 C62.0223318,4.8053345 61.866,5.10399818 61.866,5.468 C61.866,5.81333506 62.0059986,6.09799888 62.286,6.322 C62.5660014,6.54600112 63.0046637,6.76066564 63.602,6.966 L64.232,7.176 C65.090671,7.47466816 65.7556643,7.86433093 66.227,8.345 C66.6983357,8.82566907 66.934,9.46732932 66.934,10.27 C66.934,10.9233366 66.7660017,11.4716645 66.43,11.915 C66.0939983,12.3583355 65.6670026,12.6873323 65.149,12.902 C64.6309974,13.1166677 64.0966694,13.224 63.546,13.224 Z M70.864,13.224 C70.3506641,13.224 69.8933353,13.1236677 69.492,12.923 C69.0906647,12.7223323 68.7780011,12.4376685 68.554,12.069 C68.3299989,11.7003315 68.218,11.282669 68.218,10.816 C68.218,10.078663 68.4956639,9.49533548 69.051,9.066 C69.6063361,8.63666452 70.3086624,8.422 71.158,8.422 C71.5780021,8.422 71.9559983,8.46166627 72.292,8.541 C72.6280017,8.62033373 72.893999,8.7066662 73.09,8.8 L73.09,8.436 C73.09,7.99733114 72.9266683,7.64033471 72.6,7.365 C72.2733317,7.08966529 71.8533359,6.952 71.34,6.952 C70.9759982,6.952 70.6330016,7.03133254 70.311,7.19 C69.9889984,7.34866746 69.730001,7.5679986 69.534,7.848 L68.456,7.022 C68.7733349,6.58333114 69.1839975,6.24266788 69.688,6 C70.1920025,5.75733212 70.7519969,5.636 71.368,5.636 C72.4040052,5.636 73.2019972,5.89033079 73.762,6.399 C74.3220028,6.90766921 74.602,7.62399538 74.602,8.548 L74.602,13 L73.09,13 L73.09,12.146 L73.02,12.146 C72.8146656,12.4540015 72.5253352,12.7106656 72.152,12.916 C71.7786648,13.1213344 71.3493358,13.224 70.864,13.224 Z M71.13,11.95 C71.5033352,11.95 71.8393318,11.8613342 72.138,11.684 C72.4366682,11.5066658 72.6699992,11.2686682 72.838,10.97 C73.0060008,10.6713318 73.09,10.3493351 73.09,10.004 C72.8753323,9.88266606 72.6256681,9.78466704 72.341,9.71 C72.0563319,9.63533296 71.7600015,9.598 71.452,9.598 C70.8733304,9.598 70.448668,9.71233219 70.178,9.941 C69.907332,10.1696678 69.772,10.4659982 69.772,10.83 C69.772,11.1566683 69.8979987,11.4249989 70.15,11.635 C70.4020013,11.8450011 70.7286647,11.95 71.13,11.95 Z M76.432,2.976 L77.972,2.976 L77.972,13 L76.432,13 L76.432,2.976 Z M79.13,5.86 L80.852,5.86 L82.826,11.012 L82.882,11.012 L84.898,5.86 L86.578,5.86 L83.61,13 L82.07,13 L79.13,5.86 Z M89.822,13.224 C89.3086641,13.224 88.8513354,13.1236677 88.45,12.923 C88.0486647,12.7223323 87.7360011,12.4376685 87.512,12.069 C87.2879989,11.7003315 87.176,11.282669 87.176,10.816 C87.176,10.078663 87.4536639,9.49533548 88.009,9.066 C88.5643361,8.63666452 89.2666624,8.422 90.116,8.422 C90.5360021,8.422 90.9139983,8.46166627 91.25,8.541 C91.5860017,8.62033373 91.851999,8.7066662 92.048,8.8 L92.048,8.436 C92.048,7.99733114 91.8846683,7.64033471 91.558,7.365 C91.2313317,7.08966529 90.8113359,6.952 90.298,6.952 C89.9339982,6.952 89.5910016,7.03133254 89.269,7.19 C88.9469984,7.34866746 88.688001,7.5679986 88.492,7.848 L87.414,7.022 C87.7313349,6.58333114 88.1419975,6.24266788 88.646,6 C89.1500025,5.75733212 89.7099969,5.636 90.326,5.636 C91.3620052,5.636 92.1599972,5.89033079 92.72,6.399 C93.2800028,6.90766921 93.56,7.62399538 93.56,8.548 L93.56,13 L92.048,13 L92.048,12.146 L91.978,12.146 C91.7726657,12.4540015 91.4833352,12.7106656 91.11,12.916 C90.7366648,13.1213344 90.3073358,13.224 89.822,13.224 Z M90.088,11.95 C90.4613352,11.95 90.7973319,11.8613342 91.096,11.684 C91.3946682,11.5066658 91.6279992,11.2686682 91.796,10.97 C91.9640009,10.6713318 92.048,10.3493351 92.048,10.004 C91.8333323,9.88266606 91.5836681,9.78466704 91.299,9.71 C91.0143319,9.63533296 90.7180016,9.598 90.41,9.598 C89.8313305,9.598 89.406668,9.71233219 89.136,9.941 C88.865332,10.1696678 88.73,10.4659982 88.73,10.83 C88.73,11.1566683 88.8559988,11.4249989 89.108,11.635 C89.3600013,11.8450011 89.6866647,11.95 90.088,11.95 Z M95.39,5.86 L96.86,5.86 L96.86,6.91 L96.93,6.91 C97.0886675,6.54599818 97.3639981,6.24500119 97.756,6.007 C98.148002,5.76899881 98.5633312,5.65 99.002,5.65 C99.3473351,5.65 99.6366655,5.6966662 99.87,5.79 L99.87,7.386 C99.4593313,7.23666592 99.0906683,7.162 98.764,7.162 C98.4093316,7.162 98.0943347,7.2553324 97.819,7.442 C97.5436653,7.6286676 97.3266675,7.87833177 97.168,8.191 C97.0093326,8.50366823 96.93,8.8466648 96.93,9.22 L96.93,13 L95.39,13 L95.39,5.86 Z M104.622,5.86 L106.092,5.86 L106.092,6.798 L106.162,6.798 C106.367334,6.46199832 106.672998,6.18433443 107.079,5.965 C107.485002,5.74566557 107.916664,5.636 108.374,5.636 C109.242004,5.636 109.902331,5.89033079 110.355,6.399 C110.807669,6.90766921 111.034,7.60066228 111.034,8.478 L111.034,13 L109.494,13 L109.494,8.688 C109.494,8.1279972 109.356335,7.71733464 109.081,7.456 C108.805665,7.19466536 108.425336,7.064 107.94,7.064 C107.594665,7.064 107.286668,7.15966571 107.016,7.351 C106.745332,7.54233429 106.535334,7.79666508 106.386,8.114 C106.236666,8.43133492 106.162,8.77199818 106.162,9.136 L106.162,13 L104.622,13 L104.622,5.86 Z M116.266,13.224 C115.54733,13.224 114.903336,13.058335 114.334,12.727 C113.764664,12.395665 113.321335,11.9406696 113.004,11.362 C112.686665,10.7833304 112.528,10.1393369 112.528,9.43 C112.528,8.72066312 112.686665,8.07666956 113.004,7.498 C113.321335,6.91933044 113.764664,6.46433499 114.334,6.133 C114.903336,5.80166501 115.54733,5.636 116.266,5.636 C116.98467,5.636 117.628664,5.80399832 118.198,6.14 C118.767336,6.47600168 119.210665,6.93333044 119.528,7.512 C119.845335,8.09066956 120.004,8.7299965 120.004,9.43 C120.004,10.1393369 119.845335,10.7833304 119.528,11.362 C119.210665,11.9406696 118.767336,12.395665 118.198,12.727 C117.628664,13.058335 116.98467,13.224 116.266,13.224 Z M116.266,11.81 C116.658002,11.81 117.021998,11.7143343 117.358,11.523 C117.694002,11.3316657 117.962332,11.0563351 118.163,10.697 C118.363668,10.3376649 118.464,9.91533576 118.464,9.43 C118.464,8.94466424 118.363668,8.52466844 118.163,8.17 C117.962332,7.81533156 117.694002,7.54233429 117.358,7.351 C117.021998,7.15966571 116.658002,7.064 116.266,7.064 C115.873998,7.064 115.510002,7.15966571 115.174,7.351 C114.837998,7.54233429 114.569668,7.81533156 114.369,8.17 C114.168332,8.52466844 114.068,8.94466424 114.068,9.43 C114.068,9.91533576 114.168332,10.3376649 114.369,10.697 C114.569668,11.0563351 114.837998,11.3316657 115.174,11.523 C115.510002,11.7143343 115.873998,11.81 116.266,11.81 Z M127.598,13.224 C126.776663,13.224 126.104669,13.0443351 125.582,12.685 C125.059331,12.3256649 124.690668,11.8660028 124.476,11.306 L125.848,10.704 C126.016001,11.0773352 126.251665,11.361999 126.555,11.558 C126.858335,11.754001 127.205998,11.852 127.598,11.852 C127.980669,11.852 128.302665,11.784334 128.564,11.649 C128.825335,11.513666 128.956,11.310668 128.956,11.04 C128.956,10.7786654 128.844001,10.5733341 128.62,10.424 C128.395999,10.2746659 128.050669,10.1440006 127.584,10.032 L126.73,9.822 C126.160664,9.6819993 125.689335,9.43466844 125.316,9.08 C124.942665,8.72533156 124.756,8.27733604 124.756,7.736 C124.756,7.3159979 124.879665,6.94733492 125.127,6.63 C125.374335,6.31266508 125.707998,6.06766753 126.128,5.895 C126.548002,5.72233247 127.005331,5.636 127.5,5.636 C128.16267,5.636 128.745998,5.76899867 129.25,6.035 C129.754003,6.30100133 130.117999,6.68599748 130.342,7.19 L128.998,7.778 C128.727332,7.22733058 128.23267,6.952 127.514,6.952 C127.168665,6.952 126.879335,7.0219993 126.646,7.162 C126.412666,7.3020007 126.296,7.48399888 126.296,7.708 C126.296,7.92266774 126.384666,8.09766599 126.562,8.233 C126.739334,8.36833401 127.000665,8.4826662 127.346,8.576 L128.396,8.842 C129.096004,9.01933422 129.625665,9.28766487 129.985,9.647 C130.344335,10.0063351 130.524,10.4473307 130.524,10.97 C130.524,11.4180022 130.395668,11.8123316 130.139,12.153 C129.882332,12.4936684 129.530002,12.7573324 129.082,12.944 C128.633998,13.1306676 128.139336,13.224 127.598,13.224 Z M131.934,5.86 L133.404,5.86 L133.404,6.798 L133.474,6.798 C133.688668,6.45266494 133.991998,6.17266774 134.384,5.958 C134.776002,5.74333226 135.195998,5.636 135.644,5.636 C136.157336,5.636 136.605331,5.75499881 136.988,5.993 C137.370669,6.23100119 137.645999,6.54599804 137.814,6.938 C138.056668,6.54599804 138.380998,6.23100119 138.787,5.993 C139.193002,5.75499881 139.671331,5.636 140.222,5.636 C141.043338,5.636 141.666331,5.88566417 142.091,6.385 C142.515669,6.88433583 142.728,7.56332904 142.728,8.422 L142.728,13 L141.188,13 L141.188,8.688 C141.188,7.60532792 140.726005,7.064 139.802,7.064 C139.307331,7.064 138.901335,7.26466466 138.584,7.666 C138.266665,8.06733534 138.108,8.56199706 138.108,9.15 L138.108,13 L136.568,13 L136.568,8.688 C136.568,7.60532792 136.092005,7.064 135.14,7.064 C134.654664,7.064 134.255668,7.26466466 133.943,7.666 C133.630332,8.06733534 133.474,8.56199706 133.474,9.15 L133.474,13 L131.934,13 L131.934,5.86 Z M146.798,13.224 C146.284664,13.224 145.827335,13.1236677 145.426,12.923 C145.024665,12.7223323 144.712001,12.4376685 144.488,12.069 C144.263999,11.7003315 144.152,11.282669 144.152,10.816 C144.152,10.078663 144.429664,9.49533548 144.985,9.066 C145.540336,8.63666452 146.242662,8.422 147.092,8.422 C147.512002,8.422 147.889998,8.46166627 148.226,8.541 C148.562002,8.62033373 148.827999,8.7066662 149.024,8.8 L149.024,8.436 C149.024,7.99733114 148.860668,7.64033471 148.534,7.365 C148.207332,7.08966529 147.787336,6.952 147.274,6.952 C146.909998,6.952 146.567002,7.03133254 146.245,7.19 C145.922998,7.34866746 145.664001,7.5679986 145.468,7.848 L144.39,7.022 C144.707335,6.58333114 145.117998,6.24266788 145.622,6 C146.126003,5.75733212 146.685997,5.636 147.302,5.636 C148.338005,5.636 149.135997,5.89033079 149.696,6.399 C150.256003,6.90766921 150.536,7.62399538 150.536,8.548 L150.536,13 L149.024,13 L149.024,12.146 L148.954,12.146 C148.748666,12.4540015 148.459335,12.7106656 148.086,12.916 C147.712665,13.1213344 147.283336,13.224 146.798,13.224 Z M147.064,11.95 C147.437335,11.95 147.773332,11.8613342 148.072,11.684 C148.370668,11.5066658 148.603999,11.2686682 148.772,10.97 C148.940001,10.6713318 149.024,10.3493351 149.024,10.004 C148.809332,9.88266606 148.559668,9.78466704 148.275,9.71 C147.990332,9.63533296 147.694002,9.598 147.386,9.598 C146.807331,9.598 146.382668,9.71233219 146.112,9.941 C145.841332,10.1696678 145.706,10.4659982 145.706,10.83 C145.706,11.1566683 145.831999,11.4249989 146.084,11.635 C146.336001,11.8450011 146.662665,11.95 147.064,11.95 Z M152.366,5.86 L153.836,5.86 L153.836,6.91 L153.906,6.91 C154.092668,6.52733142 154.384331,6.22400112 154.781,6 C155.177669,5.77599888 155.609331,5.664 156.076,5.664 C156.337335,5.664 156.528666,5.68266648 156.65,5.72 L156.65,7.274 C156.416666,7.20866634 156.169335,7.176 155.908,7.176 C155.30133,7.176 154.816002,7.36733142 154.452,7.75 C154.087998,8.13266858 153.906,8.63666354 153.906,9.262 L153.906,13 L152.366,13 L152.366,5.86 Z M161.032,13.112 C160.714665,13.112 160.416001,13.0606672 160.136,12.958 C159.855999,12.8553328 159.627334,12.7200008 159.45,12.552 C159.048665,12.1506647 158.848,11.6046701 158.848,10.914 L158.848,7.218 L157.602,7.218 L157.602,5.86 L158.848,5.86 L158.848,3.844 L160.388,3.844 L160.388,5.86 L162.124,5.86 L162.124,7.218 L160.388,7.218 L160.388,10.578 C160.388,10.9606686 160.462666,11.2313325 160.612,11.39 C160.752001,11.5766676 160.994665,11.67 161.34,11.67 C161.498668,11.67 161.638666,11.6490002 161.76,11.607 C161.881334,11.5649998 162.011999,11.4973338 162.152,11.404 L162.152,12.902 C161.843999,13.0420007 161.470669,13.112 161.032,13.112 Z M163.758,5.86 L165.228,5.86 L165.228,6.798 L165.298,6.798 C165.503334,6.4713317 165.806665,6.19600112 166.208,5.972 C166.609335,5.74799888 167.061998,5.636 167.566,5.636 C168.210003,5.636 168.793331,5.7993317 169.316,6.126 C169.838669,6.4526683 170.251665,6.90299713 170.555,7.477 C170.858335,8.05100287 171.01,8.70199636 171.01,9.43 C171.01,10.1580036 170.858335,10.8089971 170.555,11.383 C170.251665,11.9570029 169.838669,12.4073317 169.316,12.734 C168.793331,13.0606683 168.210003,13.224 167.566,13.224 C167.061998,13.224 166.609335,13.1120011 166.208,12.888 C165.806665,12.6639989 165.503334,12.3933349 165.298,12.076 L165.228,12.076 L165.298,13.07 L165.298,16.024 L163.758,16.024 L163.758,5.86 Z M167.342,11.81 C167.715335,11.81 168.065332,11.712001 168.392,11.516 C168.718668,11.319999 168.979999,11.0400018 169.176,10.676 C169.372001,10.3119982 169.47,9.896669 169.47,9.43 C169.47,8.963331 169.372001,8.55033513 169.176,8.191 C168.979999,7.83166487 168.718668,7.55400098 168.392,7.358 C168.065332,7.16199902 167.715335,7.064 167.342,7.064 C166.968665,7.064 166.621002,7.16199902 166.299,7.358 C165.976998,7.55400098 165.718001,7.83166487 165.522,8.191 C165.325999,8.55033513 165.228,8.963331 165.228,9.43 C165.228,9.896669 165.325999,10.3119982 165.522,10.676 C165.718001,11.0400018 165.976998,11.319999 166.299,11.516 C166.621002,11.712001 166.968665,11.81 167.342,11.81 Z M172.42,2.976 L173.96,2.976 L173.96,5.706 L173.89,6.798 L173.96,6.798 C174.165334,6.46199832 174.470998,6.18433443 174.877,5.965 C175.283002,5.74566557 175.719331,5.636 176.186,5.636 C177.054004,5.636 177.716664,5.89033079 178.174,6.399 C178.631336,6.90766921 178.86,7.60066228 178.86,8.478 L178.86,13 L177.32,13 L177.32,8.688 C177.32,8.14666396 177.177668,7.74066802 176.893,7.47 C176.608332,7.19933198 176.237336,7.064 175.78,7.064 C175.434665,7.064 175.124335,7.16199902 174.849,7.358 C174.573665,7.55400098 174.356668,7.81299839 174.198,8.135 C174.039333,8.45700161 173.96,8.79999818 173.96,9.164 L173.96,13 L172.42,13 L172.42,2.976 Z M184.106,13.224 C183.38733,13.224 182.743336,13.058335 182.174,12.727 C181.604664,12.395665 181.161335,11.9406696 180.844,11.362 C180.526665,10.7833304 180.368,10.1393369 180.368,9.43 C180.368,8.72066312 180.526665,8.07666956 180.844,7.498 C181.161335,6.91933044 181.604664,6.46433499 182.174,6.133 C182.743336,5.80166501 183.38733,5.636 184.106,5.636 C184.82467,5.636 185.468664,5.80399832 186.038,6.14 C186.607336,6.47600168 187.050665,6.93333044 187.368,7.512 C187.685335,8.09066956 187.844,8.7299965 187.844,9.43 C187.844,10.1393369 187.685335,10.7833304 187.368,11.362 C187.050665,11.9406696 186.607336,12.395665 186.038,12.727 C185.468664,13.058335 184.82467,13.224 184.106,13.224 Z M184.106,11.81 C184.498002,11.81 184.861998,11.7143343 185.198,11.523 C185.534002,11.3316657 185.802332,11.0563351 186.003,10.697 C186.203668,10.3376649 186.304,9.91533576 186.304,9.43 C186.304,8.94466424 186.203668,8.52466844 186.003,8.17 C185.802332,7.81533156 185.534002,7.54233429 185.198,7.351 C184.861998,7.15966571 184.498002,7.064 184.106,7.064 C183.713998,7.064 183.350002,7.15966571 183.014,7.351 C182.677998,7.54233429 182.409668,7.81533156 182.209,8.17 C182.008332,8.52466844 181.908,8.94466424 181.908,9.43 C181.908,9.91533576 182.008332,10.3376649 182.209,10.697 C182.409668,11.0563351 182.677998,11.3316657 183.014,11.523 C183.350002,11.7143343 183.713998,11.81 184.106,11.81 Z M189.268,5.86 L190.738,5.86 L190.738,6.798 L190.808,6.798 C191.013334,6.46199832 191.318998,6.18433443 191.725,5.965 C192.131002,5.74566557 192.562664,5.636 193.02,5.636 C193.888004,5.636 194.548331,5.89033079 195.001,6.399 C195.453669,6.90766921 195.68,7.60066228 195.68,8.478 L195.68,13 L194.14,13 L194.14,8.688 C194.14,8.1279972 194.002335,7.71733464 193.727,7.456 C193.451665,7.19466536 193.071336,7.064 192.586,7.064 C192.240665,7.064 191.932668,7.15966571 191.662,7.351 C191.391332,7.54233429 191.181334,7.79666508 191.032,8.114 C190.882666,8.43133492 190.808,8.77199818 190.808,9.136 L190.808,13 L189.268,13 L189.268,5.86 Z M200.828,13.224 C200.127997,13.224 199.500336,13.0606683 198.945,12.734 C198.389664,12.4073317 197.955668,11.9570029 197.643,11.383 C197.330332,10.8089971 197.174,10.1626703 197.174,9.444 C197.174,8.76266326 197.325665,8.13033625 197.629,7.547 C197.932335,6.96366375 198.354664,6.49933506 198.896,6.154 C199.437336,5.80866494 200.05333,5.636 200.744,5.636 C201.46267,5.636 202.085664,5.79466508 202.613,6.112 C203.140336,6.42933492 203.541665,6.86333058 203.817,7.414 C204.092335,7.96466942 204.23,8.58532988 204.23,9.276 C204.23,9.40666732 204.216,9.56999902 204.188,9.766 L198.714,9.766 C198.77,10.42867 199.005665,10.9396649 199.421,11.299 C199.836336,11.6583351 200.319331,11.838 200.87,11.838 C201.308669,11.838 201.688998,11.7376677 202.011,11.537 C202.333002,11.3363323 202.591999,11.0633351 202.788,10.718 L204.09,11.334 C203.753998,11.9220029 203.315336,12.3839983 202.774,12.72 C202.232664,13.0560017 201.584004,13.224 200.828,13.224 Z M202.662,8.59 C202.643333,8.33799874 202.564001,8.08833457 202.424,7.841 C202.284,7.59366543 202.071668,7.38600084 201.787,7.218 C201.502332,7.04999916 201.154669,6.966 200.744,6.966 C200.249331,6.966 199.831668,7.11299853 199.491,7.407 C199.150332,7.70100147 198.914667,8.09533086 198.784,8.59 L202.662,8.59 Z" id="SaveToPhone" fill="#3C4043"></path>
                    <rect id="Rectangle-Copy" fill="#202124" opacity="0.100000001" x="50" y="0" width="1" height="16"></rect>
                    <g id="Gpay-logo-18px-h">
                        <g id="GPay" transform="translate(0.000000, 0.261474)">
                            <g id="Pay" transform="translate(17.615069, 0.825706)" fill="#5F6368">
                                <path d="M1.64941186,1.54761702 L1.64941186,5.63067176 L4.1674047,5.63067176 C4.76721599,5.63067176 5.26322816,5.42908551 5.65562807,5.02591302 C6.05830511,4.6236738 6.26011078,4.1439732 6.26011078,3.58867775 C6.26011078,3.04458155 6.05830511,2.57048056 5.65562807,2.16730807 C5.26322816,1.75386962 4.76721599,1.54668375 4.1674047,1.54668375 L1.64941186,1.54668375 L1.64941186,1.54761702 Z M1.64941186,7.06790702 L1.64941186,11.8042505 L0.145212207,11.8042505 L0.145212207,0.110381756 L4.13461128,0.110381756 C5.14840447,0.110381756 6.00888141,0.448225371 6.71791067,1.12297933 C7.43740394,1.79773329 7.79701042,2.61994385 7.79701042,3.58867775 C7.79701042,4.57981013 7.43731051,5.40762031 6.71791067,6.07117503 C6.01999941,6.73566302 5.15858818,7.06697375 4.13461128,7.06697375 L1.64941186,7.06697375 L1.64941186,7.06790702 Z" id="Fill-1"></path>
                                <path d="M9.31707424,9.35440834 C9.31707424,9.74638159 9.48337706,10.073026 9.81607612,10.3343415 C10.1485883,10.595657 10.5381854,10.7263147 10.9848673,10.7263147 C11.6172851,10.7263147 12.1806593,10.4919707 12.6767649,10.024496 C13.1729639,9.55599458 13.4204561,9.00629876 13.4204561,8.37540847 C12.9514448,8.00490042 12.297445,7.82011303 11.4584566,7.82011303 C10.8475273,7.82011303 10.3383417,7.96756963 9.93005895,8.26154958 C9.52168276,8.55543619 9.31707424,8.91857141 9.31707424,9.35440834 M11.2631909,3.5401384 C12.3749907,3.5401384 13.2522848,3.83691815 13.8961009,4.43047765 C14.5388893,5.02403715 14.8601901,5.83784829 14.8601901,6.87191106 L14.8601901,11.8042412 L13.4214839,11.8042412 L13.4214839,10.6936503 L13.3559904,10.6936503 C12.7346906,11.6081612 11.9059794,12.0655567 10.8708844,12.0655567 C9.98798466,12.0655567 9.24896483,11.8042412 8.65560011,11.2816102 C8.06148796,10.7589792 7.76438517,10.1056904 7.76438517,9.3217439 C7.76438517,8.49393372 8.07727739,7.83588529 8.70418295,7.34601205 C9.33108852,6.85604548 10.1673675,6.61059556 11.2137672,6.61059556 C12.1068507,6.61059556 12.8430677,6.77391775 13.4204561,7.10056213 L13.4204561,6.75711889 C13.4204561,6.23448789 13.2130448,5.7911848 12.7992497,5.42627637 C12.3843335,5.06136793 11.9003736,4.87938035 11.3444738,4.87938035 C10.5045511,4.87938035 9.84036755,5.23308955 9.34986766,5.94144122 L8.0249574,5.10803142 C8.75556866,4.06276941 9.83466841,3.5401384 11.2631909,3.5401384" id="Fill-3"></path>
                                <polygon id="Fill-5" points="23.1164897 3.8014539 18.0966672 15.3320005 16.5437912 15.3320005 18.4077842 11.2974758 15.1049916 3.8014539 16.7399912 3.8014539 19.1270906 9.55039497 19.1597906 9.55039497 21.4814901 3.8014539"></polygon>
                            </g>
                            <g id="G">
                                <path d="M13.1865148,6.87260706 C13.1865148,6.39943935 13.1463406,5.94307048 13.0706634,5.50630029 L6.72686492,5.50630029 L6.72686492,8.09425704 L10.3603012,8.09425704 C10.2042755,8.93783948 9.73246136,9.65561717 9.01679867,10.136251 L9.01679867,11.8170697 L11.1852753,11.8170697 C12.4549693,10.6467495 13.1865148,8.91740087 13.1865148,6.87260706" id="Fill-8" fill="#4285F4"></path>
                                <path d="M6.72685557,13.439083 C8.54217229,13.439083 10.0706634,12.843657 11.185266,11.8170603 L9.01678933,10.1362417 C8.4132409,10.542214 7.63591536,10.7792645 6.72685557,10.7792645 C4.97226741,10.7792645 3.48301633,9.59774511 2.9504736,8.00558709 L0.716596976,8.00558709 L0.716596976,9.73680229 C1.82372529,11.9318525 4.09871047,13.439083 6.72685557,13.439083" id="Fill-10" fill="#34A853"></path>
                                <path d="M2.95048294,8.00556842 C2.81407726,7.59959612 2.73933442,7.166559 2.73933442,6.71952284 C2.73933442,6.27248667 2.81407726,5.83944956 2.95048294,5.43347726 L2.95048294,3.70226205 L0.716606319,3.70226205 C0.258806425,4.60940015 9.34285496e-06,5.63413023 9.34285496e-06,6.71952284 C9.34285496e-06,7.80491544 0.258806425,8.82973885 0.716606319,9.73678363 L2.95048294,8.00556842 Z" id="Fill-12" fill="#FABB05"></path>
                                <path d="M6.72685557,2.65981851 C7.71813249,2.65981851 8.60663799,3.00046194 9.30735212,3.66774974 L9.30735212,3.66868301 L11.2273088,1.75081387 C10.0613205,0.666354532 8.54123801,0 6.72685557,0 C4.09871047,0 1.82372529,1.50723049 0.716596976,3.70228071 L2.9504736,5.43349592 C3.48301633,3.84133789 4.97226741,2.65981851 6.72685557,2.65981851" id="Fill-14" fill="#E94235"></path>
                            </g>
                        </g>
                    </g>
                </g>
            </g>
        </g>
    </g>
</svg>