<?xml version="1.0" encoding="UTF-8"?>
<svg width="288px" height="44px" viewBox="0 0 288 44" version="1.1" xmlns="http://www.w3.org/2000/svg" xmlns:xlink="http://www.w3.org/1999/xlink">
    <!-- Generator: Sketch 58 (84663) - https://sketch.com -->
    <title>Save to Google Pay - Italian (Light)</title>
    <desc>Created with Sketch.</desc>
    <defs>
        <path d="M4,0 L276,0 C278.209139,-4.05812251e-16 280,1.790861 280,4 L280,32 C280,34.209139 278.209139,36 276,36 L4,36 C1.790861,36 2.705415e-16,34.209139 0,32 L0,4 C-2.705415e-16,1.790861 1.790861,4.05812251e-16 4,0 Z" id="path-1"></path>
        <filter x="-2.3%" y="-15.3%" width="104.6%" height="136.1%" filterUnits="objectBoundingBox" id="filter-2">
            <feMorphology radius="0.5" operator="dilate" in="SourceAlpha" result="shadowSpreadOuter1"></feMorphology>
            <feOffset dx="0" dy="1" in="shadowSpreadOuter1" result="shadowOffsetOuter1"></feOffset>
            <feGaussianBlur stdDeviation="1.5" in="shadowOffsetOuter1" result="shadowBlurOuter1"></feGaussianBlur>
            <feColorMatrix values="0 0 0 0 0.235294118   0 0 0 0 0.250980392   0 0 0 0 0.262745098  0 0 0 0.15 0" type="matrix" in="shadowBlurOuter1" result="shadowMatrixOuter1"></feColorMatrix>
            <feOffset dx="0" dy="1" in="SourceAlpha" result="shadowOffsetOuter2"></feOffset>
            <feGaussianBlur stdDeviation="0.5" in="shadowOffsetOuter2" result="shadowBlurOuter2"></feGaussianBlur>
            <feColorMatrix values="0 0 0 0 0.235294118   0 0 0 0 0.250980392   0 0 0 0 0.262745098  0 0 0 0.3 0" type="matrix" in="shadowBlurOuter2" result="shadowMatrixOuter2"></feColorMatrix>
            <feMerge>
                <feMergeNode in="shadowMatrixOuter1"></feMergeNode>
                <feMergeNode in="shadowMatrixOuter2"></feMergeNode>
            </feMerge>
        </filter>
    </defs>
    <g id="Buttons-(Save-to-phone)" stroke="none" stroke-width="1" fill="none" fill-rule="evenodd">
        <g id="Language-Variations---Flattened" transform="translate(-192.000000, -914.000000)">
            <g id="Save-to-Google-Pay---Italian-(Light)" transform="translate(196.000000, 917.000000)">
                <g id="bg-copy-6">
                    <use fill="black" fill-opacity="1" filter="url(#filter-2)" xlink:href="#path-1"></use>
                    <use fill="#FFFFFF" fill-rule="evenodd" xlink:href="#path-1"></use>
                </g>
                <g id="buttonContent" transform="translate(52.000000, 10.000000)">
                    <path d="M63.546,13.224 C62.7153292,13.224 61.96867,12.9813358 61.306,12.496 C60.64333,12.0106642 60.1860013,11.3293377 59.934,10.452 L61.418,9.85 C61.5673341,10.4006694 61.8309981,10.8509982 62.209,11.201 C62.5870019,11.5510018 63.0419973,11.726 63.574,11.726 C64.0686691,11.726 64.4886649,11.5976679 64.834,11.341 C65.1793351,11.0843321 65.352,10.7320022 65.352,10.284 C65.352,9.87333128 65.2003349,9.53500133 64.897,9.269 C64.5936652,9.00299867 64.0640038,8.73466802 63.308,8.464 L62.678,8.24 C62.0059966,8.0066655 61.4413356,7.67066886 60.984,7.232 C60.5266644,6.79333114 60.298,6.21467026 60.298,5.496 C60.298,5.00133086 60.433332,4.5440021 60.704,4.124 C60.974668,3.7039979 61.3503309,3.37033457 61.831,3.123 C62.3116691,2.87566543 62.8553303,2.752 63.462,2.752 C64.3393377,2.752 65.0393307,2.96433121 65.562,3.389 C66.0846693,3.81366879 66.4346658,4.29199734 66.612,4.824 L65.198,5.426 C65.0953328,5.10866508 64.8993348,4.82866788 64.61,4.586 C64.3206652,4.34333212 63.9473356,4.222 63.49,4.222 C63.0326644,4.222 62.6476682,4.3386655 62.335,4.572 C62.0223318,4.8053345 61.866,5.10399818 61.866,5.468 C61.866,5.81333506 62.0059986,6.09799888 62.286,6.322 C62.5660014,6.54600112 63.0046637,6.76066564 63.602,6.966 L64.232,7.176 C65.090671,7.47466816 65.7556643,7.86433093 66.227,8.345 C66.6983357,8.82566907 66.934,9.46732932 66.934,10.27 C66.934,10.9233366 66.7660017,11.4716645 66.43,11.915 C66.0939983,12.3583355 65.6670026,12.6873323 65.149,12.902 C64.6309974,13.1166677 64.0966694,13.224 63.546,13.224 Z M70.864,13.224 C70.3506641,13.224 69.8933353,13.1236677 69.492,12.923 C69.0906647,12.7223323 68.7780011,12.4376685 68.554,12.069 C68.3299989,11.7003315 68.218,11.282669 68.218,10.816 C68.218,10.078663 68.4956639,9.49533548 69.051,9.066 C69.6063361,8.63666452 70.3086624,8.422 71.158,8.422 C71.5780021,8.422 71.9559983,8.46166627 72.292,8.541 C72.6280017,8.62033373 72.893999,8.7066662 73.09,8.8 L73.09,8.436 C73.09,7.99733114 72.9266683,7.64033471 72.6,7.365 C72.2733317,7.08966529 71.8533359,6.952 71.34,6.952 C70.9759982,6.952 70.6330016,7.03133254 70.311,7.19 C69.9889984,7.34866746 69.730001,7.5679986 69.534,7.848 L68.456,7.022 C68.7733349,6.58333114 69.1839975,6.24266788 69.688,6 C70.1920025,5.75733212 70.7519969,5.636 71.368,5.636 C72.4040052,5.636 73.2019972,5.89033079 73.762,6.399 C74.3220028,6.90766921 74.602,7.62399538 74.602,8.548 L74.602,13 L73.09,13 L73.09,12.146 L73.02,12.146 C72.8146656,12.4540015 72.5253352,12.7106656 72.152,12.916 C71.7786648,13.1213344 71.3493358,13.224 70.864,13.224 Z M71.13,11.95 C71.5033352,11.95 71.8393318,11.8613342 72.138,11.684 C72.4366682,11.5066658 72.6699992,11.2686682 72.838,10.97 C73.0060008,10.6713318 73.09,10.3493351 73.09,10.004 C72.8753323,9.88266606 72.6256681,9.78466704 72.341,9.71 C72.0563319,9.63533296 71.7600015,9.598 71.452,9.598 C70.8733304,9.598 70.448668,9.71233219 70.178,9.941 C69.907332,10.1696678 69.772,10.4659982 69.772,10.83 C69.772,11.1566683 69.8979987,11.4249989 70.15,11.635 C70.4020013,11.8450011 70.7286647,11.95 71.13,11.95 Z M76.432,2.976 L77.972,2.976 L77.972,13 L76.432,13 L76.432,2.976 Z M79.13,5.86 L80.852,5.86 L82.826,11.012 L82.882,11.012 L84.898,5.86 L86.578,5.86 L83.61,13 L82.07,13 L79.13,5.86 Z M89.822,13.224 C89.3086641,13.224 88.8513354,13.1236677 88.45,12.923 C88.0486647,12.7223323 87.7360011,12.4376685 87.512,12.069 C87.2879989,11.7003315 87.176,11.282669 87.176,10.816 C87.176,10.078663 87.4536639,9.49533548 88.009,9.066 C88.5643361,8.63666452 89.2666624,8.422 90.116,8.422 C90.5360021,8.422 90.9139983,8.46166627 91.25,8.541 C91.5860017,8.62033373 91.851999,8.7066662 92.048,8.8 L92.048,8.436 C92.048,7.99733114 91.8846683,7.64033471 91.558,7.365 C91.2313317,7.08966529 90.8113359,6.952 90.298,6.952 C89.9339982,6.952 89.5910016,7.03133254 89.269,7.19 C88.9469984,7.34866746 88.688001,7.5679986 88.492,7.848 L87.414,7.022 C87.7313349,6.58333114 88.1419975,6.24266788 88.646,6 C89.1500025,5.75733212 89.7099969,5.636 90.326,5.636 C91.3620052,5.636 92.1599972,5.89033079 92.72,6.399 C93.2800028,6.90766921 93.56,7.62399538 93.56,8.548 L93.56,13 L92.048,13 L92.048,12.146 L91.978,12.146 C91.7726657,12.4540015 91.4833352,12.7106656 91.11,12.916 C90.7366648,13.1213344 90.3073358,13.224 89.822,13.224 Z M90.088,11.95 C90.4613352,11.95 90.7973319,11.8613342 91.096,11.684 C91.3946682,11.5066658 91.6279992,11.2686682 91.796,10.97 C91.9640009,10.6713318 92.048,10.3493351 92.048,10.004 C91.8333323,9.88266606 91.5836681,9.78466704 91.299,9.71 C91.0143319,9.63533296 90.7180016,9.598 90.41,9.598 C89.8313305,9.598 89.406668,9.71233219 89.136,9.941 C88.865332,10.1696678 88.73,10.4659982 88.73,10.83 C88.73,11.1566683 88.8559988,11.4249989 89.108,11.635 C89.3600013,11.8450011 89.6866647,11.95 90.088,11.95 Z M101.42,13.224 C100.598663,13.224 99.9266693,13.0443351 99.404,12.685 C98.8813308,12.3256649 98.5126678,11.8660028 98.298,11.306 L99.67,10.704 C99.8380009,11.0773352 100.073665,11.361999 100.377,11.558 C100.680335,11.754001 101.027998,11.852 101.42,11.852 C101.802669,11.852 102.124665,11.784334 102.386,11.649 C102.647335,11.513666 102.778,11.310668 102.778,11.04 C102.778,10.7786654 102.666001,10.5733341 102.442,10.424 C102.217999,10.2746659 101.872669,10.1440006 101.406,10.032 L100.552,9.822 C99.9826639,9.6819993 99.5113352,9.43466844 99.138,9.08 C98.7646648,8.72533156 98.578,8.27733604 98.578,7.736 C98.578,7.3159979 98.7016655,6.94733492 98.949,6.63 C99.1963346,6.31266508 99.5299979,6.06766753 99.95,5.895 C100.370002,5.72233247 100.827331,5.636 101.322,5.636 C101.98467,5.636 102.567998,5.76899867 103.072,6.035 C103.576003,6.30100133 103.939999,6.68599748 104.164,7.19 L102.82,7.778 C102.549332,7.22733058 102.05467,6.952 101.336,6.952 C100.990665,6.952 100.701335,7.0219993 100.468,7.162 C100.234666,7.3020007 100.118,7.48399888 100.118,7.708 C100.118,7.92266774 100.206666,8.09766599 100.384,8.233 C100.561334,8.36833401 100.822665,8.4826662 101.168,8.576 L102.218,8.842 C102.918004,9.01933422 103.447665,9.28766487 103.807,9.647 C104.166335,10.0063351 104.346,10.4473307 104.346,10.97 C104.346,11.4180022 104.217668,11.8123316 103.961,12.153 C103.704332,12.4936684 103.352002,12.7573324 102.904,12.944 C102.455998,13.1306676 101.961336,13.224 101.42,13.224 Z M108.43,13.224 C107.561996,13.224 106.901669,12.9650026 106.449,12.447 C105.996331,11.9289974 105.77,11.2080046 105.77,10.284 L105.77,5.86 L107.31,5.86 L107.31,10.074 C107.31,10.6526696 107.447665,11.0866652 107.723,11.376 C107.998335,11.6653348 108.359998,11.81 108.808,11.81 C109.172002,11.81 109.493999,11.7143343 109.774,11.523 C110.054001,11.3316657 110.268666,11.0773349 110.418,10.76 C110.567334,10.4426651 110.642,10.1020018 110.642,9.738 L110.642,5.86 L112.182,5.86 L112.182,13 L110.726,13 L110.726,12.076 L110.642,12.076 C110.445999,12.4120017 110.142669,12.6873323 109.732,12.902 C109.321331,13.1166677 108.887336,13.224 108.43,13.224 Z M114.124,2.976 L115.664,2.976 L115.664,13 L114.124,13 L114.124,2.976 Z M123.972,13.112 C123.654665,13.112 123.356001,13.0606672 123.076,12.958 C122.795999,12.8553328 122.567334,12.7200008 122.39,12.552 C121.988665,12.1506647 121.788,11.6046701 121.788,10.914 L121.788,7.218 L120.542,7.218 L120.542,5.86 L121.788,5.86 L121.788,3.844 L123.328,3.844 L123.328,5.86 L125.064,5.86 L125.064,7.218 L123.328,7.218 L123.328,10.578 C123.328,10.9606686 123.402666,11.2313325 123.552,11.39 C123.692001,11.5766676 123.934665,11.67 124.28,11.67 C124.438668,11.67 124.578666,11.6490002 124.7,11.607 C124.821334,11.5649998 124.951999,11.4973338 125.092,11.404 L125.092,12.902 C124.783999,13.0420007 124.410669,13.112 123.972,13.112 Z M129.666,13.224 C128.965997,13.224 128.338336,13.0606683 127.783,12.734 C127.227664,12.4073317 126.793668,11.9570029 126.481,11.383 C126.168332,10.8089971 126.012,10.1626703 126.012,9.444 C126.012,8.76266326 126.163665,8.13033625 126.467,7.547 C126.770335,6.96366375 127.192664,6.49933506 127.734,6.154 C128.275336,5.80866494 128.89133,5.636 129.582,5.636 C130.30067,5.636 130.923664,5.79466508 131.451,6.112 C131.978336,6.42933492 132.379665,6.86333058 132.655,7.414 C132.930335,7.96466942 133.068,8.58532988 133.068,9.276 C133.068,9.40666732 133.054,9.56999902 133.026,9.766 L127.552,9.766 C127.608,10.42867 127.843665,10.9396649 128.259,11.299 C128.674335,11.6583351 129.157331,11.838 129.708,11.838 C130.146669,11.838 130.526998,11.7376677 130.849,11.537 C131.171002,11.3363323 131.429999,11.0633351 131.626,10.718 L132.928,11.334 C132.591998,11.9220029 132.153336,12.3839983 131.612,12.72 C131.070664,13.0560017 130.422004,13.224 129.666,13.224 Z M131.5,8.59 C131.481333,8.33799874 131.402001,8.08833457 131.262,7.841 C131.122,7.59366543 130.909668,7.38600084 130.625,7.218 C130.340332,7.04999916 129.992669,6.966 129.582,6.966 C129.087331,6.966 128.669668,7.11299853 128.329,7.407 C127.988332,7.70100147 127.752667,8.09533086 127.622,8.59 L131.5,8.59 Z M134.618,2.976 L136.158,2.976 L136.158,13 L134.618,13 L134.618,2.976 Z M141.306,13.224 C140.605997,13.224 139.978336,13.0606683 139.423,12.734 C138.867664,12.4073317 138.433668,11.9570029 138.121,11.383 C137.808332,10.8089971 137.652,10.1626703 137.652,9.444 C137.652,8.76266326 137.803665,8.13033625 138.107,7.547 C138.410335,6.96366375 138.832664,6.49933506 139.374,6.154 C139.915336,5.80866494 140.53133,5.636 141.222,5.636 C141.94067,5.636 142.563664,5.79466508 143.091,6.112 C143.618336,6.42933492 144.019665,6.86333058 144.295,7.414 C144.570335,7.96466942 144.708,8.58532988 144.708,9.276 C144.708,9.40666732 144.694,9.56999902 144.666,9.766 L139.192,9.766 C139.248,10.42867 139.483665,10.9396649 139.899,11.299 C140.314335,11.6583351 140.797331,11.838 141.348,11.838 C141.786669,11.838 142.166998,11.7376677 142.489,11.537 C142.811002,11.3363323 143.069999,11.0633351 143.266,10.718 L144.568,11.334 C144.231998,11.9220029 143.793336,12.3839983 143.252,12.72 C142.710664,13.0560017 142.062004,13.224 141.306,13.224 Z M143.14,8.59 C143.121333,8.33799874 143.042001,8.08833457 142.902,7.841 C142.762,7.59366543 142.549668,7.38600084 142.265,7.218 C141.980332,7.04999916 141.632669,6.966 141.222,6.966 C140.727331,6.966 140.309668,7.11299853 139.969,7.407 C139.628332,7.70100147 139.392667,8.09533086 139.262,8.59 L143.14,8.59 Z M146.916,7.218 L145.614,7.218 L145.614,5.86 L146.916,5.86 L146.916,5.3 C146.916,4.5533296 147.149331,3.96066886 147.616,3.522 C148.082669,3.08333114 148.679996,2.864 149.408,2.864 C149.828002,2.864 150.191999,2.91533282 150.5,3.018 L150.5,4.53 C150.331999,4.46466634 150.175667,4.41100021 150.031,4.369 C149.886333,4.32699979 149.720668,4.306 149.534,4.306 C149.225999,4.306 148.969334,4.40399902 148.764,4.6 C148.558666,4.79600098 148.456,5.06666494 148.456,5.412 L148.456,5.86 L150.248,5.86 L150.248,7.218 L148.456,7.218 L148.456,13 L146.916,13 L146.916,7.218 Z M154.766,13.224 C154.04733,13.224 153.403336,13.058335 152.834,12.727 C152.264664,12.395665 151.821335,11.9406696 151.504,11.362 C151.186665,10.7833304 151.028,10.1393369 151.028,9.43 C151.028,8.72066312 151.186665,8.07666956 151.504,7.498 C151.821335,6.91933044 152.264664,6.46433499 152.834,6.133 C153.403336,5.80166501 154.04733,5.636 154.766,5.636 C155.48467,5.636 156.128664,5.80399832 156.698,6.14 C157.267336,6.47600168 157.710665,6.93333044 158.028,7.512 C158.345335,8.09066956 158.504,8.7299965 158.504,9.43 C158.504,10.1393369 158.345335,10.7833304 158.028,11.362 C157.710665,11.9406696 157.267336,12.395665 156.698,12.727 C156.128664,13.058335 155.48467,13.224 154.766,13.224 Z M154.766,11.81 C155.158002,11.81 155.521998,11.7143343 155.858,11.523 C156.194002,11.3316657 156.462332,11.0563351 156.663,10.697 C156.863668,10.3376649 156.964,9.91533576 156.964,9.43 C156.964,8.94466424 156.863668,8.52466844 156.663,8.17 C156.462332,7.81533156 156.194002,7.54233429 155.858,7.351 C155.521998,7.15966571 155.158002,7.064 154.766,7.064 C154.373998,7.064 154.010002,7.15966571 153.674,7.351 C153.337998,7.54233429 153.069668,7.81533156 152.869,8.17 C152.668332,8.52466844 152.568,8.94466424 152.568,9.43 C152.568,9.91533576 152.668332,10.3376649 152.869,10.697 C153.069668,11.0563351 153.337998,11.3316657 153.674,11.523 C154.010002,11.7143343 154.373998,11.81 154.766,11.81 Z M159.928,5.86 L161.398,5.86 L161.398,6.798 L161.468,6.798 C161.673334,6.46199832 161.978998,6.18433443 162.385,5.965 C162.791002,5.74566557 163.222664,5.636 163.68,5.636 C164.548004,5.636 165.208331,5.89033079 165.661,6.399 C166.113669,6.90766921 166.34,7.60066228 166.34,8.478 L166.34,13 L164.8,13 L164.8,8.688 C164.8,8.1279972 164.662335,7.71733464 164.387,7.456 C164.111665,7.19466536 163.731336,7.064 163.246,7.064 C162.900665,7.064 162.592668,7.15966571 162.322,7.351 C162.051332,7.54233429 161.841334,7.79666508 161.692,8.114 C161.542666,8.43133492 161.468,8.77199818 161.468,9.136 L161.468,13 L159.928,13 L159.928,5.86 Z M171.572,13.224 C170.85333,13.224 170.209336,13.058335 169.64,12.727 C169.070664,12.395665 168.627335,11.9406696 168.31,11.362 C167.992665,10.7833304 167.834,10.1393369 167.834,9.43 C167.834,8.72066312 167.992665,8.07666956 168.31,7.498 C168.627335,6.91933044 169.070664,6.46433499 169.64,6.133 C170.209336,5.80166501 170.85333,5.636 171.572,5.636 C172.29067,5.636 172.934664,5.80399832 173.504,6.14 C174.073336,6.47600168 174.516665,6.93333044 174.834,7.512 C175.151335,8.09066956 175.31,8.7299965 175.31,9.43 C175.31,10.1393369 175.151335,10.7833304 174.834,11.362 C174.516665,11.9406696 174.073336,12.395665 173.504,12.727 C172.934664,13.058335 172.29067,13.224 171.572,13.224 Z M171.572,11.81 C171.964002,11.81 172.327998,11.7143343 172.664,11.523 C173.000002,11.3316657 173.268332,11.0563351 173.469,10.697 C173.669668,10.3376649 173.77,9.91533576 173.77,9.43 C173.77,8.94466424 173.669668,8.52466844 173.469,8.17 C173.268332,7.81533156 173.000002,7.54233429 172.664,7.351 C172.327998,7.15966571 171.964002,7.064 171.572,7.064 C171.179998,7.064 170.816002,7.15966571 170.48,7.351 C170.143998,7.54233429 169.875668,7.81533156 169.675,8.17 C169.474332,8.52466844 169.374,8.94466424 169.374,9.43 C169.374,9.91533576 169.474332,10.3376649 169.675,10.697 C169.875668,11.0563351 170.143998,11.3316657 170.48,11.523 C170.816002,11.7143343 171.179998,11.81 171.572,11.81 Z" id="Salvasultelefono" fill="#3C4043" fill-rule="nonzero"></path>
                    <rect id="Rectangle" fill="#202124" opacity="0.100000001" x="50" y="0" width="1" height="16"></rect>
                    <g id="Gpay-logo-18px-h-Copy-2">
                        <g id="GPay" transform="translate(0.000000, 0.261474)">
                            <g id="Pay" transform="translate(17.615069, 0.825706)" fill="#5F6368">
                                <path d="M1.64941186,1.54761702 L1.64941186,5.63067176 L4.1674047,5.63067176 C4.76721599,5.63067176 5.26322816,5.42908551 5.65562807,5.02591302 C6.05830511,4.6236738 6.26011078,4.1439732 6.26011078,3.58867775 C6.26011078,3.04458155 6.05830511,2.57048056 5.65562807,2.16730807 C5.26322816,1.75386962 4.76721599,1.54668375 4.1674047,1.54668375 L1.64941186,1.54668375 L1.64941186,1.54761702 Z M1.64941186,7.06790702 L1.64941186,11.8042505 L0.145212207,11.8042505 L0.145212207,0.110381756 L4.13461128,0.110381756 C5.14840447,0.110381756 6.00888141,0.448225371 6.71791067,1.12297933 C7.43740394,1.79773329 7.79701042,2.61994385 7.79701042,3.58867775 C7.79701042,4.57981013 7.43731051,5.40762031 6.71791067,6.07117503 C6.01999941,6.73566302 5.15858818,7.06697375 4.13461128,7.06697375 L1.64941186,7.06697375 L1.64941186,7.06790702 Z" id="Fill-1"></path>
                                <path d="M9.31707424,9.35440834 C9.31707424,9.74638159 9.48337706,10.073026 9.81607612,10.3343415 C10.1485883,10.595657 10.5381854,10.7263147 10.9848673,10.7263147 C11.6172851,10.7263147 12.1806593,10.4919707 12.6767649,10.024496 C13.1729639,9.55599458 13.4204561,9.00629876 13.4204561,8.37540847 C12.9514448,8.00490042 12.297445,7.82011303 11.4584566,7.82011303 C10.8475273,7.82011303 10.3383417,7.96756963 9.93005895,8.26154958 C9.52168276,8.55543619 9.31707424,8.91857141 9.31707424,9.35440834 M11.2631909,3.5401384 C12.3749907,3.5401384 13.2522848,3.83691815 13.8961009,4.43047765 C14.5388893,5.02403715 14.8601901,5.83784829 14.8601901,6.87191106 L14.8601901,11.8042412 L13.4214839,11.8042412 L13.4214839,10.6936503 L13.3559904,10.6936503 C12.7346906,11.6081612 11.9059794,12.0655567 10.8708844,12.0655567 C9.98798466,12.0655567 9.24896483,11.8042412 8.65560011,11.2816102 C8.06148796,10.7589792 7.76438517,10.1056904 7.76438517,9.3217439 C7.76438517,8.49393372 8.07727739,7.83588529 8.70418295,7.34601205 C9.33108852,6.85604548 10.1673675,6.61059556 11.2137672,6.61059556 C12.1068507,6.61059556 12.8430677,6.77391775 13.4204561,7.10056213 L13.4204561,6.75711889 C13.4204561,6.23448789 13.2130448,5.7911848 12.7992497,5.42627637 C12.3843335,5.06136793 11.9003736,4.87938035 11.3444738,4.87938035 C10.5045511,4.87938035 9.84036755,5.23308955 9.34986766,5.94144122 L8.0249574,5.10803142 C8.75556866,4.06276941 9.83466841,3.5401384 11.2631909,3.5401384" id="Fill-3"></path>
                                <polygon id="Fill-5" points="23.1164897 3.8014539 18.0966672 15.3320005 16.5437912 15.3320005 18.4077842 11.2974758 15.1049916 3.8014539 16.7399912 3.8014539 19.1270906 9.55039497 19.1597906 9.55039497 21.4814901 3.8014539"></polygon>
                            </g>
                            <g id="G">
                                <path d="M13.1865148,6.87260706 C13.1865148,6.39943935 13.1463406,5.94307048 13.0706634,5.50630029 L6.72686492,5.50630029 L6.72686492,8.09425704 L10.3603012,8.09425704 C10.2042755,8.93783948 9.73246136,9.65561717 9.01679867,10.136251 L9.01679867,11.8170697 L11.1852753,11.8170697 C12.4549693,10.6467495 13.1865148,8.91740087 13.1865148,6.87260706" id="Fill-8" fill="#4285F4"></path>
                                <path d="M6.72685557,13.439083 C8.54217229,13.439083 10.0706634,12.843657 11.185266,11.8170603 L9.01678933,10.1362417 C8.4132409,10.542214 7.63591536,10.7792645 6.72685557,10.7792645 C4.97226741,10.7792645 3.48301633,9.59774511 2.9504736,8.00558709 L0.716596976,8.00558709 L0.716596976,9.73680229 C1.82372529,11.9318525 4.09871047,13.439083 6.72685557,13.439083" id="Fill-10" fill="#34A853"></path>
                                <path d="M2.95048294,8.00556842 C2.81407726,7.59959612 2.73933442,7.166559 2.73933442,6.71952284 C2.73933442,6.27248667 2.81407726,5.83944956 2.95048294,5.43347726 L2.95048294,3.70226205 L0.716606319,3.70226205 C0.258806425,4.60940015 9.34285496e-06,5.63413023 9.34285496e-06,6.71952284 C9.34285496e-06,7.80491544 0.258806425,8.82973885 0.716606319,9.73678363 L2.95048294,8.00556842 Z" id="Fill-12" fill="#FABB05"></path>
                                <path d="M6.72685557,2.65981851 C7.71813249,2.65981851 8.60663799,3.00046194 9.30735212,3.66774974 L9.30735212,3.66868301 L11.2273088,1.75081387 C10.0613205,0.666354532 8.54123801,0 6.72685557,0 C4.09871047,0 1.82372529,1.50723049 0.716596976,3.70228071 L2.9504736,5.43349592 C3.48301633,3.84133789 4.97226741,2.65981851 6.72685557,2.65981851" id="Fill-14" fill="#E94235"></path>
                            </g>
                        </g>
                    </g>
                </g>
            </g>
        </g>
    </g>
</svg>