<?xml version="1.0" encoding="UTF-8"?>
<svg width="288px" height="44px" viewBox="0 0 288 44" version="1.1" xmlns="http://www.w3.org/2000/svg" xmlns:xlink="http://www.w3.org/1999/xlink">
    <!-- Generator: Sketch 58 (84663) - https://sketch.com -->
    <title>Save to Google Pay - Korean (Light)</title>
    <desc>Created with Sketch.</desc>
    <defs>
        <path d="M4,0 L276,0 C278.209139,-4.05812251e-16 280,1.790861 280,4 L280,32 C280,34.209139 278.209139,36 276,36 L4,36 C1.790861,36 2.705415e-16,34.209139 0,32 L0,4 C-2.705415e-16,1.790861 1.790861,4.05812251e-16 4,0 Z" id="path-1"></path>
        <filter x="-2.3%" y="-15.3%" width="104.6%" height="136.1%" filterUnits="objectBoundingBox" id="filter-2">
            <feMorphology radius="0.5" operator="dilate" in="SourceAlpha" result="shadowSpreadOuter1"></feMorphology>
            <feOffset dx="0" dy="1" in="shadowSpreadOuter1" result="shadowOffsetOuter1"></feOffset>
            <feGaussianBlur stdDeviation="1.5" in="shadowOffsetOuter1" result="shadowBlurOuter1"></feGaussianBlur>
            <feColorMatrix values="0 0 0 0 0.235294118   0 0 0 0 0.250980392   0 0 0 0 0.262745098  0 0 0 0.15 0" type="matrix" in="shadowBlurOuter1" result="shadowMatrixOuter1"></feColorMatrix>
            <feOffset dx="0" dy="1" in="SourceAlpha" result="shadowOffsetOuter2"></feOffset>
            <feGaussianBlur stdDeviation="0.5" in="shadowOffsetOuter2" result="shadowBlurOuter2"></feGaussianBlur>
            <feColorMatrix values="0 0 0 0 0.235294118   0 0 0 0 0.250980392   0 0 0 0 0.262745098  0 0 0 0.3 0" type="matrix" in="shadowBlurOuter2" result="shadowMatrixOuter2"></feColorMatrix>
            <feMerge>
                <feMergeNode in="shadowMatrixOuter1"></feMergeNode>
                <feMergeNode in="shadowMatrixOuter2"></feMergeNode>
            </feMerge>
        </filter>
    </defs>
    <g id="Buttons-(Save-to-phone)" stroke="none" stroke-width="1" fill="none" fill-rule="evenodd">
        <g id="Language-Variations-Copy" transform="translate(-192.000000, -1206.000000)">
            <g id="Save-to-Google-Pay---Korean-(Light)" transform="translate(196.000000, 1209.000000)">
                <g id="bg-copy-21">
                    <use fill="black" fill-opacity="1" filter="url(#filter-2)" xlink:href="#path-1"></use>
                    <use fill="#FFFFFF" fill-rule="evenodd" xlink:href="#path-1"></use>
                </g>
                <g id="buttonContent" transform="translate(58.000000, 10.000000)">
                    <path d="M70.672,8.044 C68.796,7.624 66.108,5.734 66.108,3.732 L66.108,2.766 L65.002,2.766 L65.002,3.732 C65.002,5.734 62.454,7.624 60.466,8.016 L61.026,8.926 C63.154,8.324 65.1,6.588 65.534,5.342 C66.038,6.588 68.026,8.324 70.084,8.94 L70.672,8.044 Z M71.078,12.3 L71.078,11.404 L60.032,11.404 L60.032,12.3 L71.078,12.3 Z M78.396,10.9 L78.396,3.004 L72.67,3.004 L72.67,10.9 L78.396,10.9 Z M77.332,10.018 L73.734,10.018 L73.734,3.886 L77.332,3.886 L77.332,10.018 Z M83.702,7.568 L83.702,6.672 L81.7,6.672 L81.7,1.744 L80.636,1.744 L80.636,13.98 L81.7,13.98 L81.7,7.568 L83.702,7.568 Z M93.918,6.49 L93.918,5.594 L86.974,5.594 L86.974,3.816 L94.156,3.816 L94.156,2.92 L85.896,2.92 L85.896,9.29 L94.282,9.29 L94.282,8.394 L86.974,8.394 L86.974,6.49 L93.918,6.49 Z M95.598,12.426 L95.598,11.53 L84.552,11.53 L84.552,12.426 L95.598,12.426 Z M107.858,9.444 L107.858,8.548 L102.846,8.548 L102.846,7.092 L106.78,7.092 L106.78,6.224 L104.764,6.224 L105.156,3.858 L104.064,3.704 L103.742,6.224 L100.858,6.224 L100.578,3.732 L99.472,3.872 L99.85,6.224 L97.834,6.224 L97.834,7.092 L101.782,7.092 L101.782,8.548 L96.812,8.548 L96.812,9.444 L107.858,9.444 Z M106.584,13.602 L106.584,12.706 L99.248,12.706 L99.248,10.312 L98.184,10.312 L98.184,13.602 L106.584,13.602 Z M106.78,3.242 L106.78,2.36 L97.82,2.36 L97.82,3.242 L106.78,3.242 Z M111.956,2.808 C110.178,2.808 109.268,4.544 109.268,6.994 C109.268,9.458 110.178,11.18 111.956,11.18 C113.636,11.18 114.532,9.682 114.644,7.47 L115.96,7.47 L115.96,13.392 L116.996,13.392 L116.996,1.982 L115.96,1.982 L115.96,6.588 L114.644,6.588 C114.56,4.362 113.65,2.808 111.956,2.808 Z M113.594,6.994 C113.594,8.982 112.95,10.242 111.956,10.242 C110.976,10.242 110.346,8.982 110.346,6.994 C110.346,5.02 110.976,3.746 111.956,3.746 C112.95,3.746 113.594,5.02 113.594,6.994 Z M119.39,13.98 L119.39,1.744 L118.34,1.744 L118.34,13.98 L119.39,13.98 Z M132.833648,10.48 C131.139648,9.556 129.585648,7.61 129.585648,5.328 L129.585648,3.928 L132.399648,3.928 L132.399648,3.032 L125.609648,3.032 L125.609648,3.928 L128.479648,3.928 L128.479648,5.356 C128.479648,7.568 126.995648,9.696 125.189648,10.76 L125.903648,11.558 C127.359648,10.55 128.633648,9.038 129.039648,7.554 C129.515648,9.01 131.013648,10.564 132.175648,11.32 L132.833648,10.48 Z M134.303648,7.064 L134.303648,13.98 L135.367648,13.98 L135.367648,1.744 L134.303648,1.744 L134.303648,6.154 L131.741648,6.154 L131.741648,7.064 L134.303648,7.064 Z M147.207648,11.642 C147.207648,10.172 145.653648,9.29 143.091648,9.29 C140.529648,9.29 138.989648,10.172 138.989648,11.642 C138.989648,13.084 140.529648,13.966 143.091648,13.966 C145.653648,13.966 147.207648,13.084 147.207648,11.642 Z M137.701648,3.522 L140.515648,3.522 L140.512019,3.80459259 C140.507871,3.97466667 140.501648,4.10533333 140.501648,4.18 C140.445648,5.804 138.891648,7.344 137.351648,7.932 L137.967648,8.758 C139.283648,8.198 140.711648,6.882 141.047648,5.734 C141.551648,6.84 142.797648,7.946 143.973648,8.422 L144.561648,7.568 C143.219982,7.12525 141.826885,5.87246875 141.626869,4.38878573 L141.607648,4.194 C141.593648,4.068 141.593648,3.83 141.593648,3.522 L144.379648,3.522 L144.379648,2.626 L137.701648,2.626 L137.701648,3.522 Z M146.115648,11.642 C146.115648,12.552 144.939648,13.084 143.091648,13.084 C141.243648,13.084 140.095648,12.552 140.095648,11.642 C140.095648,10.69 141.243648,10.186 143.091648,10.186 C144.939648,10.186 146.115648,10.69 146.115648,11.642 Z M148.929648,6.028 L147.039648,6.028 L147.039648,9.262 L145.975648,9.262 L145.975648,1.744 L147.039648,1.744 L147.039648,5.132 L148.929648,5.132 L148.929648,6.028 Z" id="스마트폰에저장" fill="#3C4043" fill-rule="nonzero"></path>
                    <rect id="Rectangle" fill="#202124" opacity="0.100000001" x="50" y="0" width="1" height="16"></rect>
                    <g id="Gpay-logo-18px-h-Copy-17" transform="translate(0.000000, 1.000000)">
                        <g id="GPay" transform="translate(0.000000, 0.261474)">
                            <g id="Pay" transform="translate(17.615069, 0.825706)" fill="#5F6368">
                                <path d="M1.64941186,1.54761702 L1.64941186,5.63067176 L4.1674047,5.63067176 C4.76721599,5.63067176 5.26322816,5.42908551 5.65562807,5.02591302 C6.05830511,4.6236738 6.26011078,4.1439732 6.26011078,3.58867775 C6.26011078,3.04458155 6.05830511,2.57048056 5.65562807,2.16730807 C5.26322816,1.75386962 4.76721599,1.54668375 4.1674047,1.54668375 L1.64941186,1.54668375 L1.64941186,1.54761702 Z M1.64941186,7.06790702 L1.64941186,11.8042505 L0.145212207,11.8042505 L0.145212207,0.110381756 L4.13461128,0.110381756 C5.14840447,0.110381756 6.00888141,0.448225371 6.71791067,1.12297933 C7.43740394,1.79773329 7.79701042,2.61994385 7.79701042,3.58867775 C7.79701042,4.57981013 7.43731051,5.40762031 6.71791067,6.07117503 C6.01999941,6.73566302 5.15858818,7.06697375 4.13461128,7.06697375 L1.64941186,7.06697375 L1.64941186,7.06790702 Z" id="Fill-1"></path>
                                <path d="M9.31707424,9.35440834 C9.31707424,9.74638159 9.48337706,10.073026 9.81607612,10.3343415 C10.1485883,10.595657 10.5381854,10.7263147 10.9848673,10.7263147 C11.6172851,10.7263147 12.1806593,10.4919707 12.6767649,10.024496 C13.1729639,9.55599458 13.4204561,9.00629876 13.4204561,8.37540847 C12.9514448,8.00490042 12.297445,7.82011303 11.4584566,7.82011303 C10.8475273,7.82011303 10.3383417,7.96756963 9.93005895,8.26154958 C9.52168276,8.55543619 9.31707424,8.91857141 9.31707424,9.35440834 M11.2631909,3.5401384 C12.3749907,3.5401384 13.2522848,3.83691815 13.8961009,4.43047765 C14.5388893,5.02403715 14.8601901,5.83784829 14.8601901,6.87191106 L14.8601901,11.8042412 L13.4214839,11.8042412 L13.4214839,10.6936503 L13.3559904,10.6936503 C12.7346906,11.6081612 11.9059794,12.0655567 10.8708844,12.0655567 C9.98798466,12.0655567 9.24896483,11.8042412 8.65560011,11.2816102 C8.06148796,10.7589792 7.76438517,10.1056904 7.76438517,9.3217439 C7.76438517,8.49393372 8.07727739,7.83588529 8.70418295,7.34601205 C9.33108852,6.85604548 10.1673675,6.61059556 11.2137672,6.61059556 C12.1068507,6.61059556 12.8430677,6.77391775 13.4204561,7.10056213 L13.4204561,6.75711889 C13.4204561,6.23448789 13.2130448,5.7911848 12.7992497,5.42627637 C12.3843335,5.06136793 11.9003736,4.87938035 11.3444738,4.87938035 C10.5045511,4.87938035 9.84036755,5.23308955 9.34986766,5.94144122 L8.0249574,5.10803142 C8.75556866,4.06276941 9.83466841,3.5401384 11.2631909,3.5401384" id="Fill-3"></path>
                                <polygon id="Fill-5" points="23.1164897 3.8014539 18.0966672 15.3320005 16.5437912 15.3320005 18.4077842 11.2974758 15.1049916 3.8014539 16.7399912 3.8014539 19.1270906 9.55039497 19.1597906 9.55039497 21.4814901 3.8014539"></polygon>
                            </g>
                            <g id="G">
                                <path d="M13.1865148,6.87260706 C13.1865148,6.39943935 13.1463406,5.94307048 13.0706634,5.50630029 L6.72686492,5.50630029 L6.72686492,8.09425704 L10.3603012,8.09425704 C10.2042755,8.93783948 9.73246136,9.65561717 9.01679867,10.136251 L9.01679867,11.8170697 L11.1852753,11.8170697 C12.4549693,10.6467495 13.1865148,8.91740087 13.1865148,6.87260706" id="Fill-8" fill="#4285F4"></path>
                                <path d="M6.72685557,13.439083 C8.54217229,13.439083 10.0706634,12.843657 11.185266,11.8170603 L9.01678933,10.1362417 C8.4132409,10.542214 7.63591536,10.7792645 6.72685557,10.7792645 C4.97226741,10.7792645 3.48301633,9.59774511 2.9504736,8.00558709 L0.716596976,8.00558709 L0.716596976,9.73680229 C1.82372529,11.9318525 4.09871047,13.439083 6.72685557,13.439083" id="Fill-10" fill="#34A853"></path>
                                <path d="M2.95048294,8.00556842 C2.81407726,7.59959612 2.73933442,7.166559 2.73933442,6.71952284 C2.73933442,6.27248667 2.81407726,5.83944956 2.95048294,5.43347726 L2.95048294,3.70226205 L0.716606319,3.70226205 C0.258806425,4.60940015 9.34285496e-06,5.63413023 9.34285496e-06,6.71952284 C9.34285496e-06,7.80491544 0.258806425,8.82973885 0.716606319,9.73678363 L2.95048294,8.00556842 Z" id="Fill-12" fill="#FABB05"></path>
                                <path d="M6.72685557,2.65981851 C7.71813249,2.65981851 8.60663799,3.00046194 9.30735212,3.66774974 L9.30735212,3.66868301 L11.2273088,1.75081387 C10.0613205,0.666354532 8.54123801,0 6.72685557,0 C4.09871047,0 1.82372529,1.50723049 0.716596976,3.70228071 L2.9504736,5.43349592 C3.48301633,3.84133789 4.97226741,2.65981851 6.72685557,2.65981851" id="Fill-14" fill="#E94235"></path>
                            </g>
                        </g>
                    </g>
                </g>
            </g>
        </g>
    </g>
</svg>