<?xml version="1.0" encoding="UTF-8"?>
<svg width="288px" height="44px" viewBox="0 0 288 44" version="1.1" xmlns="http://www.w3.org/2000/svg" xmlns:xlink="http://www.w3.org/1999/xlink">
    <!-- Generator: Sketch 58 (84663) - https://sketch.com -->
    <title>Save to Google Pay - Norwegian (Light)</title>
    <desc>Created with Sketch.</desc>
    <defs>
        <path d="M4,0 L276,0 C278.209139,-4.05812251e-16 280,1.790861 280,4 L280,32 C280,34.209139 278.209139,36 276,36 L4,36 C1.790861,36 2.705415e-16,34.209139 0,32 L0,4 C-2.705415e-16,1.790861 1.790861,4.05812251e-16 4,0 Z" id="path-1"></path>
        <filter x="-2.3%" y="-15.3%" width="104.6%" height="136.1%" filterUnits="objectBoundingBox" id="filter-2">
            <feMorphology radius="0.5" operator="dilate" in="SourceAlpha" result="shadowSpreadOuter1"></feMorphology>
            <feOffset dx="0" dy="1" in="shadowSpreadOuter1" result="shadowOffsetOuter1"></feOffset>
            <feGaussianBlur stdDeviation="1.5" in="shadowOffsetOuter1" result="shadowBlurOuter1"></feGaussianBlur>
            <feColorMatrix values="0 0 0 0 0.235294118   0 0 0 0 0.250980392   0 0 0 0 0.262745098  0 0 0 0.15 0" type="matrix" in="shadowBlurOuter1" result="shadowMatrixOuter1"></feColorMatrix>
            <feOffset dx="0" dy="1" in="SourceAlpha" result="shadowOffsetOuter2"></feOffset>
            <feGaussianBlur stdDeviation="0.5" in="shadowOffsetOuter2" result="shadowBlurOuter2"></feGaussianBlur>
            <feColorMatrix values="0 0 0 0 0.235294118   0 0 0 0 0.250980392   0 0 0 0 0.262745098  0 0 0 0.3 0" type="matrix" in="shadowBlurOuter2" result="shadowMatrixOuter2"></feColorMatrix>
            <feMerge>
                <feMergeNode in="shadowMatrixOuter1"></feMergeNode>
                <feMergeNode in="shadowMatrixOuter2"></feMergeNode>
            </feMerge>
        </filter>
    </defs>
    <g id="Buttons-(Save-to-phone)" stroke="none" stroke-width="1" fill="none" fill-rule="evenodd">
        <g id="Language-Variations---Flattened" transform="translate(-192.000000, -1078.000000)">
            <g id="Save-to-Google-Pay---Norwegian-(Light)" transform="translate(196.000000, 1081.000000)">
                <g id="bg">
                    <use fill="black" fill-opacity="1" filter="url(#filter-2)" xlink:href="#path-1"></use>
                    <use fill="#FFFFFF" fill-rule="evenodd" xlink:href="#path-1"></use>
                </g>
                <g id="buttonContent" transform="translate(48.000000, 10.000000)">
                    <path d="M60.648,2.976 L62.216,2.976 L62.216,11.502 L66.514,11.502 L66.514,13 L60.648,13 L60.648,2.976 Z M70.234,13.224 C69.7206641,13.224 69.2633353,13.1236677 68.862,12.923 C68.4606647,12.7223323 68.1480011,12.4376685 67.924,12.069 C67.6999989,11.7003315 67.588,11.282669 67.588,10.816 C67.588,10.078663 67.8656639,9.49533548 68.421,9.066 C68.9763361,8.63666452 69.6786624,8.422 70.528,8.422 C70.9480021,8.422 71.3259983,8.46166627 71.662,8.541 C71.9980017,8.62033373 72.263999,8.7066662 72.46,8.8 L72.46,8.436 C72.46,7.99733114 72.2966683,7.64033471 71.97,7.365 C71.6433317,7.08966529 71.2233359,6.952 70.71,6.952 C70.3459982,6.952 70.0030016,7.03133254 69.681,7.19 C69.3589984,7.34866746 69.100001,7.5679986 68.904,7.848 L67.826,7.022 C68.1433349,6.58333114 68.5539975,6.24266788 69.058,6 C69.5620025,5.75733212 70.1219969,5.636 70.738,5.636 C71.7740052,5.636 72.5719972,5.89033079 73.132,6.399 C73.6920028,6.90766921 73.972,7.62399538 73.972,8.548 L73.972,13 L72.46,13 L72.46,12.146 L72.39,12.146 C72.1846656,12.4540015 71.8953352,12.7106656 71.522,12.916 C71.1486648,13.1213344 70.7193358,13.224 70.234,13.224 Z M70.5,11.95 C70.8733352,11.95 71.2093318,11.8613342 71.508,11.684 C71.8066682,11.5066658 72.0399992,11.2686682 72.208,10.97 C72.3760008,10.6713318 72.46,10.3493351 72.46,10.004 C72.2453323,9.88266606 71.9956681,9.78466704 71.711,9.71 C71.4263319,9.63533296 71.1300015,9.598 70.822,9.598 C70.2433304,9.598 69.818668,9.71233219 69.548,9.941 C69.277332,10.1696678 69.142,10.4659982 69.142,10.83 C69.142,11.1566683 69.2679987,11.4249989 69.52,11.635 C69.7720013,11.845001 70.0986647,11.95 70.5,11.95 Z M78.952,16.248 C78.0746623,16.248 77.3490029,16.0473353 76.775,15.646 C76.2009971,15.2446647 75.816001,14.7686694 75.62,14.218 L77.062,13.616 C77.2113341,13.9893352 77.451665,14.2903322 77.783,14.519 C78.114335,14.7476678 78.5039978,14.862 78.952,14.862 C79.6053366,14.862 80.1163315,14.6683353 80.485,14.281 C80.8536685,13.8936647 81.038,13.3500035 81.038,12.65 L81.038,11.992 L80.954,11.992 C80.7206655,12.3280017 80.4103353,12.5916657 80.023,12.783 C79.6356647,12.9743343 79.1900025,13.07 78.686,13.07 C78.0886637,13.07 77.5333359,12.9160015 77.02,12.608 C76.5066641,12.2999985 76.0983349,11.8636695 75.795,11.299 C75.4916652,10.7343305 75.34,10.0880036 75.34,9.36 C75.34,8.63199636 75.4916652,7.98566949 75.795,7.421 C76.0983349,6.85633051 76.5066641,6.41766823 77.02,6.105 C77.5333359,5.79233177 78.0886637,5.636 78.686,5.636 C79.1806692,5.636 79.6239981,5.73399902 80.016,5.93 C80.408002,6.12600098 80.7206655,6.39199832 80.954,6.728 L81.038,6.728 L81.038,5.86 L82.508,5.86 L82.508,12.608 C82.508,13.3826705 82.3586682,14.0429973 82.06,14.589 C81.7613319,15.1350027 81.3436694,15.5479986 80.807,15.828 C80.2703307,16.1080014 79.6520035,16.248 78.952,16.248 Z M78.966,11.67 C79.3393352,11.67 79.6846651,11.5790009 80.002,11.397 C80.3193349,11.2149991 80.5713324,10.9490018 80.758,10.599 C80.9446676,10.2489982 81.038,9.83600238 81.038,9.36 C81.038,8.63199636 80.8396687,8.06500203 80.443,7.659 C80.0463314,7.25299797 79.554003,7.05 78.966,7.05 C78.5833314,7.05 78.2333349,7.14099909 77.916,7.323 C77.5986651,7.50500091 77.3466676,7.76866494 77.16,8.114 C76.9733324,8.45933506 76.88,8.87466424 76.88,9.36 C76.88,9.84533576 76.9733324,10.2606649 77.16,10.606 C77.3466676,10.9513351 77.5986651,11.2149991 77.916,11.397 C78.2333349,11.5790009 78.5833314,11.67 78.966,11.67 Z M84.464,5.86 L85.934,5.86 L85.934,6.91 L86.004,6.91 C86.1626675,6.54599818 86.4379981,6.24500119 86.83,6.007 C87.222002,5.76899881 87.6373312,5.65 88.076,5.65 C88.4213351,5.65 88.7106655,5.6966662 88.944,5.79 L88.944,7.386 C88.5333313,7.23666592 88.1646683,7.162 87.838,7.162 C87.4833316,7.162 87.1683347,7.2553324 86.893,7.442 C86.6176653,7.6286676 86.4006675,7.87833177 86.242,8.191 C86.0833326,8.50366823 86.004,8.8466648 86.004,9.22 L86.004,13 L84.464,13 L84.464,5.86 Z M93.112,13.224 C92.4119965,13.224 91.7843361,13.0606683 91.229,12.734 C90.6736639,12.4073317 90.2396683,11.9570029 89.927,11.383 C89.6143318,10.8089971 89.458,10.1626703 89.458,9.444 C89.458,8.76266326 89.6096652,8.13033625 89.913,7.547 C90.2163349,6.96366375 90.638664,6.49933506 91.18,6.154 C91.7213361,5.80866494 92.3373299,5.636 93.028,5.636 C93.7466703,5.636 94.3696641,5.79466508 94.897,6.112 C95.424336,6.42933492 95.8256653,6.86333058 96.101,7.414 C96.3763347,7.96466942 96.514,8.58532988 96.514,9.276 C96.514,9.40666732 96.5000002,9.56999902 96.472,9.766 L90.998,9.766 C91.0540003,10.42867 91.2896646,10.9396649 91.705,11.299 C92.1203354,11.6583351 92.6033306,11.838 93.154,11.838 C93.5926689,11.838 93.9729984,11.7376677 94.295,11.537 C94.6170016,11.3363323 94.875999,11.0633351 95.072,10.718 L96.374,11.334 C96.0379983,11.9220029 95.5993361,12.3839983 95.058,12.72 C94.516664,13.0560017 93.8680038,13.224 93.112,13.224 Z M94.946,8.59 C94.9273333,8.33799874 94.8480007,8.08833457 94.708,7.841 C94.568,7.59366543 94.3556681,7.38600084 94.071,7.218 C93.7863319,7.04999916 93.4386687,6.966 93.028,6.966 C92.5333309,6.966 92.1156684,7.11299853 91.775,7.407 C91.4343317,7.70100147 91.1986673,8.09533086 91.068,8.59 L94.946,8.59 Z M101.434,5.86 L102.904,5.86 L102.904,6.798 L102.974,6.798 C103.179334,6.4713317 103.482665,6.19600112 103.884,5.972 C104.285335,5.74799888 104.737998,5.636 105.242,5.636 C105.886003,5.636 106.469331,5.7993317 106.992,6.126 C107.514669,6.4526683 107.927665,6.90299713 108.231,7.477 C108.534335,8.05100287 108.686,8.70199636 108.686,9.43 C108.686,10.1580036 108.534335,10.8089971 108.231,11.383 C107.927665,11.9570029 107.514669,12.4073317 106.992,12.734 C106.469331,13.0606683 105.886003,13.224 105.242,13.224 C104.737998,13.224 104.285335,13.1120011 103.884,12.888 C103.482665,12.6639989 103.179334,12.3933349 102.974,12.076 L102.904,12.076 L102.974,13.07 L102.974,16.024 L101.434,16.024 L101.434,5.86 Z M105.018,11.81 C105.391335,11.81 105.741332,11.712001 106.068,11.516 C106.394668,11.319999 106.655999,11.0400018 106.852,10.676 C107.048001,10.3119982 107.146,9.896669 107.146,9.43 C107.146,8.963331 107.048001,8.55033513 106.852,8.191 C106.655999,7.83166487 106.394668,7.55400098 106.068,7.358 C105.741332,7.16199902 105.391335,7.064 105.018,7.064 C104.644665,7.064 104.297002,7.16199902 103.975,7.358 C103.652998,7.55400098 103.394001,7.83166487 103.198,8.191 C103.001999,8.55033513 102.904,8.963331 102.904,9.43 C102.904,9.896669 103.001999,10.3119982 103.198,10.676 C103.394001,11.0400018 103.652998,11.319999 103.975,11.516 C104.297002,11.712001 104.644665,11.81 105.018,11.81 Z M112.476,13.224 C111.962664,13.224 111.505335,13.1236677 111.104,12.923 C110.702665,12.7223323 110.390001,12.4376685 110.166,12.069 C109.941999,11.7003315 109.83,11.282669 109.83,10.816 C109.83,10.078663 110.107664,9.49533548 110.663,9.066 C111.218336,8.63666452 111.920662,8.422 112.77,8.422 C113.190002,8.422 113.567998,8.46166627 113.904,8.541 C114.240002,8.62033373 114.505999,8.7066662 114.702,8.8 L114.702,8.436 C114.702,7.99733114 114.538668,7.64033471 114.212,7.365 C113.885332,7.08966529 113.465336,6.952 112.952,6.952 C112.587998,6.952 112.245002,7.03133254 111.923,7.19 C111.600998,7.34866746 111.342001,7.5679986 111.146,7.848 L110.068,7.022 C110.385335,6.58333114 110.795998,6.24266788 111.3,6 C111.804003,5.75733212 112.363997,5.636 112.98,5.636 C114.016005,5.636 114.813997,5.89033079 115.374,6.399 C115.934003,6.90766921 116.214,7.62399538 116.214,8.548 L116.214,13 L114.702,13 L114.702,12.146 L114.632,12.146 C114.426666,12.4540015 114.137335,12.7106656 113.764,12.916 C113.390665,13.1213344 112.961336,13.224 112.476,13.224 Z M112.742,11.95 C113.115335,11.95 113.451332,11.8613342 113.75,11.684 C114.048668,11.5066658 114.281999,11.2686682 114.45,10.97 C114.618001,10.6713318 114.702,10.3493351 114.702,10.004 C114.487332,9.88266606 114.237668,9.78466704 113.953,9.71 C113.668332,9.63533296 113.372002,9.598 113.064,9.598 C112.48533,9.598 112.060668,9.71233219 111.79,9.941 C111.519332,10.1696678 111.384,10.4659982 111.384,10.83 C111.384,11.1566683 111.509999,11.4249989 111.762,11.635 C112.014001,11.845001 112.340665,11.95 112.742,11.95 Z M113.092,4.796 C112.681331,4.796 112.331335,4.65133478 112.042,4.362 C111.752665,4.07266522 111.608,3.72266872 111.608,3.312 C111.608,2.90133128 111.752665,2.55366809 112.042,2.269 C112.331335,1.98433191 112.681331,1.842 113.092,1.842 C113.502669,1.842 113.852665,1.98433191 114.142,2.269 C114.431335,2.55366809 114.576,2.90133128 114.576,3.312 C114.576,3.72266872 114.431335,4.07266522 114.142,4.362 C113.852665,4.65133478 113.502669,4.796 113.092,4.796 Z M113.092,3.886 C113.241334,3.886 113.371999,3.82766725 113.484,3.711 C113.596001,3.59433275 113.652,3.46133408 113.652,3.312 C113.652,3.16266592 113.596001,3.03433387 113.484,2.927 C113.371999,2.81966613 113.241334,2.766 113.092,2.766 C112.942666,2.766 112.812001,2.81966613 112.7,2.927 C112.587999,3.03433387 112.532,3.16266592 112.532,3.312 C112.532,3.47066746 112.587999,3.60599944 112.7,3.718 C112.812001,3.83000056 112.942666,3.886 113.092,3.886 Z M124.396,13.112 C124.078665,13.112 123.780001,13.0606672 123.5,12.958 C123.219999,12.8553328 122.991334,12.7200008 122.814,12.552 C122.412665,12.1506647 122.212,11.6046701 122.212,10.914 L122.212,7.218 L120.966,7.218 L120.966,5.86 L122.212,5.86 L122.212,3.844 L123.752,3.844 L123.752,5.86 L125.488,5.86 L125.488,7.218 L123.752,7.218 L123.752,10.578 C123.752,10.9606686 123.826666,11.2313325 123.976,11.39 C124.116001,11.5766676 124.358665,11.67 124.704,11.67 C124.862668,11.67 125.002666,11.6490002 125.124,11.607 C125.245334,11.5649998 125.375999,11.4973338 125.516,11.404 L125.516,12.902 C125.207999,13.0420007 124.834669,13.112 124.396,13.112 Z M130.09,13.224 C129.389997,13.224 128.762336,13.0606683 128.207,12.734 C127.651664,12.4073317 127.217668,11.9570029 126.905,11.383 C126.592332,10.8089971 126.436,10.1626703 126.436,9.444 C126.436,8.76266326 126.587665,8.13033625 126.891,7.547 C127.194335,6.96366375 127.616664,6.49933506 128.158,6.154 C128.699336,5.80866494 129.31533,5.636 130.006,5.636 C130.72467,5.636 131.347664,5.79466508 131.875,6.112 C132.402336,6.42933492 132.803665,6.86333058 133.079,7.414 C133.354335,7.96466942 133.492,8.58532988 133.492,9.276 C133.492,9.40666732 133.478,9.56999902 133.45,9.766 L127.976,9.766 C128.032,10.42867 128.267665,10.9396649 128.683,11.299 C129.098335,11.6583351 129.581331,11.838 130.132,11.838 C130.570669,11.838 130.950998,11.7376677 131.273,11.537 C131.595002,11.3363323 131.853999,11.0633351 132.05,10.718 L133.352,11.334 C133.015998,11.9220029 132.577336,12.3839983 132.036,12.72 C131.494664,13.0560017 130.846004,13.224 130.09,13.224 Z M131.924,8.59 C131.905333,8.33799874 131.826001,8.08833457 131.686,7.841 C131.546,7.59366543 131.333668,7.38600084 131.049,7.218 C130.764332,7.04999916 130.416669,6.966 130.006,6.966 C129.511331,6.966 129.093668,7.11299853 128.753,7.407 C128.412332,7.70100147 128.176667,8.09533086 128.046,8.59 L131.924,8.59 Z M135.042,2.976 L136.582,2.976 L136.582,13 L135.042,13 L135.042,2.976 Z M141.73,13.224 C141.029997,13.224 140.402336,13.0606683 139.847,12.734 C139.291664,12.4073317 138.857668,11.9570029 138.545,11.383 C138.232332,10.8089971 138.076,10.1626703 138.076,9.444 C138.076,8.76266326 138.227665,8.13033625 138.531,7.547 C138.834335,6.96366375 139.256664,6.49933506 139.798,6.154 C140.339336,5.80866494 140.95533,5.636 141.646,5.636 C142.36467,5.636 142.987664,5.79466508 143.515,6.112 C144.042336,6.42933492 144.443665,6.86333058 144.719,7.414 C144.994335,7.96466942 145.132,8.58532988 145.132,9.276 C145.132,9.40666732 145.118,9.56999902 145.09,9.766 L139.616,9.766 C139.672,10.42867 139.907665,10.9396649 140.323,11.299 C140.738335,11.6583351 141.221331,11.838 141.772,11.838 C142.210669,11.838 142.590998,11.7376677 142.913,11.537 C143.235002,11.3363323 143.493999,11.0633351 143.69,10.718 L144.992,11.334 C144.655998,11.9220029 144.217336,12.3839983 143.676,12.72 C143.134664,13.0560017 142.486004,13.224 141.73,13.224 Z M143.564,8.59 C143.545333,8.33799874 143.466001,8.08833457 143.326,7.841 C143.186,7.59366543 142.973668,7.38600084 142.689,7.218 C142.404332,7.04999916 142.056669,6.966 141.646,6.966 C141.151331,6.966 140.733668,7.11299853 140.393,7.407 C140.052332,7.70100147 139.816667,8.09533086 139.686,8.59 L143.564,8.59 Z M147.34,7.218 L146.038,7.218 L146.038,5.86 L147.34,5.86 L147.34,5.3 C147.34,4.5533296 147.573331,3.96066886 148.04,3.522 C148.506669,3.08333114 149.103996,2.864 149.832,2.864 C150.252002,2.864 150.615999,2.91533282 150.924,3.018 L150.924,4.53 C150.755999,4.46466634 150.599667,4.41100021 150.455,4.369 C150.310333,4.32699979 150.144668,4.306 149.958,4.306 C149.649999,4.306 149.393334,4.40399902 149.188,4.6 C148.982666,4.79600098 148.88,5.06666494 148.88,5.412 L148.88,5.86 L150.672,5.86 L150.672,7.218 L148.88,7.218 L148.88,13 L147.34,13 L147.34,7.218 Z M155.19,13.224 C154.47133,13.224 153.827336,13.058335 153.258,12.727 C152.688664,12.395665 152.245335,11.9406696 151.928,11.362 C151.610665,10.7833304 151.452,10.1393369 151.452,9.43 C151.452,8.72066312 151.610665,8.07666956 151.928,7.498 C152.245335,6.91933044 152.688664,6.46433499 153.258,6.133 C153.827336,5.80166501 154.47133,5.636 155.19,5.636 C155.90867,5.636 156.552664,5.80399832 157.122,6.14 C157.691336,6.47600168 158.134665,6.93333044 158.452,7.512 C158.769335,8.09066956 158.928,8.7299965 158.928,9.43 C158.928,10.1393369 158.769335,10.7833304 158.452,11.362 C158.134665,11.9406696 157.691336,12.395665 157.122,12.727 C156.552664,13.058335 155.90867,13.224 155.19,13.224 Z M155.19,11.81 C155.582002,11.81 155.945998,11.7143343 156.282,11.523 C156.618002,11.3316657 156.886332,11.0563351 157.087,10.697 C157.287668,10.3376649 157.388,9.91533576 157.388,9.43 C157.388,8.94466424 157.287668,8.52466844 157.087,8.17 C156.886332,7.81533156 156.618002,7.54233429 156.282,7.351 C155.945998,7.15966571 155.582002,7.064 155.19,7.064 C154.797998,7.064 154.434002,7.15966571 154.098,7.351 C153.761998,7.54233429 153.493668,7.81533156 153.293,8.17 C153.092332,8.52466844 152.992,8.94466424 152.992,9.43 C152.992,9.91533576 153.092332,10.3376649 153.293,10.697 C153.493668,11.0563351 153.761998,11.3316657 154.098,11.523 C154.434002,11.7143343 154.797998,11.81 155.19,11.81 Z M160.352,5.86 L161.822,5.86 L161.822,6.798 L161.892,6.798 C162.097334,6.46199832 162.402998,6.18433443 162.809,5.965 C163.215002,5.74566557 163.646664,5.636 164.104,5.636 C164.972004,5.636 165.632331,5.89033079 166.085,6.399 C166.537669,6.90766921 166.764,7.60066228 166.764,8.478 L166.764,13 L165.224,13 L165.224,8.688 C165.224,8.1279972 165.086335,7.71733464 164.811,7.456 C164.535665,7.19466536 164.155336,7.064 163.67,7.064 C163.324665,7.064 163.016668,7.15966571 162.746,7.351 C162.475332,7.54233429 162.265334,7.79666508 162.116,8.114 C161.966666,8.43133492 161.892,8.77199818 161.892,9.136 L161.892,13 L160.352,13 L160.352,5.86 Z M171.912,13.224 C171.211997,13.224 170.584336,13.0606683 170.029,12.734 C169.473664,12.4073317 169.039668,11.9570029 168.727,11.383 C168.414332,10.8089971 168.258,10.1626703 168.258,9.444 C168.258,8.76266326 168.409665,8.13033625 168.713,7.547 C169.016335,6.96366375 169.438664,6.49933506 169.98,6.154 C170.521336,5.80866494 171.13733,5.636 171.828,5.636 C172.54667,5.636 173.169664,5.79466508 173.697,6.112 C174.224336,6.42933492 174.625665,6.86333058 174.901,7.414 C175.176335,7.96466942 175.314,8.58532988 175.314,9.276 C175.314,9.40666732 175.3,9.56999902 175.272,9.766 L169.798,9.766 C169.854,10.42867 170.089665,10.9396649 170.505,11.299 C170.920336,11.6583351 171.403331,11.838 171.954,11.838 C172.392669,11.838 172.772998,11.7376677 173.095,11.537 C173.417002,11.3363323 173.675999,11.0633351 173.872,10.718 L175.174,11.334 C174.837998,11.9220029 174.399336,12.3839983 173.858,12.72 C173.316664,13.0560017 172.668004,13.224 171.912,13.224 Z M173.746,8.59 C173.727333,8.33799874 173.648001,8.08833457 173.508,7.841 C173.368,7.59366543 173.155668,7.38600084 172.871,7.218 C172.586332,7.04999916 172.238669,6.966 171.828,6.966 C171.333331,6.966 170.915668,7.11299853 170.575,7.407 C170.234332,7.70100147 169.998667,8.09533086 169.868,8.59 L173.746,8.59 Z M176.864,5.86 L178.334,5.86 L178.334,6.798 L178.404,6.798 C178.609334,6.46199832 178.914998,6.18433443 179.321,5.965 C179.727002,5.74566557 180.158664,5.636 180.616,5.636 C181.484004,5.636 182.144331,5.89033079 182.597,6.399 C183.049669,6.90766921 183.276,7.60066228 183.276,8.478 L183.276,13 L181.736,13 L181.736,8.688 C181.736,8.1279972 181.598335,7.71733464 181.323,7.456 C181.047665,7.19466536 180.667336,7.064 180.182,7.064 C179.836665,7.064 179.528668,7.15966571 179.258,7.351 C178.987332,7.54233429 178.777334,7.79666508 178.628,8.114 C178.478666,8.43133492 178.404,8.77199818 178.404,9.136 L178.404,13 L176.864,13 L176.864,5.86 Z" id="Lagrepåtelefonen" fill="#3C4043" fill-rule="nonzero"></path>
                    <rect id="Rectangle" fill="#202124" opacity="0.100000001" x="50" y="0" width="1" height="16"></rect>
                    <g id="Gpay-logo-18px-h">
                        <g id="GPay" transform="translate(0.000000, 0.261474)">
                            <g id="Pay" transform="translate(17.615069, 0.825706)" fill="#5F6368">
                                <path d="M1.64941186,1.54761702 L1.64941186,5.63067176 L4.1674047,5.63067176 C4.76721599,5.63067176 5.26322816,5.42908551 5.65562807,5.02591302 C6.05830511,4.6236738 6.26011078,4.1439732 6.26011078,3.58867775 C6.26011078,3.04458155 6.05830511,2.57048056 5.65562807,2.16730807 C5.26322816,1.75386962 4.76721599,1.54668375 4.1674047,1.54668375 L1.64941186,1.54668375 L1.64941186,1.54761702 Z M1.64941186,7.06790702 L1.64941186,11.8042505 L0.145212207,11.8042505 L0.145212207,0.110381756 L4.13461128,0.110381756 C5.14840447,0.110381756 6.00888141,0.448225371 6.71791067,1.12297933 C7.43740394,1.79773329 7.79701042,2.61994385 7.79701042,3.58867775 C7.79701042,4.57981013 7.43731051,5.40762031 6.71791067,6.07117503 C6.01999941,6.73566302 5.15858818,7.06697375 4.13461128,7.06697375 L1.64941186,7.06697375 L1.64941186,7.06790702 Z" id="Fill-1"></path>
                                <path d="M9.31707424,9.35440834 C9.31707424,9.74638159 9.48337706,10.073026 9.81607612,10.3343415 C10.1485883,10.595657 10.5381854,10.7263147 10.9848673,10.7263147 C11.6172851,10.7263147 12.1806593,10.4919707 12.6767649,10.024496 C13.1729639,9.55599458 13.4204561,9.00629876 13.4204561,8.37540847 C12.9514448,8.00490042 12.297445,7.82011303 11.4584566,7.82011303 C10.8475273,7.82011303 10.3383417,7.96756963 9.93005895,8.26154958 C9.52168276,8.55543619 9.31707424,8.91857141 9.31707424,9.35440834 M11.2631909,3.5401384 C12.3749907,3.5401384 13.2522848,3.83691815 13.8961009,4.43047765 C14.5388893,5.02403715 14.8601901,5.83784829 14.8601901,6.87191106 L14.8601901,11.8042412 L13.4214839,11.8042412 L13.4214839,10.6936503 L13.3559904,10.6936503 C12.7346906,11.6081612 11.9059794,12.0655567 10.8708844,12.0655567 C9.98798466,12.0655567 9.24896483,11.8042412 8.65560011,11.2816102 C8.06148796,10.7589792 7.76438517,10.1056904 7.76438517,9.3217439 C7.76438517,8.49393372 8.07727739,7.83588529 8.70418295,7.34601205 C9.33108852,6.85604548 10.1673675,6.61059556 11.2137672,6.61059556 C12.1068507,6.61059556 12.8430677,6.77391775 13.4204561,7.10056213 L13.4204561,6.75711889 C13.4204561,6.23448789 13.2130448,5.7911848 12.7992497,5.42627637 C12.3843335,5.06136793 11.9003736,4.87938035 11.3444738,4.87938035 C10.5045511,4.87938035 9.84036755,5.23308955 9.34986766,5.94144122 L8.0249574,5.10803142 C8.75556866,4.06276941 9.83466841,3.5401384 11.2631909,3.5401384" id="Fill-3"></path>
                                <polygon id="Fill-5" points="23.1164897 3.8014539 18.0966672 15.3320005 16.5437912 15.3320005 18.4077842 11.2974758 15.1049916 3.8014539 16.7399912 3.8014539 19.1270906 9.55039497 19.1597906 9.55039497 21.4814901 3.8014539"></polygon>
                            </g>
                            <g id="G">
                                <path d="M13.1865148,6.87260706 C13.1865148,6.39943935 13.1463406,5.94307048 13.0706634,5.50630029 L6.72686492,5.50630029 L6.72686492,8.09425704 L10.3603012,8.09425704 C10.2042755,8.93783948 9.73246136,9.65561717 9.01679867,10.136251 L9.01679867,11.8170697 L11.1852753,11.8170697 C12.4549693,10.6467495 13.1865148,8.91740087 13.1865148,6.87260706" id="Fill-8" fill="#4285F4"></path>
                                <path d="M6.72685557,13.439083 C8.54217229,13.439083 10.0706634,12.843657 11.185266,11.8170603 L9.01678933,10.1362417 C8.4132409,10.542214 7.63591536,10.7792645 6.72685557,10.7792645 C4.97226741,10.7792645 3.48301633,9.59774511 2.9504736,8.00558709 L0.716596976,8.00558709 L0.716596976,9.73680229 C1.82372529,11.9318525 4.09871047,13.439083 6.72685557,13.439083" id="Fill-10" fill="#34A853"></path>
                                <path d="M2.95048294,8.00556842 C2.81407726,7.59959612 2.73933442,7.166559 2.73933442,6.71952284 C2.73933442,6.27248667 2.81407726,5.83944956 2.95048294,5.43347726 L2.95048294,3.70226205 L0.716606319,3.70226205 C0.258806425,4.60940015 9.34285496e-06,5.63413023 9.34285496e-06,6.71952284 C9.34285496e-06,7.80491544 0.258806425,8.82973885 0.716606319,9.73678363 L2.95048294,8.00556842 Z" id="Fill-12" fill="#FABB05"></path>
                                <path d="M6.72685557,2.65981851 C7.71813249,2.65981851 8.60663799,3.00046194 9.30735212,3.66774974 L9.30735212,3.66868301 L11.2273088,1.75081387 C10.0613205,0.666354532 8.54123801,0 6.72685557,0 C4.09871047,0 1.82372529,1.50723049 0.716596976,3.70228071 L2.9504736,5.43349592 C3.48301633,3.84133789 4.97226741,2.65981851 6.72685557,2.65981851" id="Fill-14" fill="#E94235"></path>
                            </g>
                        </g>
                    </g>
                </g>
            </g>
        </g>
    </g>
</svg>