<?xml version="1.0" encoding="UTF-8"?>
<svg width="288px" height="44px" viewBox="0 0 288 44" version="1.1" xmlns="http://www.w3.org/2000/svg" xmlns:xlink="http://www.w3.org/1999/xlink">
    <!-- Generator: Sketch 58 (84663) - https://sketch.com -->
    <title>Save to Google Pay - Croatian (Dark)</title>
    <desc>Created with Sketch.</desc>
    <defs>
        <path d="M4,0 L276,0 C278.209139,-4.05812251e-16 280,1.790861 280,4 L280,32 C280,34.209139 278.209139,36 276,36 L4,36 C1.790861,36 2.705415e-16,34.209139 0,32 L0,4 C-2.705415e-16,1.790861 1.790861,4.05812251e-16 4,0 Z" id="path-1"></path>
        <filter x="-2.3%" y="-15.3%" width="104.6%" height="136.1%" filterUnits="objectBoundingBox" id="filter-2">
            <feMorphology radius="0.5" operator="dilate" in="SourceAlpha" result="shadowSpreadOuter1"></feMorphology>
            <feOffset dx="0" dy="1" in="shadowSpreadOuter1" result="shadowOffsetOuter1"></feOffset>
            <feGaussianBlur stdDeviation="1.5" in="shadowOffsetOuter1" result="shadowBlurOuter1"></feGaussianBlur>
            <feColorMatrix values="0 0 0 0 0.235294118   0 0 0 0 0.250980392   0 0 0 0 0.262745098  0 0 0 0.15 0" type="matrix" in="shadowBlurOuter1" result="shadowMatrixOuter1"></feColorMatrix>
            <feOffset dx="0" dy="1" in="SourceAlpha" result="shadowOffsetOuter2"></feOffset>
            <feGaussianBlur stdDeviation="0.5" in="shadowOffsetOuter2" result="shadowBlurOuter2"></feGaussianBlur>
            <feColorMatrix values="0 0 0 0 0.235294118   0 0 0 0 0.250980392   0 0 0 0 0.262745098  0 0 0 0.3 0" type="matrix" in="shadowBlurOuter2" result="shadowMatrixOuter2"></feColorMatrix>
            <feMerge>
                <feMergeNode in="shadowMatrixOuter1"></feMergeNode>
                <feMergeNode in="shadowMatrixOuter2"></feMergeNode>
            </feMerge>
        </filter>
    </defs>
    <g id="Buttons-(Save-to-phone)" stroke="none" stroke-width="1" fill="none" fill-rule="evenodd">
        <g id="Language-Variations---Flattened" transform="translate(-192.000000, -228.000000)">
            <g id="Save-to-Google-Pay---Croatian-(Dark)" transform="translate(196.000000, 231.000000)">
                <g id="bg-copy-3">
                    <use fill="black" fill-opacity="1" filter="url(#filter-2)" xlink:href="#path-1"></use>
                    <use fill="#000000" fill-rule="evenodd" xlink:href="#path-1"></use>
                </g>
                <g id="buttonContent" transform="translate(55.000000, 10.000000)">
                    <rect id="Rectangle" fill="#3C4043" x="50" y="0" width="1" height="16"></rect>
                    <g id="Gpay-logo-18px-h">
                        <g id="GPay" transform="translate(0.000000, 0.261474)">
                            <g id="Pay" transform="translate(17.615069, 0.825706)" fill="#FFFFFF">
                                <path d="M1.64941186,1.54761702 L1.64941186,5.63067176 L4.1674047,5.63067176 C4.76721599,5.63067176 5.26322816,5.42908551 5.65562807,5.02591302 C6.05830511,4.6236738 6.26011078,4.1439732 6.26011078,3.58867775 C6.26011078,3.04458155 6.05830511,2.57048056 5.65562807,2.16730807 C5.26322816,1.75386962 4.76721599,1.54668375 4.1674047,1.54668375 L1.64941186,1.54668375 L1.64941186,1.54761702 Z M1.64941186,7.06790702 L1.64941186,11.8042505 L0.145212207,11.8042505 L0.145212207,0.110381756 L4.13461128,0.110381756 C5.14840447,0.110381756 6.00888141,0.448225371 6.71791067,1.12297933 C7.43740394,1.79773329 7.79701042,2.61994385 7.79701042,3.58867775 C7.79701042,4.57981013 7.43731051,5.40762031 6.71791067,6.07117503 C6.01999941,6.73566302 5.15858818,7.06697375 4.13461128,7.06697375 L1.64941186,7.06697375 L1.64941186,7.06790702 Z" id="Fill-1"></path>
                                <path d="M9.31707424,9.35440834 C9.31707424,9.74638159 9.48337706,10.073026 9.81607612,10.3343415 C10.1485883,10.595657 10.5381854,10.7263147 10.9848673,10.7263147 C11.6172851,10.7263147 12.1806593,10.4919707 12.6767649,10.024496 C13.1729639,9.55599458 13.4204561,9.00629876 13.4204561,8.37540847 C12.9514448,8.00490042 12.297445,7.82011303 11.4584566,7.82011303 C10.8475273,7.82011303 10.3383417,7.96756963 9.93005895,8.26154958 C9.52168276,8.55543619 9.31707424,8.91857141 9.31707424,9.35440834 M11.2631909,3.5401384 C12.3749907,3.5401384 13.2522848,3.83691815 13.8961009,4.43047765 C14.5388893,5.02403715 14.8601901,5.83784829 14.8601901,6.87191106 L14.8601901,11.8042412 L13.4214839,11.8042412 L13.4214839,10.6936503 L13.3559904,10.6936503 C12.7346906,11.6081612 11.9059794,12.0655567 10.8708844,12.0655567 C9.98798466,12.0655567 9.24896483,11.8042412 8.65560011,11.2816102 C8.06148796,10.7589792 7.76438517,10.1056904 7.76438517,9.3217439 C7.76438517,8.49393372 8.07727739,7.83588529 8.70418295,7.34601205 C9.33108852,6.85604548 10.1673675,6.61059556 11.2137672,6.61059556 C12.1068507,6.61059556 12.8430677,6.77391775 13.4204561,7.10056213 L13.4204561,6.75711889 C13.4204561,6.23448789 13.2130448,5.7911848 12.7992497,5.42627637 C12.3843335,5.06136793 11.9003736,4.87938035 11.3444738,4.87938035 C10.5045511,4.87938035 9.84036755,5.23308955 9.34986766,5.94144122 L8.0249574,5.10803142 C8.75556866,4.06276941 9.83466841,3.5401384 11.2631909,3.5401384" id="Fill-3"></path>
                                <polygon id="Fill-5" points="23.1164897 3.8014539 18.0966672 15.3320005 16.5437912 15.3320005 18.4077842 11.2974758 15.1049916 3.8014539 16.7399912 3.8014539 19.1270906 9.55039497 19.1597906 9.55039497 21.4814901 3.8014539"></polygon>
                            </g>
                            <g id="G">
                                <path d="M13.1865148,6.87260706 C13.1865148,6.39943935 13.1463406,5.94307048 13.0706634,5.50630029 L6.72686492,5.50630029 L6.72686492,8.09425704 L10.3603012,8.09425704 C10.2042755,8.93783948 9.73246136,9.65561717 9.01679867,10.136251 L9.01679867,11.8170697 L11.1852753,11.8170697 C12.4549693,10.6467495 13.1865148,8.91740087 13.1865148,6.87260706" id="Fill-8" fill="#4285F4"></path>
                                <path d="M6.72685557,13.439083 C8.54217229,13.439083 10.0706634,12.843657 11.185266,11.8170603 L9.01678933,10.1362417 C8.4132409,10.542214 7.63591536,10.7792645 6.72685557,10.7792645 C4.97226741,10.7792645 3.48301633,9.59774511 2.9504736,8.00558709 L0.716596976,8.00558709 L0.716596976,9.73680229 C1.82372529,11.9318525 4.09871047,13.439083 6.72685557,13.439083" id="Fill-10" fill="#34A853"></path>
                                <path d="M2.95048294,8.00556842 C2.81407726,7.59959612 2.73933442,7.166559 2.73933442,6.71952284 C2.73933442,6.27248667 2.81407726,5.83944956 2.95048294,5.43347726 L2.95048294,3.70226205 L0.716606319,3.70226205 C0.258806425,4.60940015 9.34285496e-06,5.63413023 9.34285496e-06,6.71952284 C9.34285496e-06,7.80491544 0.258806425,8.82973885 0.716606319,9.73678363 L2.95048294,8.00556842 Z" id="Fill-12" fill="#FABB05"></path>
                                <path d="M6.72685557,2.65981851 C7.71813249,2.65981851 8.60663799,3.00046194 9.30735212,3.66774974 L9.30735212,3.66868301 L11.2273088,1.75081387 C10.0613205,0.666354532 8.54123801,0 6.72685557,0 C4.09871047,0 1.82372529,1.50723049 0.716596976,3.70228071 L2.9504736,5.43349592 C3.48301633,3.84133789 4.97226741,2.65981851 6.72685557,2.65981851" id="Fill-14" fill="#E94235"></path>
                            </g>
                        </g>
                    </g>
                    <path d="M63.546,13.224 C62.7153292,13.224 61.96867,12.9813358 61.306,12.496 C60.64333,12.0106642 60.1860013,11.3293377 59.934,10.452 L61.418,9.85 C61.5673341,10.4006694 61.8309981,10.8509982 62.209,11.201 C62.5870019,11.5510018 63.0419973,11.726 63.574,11.726 C64.0686691,11.726 64.4886649,11.5976679 64.834,11.341 C65.1793351,11.0843321 65.352,10.7320022 65.352,10.284 C65.352,9.87333128 65.2003349,9.53500133 64.897,9.269 C64.5936652,9.00299867 64.0640038,8.73466802 63.308,8.464 L62.678,8.24 C62.0059966,8.0066655 61.4413356,7.67066886 60.984,7.232 C60.5266644,6.79333114 60.298,6.21467026 60.298,5.496 C60.298,5.00133086 60.433332,4.5440021 60.704,4.124 C60.974668,3.7039979 61.3503309,3.37033457 61.831,3.123 C62.3116691,2.87566543 62.8553303,2.752 63.462,2.752 C64.3393377,2.752 65.0393307,2.96433121 65.562,3.389 C66.0846693,3.81366879 66.4346658,4.29199734 66.612,4.824 L65.198,5.426 C65.0953328,5.10866508 64.8993348,4.82866788 64.61,4.586 C64.3206652,4.34333212 63.9473356,4.222 63.49,4.222 C63.0326644,4.222 62.6476682,4.3386655 62.335,4.572 C62.0223318,4.8053345 61.866,5.10399818 61.866,5.468 C61.866,5.81333506 62.0059986,6.09799888 62.286,6.322 C62.5660014,6.54600112 63.0046637,6.76066564 63.602,6.966 L64.232,7.176 C65.090671,7.47466816 65.7556643,7.86433093 66.227,8.345 C66.6983357,8.82566907 66.934,9.46732932 66.934,10.27 C66.934,10.9233366 66.7660017,11.4716645 66.43,11.915 C66.0939983,12.3583355 65.6670026,12.6873323 65.149,12.902 C64.6309974,13.1166677 64.0966694,13.224 63.546,13.224 Z M68.568,5.86 L70.038,5.86 L70.038,6.798 L70.108,6.798 C70.3133344,6.4713317 70.6166647,6.19600112 71.018,5.972 C71.4193353,5.74799888 71.8719975,5.636 72.376,5.636 C73.0200032,5.636 73.6033307,5.7993317 74.126,6.126 C74.6486693,6.4526683 75.0616652,6.90299713 75.365,7.477 C75.6683349,8.05100287 75.82,8.70199636 75.82,9.43 C75.82,10.1580036 75.6683349,10.8089971 75.365,11.383 C75.0616652,11.9570029 74.6486693,12.4073317 74.126,12.734 C73.6033307,13.0606683 73.0200032,13.224 72.376,13.224 C71.8719975,13.224 71.4193353,13.1120011 71.018,12.888 C70.6166647,12.6639989 70.3133344,12.3933349 70.108,12.076 L70.038,12.076 L70.108,13.07 L70.108,16.024 L68.568,16.024 L68.568,5.86 Z M72.152,11.81 C72.5253352,11.81 72.8753317,11.712001 73.202,11.516 C73.5286683,11.319999 73.789999,11.0400018 73.986,10.676 C74.182001,10.3119982 74.28,9.896669 74.28,9.43 C74.28,8.963331 74.182001,8.55033513 73.986,8.191 C73.789999,7.83166487 73.5286683,7.55400098 73.202,7.358 C72.8753317,7.16199902 72.5253352,7.064 72.152,7.064 C71.7786648,7.064 71.4310016,7.16199902 71.109,7.358 C70.7869984,7.55400098 70.528001,7.83166487 70.332,8.191 C70.135999,8.55033513 70.038,8.963331 70.038,9.43 C70.038,9.896669 70.135999,10.3119982 70.332,10.676 C70.528001,11.0400018 70.7869984,11.319999 71.109,11.516 C71.4310016,11.712001 71.7786648,11.81 72.152,11.81 Z M77.3,5.86 L78.77,5.86 L78.77,6.91 L78.84,6.91 C78.9986675,6.54599818 79.2739981,6.24500119 79.666,6.007 C80.058002,5.76899881 80.4733312,5.65 80.912,5.65 C81.2573351,5.65 81.5466655,5.6966662 81.78,5.79 L81.78,7.386 C81.3693313,7.23666592 81.0006683,7.162 80.674,7.162 C80.3193316,7.162 80.0043347,7.2553324 79.729,7.442 C79.4536653,7.6286676 79.2366675,7.87833177 79.078,8.191 C78.9193326,8.50366823 78.84,8.8466648 78.84,9.22 L78.84,13 L77.3,13 L77.3,5.86 Z M85.948,13.224 C85.2479965,13.224 84.6203361,13.0606683 84.065,12.734 C83.5096639,12.4073317 83.0756682,11.9570029 82.763,11.383 C82.4503318,10.8089971 82.294,10.1626703 82.294,9.444 C82.294,8.76266326 82.4456652,8.13033625 82.749,7.547 C83.0523349,6.96366375 83.474664,6.49933506 84.016,6.154 C84.5573361,5.80866494 85.1733299,5.636 85.864,5.636 C86.5826703,5.636 87.205664,5.79466508 87.733,6.112 C88.260336,6.42933492 88.6616653,6.86333058 88.937,7.414 C89.2123347,7.96466942 89.35,8.58532988 89.35,9.276 C89.35,9.40666732 89.3360002,9.56999902 89.308,9.766 L83.834,9.766 C83.8900003,10.42867 84.1256646,10.9396649 84.541,11.299 C84.9563354,11.6583351 85.4393306,11.838 85.99,11.838 C86.4286689,11.838 86.8089984,11.7376677 87.131,11.537 C87.4530016,11.3363323 87.711999,11.0633351 87.908,10.718 L89.21,11.334 C88.8739983,11.9220029 88.4353361,12.3839983 87.894,12.72 C87.352664,13.0560017 86.7040038,13.224 85.948,13.224 Z M87.782,8.59 C87.7633333,8.33799874 87.6840007,8.08833457 87.544,7.841 C87.404,7.59366543 87.1916681,7.38600084 86.907,7.218 C86.6223319,7.04999916 86.2746687,6.966 85.864,6.966 C85.3693309,6.966 84.9516684,7.11299853 84.611,7.407 C84.2703316,7.70100147 84.0346673,8.09533086 83.904,8.59 L87.782,8.59 Z M90.9,5.86 L92.37,5.86 L92.37,6.798 L92.44,6.798 C92.6546678,6.45266494 92.9579981,6.17266774 93.35,5.958 C93.742002,5.74333226 94.1619978,5.636 94.61,5.636 C95.1233359,5.636 95.5713314,5.75499881 95.954,5.993 C96.3366686,6.23100119 96.6119992,6.54599804 96.78,6.938 C97.0226679,6.54599804 97.346998,6.23100119 97.753,5.993 C98.1590021,5.75499881 98.6373306,5.636 99.188,5.636 C100.009337,5.636 100.632331,5.88566417 101.057,6.385 C101.481669,6.88433583 101.694,7.56332904 101.694,8.422 L101.694,13 L100.154,13 L100.154,8.688 C100.154,7.60532792 99.6920046,7.064 98.768,7.064 C98.2733309,7.064 97.8673349,7.26466466 97.55,7.666 C97.2326651,8.06733534 97.074,8.56199706 97.074,9.15 L97.074,13 L95.534,13 L95.534,8.688 C95.534,7.60532792 95.0580048,7.064 94.106,7.064 C93.6206643,7.064 93.2216683,7.26466466 92.909,7.666 C92.5963318,8.06733534 92.44,8.56199706 92.44,9.15 L92.44,13 L90.9,13 L90.9,5.86 Z M104.476,4.824 C104.186665,4.824 103.941668,4.72366767 103.741,4.523 C103.540332,4.32233233 103.44,4.07733478 103.44,3.788 C103.44,3.49866522 103.540332,3.25366767 103.741,3.053 C103.941668,2.85233233 104.186665,2.752 104.476,2.752 C104.765335,2.752 105.010332,2.85233233 105.211,3.053 C105.411668,3.25366767 105.512,3.49866522 105.512,3.788 C105.512,4.07733478 105.411668,4.32233233 105.211,4.523 C105.010332,4.72366767 104.765335,4.824 104.476,4.824 Z M103.706,5.86 L105.246,5.86 L105.246,13 L103.706,13 L103.706,5.86 Z M113.344,13.224 C112.475996,13.224 111.815669,12.9650026 111.363,12.447 C110.910331,11.9289974 110.684,11.2080046 110.684,10.284 L110.684,5.86 L112.224,5.86 L112.224,10.074 C112.224,10.6526696 112.361665,11.0866652 112.637,11.376 C112.912335,11.6653348 113.273998,11.81 113.722,11.81 C114.086002,11.81 114.407999,11.7143343 114.688,11.523 C114.968001,11.3316657 115.182666,11.0773349 115.332,10.76 C115.481334,10.4426651 115.556,10.1020018 115.556,9.738 L115.556,5.86 L117.096,5.86 L117.096,13 L115.64,13 L115.64,12.076 L115.556,12.076 C115.359999,12.4120017 115.056669,12.6873323 114.646,12.902 C114.235331,13.1166677 113.801336,13.224 113.344,13.224 Z M125.39,13.112 C125.072665,13.112 124.774001,13.0606672 124.494,12.958 C124.213999,12.8553328 123.985334,12.7200008 123.808,12.552 C123.406665,12.1506647 123.206,11.6046701 123.206,10.914 L123.206,7.218 L121.96,7.218 L121.96,5.86 L123.206,5.86 L123.206,3.844 L124.746,3.844 L124.746,5.86 L126.482,5.86 L126.482,7.218 L124.746,7.218 L124.746,10.578 C124.746,10.9606686 124.820666,11.2313325 124.97,11.39 C125.110001,11.5766676 125.352665,11.67 125.698,11.67 C125.856668,11.67 125.996666,11.6490002 126.118,11.607 C126.239334,11.5649998 126.369999,11.4973338 126.51,11.404 L126.51,12.902 C126.201999,13.0420007 125.828669,13.112 125.39,13.112 Z M131.084,13.224 C130.383997,13.224 129.756336,13.0606683 129.201,12.734 C128.645664,12.4073317 128.211668,11.9570029 127.899,11.383 C127.586332,10.8089971 127.43,10.1626703 127.43,9.444 C127.43,8.76266326 127.581665,8.13033625 127.885,7.547 C128.188335,6.96366375 128.610664,6.49933506 129.152,6.154 C129.693336,5.80866494 130.30933,5.636 131,5.636 C131.71867,5.636 132.341664,5.79466508 132.869,6.112 C133.396336,6.42933492 133.797665,6.86333058 134.073,7.414 C134.348335,7.96466942 134.486,8.58532988 134.486,9.276 C134.486,9.40666732 134.472,9.56999902 134.444,9.766 L128.97,9.766 C129.026,10.42867 129.261665,10.9396649 129.677,11.299 C130.092335,11.6583351 130.575331,11.838 131.126,11.838 C131.564669,11.838 131.944998,11.7376677 132.267,11.537 C132.589002,11.3363323 132.847999,11.0633351 133.044,10.718 L134.346,11.334 C134.009998,11.9220029 133.571336,12.3839983 133.03,12.72 C132.488664,13.0560017 131.840004,13.224 131.084,13.224 Z M132.918,8.59 C132.899333,8.33799874 132.820001,8.08833457 132.68,7.841 C132.54,7.59366543 132.327668,7.38600084 132.043,7.218 C131.758332,7.04999916 131.410669,6.966 131,6.966 C130.505331,6.966 130.087668,7.11299853 129.747,7.407 C129.406332,7.70100147 129.170667,8.09533086 129.04,8.59 L132.918,8.59 Z M136.036,2.976 L137.576,2.976 L137.576,13 L136.036,13 L136.036,2.976 Z M142.724,13.224 C142.023997,13.224 141.396336,13.0606683 140.841,12.734 C140.285664,12.4073317 139.851668,11.9570029 139.539,11.383 C139.226332,10.8089971 139.07,10.1626703 139.07,9.444 C139.07,8.76266326 139.221665,8.13033625 139.525,7.547 C139.828335,6.96366375 140.250664,6.49933506 140.792,6.154 C141.333336,5.80866494 141.94933,5.636 142.64,5.636 C143.35867,5.636 143.981664,5.79466508 144.509,6.112 C145.036336,6.42933492 145.437665,6.86333058 145.713,7.414 C145.988335,7.96466942 146.126,8.58532988 146.126,9.276 C146.126,9.40666732 146.112,9.56999902 146.084,9.766 L140.61,9.766 C140.666,10.42867 140.901665,10.9396649 141.317,11.299 C141.732335,11.6583351 142.215331,11.838 142.766,11.838 C143.204669,11.838 143.584998,11.7376677 143.907,11.537 C144.229002,11.3363323 144.487999,11.0633351 144.684,10.718 L145.986,11.334 C145.649998,11.9220029 145.211336,12.3839983 144.67,12.72 C144.128664,13.0560017 143.480004,13.224 142.724,13.224 Z M144.558,8.59 C144.539333,8.33799874 144.460001,8.08833457 144.32,7.841 C144.18,7.59366543 143.967668,7.38600084 143.683,7.218 C143.398332,7.04999916 143.050669,6.966 142.64,6.966 C142.145331,6.966 141.727668,7.11299853 141.387,7.407 C141.046332,7.70100147 140.810667,8.09533086 140.68,8.59 L144.558,8.59 Z M148.334,7.218 L147.032,7.218 L147.032,5.86 L148.334,5.86 L148.334,5.3 C148.334,4.5533296 148.567331,3.96066886 149.034,3.522 C149.500669,3.08333114 150.097996,2.864 150.826,2.864 C151.246002,2.864 151.609999,2.91533282 151.918,3.018 L151.918,4.53 C151.749999,4.46466634 151.593667,4.41100021 151.449,4.369 C151.304333,4.32699979 151.138668,4.306 150.952,4.306 C150.643999,4.306 150.387334,4.40399902 150.182,4.6 C149.976666,4.79600098 149.874,5.06666494 149.874,5.412 L149.874,5.86 L151.666,5.86 L151.666,7.218 L149.874,7.218 L149.874,13 L148.334,13 L148.334,7.218 Z M156.184,13.224 C155.46533,13.224 154.821336,13.058335 154.252,12.727 C153.682664,12.395665 153.239335,11.9406696 152.922,11.362 C152.604665,10.7833304 152.446,10.1393369 152.446,9.43 C152.446,8.72066312 152.604665,8.07666956 152.922,7.498 C153.239335,6.91933044 153.682664,6.46433499 154.252,6.133 C154.821336,5.80166501 155.46533,5.636 156.184,5.636 C156.90267,5.636 157.546664,5.80399832 158.116,6.14 C158.685336,6.47600168 159.128665,6.93333044 159.446,7.512 C159.763335,8.09066956 159.922,8.7299965 159.922,9.43 C159.922,10.1393369 159.763335,10.7833304 159.446,11.362 C159.128665,11.9406696 158.685336,12.395665 158.116,12.727 C157.546664,13.058335 156.90267,13.224 156.184,13.224 Z M156.184,11.81 C156.576002,11.81 156.939998,11.7143343 157.276,11.523 C157.612002,11.3316657 157.880332,11.0563351 158.081,10.697 C158.281668,10.3376649 158.382,9.91533576 158.382,9.43 C158.382,8.94466424 158.281668,8.52466844 158.081,8.17 C157.880332,7.81533156 157.612002,7.54233429 157.276,7.351 C156.939998,7.15966571 156.576002,7.064 156.184,7.064 C155.791998,7.064 155.428002,7.15966571 155.092,7.351 C154.755998,7.54233429 154.487668,7.81533156 154.287,8.17 C154.086332,8.52466844 153.986,8.94466424 153.986,9.43 C153.986,9.91533576 154.086332,10.3376649 154.287,10.697 C154.487668,11.0563351 154.755998,11.3316657 155.092,11.523 C155.428002,11.7143343 155.791998,11.81 156.184,11.81 Z M161.346,5.86 L162.816,5.86 L162.816,6.798 L162.886,6.798 C163.091334,6.46199832 163.396998,6.18433443 163.803,5.965 C164.209002,5.74566557 164.640664,5.636 165.098,5.636 C165.966004,5.636 166.626331,5.89033079 167.079,6.399 C167.531669,6.90766921 167.758,7.60066228 167.758,8.478 L167.758,13 L166.218,13 L166.218,8.688 C166.218,8.1279972 166.080335,7.71733464 165.805,7.456 C165.529665,7.19466536 165.149336,7.064 164.664,7.064 C164.318665,7.064 164.010668,7.15966571 163.74,7.351 C163.469332,7.54233429 163.259334,7.79666508 163.11,8.114 C162.960666,8.43133492 162.886,8.77199818 162.886,9.136 L162.886,13 L161.346,13 L161.346,5.86 Z" id="Spremiutelefon" fill="#FFFFFF" fill-rule="nonzero"></path>
                </g>
            </g>
        </g>
    </g>
</svg>