<?xml version="1.0" encoding="UTF-8"?>
<svg width="288px" height="44px" viewBox="0 0 288 44" version="1.1" xmlns="http://www.w3.org/2000/svg" xmlns:xlink="http://www.w3.org/1999/xlink">
    <!-- Generator: Sketch 58 (84663) - https://sketch.com -->
    <title>Save to Google Pay - Chinese (Simplified) (Light)</title>
    <desc>Created with Sketch.</desc>
    <defs>
        <path d="M4,0 L276,0 C278.209139,-4.05812251e-16 280,1.790861 280,4 L280,32 C280,34.209139 278.209139,36 276,36 L4,36 C1.790861,36 2.705415e-16,34.209139 0,32 L0,4 C-2.705415e-16,1.790861 1.790861,4.05812251e-16 4,0 Z" id="path-1"></path>
        <filter x="-2.3%" y="-15.3%" width="104.6%" height="136.1%" filterUnits="objectBoundingBox" id="filter-2">
            <feMorphology radius="0.5" operator="dilate" in="SourceAlpha" result="shadowSpreadOuter1"></feMorphology>
            <feOffset dx="0" dy="1" in="shadowSpreadOuter1" result="shadowOffsetOuter1"></feOffset>
            <feGaussianBlur stdDeviation="1.5" in="shadowOffsetOuter1" result="shadowBlurOuter1"></feGaussianBlur>
            <feColorMatrix values="0 0 0 0 0.235294118   0 0 0 0 0.250980392   0 0 0 0 0.262745098  0 0 0 0.15 0" type="matrix" in="shadowBlurOuter1" result="shadowMatrixOuter1"></feColorMatrix>
            <feOffset dx="0" dy="1" in="SourceAlpha" result="shadowOffsetOuter2"></feOffset>
            <feGaussianBlur stdDeviation="0.5" in="shadowOffsetOuter2" result="shadowBlurOuter2"></feGaussianBlur>
            <feColorMatrix values="0 0 0 0 0.235294118   0 0 0 0 0.250980392   0 0 0 0 0.262745098  0 0 0 0.3 0" type="matrix" in="shadowBlurOuter2" result="shadowMatrixOuter2"></feColorMatrix>
            <feMerge>
                <feMergeNode in="shadowMatrixOuter1"></feMergeNode>
                <feMergeNode in="shadowMatrixOuter2"></feMergeNode>
            </feMerge>
        </filter>
    </defs>
    <g id="Buttons-(Save-to-phone)" stroke="none" stroke-width="1" fill="none" fill-rule="evenodd">
        <g id="Language-Variations---Flatened" transform="translate(-192.000000, -112.000000)">
            <g id="Save-to-Google-Pay---Chinese-(Simplified)-(Light)" transform="translate(196.000000, 115.000000)">
                <g id="bg">
                    <use fill="black" fill-opacity="1" filter="url(#filter-2)" xlink:href="#path-1"></use>
                    <use fill="#FFFFFF" fill-rule="evenodd" xlink:href="#path-1"></use>
                </g>
                <g id="buttonContent" transform="translate(74.000000, 10.000000)">
                    <path d="M63.112,1.478 L64.064,1.912 C63.728,2.948 63.308,3.914 62.818,4.838 L62.818,14.428 L61.796,14.428 L61.796,6.49 C61.32,7.148 60.816,7.778 60.27,8.366 L59.934,7.288 C61.39,5.608 62.454,3.662 63.112,1.478 Z M64.89,2.192 L71.498,2.192 L71.498,6.602 L68.684,6.602 L68.684,8.128 L72.716,8.128 L72.716,9.108 L69.678,9.108 C70.476,10.508 71.568,11.726 72.954,12.762 L72.31,13.644 C70.91,12.426 69.762,10.914 68.852,9.108 L68.684,9.108 L68.684,14.4 L67.676,14.4 L67.676,9.108 L67.508,9.108 C66.57,11.054 65.394,12.566 63.98,13.658 L63.406,12.748 C64.75,11.824 65.842,10.62 66.682,9.108 L63.784,9.108 L63.784,8.128 L67.676,8.128 L67.676,6.602 L64.89,6.602 L64.89,2.192 Z M70.504,5.636 L70.504,3.158 L65.884,3.158 L65.884,5.636 L70.504,5.636 Z M74.728,2.99 L78.536,2.99 C78.718,2.5 78.886,2.01 79.026,1.506 L80.048,1.632 C79.908,2.094 79.768,2.542 79.614,2.99 L86.782,2.99 L86.782,3.97 L79.236,3.97 C78.718,5.174 78.074,6.28 77.318,7.288 L77.318,14.414 L76.338,14.414 L76.338,8.492 C75.862,9.01 75.372,9.5 74.84,9.976 L74.21,9.178 C75.918,7.68 77.22,5.944 78.13,3.97 L74.728,3.97 L74.728,2.99 Z M78.41,9.5 L82.47,9.5 L82.47,8.198 C83.268,7.75 84.024,7.232 84.752,6.616 L79.488,6.616 L79.488,5.678 L86.04,5.678 L86.04,6.616 C85.284,7.316 84.43,7.988 83.478,8.618 L83.478,9.5 L86.978,9.5 L86.978,10.466 L83.478,10.466 L83.478,13.112 C83.478,13.938 83.058,14.358 82.232,14.358 L80.482,14.358 L80.216,13.406 C80.72,13.42 81.252,13.434 81.826,13.434 C82.246,13.434 82.47,13.21 82.47,12.79 L82.47,10.466 L78.41,10.466 L78.41,9.5 Z M95.71,12.062 L95.71,13.056 C93.554,13.504 91.23,13.896 88.738,14.204 L88.514,13.238 C89.634,13.112 90.726,12.972 91.79,12.804 L91.79,10.158 L89.06,10.158 L89.06,9.178 L91.79,9.178 L91.79,7.554 L92.798,7.554 L92.798,9.178 L95.318,9.178 L95.318,10.158 L92.798,10.158 L92.798,12.636 C93.792,12.468 94.758,12.272 95.71,12.062 Z M88.696,2.178 L95.654,2.178 L95.654,3.13 L92.056,3.13 C91.384,4.53 90.754,5.58 90.166,6.294 C91.552,6.154 92.868,5.986 94.128,5.762 C93.82,5.258 93.47,4.754 93.092,4.236 L93.862,3.732 C94.8,4.992 95.514,6.098 96.018,7.036 L95.178,7.624 C94.996,7.26 94.8,6.896 94.576,6.518 C92.812,6.826 90.866,7.092 88.766,7.302 L88.528,6.392 C88.696,6.364 88.836,6.336 88.934,6.294 C89.508,5.79 90.194,4.74 90.992,3.13 L88.696,3.13 L88.696,2.178 Z M99.35,14.274 L97.292,14.274 L97.068,13.294 C97.74,13.322 98.384,13.35 99,13.35 C99.392,13.35 99.602,13.14 99.602,12.734 L99.602,1.604 L100.624,1.604 L100.624,12.986 C100.624,13.84 100.19,14.274 99.35,14.274 Z M96.802,2.864 L97.782,2.864 L97.782,11.53 L96.802,11.53 L96.802,2.864 Z M113.654,1.688 L114.144,2.542 C112.87,2.878 111.4,3.144 109.72,3.312 L109.72,5.678 L114.186,5.678 L114.186,6.658 L109.72,6.658 L109.72,8.954 L115.236,8.954 L115.236,9.92 L109.72,9.92 L109.72,13.014 C109.72,13.854 109.272,14.288 108.404,14.288 L106.234,14.288 L106.01,13.308 C106.724,13.336 107.41,13.364 108.054,13.364 C108.474,13.364 108.698,13.154 108.698,12.762 L108.698,9.92 L102.678,9.92 L102.678,8.954 L108.698,8.954 L108.698,6.658 L103.84,6.658 L103.84,5.678 L108.698,5.678 L108.698,3.396 C107.214,3.508 105.604,3.578 103.868,3.578 L103.56,2.668 C107.62,2.668 110.98,2.332 113.654,1.688 Z M116.912,4.306 L118.998,4.306 L118.998,1.576 L120.006,1.576 L120.006,4.306 L121.742,4.306 L121.742,5.272 L120.006,5.272 L120.006,5.986 C120.65,6.658 121.308,7.4 121.98,8.226 L121.392,9.094 C120.86,8.212 120.398,7.498 120.006,6.952 L120.006,14.33 L118.998,14.33 L118.998,7.218 C118.508,8.618 117.864,9.878 117.08,11.026 L116.646,9.934 C117.724,8.576 118.494,7.022 118.956,5.272 L116.912,5.272 L116.912,4.306 Z M121.084,13.714 C121.686,12.832 122.106,11.894 122.344,10.9 C122.526,10.046 122.624,8.898 122.624,7.456 L122.624,2.15 L127.146,2.15 L127.146,12.748 C127.146,12.986 127.244,13.112 127.468,13.112 L127.944,13.112 C128.112,13.112 128.238,13.084 128.336,13.028 C128.448,12.944 128.518,12.818 128.546,12.622 C128.602,12.342 128.644,11.544 128.644,10.2 L129.568,10.494 C129.568,11.502 129.526,12.258 129.47,12.79 C129.414,13.294 129.274,13.63 129.05,13.826 C128.826,13.98 128.49,14.064 128.042,14.064 L127.468,14.064 C126.572,14.064 126.124,13.658 126.124,12.846 L126.124,3.102 L123.632,3.102 L123.632,7.456 C123.632,8.996 123.506,10.284 123.254,11.32 C123.016,12.412 122.568,13.448 121.91,14.456 L121.084,13.714 Z" id="SaveToPhone" fill="#3C4043"></path>
                    <rect id="Rectangle" fill="#202124" opacity="0.100000001" x="50" y="0" width="1" height="16"></rect>
                    <g id="Gpay-logo-18px-h">
                        <g id="GPay" transform="translate(0.000000, 0.261474)">
                            <g id="Pay" transform="translate(17.615069, 0.825706)" fill="#5F6368">
                                <path d="M1.64941186,1.54761702 L1.64941186,5.63067176 L4.1674047,5.63067176 C4.76721599,5.63067176 5.26322816,5.42908551 5.65562807,5.02591302 C6.05830511,4.6236738 6.26011078,4.1439732 6.26011078,3.58867775 C6.26011078,3.04458155 6.05830511,2.57048056 5.65562807,2.16730807 C5.26322816,1.75386962 4.76721599,1.54668375 4.1674047,1.54668375 L1.64941186,1.54668375 L1.64941186,1.54761702 Z M1.64941186,7.06790702 L1.64941186,11.8042505 L0.145212207,11.8042505 L0.145212207,0.110381756 L4.13461128,0.110381756 C5.14840447,0.110381756 6.00888141,0.448225371 6.71791067,1.12297933 C7.43740394,1.79773329 7.79701042,2.61994385 7.79701042,3.58867775 C7.79701042,4.57981013 7.43731051,5.40762031 6.71791067,6.07117503 C6.01999941,6.73566302 5.15858818,7.06697375 4.13461128,7.06697375 L1.64941186,7.06697375 L1.64941186,7.06790702 Z" id="Fill-1"></path>
                                <path d="M9.31707424,9.35440834 C9.31707424,9.74638159 9.48337706,10.073026 9.81607612,10.3343415 C10.1485883,10.595657 10.5381854,10.7263147 10.9848673,10.7263147 C11.6172851,10.7263147 12.1806593,10.4919707 12.6767649,10.024496 C13.1729639,9.55599458 13.4204561,9.00629876 13.4204561,8.37540847 C12.9514448,8.00490042 12.297445,7.82011303 11.4584566,7.82011303 C10.8475273,7.82011303 10.3383417,7.96756963 9.93005895,8.26154958 C9.52168276,8.55543619 9.31707424,8.91857141 9.31707424,9.35440834 M11.2631909,3.5401384 C12.3749907,3.5401384 13.2522848,3.83691815 13.8961009,4.43047765 C14.5388893,5.02403715 14.8601901,5.83784829 14.8601901,6.87191106 L14.8601901,11.8042412 L13.4214839,11.8042412 L13.4214839,10.6936503 L13.3559904,10.6936503 C12.7346906,11.6081612 11.9059794,12.0655567 10.8708844,12.0655567 C9.98798466,12.0655567 9.24896483,11.8042412 8.65560011,11.2816102 C8.06148796,10.7589792 7.76438517,10.1056904 7.76438517,9.3217439 C7.76438517,8.49393372 8.07727739,7.83588529 8.70418295,7.34601205 C9.33108852,6.85604548 10.1673675,6.61059556 11.2137672,6.61059556 C12.1068507,6.61059556 12.8430677,6.77391775 13.4204561,7.10056213 L13.4204561,6.75711889 C13.4204561,6.23448789 13.2130448,5.7911848 12.7992497,5.42627637 C12.3843335,5.06136793 11.9003736,4.87938035 11.3444738,4.87938035 C10.5045511,4.87938035 9.84036755,5.23308955 9.34986766,5.94144122 L8.0249574,5.10803142 C8.75556866,4.06276941 9.83466841,3.5401384 11.2631909,3.5401384" id="Fill-3"></path>
                                <polygon id="Fill-5" points="23.1164897 3.8014539 18.0966672 15.3320005 16.5437912 15.3320005 18.4077842 11.2974758 15.1049916 3.8014539 16.7399912 3.8014539 19.1270906 9.55039497 19.1597906 9.55039497 21.4814901 3.8014539"></polygon>
                            </g>
                            <g id="G">
                                <path d="M13.1865148,6.87260706 C13.1865148,6.39943935 13.1463406,5.94307048 13.0706634,5.50630029 L6.72686492,5.50630029 L6.72686492,8.09425704 L10.3603012,8.09425704 C10.2042755,8.93783948 9.73246136,9.65561717 9.01679867,10.136251 L9.01679867,11.8170697 L11.1852753,11.8170697 C12.4549693,10.6467495 13.1865148,8.91740087 13.1865148,6.87260706" id="Fill-8" fill="#4285F4"></path>
                                <path d="M6.72685557,13.439083 C8.54217229,13.439083 10.0706634,12.843657 11.185266,11.8170603 L9.01678933,10.1362417 C8.4132409,10.542214 7.63591536,10.7792645 6.72685557,10.7792645 C4.97226741,10.7792645 3.48301633,9.59774511 2.9504736,8.00558709 L0.716596976,8.00558709 L0.716596976,9.73680229 C1.82372529,11.9318525 4.09871047,13.439083 6.72685557,13.439083" id="Fill-10" fill="#34A853"></path>
                                <path d="M2.95048294,8.00556842 C2.81407726,7.59959612 2.73933442,7.166559 2.73933442,6.71952284 C2.73933442,6.27248667 2.81407726,5.83944956 2.95048294,5.43347726 L2.95048294,3.70226205 L0.716606319,3.70226205 C0.258806425,4.60940015 9.34285496e-06,5.63413023 9.34285496e-06,6.71952284 C9.34285496e-06,7.80491544 0.258806425,8.82973885 0.716606319,9.73678363 L2.95048294,8.00556842 Z" id="Fill-12" fill="#FABB05"></path>
                                <path d="M6.72685557,2.65981851 C7.71813249,2.65981851 8.60663799,3.00046194 9.30735212,3.66774974 L9.30735212,3.66868301 L11.2273088,1.75081387 C10.0613205,0.666354532 8.54123801,0 6.72685557,0 C4.09871047,0 1.82372529,1.50723049 0.716596976,3.70228071 L2.9504736,5.43349592 C3.48301633,3.84133789 4.97226741,2.65981851 6.72685557,2.65981851" id="Fill-14" fill="#E94235"></path>
                            </g>
                        </g>
                    </g>
                </g>
            </g>
        </g>
    </g>
</svg>