<?xml version="1.0" encoding="UTF-8"?>
<svg width="280px" height="36px" viewBox="0 0 280 36" version="1.1" xmlns="http://www.w3.org/2000/svg" xmlns:xlink="http://www.w3.org/1999/xlink">
    <!-- Generator: Sketch 58 (84663) - https://sketch.com -->
    <title>Save to Google Pay - French (Light with Stroke)</title>
    <desc>Created with Sketch.</desc>
    <g id="Buttons-(Save-to-phone)" stroke="none" stroke-width="1" fill="none" fill-rule="evenodd">
        <g id="Language-Variations-Copy" transform="translate(-196.000000, -482.000000)">
            <g id="Save-to-Google-Pay---French-(Light-with-Stroke)" transform="translate(196.000000, 482.000000)">
                <path d="M4,0.5 C2.06700338,0.5 0.5,2.06700338 0.5,4 L0.5,32 C0.5,33.9329966 2.06700338,35.5 4,35.5 L276,35.5 C277.932997,35.5 279.5,33.9329966 279.5,32 L279.5,4 C279.5,2.06700338 277.932997,0.5 276,0.5 L4,0.5 Z" id="bg-copy-5" stroke="#BDC1C6" fill="#FFFFFF"></path>
                <g id="buttonContent" transform="translate(17.500000, 10.000000)">
                    <path d="M60.648,2.976 L66.738,2.976 L66.738,4.474 L62.216,4.474 L62.216,7.246 L66.29,7.246 L66.29,8.73 L62.216,8.73 L62.216,11.502 L66.738,11.502 L66.738,13 L60.648,13 L60.648,2.976 Z M68.442,5.86 L69.912,5.86 L69.912,6.798 L69.982,6.798 C70.1873344,6.46199832 70.492998,6.18433443 70.899,5.965 C71.305002,5.74566557 71.7366644,5.636 72.194,5.636 C73.0620043,5.636 73.7223311,5.89033079 74.175,6.399 C74.6276689,6.90766921 74.854,7.60066228 74.854,8.478 L74.854,13 L73.314,13 L73.314,8.688 C73.314,8.1279972 73.1763347,7.71733464 72.901,7.456 C72.6256653,7.19466536 72.2453358,7.064 71.76,7.064 C71.4146649,7.064 71.106668,7.15966571 70.836,7.351 C70.565332,7.54233429 70.3553341,7.79666508 70.206,8.114 C70.0566659,8.43133492 69.982,8.77199818 69.982,9.136 L69.982,13 L68.442,13 L68.442,5.86 Z M76.74,5.86 L78.21,5.86 L78.21,6.91 L78.28,6.91 C78.4386675,6.54599818 78.7139981,6.24500119 79.106,6.007 C79.498002,5.76899881 79.9133312,5.65 80.352,5.65 C80.6973351,5.65 80.9866655,5.6966662 81.22,5.79 L81.22,7.386 C80.8093313,7.23666592 80.4406683,7.162 80.114,7.162 C79.7593316,7.162 79.4443347,7.2553324 79.169,7.442 C78.8936653,7.6286676 78.6766675,7.87833177 78.518,8.191 C78.3593326,8.50366823 78.28,8.8466648 78.28,9.22 L78.28,13 L76.74,13 L76.74,5.86 Z M85.388,13.224 C84.6879965,13.224 84.0603361,13.0606683 83.505,12.734 C82.9496639,12.4073317 82.5156682,11.9570029 82.203,11.383 C81.8903318,10.8089971 81.734,10.1626703 81.734,9.444 C81.734,8.76266326 81.8856652,8.13033625 82.189,7.547 C82.4923349,6.96366375 82.914664,6.49933506 83.456,6.154 C83.9973361,5.80866494 84.6133299,5.636 85.304,5.636 C86.0226703,5.636 86.645664,5.79466508 87.173,6.112 C87.700336,6.42933492 88.1016653,6.86333058 88.377,7.414 C88.6523347,7.96466942 88.79,8.58532988 88.79,9.276 C88.79,9.40666732 88.7760002,9.56999902 88.748,9.766 L83.274,9.766 C83.3300003,10.42867 83.5656646,10.9396649 83.981,11.299 C84.3963354,11.6583351 84.8793306,11.838 85.43,11.838 C85.8686689,11.838 86.2489984,11.7376677 86.571,11.537 C86.8930016,11.3363323 87.151999,11.0633351 87.348,10.718 L88.65,11.334 C88.3139983,11.9220029 87.8753361,12.3839983 87.334,12.72 C86.792664,13.0560017 86.1440038,13.224 85.388,13.224 Z M87.222,8.59 C87.2033333,8.33799874 87.1240007,8.08833457 86.984,7.841 C86.844,7.59366543 86.6316681,7.38600084 86.347,7.218 C86.0623319,7.04999916 85.7146687,6.966 85.304,6.966 C84.8093309,6.966 84.3916684,7.11299853 84.051,7.407 C83.7103316,7.70100147 83.4746673,8.09533086 83.344,8.59 L87.222,8.59 Z M93.63,16.248 C92.7526623,16.248 92.0270029,16.0473353 91.453,15.646 C90.8789972,15.2446647 90.494001,14.7686694 90.298,14.218 L91.74,13.616 C91.8893341,13.9893352 92.129665,14.2903322 92.461,14.519 C92.792335,14.7476678 93.1819978,14.862 93.63,14.862 C94.2833366,14.862 94.7943315,14.6683353 95.163,14.281 C95.5316685,13.8936647 95.716,13.3500035 95.716,12.65 L95.716,11.992 L95.632,11.992 C95.3986655,12.3280017 95.0883353,12.5916657 94.701,12.783 C94.3136648,12.9743343 93.8680025,13.07 93.364,13.07 C92.7666637,13.07 92.2113359,12.9160015 91.698,12.608 C91.1846641,12.2999985 90.7763349,11.8636695 90.473,11.299 C90.1696652,10.7343305 90.018,10.0880036 90.018,9.36 C90.018,8.63199636 90.1696652,7.98566949 90.473,7.421 C90.7763349,6.85633051 91.1846641,6.41766823 91.698,6.105 C92.2113359,5.79233177 92.7666637,5.636 93.364,5.636 C93.8586692,5.636 94.3019981,5.73399902 94.694,5.93 C95.086002,6.12600098 95.3986655,6.39199832 95.632,6.728 L95.716,6.728 L95.716,5.86 L97.186,5.86 L97.186,12.608 C97.186,13.3826705 97.0366682,14.0429973 96.738,14.589 C96.4393319,15.1350027 96.0216694,15.5479986 95.485,15.828 C94.9483307,16.1080014 94.3300035,16.248 93.63,16.248 Z M93.644,11.67 C94.0173352,11.67 94.3626651,11.5790009 94.68,11.397 C94.9973349,11.2149991 95.2493324,10.9490018 95.436,10.599 C95.6226676,10.2489982 95.716,9.83600238 95.716,9.36 C95.716,8.63199636 95.5176687,8.06500203 95.121,7.659 C94.7243314,7.25299797 94.232003,7.05 93.644,7.05 C93.2613314,7.05 92.9113349,7.14099909 92.594,7.323 C92.2766651,7.50500091 92.0246676,7.76866494 91.838,8.114 C91.6513324,8.45933506 91.558,8.87466424 91.558,9.36 C91.558,9.84533576 91.6513324,10.2606649 91.838,10.606 C92.0246676,10.9513351 92.2766651,11.2149991 92.594,11.397 C92.9113349,11.5790009 93.2613314,11.67 93.644,11.67 Z M100.024,4.824 C99.7346652,4.824 99.4896677,4.72366767 99.289,4.523 C99.0883324,4.32233233 98.988,4.07733478 98.988,3.788 C98.988,3.49866522 99.0883324,3.25366767 99.289,3.053 C99.4896677,2.85233233 99.7346652,2.752 100.024,2.752 C100.313335,2.752 100.558332,2.85233233 100.759,3.053 C100.959668,3.25366767 101.06,3.49866522 101.06,3.788 C101.06,4.07733478 100.959668,4.32233233 100.759,4.523 C100.558332,4.72366767 100.313335,4.824 100.024,4.824 Z M99.254,5.86 L100.794,5.86 L100.794,13 L99.254,13 L99.254,5.86 Z M105.466,13.224 C104.644663,13.224 103.972669,13.0443351 103.45,12.685 C102.927331,12.3256649 102.558668,11.8660028 102.344,11.306 L103.716,10.704 C103.884001,11.0773352 104.119665,11.361999 104.423,11.558 C104.726335,11.754001 105.073998,11.852 105.466,11.852 C105.848669,11.852 106.170665,11.784334 106.432,11.649 C106.693335,11.513666 106.824,11.310668 106.824,11.04 C106.824,10.7786654 106.712001,10.5733341 106.488,10.424 C106.263999,10.2746659 105.918669,10.1440006 105.452,10.032 L104.598,9.822 C104.028664,9.6819993 103.557335,9.43466844 103.184,9.08 C102.810665,8.72533156 102.624,8.27733604 102.624,7.736 C102.624,7.3159979 102.747665,6.94733492 102.995,6.63 C103.242335,6.31266508 103.575998,6.06766753 103.996,5.895 C104.416002,5.72233247 104.873331,5.636 105.368,5.636 C106.03067,5.636 106.613998,5.76899867 107.118,6.035 C107.622003,6.30100133 107.985999,6.68599748 108.21,7.19 L106.866,7.778 C106.595332,7.22733058 106.10067,6.952 105.382,6.952 C105.036665,6.952 104.747335,7.0219993 104.514,7.162 C104.280666,7.3020007 104.164,7.48399888 104.164,7.708 C104.164,7.92266774 104.252666,8.09766599 104.43,8.233 C104.607334,8.36833401 104.868665,8.4826662 105.214,8.576 L106.264,8.842 C106.964004,9.01933422 107.493665,9.28766487 107.853,9.647 C108.212335,10.0063351 108.392,10.4473307 108.392,10.97 C108.392,11.4180022 108.263668,11.8123316 108.007,12.153 C107.750332,12.4936684 107.398002,12.7573324 106.95,12.944 C106.501998,13.1306676 106.007336,13.224 105.466,13.224 Z M112.728,13.112 C112.410665,13.112 112.112001,13.0606672 111.832,12.958 C111.551999,12.8553328 111.323334,12.7200008 111.146,12.552 C110.744665,12.1506647 110.544,11.6046701 110.544,10.914 L110.544,7.218 L109.298,7.218 L109.298,5.86 L110.544,5.86 L110.544,3.844 L112.084,3.844 L112.084,5.86 L113.82,5.86 L113.82,7.218 L112.084,7.218 L112.084,10.578 C112.084,10.9606686 112.158666,11.2313325 112.308,11.39 C112.448001,11.5766676 112.690665,11.67 113.036,11.67 C113.194668,11.67 113.334666,11.6490002 113.456,11.607 C113.577334,11.5649998 113.707999,11.4973338 113.848,11.404 L113.848,12.902 C113.539999,13.0420007 113.166669,13.112 112.728,13.112 Z M115.44,5.86 L116.91,5.86 L116.91,6.91 L116.98,6.91 C117.138668,6.54599818 117.413998,6.24500119 117.806,6.007 C118.198002,5.76899881 118.613331,5.65 119.052,5.65 C119.397335,5.65 119.686666,5.6966662 119.92,5.79 L119.92,7.386 C119.509331,7.23666592 119.140668,7.162 118.814,7.162 C118.459332,7.162 118.144335,7.2553324 117.869,7.442 C117.593665,7.6286676 117.376668,7.87833177 117.218,8.191 C117.059333,8.50366823 116.98,8.8466648 116.98,9.22 L116.98,13 L115.44,13 L115.44,5.86 Z M124.088,13.224 C123.387997,13.224 122.760336,13.0606683 122.205,12.734 C121.649664,12.4073317 121.215668,11.9570029 120.903,11.383 C120.590332,10.8089971 120.434,10.1626703 120.434,9.444 C120.434,8.76266326 120.585665,8.13033625 120.889,7.547 C121.192335,6.96366375 121.614664,6.49933506 122.156,6.154 C122.697336,5.80866494 123.31333,5.636 124.004,5.636 C124.72267,5.636 125.345664,5.79466508 125.873,6.112 C126.400336,6.42933492 126.801665,6.86333058 127.077,7.414 C127.352335,7.96466942 127.49,8.58532988 127.49,9.276 C127.49,9.40666732 127.476,9.56999902 127.448,9.766 L121.974,9.766 C122.03,10.42867 122.265665,10.9396649 122.681,11.299 C123.096335,11.6583351 123.579331,11.838 124.13,11.838 C124.568669,11.838 124.948998,11.7376677 125.271,11.537 C125.593002,11.3363323 125.851999,11.0633351 126.048,10.718 L127.35,11.334 C127.013998,11.9220029 126.575336,12.3839983 126.034,12.72 C125.492664,13.0560017 124.844004,13.224 124.088,13.224 Z M125.922,8.59 C125.903333,8.33799874 125.824001,8.08833457 125.684,7.841 C125.544,7.59366543 125.331668,7.38600084 125.047,7.218 C124.762332,7.04999916 124.414669,6.966 124.004,6.966 C123.509331,6.966 123.091668,7.11299853 122.751,7.407 C122.410332,7.70100147 122.174667,8.09533086 122.044,8.59 L125.922,8.59 Z M129.04,5.86 L130.51,5.86 L130.51,6.91 L130.58,6.91 C130.738668,6.54599818 131.013998,6.24500119 131.406,6.007 C131.798002,5.76899881 132.213331,5.65 132.652,5.65 C132.997335,5.65 133.286666,5.6966662 133.52,5.79 L133.52,7.386 C133.109331,7.23666592 132.740668,7.162 132.414,7.162 C132.059332,7.162 131.744335,7.2553324 131.469,7.442 C131.193665,7.6286676 130.976668,7.87833177 130.818,8.191 C130.659333,8.50366823 130.58,8.8466648 130.58,9.22 L130.58,13 L129.04,13 L129.04,5.86 Z M140.876,13.224 C140.054663,13.224 139.382669,13.0443351 138.86,12.685 C138.337331,12.3256649 137.968668,11.8660028 137.754,11.306 L139.126,10.704 C139.294001,11.0773352 139.529665,11.361999 139.833,11.558 C140.136335,11.754001 140.483998,11.852 140.876,11.852 C141.258669,11.852 141.580665,11.784334 141.842,11.649 C142.103335,11.513666 142.234,11.310668 142.234,11.04 C142.234,10.7786654 142.122001,10.5733341 141.898,10.424 C141.673999,10.2746659 141.328669,10.1440006 140.862,10.032 L140.008,9.822 C139.438664,9.6819993 138.967335,9.43466844 138.594,9.08 C138.220665,8.72533156 138.034,8.27733604 138.034,7.736 C138.034,7.3159979 138.157666,6.94733492 138.405,6.63 C138.652335,6.31266508 138.985998,6.06766753 139.406,5.895 C139.826002,5.72233247 140.283331,5.636 140.778,5.636 C141.44067,5.636 142.023998,5.76899867 142.528,6.035 C143.032003,6.30100133 143.395999,6.68599748 143.62,7.19 L142.276,7.778 C142.005332,7.22733058 141.51067,6.952 140.792,6.952 C140.446665,6.952 140.157335,7.0219993 139.924,7.162 C139.690666,7.3020007 139.574,7.48399888 139.574,7.708 C139.574,7.92266774 139.662666,8.09766599 139.84,8.233 C140.017334,8.36833401 140.278665,8.4826662 140.624,8.576 L141.674,8.842 C142.374004,9.01933422 142.903665,9.28766487 143.263,9.647 C143.622335,10.0063351 143.802,10.4473307 143.802,10.97 C143.802,11.4180022 143.673668,11.8123316 143.417,12.153 C143.160332,12.4936684 142.808002,12.7573324 142.36,12.944 C141.911998,13.1306676 141.417336,13.224 140.876,13.224 Z M147.886,13.224 C147.017996,13.224 146.357669,12.9650026 145.905,12.447 C145.452331,11.9289974 145.226,11.2080046 145.226,10.284 L145.226,5.86 L146.766,5.86 L146.766,10.074 C146.766,10.6526696 146.903665,11.0866652 147.179,11.376 C147.454335,11.6653348 147.815998,11.81 148.264,11.81 C148.628002,11.81 148.949999,11.7143343 149.23,11.523 C149.510001,11.3316657 149.724666,11.0773349 149.874,10.76 C150.023334,10.4426651 150.098,10.1020018 150.098,9.738 L150.098,5.86 L151.638,5.86 L151.638,13 L150.182,13 L150.182,12.076 L150.098,12.076 C149.901999,12.4120017 149.598669,12.6873323 149.188,12.902 C148.777331,13.1166677 148.343336,13.224 147.886,13.224 Z M153.58,5.86 L155.05,5.86 L155.05,6.91 L155.12,6.91 C155.278668,6.54599818 155.553998,6.24500119 155.946,6.007 C156.338002,5.76899881 156.753331,5.65 157.192,5.65 C157.537335,5.65 157.826666,5.6966662 158.06,5.79 L158.06,7.386 C157.649331,7.23666592 157.280668,7.162 156.954,7.162 C156.599332,7.162 156.284335,7.2553324 156.009,7.442 C155.733665,7.6286676 155.516668,7.87833177 155.358,8.191 C155.199333,8.50366823 155.12,8.8466648 155.12,9.22 L155.12,13 L153.58,13 L153.58,5.86 Z M162.812,2.976 L164.352,2.976 L164.352,13 L162.812,13 L162.812,2.976 Z M169.5,13.224 C168.799997,13.224 168.172336,13.0606683 167.617,12.734 C167.061664,12.4073317 166.627668,11.9570029 166.315,11.383 C166.002332,10.8089971 165.846,10.1626703 165.846,9.444 C165.846,8.76266326 165.997665,8.13033625 166.301,7.547 C166.604335,6.96366375 167.026664,6.49933506 167.568,6.154 C168.109336,5.80866494 168.72533,5.636 169.416,5.636 C170.13467,5.636 170.757664,5.79466508 171.285,6.112 C171.812336,6.42933492 172.213665,6.86333058 172.489,7.414 C172.764335,7.96466942 172.902,8.58532988 172.902,9.276 C172.902,9.40666732 172.888,9.56999902 172.86,9.766 L167.386,9.766 C167.442,10.42867 167.677665,10.9396649 168.093,11.299 C168.508336,11.6583351 168.991331,11.838 169.542,11.838 C169.980669,11.838 170.360998,11.7376677 170.683,11.537 C171.005002,11.3363323 171.263999,11.0633351 171.46,10.718 L172.762,11.334 C172.425998,11.9220029 171.987336,12.3839983 171.446,12.72 C170.904664,13.0560017 170.256004,13.224 169.5,13.224 Z M171.334,8.59 C171.315333,8.33799874 171.236001,8.08833457 171.096,7.841 C170.956,7.59366543 170.743668,7.38600084 170.459,7.218 C170.174332,7.04999916 169.826669,6.966 169.416,6.966 C168.921331,6.966 168.503668,7.11299853 168.163,7.407 C167.822332,7.70100147 167.586667,8.09533086 167.456,8.59 L171.334,8.59 Z M180.804,13.112 C180.486665,13.112 180.188002,13.0606672 179.908,12.958 C179.627999,12.8553328 179.399334,12.7200008 179.222,12.552 C178.820665,12.1506647 178.62,11.6046701 178.62,10.914 L178.62,7.218 L177.374,7.218 L177.374,5.86 L178.62,5.86 L178.62,3.844 L180.16,3.844 L180.16,5.86 L181.896,5.86 L181.896,7.218 L180.16,7.218 L180.16,10.578 C180.16,10.9606686 180.234666,11.2313325 180.384,11.39 C180.524001,11.5766676 180.766665,11.67 181.112,11.67 C181.270668,11.67 181.410666,11.6490002 181.532,11.607 C181.653334,11.5649998 181.783999,11.4973338 181.924,11.404 L181.924,12.902 C181.615999,13.0420007 181.242669,13.112 180.804,13.112 Z M186.498,13.224 C185.797997,13.224 185.170336,13.0606683 184.615,12.734 C184.059664,12.4073317 183.625668,11.9570029 183.313,11.383 C183.000332,10.8089971 182.844,10.1626703 182.844,9.444 C182.844,8.76266326 182.995665,8.13033625 183.299,7.547 C183.602335,6.96366375 184.024664,6.49933506 184.566,6.154 C185.107336,5.80866494 185.72333,5.636 186.414,5.636 C187.13267,5.636 187.755664,5.79466508 188.283,6.112 C188.810336,6.42933492 189.211665,6.86333058 189.487,7.414 C189.762335,7.96466942 189.9,8.58532988 189.9,9.276 C189.9,9.40666732 189.886,9.56999902 189.858,9.766 L184.384,9.766 C184.44,10.42867 184.675665,10.9396649 185.091,11.299 C185.506336,11.6583351 185.989331,11.838 186.54,11.838 C186.978669,11.838 187.358999,11.7376677 187.681,11.537 C188.003002,11.3363323 188.261999,11.0633351 188.458,10.718 L189.76,11.334 C189.423998,11.9220029 188.985336,12.3839983 188.444,12.72 C187.902664,13.0560017 187.254004,13.224 186.498,13.224 Z M188.332,8.59 C188.313333,8.33799874 188.234001,8.08833457 188.094,7.841 C187.954,7.59366543 187.741668,7.38600084 187.457,7.218 C187.172332,7.04999916 186.824669,6.966 186.414,6.966 C185.919331,6.966 185.501668,7.11299853 185.161,7.407 C184.820332,7.70100147 184.584667,8.09533086 184.454,8.59 L188.332,8.59 Z M186.428,2.654 L188.178,2.654 L187.058,4.488 L185.77,4.488 L186.428,2.654 Z M191.45,2.976 L192.99,2.976 L192.99,13 L191.45,13 L191.45,2.976 Z M198.138,13.224 C197.437997,13.224 196.810336,13.0606683 196.255,12.734 C195.699664,12.4073317 195.265668,11.9570029 194.953,11.383 C194.640332,10.8089971 194.484,10.1626703 194.484,9.444 C194.484,8.76266326 194.635665,8.13033625 194.939,7.547 C195.242335,6.96366375 195.664664,6.49933506 196.206,6.154 C196.747336,5.80866494 197.36333,5.636 198.054,5.636 C198.77267,5.636 199.395664,5.79466508 199.923,6.112 C200.450336,6.42933492 200.851665,6.86333058 201.127,7.414 C201.402335,7.96466942 201.54,8.58532988 201.54,9.276 C201.54,9.40666732 201.526,9.56999902 201.498,9.766 L196.024,9.766 C196.08,10.42867 196.315665,10.9396649 196.731,11.299 C197.146336,11.6583351 197.629331,11.838 198.18,11.838 C198.618669,11.838 198.998999,11.7376677 199.321,11.537 C199.643002,11.3363323 199.901999,11.0633351 200.098,10.718 L201.4,11.334 C201.063998,11.9220029 200.625336,12.3839983 200.084,12.72 C199.542664,13.0560017 198.894004,13.224 198.138,13.224 Z M199.972,8.59 C199.953333,8.33799874 199.874001,8.08833457 199.734,7.841 C199.594,7.59366543 199.381668,7.38600084 199.097,7.218 C198.812332,7.04999916 198.464669,6.966 198.054,6.966 C197.559331,6.966 197.141669,7.11299853 196.801,7.407 C196.460332,7.70100147 196.224667,8.09533086 196.094,8.59 L199.972,8.59 Z M198.068,2.654 L199.818,2.654 L198.698,4.488 L197.41,4.488 L198.068,2.654 Z M203.034,5.86 L204.504,5.86 L204.504,6.798 L204.574,6.798 C204.779334,6.4713317 205.082665,6.19600112 205.484,5.972 C205.885335,5.74799888 206.337998,5.636 206.842,5.636 C207.486003,5.636 208.069331,5.7993317 208.592,6.126 C209.114669,6.4526683 209.527665,6.90299713 209.831,7.477 C210.134335,8.05100287 210.286,8.70199636 210.286,9.43 C210.286,10.1580036 210.134335,10.8089971 209.831,11.383 C209.527665,11.9570029 209.114669,12.4073317 208.592,12.734 C208.069331,13.0606683 207.486003,13.224 206.842,13.224 C206.337998,13.224 205.885335,13.1120011 205.484,12.888 C205.082665,12.6639989 204.779334,12.3933349 204.574,12.076 L204.504,12.076 L204.574,13.07 L204.574,16.024 L203.034,16.024 L203.034,5.86 Z M206.618,11.81 C206.991335,11.81 207.341332,11.712001 207.668,11.516 C207.994668,11.319999 208.255999,11.0400018 208.452,10.676 C208.648001,10.3119982 208.746,9.896669 208.746,9.43 C208.746,8.963331 208.648001,8.55033513 208.452,8.191 C208.255999,7.83166487 207.994668,7.55400098 207.668,7.358 C207.341332,7.16199902 206.991335,7.064 206.618,7.064 C206.244665,7.064 205.897002,7.16199902 205.575,7.358 C205.252999,7.55400098 204.994001,7.83166487 204.798,8.191 C204.601999,8.55033513 204.504,8.963331 204.504,9.43 C204.504,9.896669 204.601999,10.3119982 204.798,10.676 C204.994001,11.0400018 205.252999,11.319999 205.575,11.516 C205.897002,11.712001 206.244665,11.81 206.618,11.81 Z M211.696,2.976 L213.236,2.976 L213.236,5.706 L213.166,6.798 L213.236,6.798 C213.441335,6.46199832 213.746998,6.18433443 214.153,5.965 C214.559002,5.74566557 214.995331,5.636 215.462,5.636 C216.330004,5.636 216.992665,5.89033079 217.45,6.399 C217.907336,6.90766921 218.136,7.60066228 218.136,8.478 L218.136,13 L216.596,13 L216.596,8.688 C216.596,8.14666396 216.453668,7.74066802 216.169,7.47 C215.884332,7.19933198 215.513336,7.064 215.056,7.064 C214.710665,7.064 214.400335,7.16199902 214.125,7.358 C213.849665,7.55400098 213.632668,7.81299839 213.474,8.135 C213.315333,8.45700161 213.236,8.79999818 213.236,9.164 L213.236,13 L211.696,13 L211.696,2.976 Z M223.382,13.224 C222.66333,13.224 222.019336,13.058335 221.45,12.727 C220.880664,12.395665 220.437335,11.9406696 220.12,11.362 C219.802665,10.7833304 219.644,10.1393369 219.644,9.43 C219.644,8.72066312 219.802665,8.07666956 220.12,7.498 C220.437335,6.91933044 220.880664,6.46433499 221.45,6.133 C222.019336,5.80166501 222.66333,5.636 223.382,5.636 C224.10067,5.636 224.744664,5.80399832 225.314,6.14 C225.883336,6.47600168 226.326665,6.93333044 226.644,7.512 C226.961335,8.09066956 227.12,8.7299965 227.12,9.43 C227.12,10.1393369 226.961335,10.7833304 226.644,11.362 C226.326665,11.9406696 225.883336,12.395665 225.314,12.727 C224.744664,13.058335 224.10067,13.224 223.382,13.224 Z M223.382,11.81 C223.774002,11.81 224.137998,11.7143343 224.474,11.523 C224.810002,11.3316657 225.078332,11.0563351 225.279,10.697 C225.479668,10.3376649 225.58,9.91533576 225.58,9.43 C225.58,8.94466424 225.479668,8.52466844 225.279,8.17 C225.078332,7.81533156 224.810002,7.54233429 224.474,7.351 C224.137998,7.15966571 223.774002,7.064 223.382,7.064 C222.989998,7.064 222.626002,7.15966571 222.29,7.351 C221.953998,7.54233429 221.685668,7.81533156 221.485,8.17 C221.284332,8.52466844 221.184,8.94466424 221.184,9.43 C221.184,9.91533576 221.284332,10.3376649 221.485,10.697 C221.685668,11.0563351 221.953998,11.3316657 222.29,11.523 C222.626002,11.7143343 222.989998,11.81 223.382,11.81 Z M228.544,5.86 L230.014,5.86 L230.014,6.798 L230.084,6.798 C230.289335,6.46199832 230.594998,6.18433443 231.001,5.965 C231.407002,5.74566557 231.838665,5.636 232.296,5.636 C233.164004,5.636 233.824331,5.89033079 234.277,6.399 C234.729669,6.90766921 234.956,7.60066228 234.956,8.478 L234.956,13 L233.416,13 L233.416,8.688 C233.416,8.1279972 233.278335,7.71733464 233.003,7.456 C232.727665,7.19466536 232.347336,7.064 231.862,7.064 C231.516665,7.064 231.208668,7.15966571 230.938,7.351 C230.667332,7.54233429 230.457334,7.79666508 230.308,8.114 C230.158666,8.43133492 230.084,8.77199818 230.084,9.136 L230.084,13 L228.544,13 L228.544,5.86 Z M240.104,13.224 C239.403997,13.224 238.776336,13.0606683 238.221,12.734 C237.665664,12.4073317 237.231668,11.9570029 236.919,11.383 C236.606332,10.8089971 236.45,10.1626703 236.45,9.444 C236.45,8.76266326 236.601665,8.13033625 236.905,7.547 C237.208335,6.96366375 237.630664,6.49933506 238.172,6.154 C238.713336,5.80866494 239.32933,5.636 240.02,5.636 C240.73867,5.636 241.361664,5.79466508 241.889,6.112 C242.416336,6.42933492 242.817665,6.86333058 243.093,7.414 C243.368335,7.96466942 243.506,8.58532988 243.506,9.276 C243.506,9.40666732 243.492,9.56999902 243.464,9.766 L237.99,9.766 C238.046,10.42867 238.281665,10.9396649 238.697,11.299 C239.112336,11.6583351 239.595331,11.838 240.146,11.838 C240.584669,11.838 240.964999,11.7376677 241.287,11.537 C241.609002,11.3363323 241.867999,11.0633351 242.064,10.718 L243.366,11.334 C243.029998,11.9220029 242.591336,12.3839983 242.05,12.72 C241.508664,13.0560017 240.860004,13.224 240.104,13.224 Z M241.938,8.59 C241.919333,8.33799874 241.840001,8.08833457 241.7,7.841 C241.56,7.59366543 241.347668,7.38600084 241.063,7.218 C240.778332,7.04999916 240.430669,6.966 240.02,6.966 C239.525331,6.966 239.107669,7.11299853 238.767,7.407 C238.426332,7.70100147 238.190667,8.09533086 238.06,8.59 L241.938,8.59 Z" id="Enregistrersurletéléphonee" fill="#3C4043" fill-rule="nonzero"></path>
                    <rect id="Rectangle-Copy" fill="#202124" opacity="0.100000001" x="50" y="0" width="1" height="16"></rect>
                    <g id="Gpay-logo-18px-h-Copy">
                        <g id="GPay" transform="translate(0.000000, 0.261474)">
                            <g id="Pay" transform="translate(17.615069, 0.825706)" fill="#5F6368">
                                <path d="M1.64941186,1.54761702 L1.64941186,5.63067176 L4.1674047,5.63067176 C4.76721599,5.63067176 5.26322816,5.42908551 5.65562807,5.02591302 C6.05830511,4.6236738 6.26011078,4.1439732 6.26011078,3.58867775 C6.26011078,3.04458155 6.05830511,2.57048056 5.65562807,2.16730807 C5.26322816,1.75386962 4.76721599,1.54668375 4.1674047,1.54668375 L1.64941186,1.54668375 L1.64941186,1.54761702 Z M1.64941186,7.06790702 L1.64941186,11.8042505 L0.145212207,11.8042505 L0.145212207,0.110381756 L4.13461128,0.110381756 C5.14840447,0.110381756 6.00888141,0.448225371 6.71791067,1.12297933 C7.43740394,1.79773329 7.79701042,2.61994385 7.79701042,3.58867775 C7.79701042,4.57981013 7.43731051,5.40762031 6.71791067,6.07117503 C6.01999941,6.73566302 5.15858818,7.06697375 4.13461128,7.06697375 L1.64941186,7.06697375 L1.64941186,7.06790702 Z" id="Fill-1"></path>
                                <path d="M9.31707424,9.35440834 C9.31707424,9.74638159 9.48337706,10.073026 9.81607612,10.3343415 C10.1485883,10.595657 10.5381854,10.7263147 10.9848673,10.7263147 C11.6172851,10.7263147 12.1806593,10.4919707 12.6767649,10.024496 C13.1729639,9.55599458 13.4204561,9.00629876 13.4204561,8.37540847 C12.9514448,8.00490042 12.297445,7.82011303 11.4584566,7.82011303 C10.8475273,7.82011303 10.3383417,7.96756963 9.93005895,8.26154958 C9.52168276,8.55543619 9.31707424,8.91857141 9.31707424,9.35440834 M11.2631909,3.5401384 C12.3749907,3.5401384 13.2522848,3.83691815 13.8961009,4.43047765 C14.5388893,5.02403715 14.8601901,5.83784829 14.8601901,6.87191106 L14.8601901,11.8042412 L13.4214839,11.8042412 L13.4214839,10.6936503 L13.3559904,10.6936503 C12.7346906,11.6081612 11.9059794,12.0655567 10.8708844,12.0655567 C9.98798466,12.0655567 9.24896483,11.8042412 8.65560011,11.2816102 C8.06148796,10.7589792 7.76438517,10.1056904 7.76438517,9.3217439 C7.76438517,8.49393372 8.07727739,7.83588529 8.70418295,7.34601205 C9.33108852,6.85604548 10.1673675,6.61059556 11.2137672,6.61059556 C12.1068507,6.61059556 12.8430677,6.77391775 13.4204561,7.10056213 L13.4204561,6.75711889 C13.4204561,6.23448789 13.2130448,5.7911848 12.7992497,5.42627637 C12.3843335,5.06136793 11.9003736,4.87938035 11.3444738,4.87938035 C10.5045511,4.87938035 9.84036755,5.23308955 9.34986766,5.94144122 L8.0249574,5.10803142 C8.75556866,4.06276941 9.83466841,3.5401384 11.2631909,3.5401384" id="Fill-3"></path>
                                <polygon id="Fill-5" points="23.1164897 3.8014539 18.0966672 15.3320005 16.5437912 15.3320005 18.4077842 11.2974758 15.1049916 3.8014539 16.7399912 3.8014539 19.1270906 9.55039497 19.1597906 9.55039497 21.4814901 3.8014539"></polygon>
                            </g>
                            <g id="G">
                                <path d="M13.1865148,6.87260706 C13.1865148,6.39943935 13.1463406,5.94307048 13.0706634,5.50630029 L6.72686492,5.50630029 L6.72686492,8.09425704 L10.3603012,8.09425704 C10.2042755,8.93783948 9.73246136,9.65561717 9.01679867,10.136251 L9.01679867,11.8170697 L11.1852753,11.8170697 C12.4549693,10.6467495 13.1865148,8.91740087 13.1865148,6.87260706" id="Fill-8" fill="#4285F4"></path>
                                <path d="M6.72685557,13.439083 C8.54217229,13.439083 10.0706634,12.843657 11.185266,11.8170603 L9.01678933,10.1362417 C8.4132409,10.542214 7.63591536,10.7792645 6.72685557,10.7792645 C4.97226741,10.7792645 3.48301633,9.59774511 2.9504736,8.00558709 L0.716596976,8.00558709 L0.716596976,9.73680229 C1.82372529,11.9318525 4.09871047,13.439083 6.72685557,13.439083" id="Fill-10" fill="#34A853"></path>
                                <path d="M2.95048294,8.00556842 C2.81407726,7.59959612 2.73933442,7.166559 2.73933442,6.71952284 C2.73933442,6.27248667 2.81407726,5.83944956 2.95048294,5.43347726 L2.95048294,3.70226205 L0.716606319,3.70226205 C0.258806425,4.60940015 9.34285496e-06,5.63413023 9.34285496e-06,6.71952284 C9.34285496e-06,7.80491544 0.258806425,8.82973885 0.716606319,9.73678363 L2.95048294,8.00556842 Z" id="Fill-12" fill="#FABB05"></path>
                                <path d="M6.72685557,2.65981851 C7.71813249,2.65981851 8.60663799,3.00046194 9.30735212,3.66774974 L9.30735212,3.66868301 L11.2273088,1.75081387 C10.0613205,0.666354532 8.54123801,0 6.72685557,0 C4.09871047,0 1.82372529,1.50723049 0.716596976,3.70228071 L2.9504736,5.43349592 C3.48301633,3.84133789 4.97226741,2.65981851 6.72685557,2.65981851" id="Fill-14" fill="#E94235"></path>
                            </g>
                        </g>
                    </g>
                </g>
            </g>
        </g>
    </g>
</svg>