<?xml version="1.0" encoding="UTF-8"?>
<svg width="288px" height="44px" viewBox="0 0 288 44" version="1.1" xmlns="http://www.w3.org/2000/svg" xmlns:xlink="http://www.w3.org/1999/xlink">
    <!-- Generator: Sketch 58 (84663) - https://sketch.com -->
    <title>Save to Google Pay - Polish (Dark)</title>
    <desc>Created with Sketch.</desc>
    <defs>
        <path d="M4,0 L276,0 C278.209139,-4.05812251e-16 280,1.790861 280,4 L280,32 C280,34.209139 278.209139,36 276,36 L4,36 C1.790861,36 2.705415e-16,34.209139 0,32 L0,4 C-2.705415e-16,1.790861 1.790861,4.05812251e-16 4,0 Z" id="path-1"></path>
        <filter x="-2.3%" y="-15.3%" width="104.6%" height="136.1%" filterUnits="objectBoundingBox" id="filter-2">
            <feMorphology radius="0.5" operator="dilate" in="SourceAlpha" result="shadowSpreadOuter1"></feMorphology>
            <feOffset dx="0" dy="1" in="shadowSpreadOuter1" result="shadowOffsetOuter1"></feOffset>
            <feGaussianBlur stdDeviation="1.5" in="shadowOffsetOuter1" result="shadowBlurOuter1"></feGaussianBlur>
            <feColorMatrix values="0 0 0 0 0.235294118   0 0 0 0 0.250980392   0 0 0 0 0.262745098  0 0 0 0.15 0" type="matrix" in="shadowBlurOuter1" result="shadowMatrixOuter1"></feColorMatrix>
            <feOffset dx="0" dy="1" in="SourceAlpha" result="shadowOffsetOuter2"></feOffset>
            <feGaussianBlur stdDeviation="0.5" in="shadowOffsetOuter2" result="shadowBlurOuter2"></feGaussianBlur>
            <feColorMatrix values="0 0 0 0 0.235294118   0 0 0 0 0.250980392   0 0 0 0 0.262745098  0 0 0 0.3 0" type="matrix" in="shadowBlurOuter2" result="shadowMatrixOuter2"></feColorMatrix>
            <feMerge>
                <feMergeNode in="shadowMatrixOuter1"></feMergeNode>
                <feMergeNode in="shadowMatrixOuter2"></feMergeNode>
            </feMerge>
        </filter>
    </defs>
    <g id="Buttons-(Save-to-phone)" stroke="none" stroke-width="1" fill="none" fill-rule="evenodd">
        <g id="Language-Variations---Flattened" transform="translate(-192.000000, -1194.000000)">
            <g id="Save-to-Google-Pay---Polish-(Dark)" transform="translate(196.000000, 1197.000000)">
                <g id="bg-copy-3">
                    <use fill="black" fill-opacity="1" filter="url(#filter-2)" xlink:href="#path-1"></use>
                    <use fill="#000000" fill-rule="evenodd" xlink:href="#path-1"></use>
                </g>
                <g id="buttonContent" transform="translate(50.000000, 10.000000)">
                    <rect id="Rectangle" fill="#3C4043" x="50" y="0" width="1" height="16"></rect>
                    <g id="Gpay-logo-18px-h">
                        <g id="GPay" transform="translate(0.000000, 0.261474)">
                            <g id="Pay" transform="translate(17.615069, 0.825706)" fill="#FFFFFF">
                                <path d="M1.64941186,1.54761702 L1.64941186,5.63067176 L4.1674047,5.63067176 C4.76721599,5.63067176 5.26322816,5.42908551 5.65562807,5.02591302 C6.05830511,4.6236738 6.26011078,4.1439732 6.26011078,3.58867775 C6.26011078,3.04458155 6.05830511,2.57048056 5.65562807,2.16730807 C5.26322816,1.75386962 4.76721599,1.54668375 4.1674047,1.54668375 L1.64941186,1.54668375 L1.64941186,1.54761702 Z M1.64941186,7.06790702 L1.64941186,11.8042505 L0.145212207,11.8042505 L0.145212207,0.110381756 L4.13461128,0.110381756 C5.14840447,0.110381756 6.00888141,0.448225371 6.71791067,1.12297933 C7.43740394,1.79773329 7.79701042,2.61994385 7.79701042,3.58867775 C7.79701042,4.57981013 7.43731051,5.40762031 6.71791067,6.07117503 C6.01999941,6.73566302 5.15858818,7.06697375 4.13461128,7.06697375 L1.64941186,7.06697375 L1.64941186,7.06790702 Z" id="Fill-1"></path>
                                <path d="M9.31707424,9.35440834 C9.31707424,9.74638159 9.48337706,10.073026 9.81607612,10.3343415 C10.1485883,10.595657 10.5381854,10.7263147 10.9848673,10.7263147 C11.6172851,10.7263147 12.1806593,10.4919707 12.6767649,10.024496 C13.1729639,9.55599458 13.4204561,9.00629876 13.4204561,8.37540847 C12.9514448,8.00490042 12.297445,7.82011303 11.4584566,7.82011303 C10.8475273,7.82011303 10.3383417,7.96756963 9.93005895,8.26154958 C9.52168276,8.55543619 9.31707424,8.91857141 9.31707424,9.35440834 M11.2631909,3.5401384 C12.3749907,3.5401384 13.2522848,3.83691815 13.8961009,4.43047765 C14.5388893,5.02403715 14.8601901,5.83784829 14.8601901,6.87191106 L14.8601901,11.8042412 L13.4214839,11.8042412 L13.4214839,10.6936503 L13.3559904,10.6936503 C12.7346906,11.6081612 11.9059794,12.0655567 10.8708844,12.0655567 C9.98798466,12.0655567 9.24896483,11.8042412 8.65560011,11.2816102 C8.06148796,10.7589792 7.76438517,10.1056904 7.76438517,9.3217439 C7.76438517,8.49393372 8.07727739,7.83588529 8.70418295,7.34601205 C9.33108852,6.85604548 10.1673675,6.61059556 11.2137672,6.61059556 C12.1068507,6.61059556 12.8430677,6.77391775 13.4204561,7.10056213 L13.4204561,6.75711889 C13.4204561,6.23448789 13.2130448,5.7911848 12.7992497,5.42627637 C12.3843335,5.06136793 11.9003736,4.87938035 11.3444738,4.87938035 C10.5045511,4.87938035 9.84036755,5.23308955 9.34986766,5.94144122 L8.0249574,5.10803142 C8.75556866,4.06276941 9.83466841,3.5401384 11.2631909,3.5401384" id="Fill-3"></path>
                                <polygon id="Fill-5" points="23.1164897 3.8014539 18.0966672 15.3320005 16.5437912 15.3320005 18.4077842 11.2974758 15.1049916 3.8014539 16.7399912 3.8014539 19.1270906 9.55039497 19.1597906 9.55039497 21.4814901 3.8014539"></polygon>
                            </g>
                            <g id="G">
                                <path d="M13.1865148,6.87260706 C13.1865148,6.39943935 13.1463406,5.94307048 13.0706634,5.50630029 L6.72686492,5.50630029 L6.72686492,8.09425704 L10.3603012,8.09425704 C10.2042755,8.93783948 9.73246136,9.65561717 9.01679867,10.136251 L9.01679867,11.8170697 L11.1852753,11.8170697 C12.4549693,10.6467495 13.1865148,8.91740087 13.1865148,6.87260706" id="Fill-8" fill="#4285F4"></path>
                                <path d="M6.72685557,13.439083 C8.54217229,13.439083 10.0706634,12.843657 11.185266,11.8170603 L9.01678933,10.1362417 C8.4132409,10.542214 7.63591536,10.7792645 6.72685557,10.7792645 C4.97226741,10.7792645 3.48301633,9.59774511 2.9504736,8.00558709 L0.716596976,8.00558709 L0.716596976,9.73680229 C1.82372529,11.9318525 4.09871047,13.439083 6.72685557,13.439083" id="Fill-10" fill="#34A853"></path>
                                <path d="M2.95048294,8.00556842 C2.81407726,7.59959612 2.73933442,7.166559 2.73933442,6.71952284 C2.73933442,6.27248667 2.81407726,5.83944956 2.95048294,5.43347726 L2.95048294,3.70226205 L0.716606319,3.70226205 C0.258806425,4.60940015 9.34285496e-06,5.63413023 9.34285496e-06,6.71952284 C9.34285496e-06,7.80491544 0.258806425,8.82973885 0.716606319,9.73678363 L2.95048294,8.00556842 Z" id="Fill-12" fill="#FABB05"></path>
                                <path d="M6.72685557,2.65981851 C7.71813249,2.65981851 8.60663799,3.00046194 9.30735212,3.66774974 L9.30735212,3.66868301 L11.2273088,1.75081387 C10.0613205,0.666354532 8.54123801,0 6.72685557,0 C4.09871047,0 1.82372529,1.50723049 0.716596976,3.70228071 L2.9504736,5.43349592 C3.48301633,3.84133789 4.97226741,2.65981851 6.72685557,2.65981851" id="Fill-14" fill="#E94235"></path>
                            </g>
                        </g>
                    </g>
                    <path d="M60.046,11.39 L65.268,4.474 L60.27,4.474 L60.27,2.976 L67.088,2.976 L67.088,4.586 L61.894,11.502 L67.144,11.502 L67.144,13 L60.046,13 L60.046,11.39 Z M71.088,13.224 C70.5746641,13.224 70.1173353,13.1236677 69.716,12.923 C69.3146647,12.7223323 69.0020011,12.4376685 68.778,12.069 C68.5539989,11.7003315 68.442,11.282669 68.442,10.816 C68.442,10.078663 68.7196639,9.49533548 69.275,9.066 C69.8303361,8.63666452 70.5326624,8.422 71.382,8.422 C71.8020021,8.422 72.1799983,8.46166627 72.516,8.541 C72.8520017,8.62033373 73.117999,8.7066662 73.314,8.8 L73.314,8.436 C73.314,7.99733114 73.1506683,7.64033471 72.824,7.365 C72.4973317,7.08966529 72.0773359,6.952 71.564,6.952 C71.1999982,6.952 70.8570016,7.03133254 70.535,7.19 C70.2129984,7.34866746 69.954001,7.5679986 69.758,7.848 L68.68,7.022 C68.9973349,6.58333114 69.4079975,6.24266788 69.912,6 C70.4160025,5.75733212 70.9759969,5.636 71.592,5.636 C72.6280052,5.636 73.4259972,5.89033079 73.986,6.399 C74.5460028,6.90766921 74.826,7.62399538 74.826,8.548 L74.826,13 L73.314,13 L73.314,12.146 L73.244,12.146 C73.0386656,12.4540015 72.7493352,12.7106656 72.376,12.916 C72.0026648,13.1213344 71.5733358,13.224 71.088,13.224 Z M71.354,11.95 C71.7273352,11.95 72.0633318,11.8613342 72.362,11.684 C72.6606682,11.5066658 72.8939992,11.2686682 73.062,10.97 C73.2300008,10.6713318 73.314,10.3493351 73.314,10.004 C73.0993323,9.88266606 72.8496681,9.78466704 72.565,9.71 C72.2803319,9.63533296 71.9840015,9.598 71.676,9.598 C71.0973304,9.598 70.672668,9.71233219 70.402,9.941 C70.131332,10.1696678 69.996,10.4659982 69.996,10.83 C69.996,11.1566683 70.1219987,11.4249989 70.374,11.635 C70.6260013,11.8450011 70.9526647,11.95 71.354,11.95 Z M76.6,5.86 L78.07,5.86 L78.07,6.798 L78.14,6.798 C78.3453344,6.4713317 78.6486647,6.19600112 79.05,5.972 C79.4513354,5.74799888 79.9039975,5.636 80.408,5.636 C81.0520032,5.636 81.6353307,5.7993317 82.158,6.126 C82.6806693,6.4526683 83.0936652,6.90299713 83.397,7.477 C83.7003349,8.05100287 83.852,8.70199636 83.852,9.43 C83.852,10.1580036 83.7003349,10.8089971 83.397,11.383 C83.0936652,11.9570029 82.6806693,12.4073317 82.158,12.734 C81.6353307,13.0606683 81.0520032,13.224 80.408,13.224 C79.9039975,13.224 79.4513354,13.1120011 79.05,12.888 C78.6486647,12.6639989 78.3453344,12.3933349 78.14,12.076 L78.07,12.076 L78.14,13.07 L78.14,16.024 L76.6,16.024 L76.6,5.86 Z M80.184,11.81 C80.5573352,11.81 80.9073317,11.712001 81.234,11.516 C81.5606683,11.319999 81.821999,11.0400018 82.018,10.676 C82.214001,10.3119982 82.312,9.896669 82.312,9.43 C82.312,8.963331 82.214001,8.55033513 82.018,8.191 C81.821999,7.83166487 81.5606683,7.55400098 81.234,7.358 C80.9073317,7.16199902 80.5573352,7.064 80.184,7.064 C79.8106648,7.064 79.4630016,7.16199902 79.141,7.358 C78.8189984,7.55400098 78.560001,7.83166487 78.364,8.191 C78.167999,8.55033513 78.07,8.963331 78.07,9.43 C78.07,9.896669 78.167999,10.3119982 78.364,10.676 C78.560001,11.0400018 78.8189984,11.319999 79.141,11.516 C79.4630016,11.712001 79.8106648,11.81 80.184,11.81 Z M86.214,4.824 C85.9246652,4.824 85.6796677,4.72366767 85.479,4.523 C85.2783323,4.32233233 85.178,4.07733478 85.178,3.788 C85.178,3.49866522 85.2783323,3.25366767 85.479,3.053 C85.6796677,2.85233233 85.9246652,2.752 86.214,2.752 C86.5033348,2.752 86.7483323,2.85233233 86.949,3.053 C87.1496677,3.25366767 87.25,3.49866522 87.25,3.788 C87.25,4.07733478 87.1496677,4.32233233 86.949,4.523 C86.7483323,4.72366767 86.5033348,4.824 86.214,4.824 Z M85.444,5.86 L86.984,5.86 L86.984,13 L85.444,13 L85.444,5.86 Z M91.656,13.224 C90.8346626,13.224 90.1626693,13.0443351 89.64,12.685 C89.1173307,12.3256649 88.7486678,11.8660028 88.534,11.306 L89.906,10.704 C90.0740009,11.0773352 90.3096652,11.361999 90.613,11.558 C90.9163349,11.754001 91.2639981,11.852 91.656,11.852 C92.0386686,11.852 92.3606654,11.784334 92.622,11.649 C92.8833347,11.513666 93.014,11.310668 93.014,11.04 C93.014,10.7786654 92.9020011,10.5733341 92.678,10.424 C92.4539989,10.2746659 92.108669,10.1440006 91.642,10.032 L90.788,9.822 C90.2186638,9.6819993 89.7473352,9.43466844 89.374,9.08 C89.0006648,8.72533156 88.814,8.27733604 88.814,7.736 C88.814,7.3159979 88.9376655,6.94733492 89.185,6.63 C89.4323346,6.31266508 89.7659979,6.06766753 90.186,5.895 C90.6060021,5.72233247 91.0633309,5.636 91.558,5.636 C92.22067,5.636 92.8039975,5.76899867 93.308,6.035 C93.8120025,6.30100133 94.1759989,6.68599748 94.4,7.19 L93.056,7.778 C92.785332,7.22733058 92.2906703,6.952 91.572,6.952 C91.226665,6.952 90.9373345,7.0219993 90.704,7.162 C90.4706655,7.3020007 90.354,7.48399888 90.354,7.708 C90.354,7.92266774 90.4426658,8.09766599 90.62,8.233 C90.7973342,8.36833401 91.058665,8.4826662 91.404,8.576 L92.454,8.842 C93.1540035,9.01933422 93.6836649,9.28766487 94.043,9.647 C94.4023352,10.0063351 94.582,10.4473307 94.582,10.97 C94.582,11.4180022 94.453668,11.8123316 94.197,12.153 C93.9403321,12.4936684 93.5880023,12.7573324 93.14,12.944 C92.6919978,13.1306676 92.1973361,13.224 91.656,13.224 Z M95.698,11.712 L99.646,7.218 L95.81,7.218 L95.81,5.86 L101.536,5.86 L101.536,7.162 L97.588,11.656 L101.648,11.656 L101.648,13 L95.698,13 L95.698,11.712 Z M105.854,5.86 L107.52,5.86 L108.962,10.97 L109.018,10.97 L110.628,5.86 L112.21,5.86 L113.806,10.97 L113.862,10.97 L115.304,5.86 L116.942,5.86 L114.66,13 L113.036,13 L111.398,7.876 L111.356,7.876 L109.732,13 L108.136,13 L105.854,5.86 Z M124.438,13.112 C124.120665,13.112 123.822001,13.0606672 123.542,12.958 C123.261999,12.8553328 123.033334,12.7200008 122.856,12.552 C122.454665,12.1506647 122.254,11.6046701 122.254,10.914 L122.254,7.218 L121.008,7.218 L121.008,5.86 L122.254,5.86 L122.254,3.844 L123.794,3.844 L123.794,5.86 L125.53,5.86 L125.53,7.218 L123.794,7.218 L123.794,10.578 C123.794,10.9606686 123.868666,11.2313325 124.018,11.39 C124.158001,11.5766676 124.400665,11.67 124.746,11.67 C124.904668,11.67 125.044666,11.6490002 125.166,11.607 C125.287334,11.5649998 125.417999,11.4973338 125.558,11.404 L125.558,12.902 C125.249999,13.0420007 124.876669,13.112 124.438,13.112 Z M130.132,13.224 C129.431997,13.224 128.804336,13.0606683 128.249,12.734 C127.693664,12.4073317 127.259668,11.9570029 126.947,11.383 C126.634332,10.8089971 126.478,10.1626703 126.478,9.444 C126.478,8.76266326 126.629665,8.13033625 126.933,7.547 C127.236335,6.96366375 127.658664,6.49933506 128.2,6.154 C128.741336,5.80866494 129.35733,5.636 130.048,5.636 C130.76667,5.636 131.389664,5.79466508 131.917,6.112 C132.444336,6.42933492 132.845665,6.86333058 133.121,7.414 C133.396335,7.96466942 133.534,8.58532988 133.534,9.276 C133.534,9.40666732 133.52,9.56999902 133.492,9.766 L128.018,9.766 C128.074,10.42867 128.309665,10.9396649 128.725,11.299 C129.140335,11.6583351 129.623331,11.838 130.174,11.838 C130.612669,11.838 130.992998,11.7376677 131.315,11.537 C131.637002,11.3363323 131.895999,11.0633351 132.092,10.718 L133.394,11.334 C133.057998,11.9220029 132.619336,12.3839983 132.078,12.72 C131.536664,13.0560017 130.888004,13.224 130.132,13.224 Z M131.966,8.59 C131.947333,8.33799874 131.868001,8.08833457 131.728,7.841 C131.588,7.59366543 131.375668,7.38600084 131.091,7.218 C130.806332,7.04999916 130.458669,6.966 130.048,6.966 C129.553331,6.966 129.135668,7.11299853 128.795,7.407 C128.454332,7.70100147 128.218667,8.09533086 128.088,8.59 L131.966,8.59 Z M135.084,2.976 L136.624,2.976 L136.624,13 L135.084,13 L135.084,2.976 Z M141.772,13.224 C141.071997,13.224 140.444336,13.0606683 139.889,12.734 C139.333664,12.4073317 138.899668,11.9570029 138.587,11.383 C138.274332,10.8089971 138.118,10.1626703 138.118,9.444 C138.118,8.76266326 138.269665,8.13033625 138.573,7.547 C138.876335,6.96366375 139.298664,6.49933506 139.84,6.154 C140.381336,5.80866494 140.99733,5.636 141.688,5.636 C142.40667,5.636 143.029664,5.79466508 143.557,6.112 C144.084336,6.42933492 144.485665,6.86333058 144.761,7.414 C145.036335,7.96466942 145.174,8.58532988 145.174,9.276 C145.174,9.40666732 145.16,9.56999902 145.132,9.766 L139.658,9.766 C139.714,10.42867 139.949665,10.9396649 140.365,11.299 C140.780335,11.6583351 141.263331,11.838 141.814,11.838 C142.252669,11.838 142.632998,11.7376677 142.955,11.537 C143.277002,11.3363323 143.535999,11.0633351 143.732,10.718 L145.034,11.334 C144.697998,11.9220029 144.259336,12.3839983 143.718,12.72 C143.176664,13.0560017 142.528004,13.224 141.772,13.224 Z M143.606,8.59 C143.587333,8.33799874 143.508001,8.08833457 143.368,7.841 C143.228,7.59366543 143.015668,7.38600084 142.731,7.218 C142.446332,7.04999916 142.098669,6.966 141.688,6.966 C141.193331,6.966 140.775668,7.11299853 140.435,7.407 C140.094332,7.70100147 139.858667,8.09533086 139.728,8.59 L143.606,8.59 Z M147.382,7.218 L146.08,7.218 L146.08,5.86 L147.382,5.86 L147.382,5.3 C147.382,4.5533296 147.615331,3.96066886 148.082,3.522 C148.548669,3.08333114 149.145996,2.864 149.874,2.864 C150.294002,2.864 150.657999,2.91533282 150.966,3.018 L150.966,4.53 C150.797999,4.46466634 150.641667,4.41100021 150.497,4.369 C150.352333,4.32699979 150.186668,4.306 150,4.306 C149.691999,4.306 149.435334,4.40399902 149.23,4.6 C149.024666,4.79600098 148.922,5.06666494 148.922,5.412 L148.922,5.86 L150.714,5.86 L150.714,7.218 L148.922,7.218 L148.922,13 L147.382,13 L147.382,7.218 Z M155.232,13.224 C154.51333,13.224 153.869336,13.058335 153.3,12.727 C152.730664,12.395665 152.287335,11.9406696 151.97,11.362 C151.652665,10.7833304 151.494,10.1393369 151.494,9.43 C151.494,8.72066312 151.652665,8.07666956 151.97,7.498 C152.287335,6.91933044 152.730664,6.46433499 153.3,6.133 C153.869336,5.80166501 154.51333,5.636 155.232,5.636 C155.95067,5.636 156.594664,5.80399832 157.164,6.14 C157.733336,6.47600168 158.176665,6.93333044 158.494,7.512 C158.811335,8.09066956 158.97,8.7299965 158.97,9.43 C158.97,10.1393369 158.811335,10.7833304 158.494,11.362 C158.176665,11.9406696 157.733336,12.395665 157.164,12.727 C156.594664,13.058335 155.95067,13.224 155.232,13.224 Z M155.232,11.81 C155.624002,11.81 155.987998,11.7143343 156.324,11.523 C156.660002,11.3316657 156.928332,11.0563351 157.129,10.697 C157.329668,10.3376649 157.43,9.91533576 157.43,9.43 C157.43,8.94466424 157.329668,8.52466844 157.129,8.17 C156.928332,7.81533156 156.660002,7.54233429 156.324,7.351 C155.987998,7.15966571 155.624002,7.064 155.232,7.064 C154.839998,7.064 154.476002,7.15966571 154.14,7.351 C153.803998,7.54233429 153.535668,7.81533156 153.335,8.17 C153.134332,8.52466844 153.034,8.94466424 153.034,9.43 C153.034,9.91533576 153.134332,10.3376649 153.335,10.697 C153.535668,11.0563351 153.803998,11.3316657 154.14,11.523 C154.476002,11.7143343 154.839998,11.81 155.232,11.81 Z M160.394,5.86 L161.864,5.86 L161.864,6.798 L161.934,6.798 C162.139334,6.46199832 162.444998,6.18433443 162.851,5.965 C163.257002,5.74566557 163.688664,5.636 164.146,5.636 C165.014004,5.636 165.674331,5.89033079 166.127,6.399 C166.579669,6.90766921 166.806,7.60066228 166.806,8.478 L166.806,13 L165.266,13 L165.266,8.688 C165.266,8.1279972 165.128335,7.71733464 164.853,7.456 C164.577665,7.19466536 164.197336,7.064 163.712,7.064 C163.366665,7.064 163.058668,7.15966571 162.788,7.351 C162.517332,7.54233429 162.307334,7.79666508 162.158,8.114 C162.008666,8.43133492 161.934,8.77199818 161.934,9.136 L161.934,13 L160.394,13 L160.394,5.86 Z M169.574,4.824 C169.284665,4.824 169.039668,4.72366767 168.839,4.523 C168.638332,4.32233233 168.538,4.07733478 168.538,3.788 C168.538,3.49866522 168.638332,3.25366767 168.839,3.053 C169.039668,2.85233233 169.284665,2.752 169.574,2.752 C169.863335,2.752 170.108332,2.85233233 170.309,3.053 C170.509668,3.25366767 170.61,3.49866522 170.61,3.788 C170.61,4.07733478 170.509668,4.32233233 170.309,4.523 C170.108332,4.72366767 169.863335,4.824 169.574,4.824 Z M168.804,5.86 L170.344,5.86 L170.344,13 L168.804,13 L168.804,5.86 Z M175.604,13.224 C174.903997,13.224 174.276336,13.0606683 173.721,12.734 C173.165664,12.4073317 172.731668,11.9570029 172.419,11.383 C172.106332,10.8089971 171.95,10.1626703 171.95,9.444 C171.95,8.76266326 172.101665,8.13033625 172.405,7.547 C172.708335,6.96366375 173.130664,6.49933506 173.672,6.154 C174.213336,5.80866494 174.82933,5.636 175.52,5.636 C176.23867,5.636 176.861664,5.79466508 177.389,6.112 C177.916336,6.42933492 178.317665,6.86333058 178.593,7.414 C178.868335,7.96466942 179.006,8.58532988 179.006,9.276 C179.006,9.40666732 178.992,9.56999902 178.964,9.766 L173.49,9.766 C173.546,10.42867 173.781665,10.9396649 174.197,11.299 C174.612336,11.6583351 175.095331,11.838 175.646,11.838 C176.084669,11.838 176.464998,11.7376677 176.787,11.537 C177.109002,11.3363323 177.367999,11.0633351 177.564,10.718 L178.866,11.334 C178.529998,11.9220029 178.091336,12.3839983 177.55,12.72 C177.008664,13.0560017 176.360004,13.224 175.604,13.224 Z M177.438,8.59 C177.419333,8.33799874 177.340001,8.08833457 177.2,7.841 C177.06,7.59366543 176.847668,7.38600084 176.563,7.218 C176.278332,7.04999916 175.930669,6.966 175.52,6.966 C175.025331,6.966 174.607668,7.11299853 174.267,7.407 C173.926332,7.70100147 173.690667,8.09533086 173.56,8.59 L177.438,8.59 Z" id="Zapiszwtelefonie" fill="#FFFFFF" fill-rule="nonzero"></path>
                </g>
            </g>
        </g>
    </g>
</svg>