<?xml version="1.0" encoding="UTF-8"?>
<svg width="288px" height="44px" viewBox="0 0 288 44" version="1.1" xmlns="http://www.w3.org/2000/svg" xmlns:xlink="http://www.w3.org/1999/xlink">
    <!-- Generator: Sketch 58 (84663) - https://sketch.com -->
    <title>Save to Google Pay - Arabic (Dark)</title>
    <desc>Created with Sketch.</desc>
    <defs>
        <path d="M4,0 L276,0 C278.209139,-4.05812251e-16 280,1.790861 280,4 L280,32 C280,34.209139 278.209139,36 276,36 L4,36 C1.790861,36 2.705415e-16,34.209139 0,32 L0,4 C-2.705415e-16,1.790861 1.790861,4.05812251e-16 4,0 Z" id="path-1"></path>
        <filter x="-2.3%" y="-15.3%" width="104.6%" height="136.1%" filterUnits="objectBoundingBox" id="filter-2">
            <feMorphology radius="0.5" operator="dilate" in="SourceAlpha" result="shadowSpreadOuter1"></feMorphology>
            <feOffset dx="0" dy="1" in="shadowSpreadOuter1" result="shadowOffsetOuter1"></feOffset>
            <feGaussianBlur stdDeviation="1.5" in="shadowOffsetOuter1" result="shadowBlurOuter1"></feGaussianBlur>
            <feColorMatrix values="0 0 0 0 0.235294118   0 0 0 0 0.250980392   0 0 0 0 0.262745098  0 0 0 0.15 0" type="matrix" in="shadowBlurOuter1" result="shadowMatrixOuter1"></feColorMatrix>
            <feOffset dx="0" dy="1" in="SourceAlpha" result="shadowOffsetOuter2"></feOffset>
            <feGaussianBlur stdDeviation="0.5" in="shadowOffsetOuter2" result="shadowBlurOuter2"></feGaussianBlur>
            <feColorMatrix values="0 0 0 0 0.235294118   0 0 0 0 0.250980392   0 0 0 0 0.262745098  0 0 0 0.3 0" type="matrix" in="shadowBlurOuter2" result="shadowMatrixOuter2"></feColorMatrix>
            <feMerge>
                <feMergeNode in="shadowMatrixOuter1"></feMergeNode>
                <feMergeNode in="shadowMatrixOuter2"></feMergeNode>
            </feMerge>
        </filter>
    </defs>
    <g id="Buttons-(Save-to-phone)" stroke="none" stroke-width="1" fill="none" fill-rule="evenodd">
        <g id="Language-Variations---Flattened" transform="translate(-192.000000, -64.000000)">
            <g id="Save-to-Google-Pay---Arabic-(Dark)" transform="translate(196.000000, 67.000000)">
                <g id="bg">
                    <use fill="black" fill-opacity="1" filter="url(#filter-2)" xlink:href="#path-1"></use>
                    <use fill="#000000" fill-rule="evenodd" xlink:href="#path-1"></use>
                </g>
                <g id="buttonContent" transform="translate(60.000000, 10.000000)">
                    <g id="Group">
                        <rect id="Rectangle" fill="#3C4043" x="109.5" y="0" width="1" height="16"></rect>
                        <g id="Gpay-logo-18px-h" transform="translate(119.000000, 0.000000)">
                            <g id="GPay" transform="translate(0.000000, 0.261474)">
                                <g id="Pay" transform="translate(17.615069, 0.825706)" fill="#FFFFFF">
                                    <path d="M1.64941186,1.54761702 L1.64941186,5.63067176 L4.1674047,5.63067176 C4.76721599,5.63067176 5.26322816,5.42908551 5.65562807,5.02591302 C6.05830511,4.6236738 6.26011078,4.1439732 6.26011078,3.58867775 C6.26011078,3.04458155 6.05830511,2.57048056 5.65562807,2.16730807 C5.26322816,1.75386962 4.76721599,1.54668375 4.1674047,1.54668375 L1.64941186,1.54668375 L1.64941186,1.54761702 Z M1.64941186,7.06790702 L1.64941186,11.8042505 L0.145212207,11.8042505 L0.145212207,0.110381756 L4.13461128,0.110381756 C5.14840447,0.110381756 6.00888141,0.448225371 6.71791067,1.12297933 C7.43740394,1.79773329 7.79701042,2.61994385 7.79701042,3.58867775 C7.79701042,4.57981013 7.43731051,5.40762031 6.71791067,6.07117503 C6.01999941,6.73566302 5.15858818,7.06697375 4.13461128,7.06697375 L1.64941186,7.06697375 L1.64941186,7.06790702 Z" id="Fill-1"></path>
                                    <path d="M9.31707424,9.35440834 C9.31707424,9.74638159 9.48337706,10.073026 9.81607612,10.3343415 C10.1485883,10.595657 10.5381854,10.7263147 10.9848673,10.7263147 C11.6172851,10.7263147 12.1806593,10.4919707 12.6767649,10.024496 C13.1729639,9.55599458 13.4204561,9.00629876 13.4204561,8.37540847 C12.9514448,8.00490042 12.297445,7.82011303 11.4584566,7.82011303 C10.8475273,7.82011303 10.3383417,7.96756963 9.93005895,8.26154958 C9.52168276,8.55543619 9.31707424,8.91857141 9.31707424,9.35440834 M11.2631909,3.5401384 C12.3749907,3.5401384 13.2522848,3.83691815 13.8961009,4.43047765 C14.5388893,5.02403715 14.8601901,5.83784829 14.8601901,6.87191106 L14.8601901,11.8042412 L13.4214839,11.8042412 L13.4214839,10.6936503 L13.3559904,10.6936503 C12.7346906,11.6081612 11.9059794,12.0655567 10.8708844,12.0655567 C9.98798466,12.0655567 9.24896483,11.8042412 8.65560011,11.2816102 C8.06148796,10.7589792 7.76438517,10.1056904 7.76438517,9.3217439 C7.76438517,8.49393372 8.07727739,7.83588529 8.70418295,7.34601205 C9.33108852,6.85604548 10.1673675,6.61059556 11.2137672,6.61059556 C12.1068507,6.61059556 12.8430677,6.77391775 13.4204561,7.10056213 L13.4204561,6.75711889 C13.4204561,6.23448789 13.2130448,5.7911848 12.7992497,5.42627637 C12.3843335,5.06136793 11.9003736,4.87938035 11.3444738,4.87938035 C10.5045511,4.87938035 9.84036755,5.23308955 9.34986766,5.94144122 L8.0249574,5.10803142 C8.75556866,4.06276941 9.83466841,3.5401384 11.2631909,3.5401384" id="Fill-3"></path>
                                    <polygon id="Fill-5" points="23.1164897 3.8014539 18.0966672 15.3320005 16.5437912 15.3320005 18.4077842 11.2974758 15.1049916 3.8014539 16.7399912 3.8014539 19.1270906 9.55039497 19.1597906 9.55039497 21.4814901 3.8014539"></polygon>
                                </g>
                                <g id="G">
                                    <path d="M13.1865148,6.87260706 C13.1865148,6.39943935 13.1463406,5.94307048 13.0706634,5.50630029 L6.72686492,5.50630029 L6.72686492,8.09425704 L10.3603012,8.09425704 C10.2042755,8.93783948 9.73246136,9.65561717 9.01679867,10.136251 L9.01679867,11.8170697 L11.1852753,11.8170697 C12.4549693,10.6467495 13.1865148,8.91740087 13.1865148,6.87260706" id="Fill-8" fill="#4285F4"></path>
                                    <path d="M6.72685557,13.439083 C8.54217229,13.439083 10.0706634,12.843657 11.185266,11.8170603 L9.01678933,10.1362417 C8.4132409,10.542214 7.63591536,10.7792645 6.72685557,10.7792645 C4.97226741,10.7792645 3.48301633,9.59774511 2.9504736,8.00558709 L0.716596976,8.00558709 L0.716596976,9.73680229 C1.82372529,11.9318525 4.09871047,13.439083 6.72685557,13.439083" id="Fill-10" fill="#34A853"></path>
                                    <path d="M2.95048294,8.00556842 C2.81407726,7.59959612 2.73933442,7.166559 2.73933442,6.71952284 C2.73933442,6.27248667 2.81407726,5.83944956 2.95048294,5.43347726 L2.95048294,3.70226205 L0.716606319,3.70226205 C0.258806425,4.60940015 9.34285496e-06,5.63413023 9.34285496e-06,6.71952284 C9.34285496e-06,7.80491544 0.258806425,8.82973885 0.716606319,9.73678363 L2.95048294,8.00556842 Z" id="Fill-12" fill="#FABB05"></path>
                                    <path d="M6.72685557,2.65981851 C7.71813249,2.65981851 8.60663799,3.00046194 9.30735212,3.66774974 L9.30735212,3.66868301 L11.2273088,1.75081387 C10.0613205,0.666354532 8.54123801,0 6.72685557,0 C4.09871047,0 1.82372529,1.50723049 0.716596976,3.70228071 L2.9504736,5.43349592 C3.48301633,3.84133789 4.97226741,2.65981851 6.72685557,2.65981851" id="Fill-14" fill="#E94235"></path>
                                </g>
                            </g>
                        </g>
                        <path d="M98.322,13.066 L98.042,3 L99.428,3 L99.708,13.066 L98.322,13.066 Z M93.296,13.136 L93.422,11.75 C93.9166691,11.75 94.268999,11.7010005 94.479,11.603 C94.6890011,11.5049995 94.8126665,11.327668 94.85,11.071 C94.8873335,10.8143321 94.8966668,10.4480024 94.878,9.972 L94.612,3 L95.998,3 L96.278,9.93 C96.2966668,10.4433359 96.2780003,10.8983314 96.222,11.295 C96.1659997,11.6916687 96.0353344,12.0276653 95.83,12.303 C95.6246656,12.5783347 95.319002,12.7859993 94.913,12.926 C94.506998,13.0660007 93.9680034,13.136 93.296,13.136 Z M92.546,13.136 L92.686,11.75 L96.536,11.75 C96.7786679,11.75 96.9536661,11.8153327 97.061,11.946 C97.1683339,12.0766673 97.222,12.2306658 97.222,12.408 C97.222,12.604001 97.1473341,12.7743326 96.998,12.919 C96.8486659,13.0636674 96.6480013,13.136 96.396,13.136 L92.546,13.136 Z M83.558,13.136 L83.684,11.75 C84.6640049,11.75 85.6113288,11.6170013 86.526,11.351 C87.4406712,11.0849987 88.2713296,10.6953359 89.018,10.182 C88.6446648,9.88333184 88.194336,9.64300091 87.667,9.461 C87.139664,9.27899909 86.5633365,9.188 85.938,9.188 C85.5086645,9.188 85.0653356,9.23933282 84.608,9.342 L84.37,8.026 C84.6313346,7.95133296 84.8926654,7.89533352 85.154,7.858 C85.4153346,7.82066648 85.6673321,7.802 85.91,7.802 C86.5260031,7.802 87.0719976,7.88833247 87.548,8.061 C88.0240024,8.23366753 88.4533314,8.42966557 88.836,8.649 C89.2186686,8.86833443 89.5826649,9.06433247 89.928,9.237 C90.2733351,9.40966753 90.6233316,9.496 90.978,9.496 L91.342,9.496 L91.468,10.756 C91.2906658,10.756 91.1180008,10.7699999 90.95,10.798 C90.7819992,10.8260001 90.6233341,10.8633331 90.474,10.91 C90.6793344,11.2460017 90.9523316,11.4699994 91.293,11.582 C91.6336684,11.6940006 92.0979971,11.75 92.686,11.75 C92.9286679,11.75 93.1036661,11.8153327 93.211,11.946 C93.3183339,12.0766673 93.372,12.2306658 93.372,12.408 C93.372,12.604001 93.2973341,12.7743326 93.148,12.919 C92.9986659,13.0636674 92.7980013,13.136 92.546,13.136 C92.0419975,13.136 91.587002,13.0916671 91.181,13.003 C90.774998,12.9143329 90.4226682,12.7416679 90.124,12.485 C89.8253318,12.228332 89.5920008,11.8526691 89.424,11.358 C89.0879983,11.5353342 88.7380018,11.7266656 88.374,11.932 C88.0099982,12.1373344 87.6016689,12.3309991 87.149,12.513 C86.6963311,12.6950009 86.1783363,12.8443328 85.595,12.961 C85.0116638,13.0776672 84.3326705,13.136 83.558,13.136 Z M76.488,13.136 L76.628,11.75 C76.9453349,11.75 77.2603318,11.7453334 77.573,11.736 C77.8856682,11.7266666 78.177332,11.7033335 78.448,11.666 C78.2239989,11.4513323 78.0186676,11.1853349 77.832,10.868 C77.6453324,10.5506651 77.552,10.1726689 77.552,9.734 C77.552,9.21133072 77.6756654,8.74466872 77.923,8.334 C78.1703346,7.92333128 78.4923314,7.59900119 78.889,7.361 C79.2856687,7.12299881 79.7033311,7.004 80.142,7.004 C80.6273358,7.004 81.0519982,7.12999874 81.416,7.382 C81.7800018,7.63400126 82.0623323,7.96066466 82.263,8.362 C82.4636677,8.76333534 82.564,9.18333114 82.564,9.622 C82.564,10.0420021 82.4846675,10.4223316 82.326,10.763 C82.1673325,11.1036684 81.952668,11.4046654 81.682,11.666 C82.0273351,11.6940001 82.3773316,11.7149999 82.732,11.729 L83.2395001,11.74475 C83.4004997,11.74825 83.5533326,11.75 83.698,11.75 C83.9313345,11.75 84.1039994,11.8153327 84.216,11.946 C84.3280006,12.0766673 84.384,12.2306658 84.384,12.408 C84.384,12.604001 84.3093341,12.7743326 84.16,12.919 C84.0106659,13.0636674 83.8100013,13.136 83.558,13.136 C82.9513303,13.136 82.3330032,13.0916671 81.703,13.003 C81.0729969,12.9143329 80.5200024,12.7953341 80.044,12.646 L79.736,12.758 C79.3253313,12.8886673 78.8306696,12.984333 78.252,13.045 C77.6733304,13.105667 77.0853363,13.136 76.488,13.136 Z M78.938,9.79 C78.938,10.1166683 79.035999,10.4083321 79.232,10.665 C79.428001,10.921668 79.661332,11.1339992 79.932,11.302 C80.2960018,11.1433325 80.5969988,10.9310013 80.835,10.665 C81.0730012,10.3989987 81.192,10.0886684 81.192,9.734 C81.192,9.53799902 81.1453338,9.33500105 81.052,9.125 C80.9586662,8.91499895 80.8280008,8.73533408 80.66,8.586 C80.4919992,8.43666592 80.3053344,8.362 80.1,8.362 C79.8946656,8.362 79.7033342,8.42966599 79.526,8.565 C79.3486658,8.70033401 79.2063339,8.87766557 79.099,9.097 C78.9916661,9.31633443 78.938,9.54733212 78.938,9.79 Z M80.058,5.59 C79.8339989,5.59 79.6450008,5.51533408 79.491,5.366 C79.3369992,5.21666592 79.26,5.03000112 79.26,4.806 C79.26,4.59133226 79.3369992,4.40466746 79.491,4.246 C79.6450008,4.08733254 79.8339989,4.008 80.058,4.008 C80.2726677,4.008 80.4569992,4.08733254 80.611,4.246 C80.7650008,4.40466746 80.842,4.59133226 80.842,4.806 C80.842,5.03000112 80.7650008,5.21666592 80.611,5.366 C80.4569992,5.51533408 80.2726677,5.59 80.058,5.59 Z M69.964,13.248 C68.8626612,13.248 67.8873376,13.2200003 67.038,13.164 L66.4333736,13.1211249 C65.8611236,13.077375 65.3860019,13.0310002 65.008,12.982 L65.162,11.638 C65.7220028,11.712667 66.3566631,11.7639999 67.066,11.792 C67.262001,11.4933318 67.4673323,11.1946682 67.682,10.896 L67.43,3 L68.802,3 L69.04,9.37 C69.6000028,8.8566641 70.1973302,8.42733506 70.832,8.082 C71.4666698,7.73666494 72.1106634,7.564 72.764,7.564 C73.305336,7.564 73.7696647,7.67366557 74.157,7.893 C74.5443353,8.11233443 74.8453323,8.4086648 75.06,8.782 C75.2746677,9.1553352 75.382,9.58466424 75.382,10.07 C75.382,10.6580029 75.2116684,11.1923309 74.871,11.673 C74.5303316,12.1536691 73.9633373,12.5363319 73.17,12.821 C72.3766627,13.1056681 71.3080067,13.248 69.964,13.248 Z M72.652,8.95 C72.259998,8.95 71.868002,9.04566571 71.476,9.237 C71.083998,9.42833429 70.7083351,9.67333184 70.349,9.972 C69.9896649,10.2706682 69.6606682,10.5879983 69.362,10.924 C69.0633318,11.2600017 68.8113344,11.5679986 68.606,11.848 L69.3129998,11.8585 C69.5603325,11.8608333 69.819332,11.862 70.09,11.862 C71.41534,11.862 72.4069967,11.7173348 73.065,11.428 C73.7230033,11.1386652 74.052,10.7280027 74.052,10.196 C74.052,9.99999902 74.0030005,9.80633429 73.905,9.615 C73.8069995,9.42366571 73.6553344,9.26500063 73.45,9.139 C73.2446656,9.01299937 72.9786683,8.95 72.652,8.95 Z M76.488,13.136 C76.1706651,13.136 75.8183353,13.105667 75.431,13.045 C75.0436647,12.984333 74.6656685,12.886334 74.297,12.751 C73.9283315,12.615666 73.6180013,12.4360011 73.366,12.212 L74.542,11.4 C74.8780017,11.5400007 75.2209983,11.6333331 75.571,11.68 C75.9210018,11.7266669 76.2733316,11.75 76.628,11.75 C76.8706679,11.75 77.0456661,11.8153327 77.153,11.946 C77.2603339,12.0766673 77.314,12.2306658 77.314,12.408 C77.314,12.604001 77.2393341,12.7743326 77.09,12.919 C76.9406659,13.0636674 76.7400013,13.136 76.488,13.136 Z M72.204,6.15 C71.9799989,6.15 71.7910008,6.07533408 71.637,5.926 C71.4829992,5.77666592 71.406,5.59000112 71.406,5.366 C71.406,5.15133226 71.4829992,4.96466746 71.637,4.806 C71.7910008,4.64733254 71.9799989,4.568 72.204,4.568 C72.4186677,4.568 72.6029992,4.64733254 72.757,4.806 C72.9110008,4.96466746 72.988,5.15133226 72.988,5.366 C72.988,5.59000112 72.9110008,5.77666592 72.757,5.926 C72.6029992,6.07533408 72.4186677,6.15 72.204,6.15 Z M58.698,13.066 L58.418,3 L59.804,3 L60.084,13.066 L58.698,13.066 Z M58.404,17.336 L58.222,16.51 L58.5311204,16.4450399 C58.6722401,16.41368 58.7931995,16.3840001 58.894,16.356 C58.7166658,16.2346661 58.5650006,16.076001 58.439,15.88 C58.3129994,15.683999 58.25,15.4693345 58.25,15.236 C58.25,14.7973311 58.4016652,14.4706677 58.705,14.256 C59.0083348,14.0413323 59.3466648,13.934 59.72,13.934 C59.9533345,13.934 60.1819989,13.971333 60.406,14.046 L60.294,14.83 L60.021,14.774 L60.021,14.774 C59.9323329,14.7553332 59.8366672,14.746 59.734,14.746 C59.5473324,14.746 59.3956673,14.7879996 59.279,14.872 C59.1623328,14.9560004 59.104,15.0726659 59.104,15.222 C59.104,15.4460011 59.1926658,15.6349992 59.37,15.789 C59.5473342,15.9430008 59.7199992,16.0433331 59.888,16.09 C60.2333351,15.9966662 60.5319987,15.8986672 60.784,15.796 L61.036,16.566 C60.6813316,16.6966673 60.2566691,16.8343326 59.762,16.979 C59.2673309,17.1236674 58.8146687,17.2426662 58.404,17.336 Z M53.672,13.136 L53.798,11.75 C54.2926691,11.75 54.644999,11.7010005 54.855,11.603 C55.0650011,11.5049995 55.1886665,11.327668 55.226,11.071 C55.2633335,10.8143321 55.2726668,10.4480024 55.254,9.972 L54.988,3 L56.374,3 L56.654,9.93 C56.6726668,10.4433359 56.6540003,10.8983314 56.598,11.295 C56.5419997,11.6916687 56.4113344,12.0276653 56.206,12.303 C56.0006656,12.5783347 55.695002,12.7859993 55.289,12.926 C54.882998,13.0660007 54.3440034,13.136 53.672,13.136 Z M43.508,12.954 C43.508,12.6273317 43.5523329,12.2470022 43.641,11.813 C43.7296671,11.3789978 43.8953321,10.8866694 44.138,10.336 L45.356,10.784 C45.1973325,11.1853353 45.080667,11.5493317 45.006,11.876 C44.931333,12.2026683 44.894,12.5059986 44.894,12.786 C44.894,13.2713358 45.0339986,13.6726651 45.314,13.99 C45.5940014,14.3073349 45.9789976,14.5429992 46.469,14.697 C46.9590025,14.8510008 47.5119969,14.928 48.128,14.928 C48.8373369,14.928 49.4743305,14.8580007 50.039,14.718 C50.6036695,14.5779993 51.0493317,14.3843346 51.376,14.137 C51.7026683,13.8896654 51.866,13.6120015 51.866,13.304 C51.866,13.0893323 51.6933351,12.8956675 51.348,12.723 C51.0026649,12.5503325 50.5033366,12.366001 49.85,12.17 L50.186,10.77 C51.1006712,11.1340018 51.8473304,11.3883326 52.426,11.533 C52.9220025,11.6570006 53.3322852,11.7278573 53.6568568,11.7455715 L53.812,11.75 C54.0453345,11.75 54.2179994,11.8153327 54.33,11.946 C54.4420006,12.0766673 54.498,12.2306658 54.498,12.408 C54.498,12.604001 54.4210008,12.7743326 54.267,12.919 C54.1129992,13.0636674 53.9146679,13.136 53.672,13.136 L53.112,13.136 L53.1337778,13.2884444 C53.1379259,13.3112592 53.1423333,13.3327777 53.147,13.353 C53.1610001,13.413667 53.168,13.481333 53.168,13.556 C53.168,13.9946689 52.9626687,14.4263312 52.552,14.851 C52.1413313,15.2756688 51.5416706,15.6256653 50.753,15.901 C49.9643294,16.1763347 49.0006724,16.314 47.862,16.314 C47.0406626,16.314 46.3010033,16.1926679 45.643,15.95 C44.9849967,15.7073321 44.4646686,15.3386691 44.082,14.844 C43.6993314,14.3493309 43.508,13.7193372 43.508,12.954 Z M37.072,13.066 L36.792,3 L38.178,3 L38.458,13.066 L37.072,13.066 Z M32.046,13.136 L32.172,11.75 C32.6666691,11.75 33.018999,11.7010005 33.229,11.603 C33.4390011,11.5049995 33.5626665,11.327668 33.6,11.071 C33.6373335,10.8143321 33.6466668,10.4480024 33.628,9.972 L33.362,3 L34.748,3 L35.028,9.93 C35.0466668,10.4433359 35.0280003,10.8983314 34.972,11.295 C34.9159997,11.6916687 34.7853344,12.0276653 34.58,12.303 C34.3746656,12.5783347 34.069002,12.7859993 33.663,12.926 C33.256998,13.0660007 32.7180034,13.136 32.046,13.136 Z M31.521,13.136 L31.661,11.75 L35.511,11.75 C35.7536679,11.75 35.9286661,11.8153327 36.036,11.946 C36.1433339,12.0766673 36.197,12.2306658 36.197,12.408 C36.197,12.604001 36.1223341,12.7743326 35.973,12.919 C35.8236659,13.0636674 35.6230013,13.136 35.371,13.136 L31.521,13.136 Z M24.157,13.136 L24.297,11.75 L24.78,11.75 C24.9526675,11.75 25.1183325,11.7453334 25.277,11.736 C25.3236669,11.0359965 25.4473323,10.3966696 25.648,9.818 C25.8486677,9.23933044 26.0983318,8.73766879 26.397,8.313 C26.6956682,7.88833121 27.0223316,7.56166781 27.377,7.333 C27.7316684,7.10433219 28.0863316,6.99 28.441,6.99 C28.9170024,6.99 29.3299983,7.19066466 29.68,7.592 C30.0300018,7.99333534 30.205,8.54866312 30.205,9.258 C30.205,9.6313352 30.1420006,10.0163313 30.016,10.413 C29.8899994,10.8096687 29.6543351,11.1619985 29.309,11.47 C29.6730018,11.5633338 30.050998,11.6333331 30.443,11.68 C30.835002,11.7266669 31.2409979,11.75 31.661,11.75 C31.9036679,11.75 32.0786661,11.8153327 32.186,11.946 C32.2933339,12.0766673 32.347,12.2306658 32.347,12.408 C32.347,12.604001 32.2700008,12.7743326 32.116,12.919 C31.9619992,13.0636674 31.7636679,13.136 31.521,13.136 C31.2316652,13.136 30.9096684,13.1173335 30.555,13.08 C30.7323342,13.3973349 30.8233333,13.7333316 30.828,14.088 C30.8326667,14.4426684 30.7510008,14.7739985 30.583,15.082 C30.4149992,15.3900015 30.165335,15.6396657 29.834,15.831 C29.502665,16.0223343 29.0850025,16.118 28.581,16.118 C28.0209972,16.118 27.5100023,16.0060011 27.048,15.782 C26.5859977,15.5579989 26.2010015,15.2196689 25.893,14.767 C25.5849985,14.3143311 25.3890004,13.7380035 25.305,13.038 C25.108999,13.0660001 24.913001,13.0893332 24.717,13.108 C24.520999,13.1266668 24.3343342,13.136 24.157,13.136 Z M28.329,8.362 C28.1423324,8.362 27.9276679,8.5019986 27.685,8.782 C27.4423321,9.0620014 27.223001,9.44699755 27.027,9.937 C26.830999,10.4270024 26.7096669,10.9986634 26.663,11.652 C27.3070032,11.5586662 27.8296647,11.3486683 28.231,11.022 C28.6323353,10.6953317 28.833,10.1680036 28.833,9.44 C28.833,9.2999993 28.8166668,9.14600084 28.784,8.978 C28.7513332,8.80999916 28.697667,8.66533394 28.623,8.544 C28.548333,8.42266606 28.4503339,8.362 28.329,8.362 Z M28.581,14.732 C28.8330013,14.732 29.0616656,14.664334 29.267,14.529 C29.4723344,14.393666 29.575,14.1626683 29.575,13.836 C29.575,13.639999 29.5213339,13.4533342 29.414,13.276 C29.3066661,13.0986658 29.1200013,12.9516673 28.854,12.835 C28.5879987,12.7183327 28.2123358,12.66 27.727,12.66 C27.5776659,12.66 27.4166675,12.6716666 27.244,12.695 C27.0713325,12.7183334 26.887001,12.7486665 26.691,12.786 C26.765667,13.327336 26.9103323,13.7379986 27.125,14.018 C27.3396677,14.2980014 27.5776654,14.4869995 27.839,14.585 C28.1003346,14.6830005 28.3476655,14.732 28.581,14.732 Z M24.157,13.136 C23.3636627,13.136 22.7593354,13.0496675 22.344,12.877 C21.9286646,12.7043325 21.6393342,12.4383351 21.476,12.079 C21.3126659,11.7196649 21.2216668,11.2553362 21.203,10.686 L20.923,3 L22.309,3 L22.603,10.098 C22.6216668,10.5460022 22.6659996,10.8889988 22.736,11.127 C22.8060004,11.3650012 22.9576655,11.5283329 23.191,11.617 C23.4243345,11.7056671 23.7929975,11.75 24.297,11.75 C24.5303345,11.75 24.7029994,11.8153327 24.815,11.946 C24.9270006,12.0766673 24.983,12.2306658 24.983,12.408 C24.983,12.604001 24.9060008,12.7743326 24.752,12.919 C24.5979992,13.0636674 24.3996679,13.136 24.157,13.136 Z M15.533,13.136 L15.673,11.75 L16.1152866,11.7442858 C16.459096,11.734762 16.7409989,11.7133335 16.961,11.68 C17.2690015,11.6333331 17.4859994,11.5283342 17.612,11.365 C17.7380006,11.2016658 17.801,10.9426684 17.801,10.588 C17.801,10.3453321 17.763667,10.0560017 17.689,9.72 C17.614333,9.38399832 17.5163339,9.03166851 17.395,8.663 L17.031,7.578 L17.031,7.578 L18.389,7.13 C18.5010006,7.43800154 18.6153328,7.78799804 18.732,8.18 C18.8486673,8.57200196 18.944333,8.96633135 19.019,9.363 C19.093667,9.75966865 19.131,10.1166651 19.131,10.434 C19.131,11.1246701 18.9980013,11.665998 18.732,12.058 C18.4659987,12.450002 18.0670027,12.7276659 17.535,12.891 C17.0029973,13.0543341 16.3356707,13.136 15.533,13.136 Z M18.809,5.772 C18.5943323,5.772 18.4100008,5.69500077 18.256,5.541 C18.1019992,5.38699923 18.025,5.20733436 18.025,5.002 C18.025,4.79666564 18.1019992,4.61466746 18.256,4.456 C18.4100008,4.29733254 18.5943323,4.218 18.809,4.218 C19.0143344,4.218 19.1939992,4.29733254 19.348,4.456 C19.5020008,4.61466746 19.579,4.79666564 19.579,5.002 C19.579,5.20733436 19.5020008,5.38699923 19.348,5.541 C19.1939992,5.69500077 19.0143344,5.772 18.809,5.772 Z M16.737,5.772 C16.5223323,5.772 16.3403341,5.69500077 16.191,5.541 C16.0416659,5.38699923 15.967,5.20733436 15.967,5.002 C15.967,4.78733226 16.0416659,4.60300077 16.191,4.449 C16.3403341,4.29499923 16.5223323,4.218 16.737,4.218 C16.9423344,4.218 17.1219992,4.29499923 17.276,4.449 C17.4300008,4.60300077 17.507,4.78733226 17.507,5.002 C17.507,5.20733436 17.4300008,5.38699923 17.276,5.541 C17.1219992,5.69500077 16.9423344,5.772 16.737,5.772 Z M15.008,13.136 L15.148,11.75 L18.998,11.75 C19.2406679,11.75 19.4156661,11.8153327 19.523,11.946 C19.6303339,12.0766673 19.684,12.2306658 19.684,12.408 C19.684,12.604001 19.6093341,12.7743326 19.46,12.919 C19.3106659,13.0636674 19.1100013,13.136 18.858,13.136 L15.008,13.136 Z M5.166,13.36 C3.40199118,13.36 2.1000042,13.1196691 1.26,12.639 C0.4199958,12.1583309 0,11.4233383 0,10.434 C0,10.0606648 0.04433289,9.66866872 0.133,9.258 C0.22166711,8.84733128 0.31733282,8.46933506 0.42,8.124 L1.666,8.418 L1.57850002,8.79424987 C1.54816676,8.9284162 1.51666683,9.07133258 1.484,9.223 C1.41866634,9.52633485 1.386,9.7946655 1.386,10.028 C1.386,10.4760022 1.50966543,10.8446652 1.757,11.134 C2.00433457,11.4233348 2.42899699,11.635666 3.031,11.771 C3.63300301,11.906334 4.46599468,11.974 5.53,11.974 C6.44467124,11.974 7.2753296,11.9460003 8.022,11.89 C8.7686704,11.8339997 9.39399748,11.7640004 9.898,11.68 C9.68333226,11.4746656 9.48033429,11.2180015 9.289,10.91 C9.09766571,10.6019985 9.002,10.2333355 9.002,9.804 C9.002,9.28133072 9.12799874,8.80766879 9.38,8.383 C9.63200126,7.95833121 9.95399804,7.62233457 10.346,7.375 C10.738002,7.12766543 11.1533311,7.004 11.592,7.004 C12.0680024,7.004 12.4879982,7.13699867 12.852,7.403 C13.2160018,7.66900133 13.5006656,8.00733128 13.706,8.418 C13.9113344,8.82866872 14.014,9.25333114 14.014,9.692 C14.014,10.1120021 13.9346675,10.4853317 13.776,10.812 C13.6173325,11.1386683 13.402668,11.4279987 13.132,11.68 C13.4773351,11.7080001 13.8273316,11.7266666 14.182,11.736 L14.9248746,11.749125 C15.0012912,11.7497083 15.0756663,11.75 15.148,11.75 C15.3813345,11.75 15.5539994,11.8153327 15.666,11.946 C15.7780006,12.0766673 15.834,12.2306658 15.834,12.408 C15.834,12.604001 15.7593341,12.7743326 15.61,12.919 C15.4606659,13.0636674 15.2600013,13.136 15.008,13.136 C14.3919969,13.136 13.7806697,13.0940004 13.174,13.01 C12.5673303,12.9259996 12.0120025,12.8046675 11.508,12.646 L11.186,12.758 L11.186,12.758 C10.8873318,12.8606672 10.4276698,12.9586662 9.807,13.052 C9.18633023,13.1453338 8.47233737,13.2199997 7.665,13.276 C6.85766263,13.3320003 6.02467096,13.36 5.166,13.36 Z M10.388,9.832 C10.388,10.1586683 10.4906656,10.4433321 10.696,10.686 C10.9013344,10.9286679 11.139332,11.1293325 11.41,11.288 C11.7646684,11.1293325 12.0586655,10.9240013 12.292,10.672 C12.5253345,10.4199987 12.642,10.1213351 12.642,9.776 C12.642,9.57999902 12.5930005,9.37233443 12.495,9.153 C12.3969995,8.93366557 12.2663342,8.74700077 12.103,8.593 C11.9396658,8.43899923 11.7553344,8.362 11.55,8.362 C11.3446656,8.362 11.1533342,8.43433261 10.976,8.579 C10.7986658,8.72366739 10.6563339,8.90799888 10.549,9.132 C10.4416661,9.35600112 10.388,9.58933212 10.388,9.832 Z M11.508,5.59 C11.2839989,5.59 11.0950008,5.51533408 10.941,5.366 C10.7869992,5.21666592 10.71,5.03000112 10.71,4.806 C10.71,4.59133226 10.7869992,4.40466746 10.941,4.246 C11.0950008,4.08733254 11.2839989,4.008 11.508,4.008 C11.7226677,4.008 11.9069992,4.08733254 12.061,4.246 C12.2150008,4.40466746 12.292,4.59133226 12.292,4.806 C12.292,5.03000112 12.2150008,5.21666592 12.061,5.366 C11.9069992,5.51533408 11.7226677,5.59 11.508,5.59 Z" id="الحفظ-لىلهاتف.---" fill="#FFFFFF" fill-rule="nonzero"></path>
                    </g>
                </g>
            </g>
        </g>
    </g>
</svg>