<?xml version="1.0" encoding="UTF-8"?>
<svg width="288px" height="44px" viewBox="0 0 288 44" version="1.1" xmlns="http://www.w3.org/2000/svg" xmlns:xlink="http://www.w3.org/1999/xlink">
    <!-- Generator: Sketch 58 (84663) - https://sketch.com -->
    <title>Save to Google Pay - Finnish (Dark)</title>
    <desc>Created with Sketch.</desc>
    <defs>
        <path d="M4,0 L276,0 C278.209139,-4.05812251e-16 280,1.790861 280,4 L280,32 C280,34.209139 278.209139,36 276,36 L4,36 C1.790861,36 2.705415e-16,34.209139 0,32 L0,4 C-2.705415e-16,1.790861 1.790861,4.05812251e-16 4,0 Z" id="path-1"></path>
        <filter x="-2.3%" y="-15.3%" width="104.6%" height="136.1%" filterUnits="objectBoundingBox" id="filter-2">
            <feMorphology radius="0.5" operator="dilate" in="SourceAlpha" result="shadowSpreadOuter1"></feMorphology>
            <feOffset dx="0" dy="1" in="shadowSpreadOuter1" result="shadowOffsetOuter1"></feOffset>
            <feGaussianBlur stdDeviation="1.5" in="shadowOffsetOuter1" result="shadowBlurOuter1"></feGaussianBlur>
            <feColorMatrix values="0 0 0 0 0.235294118   0 0 0 0 0.250980392   0 0 0 0 0.262745098  0 0 0 0.15 0" type="matrix" in="shadowBlurOuter1" result="shadowMatrixOuter1"></feColorMatrix>
            <feOffset dx="0" dy="1" in="SourceAlpha" result="shadowOffsetOuter2"></feOffset>
            <feGaussianBlur stdDeviation="0.5" in="shadowOffsetOuter2" result="shadowBlurOuter2"></feGaussianBlur>
            <feColorMatrix values="0 0 0 0 0.235294118   0 0 0 0 0.250980392   0 0 0 0 0.262745098  0 0 0 0.3 0" type="matrix" in="shadowBlurOuter2" result="shadowMatrixOuter2"></feColorMatrix>
            <feMerge>
                <feMergeNode in="shadowMatrixOuter1"></feMergeNode>
                <feMergeNode in="shadowMatrixOuter2"></feMergeNode>
            </feMerge>
        </filter>
    </defs>
    <g id="Buttons-(Save-to-phone)" stroke="none" stroke-width="1" fill="none" fill-rule="evenodd">
        <g id="Language-Variations---Flattened" transform="translate(-192.000000, -711.000000)">
            <g id="Save-to-Google-Pay---Finnish-(Dark)" transform="translate(196.000000, 714.000000)">
                <g id="bg-copy-3">
                    <use fill="black" fill-opacity="1" filter="url(#filter-2)" xlink:href="#path-1"></use>
                    <use fill="#000000" fill-rule="evenodd" xlink:href="#path-1"></use>
                </g>
                <g id="buttonContent" transform="translate(42.000000, 10.000000)">
                    <rect id="Rectangle" fill="#3C4043" x="50" y="0" width="1" height="16"></rect>
                    <g id="Gpay-logo-18px-h">
                        <g id="GPay" transform="translate(0.000000, 0.261474)">
                            <g id="Pay" transform="translate(17.615069, 0.825706)" fill="#FFFFFF">
                                <path d="M1.64941186,1.54761702 L1.64941186,5.63067176 L4.1674047,5.63067176 C4.76721599,5.63067176 5.26322816,5.42908551 5.65562807,5.02591302 C6.05830511,4.6236738 6.26011078,4.1439732 6.26011078,3.58867775 C6.26011078,3.04458155 6.05830511,2.57048056 5.65562807,2.16730807 C5.26322816,1.75386962 4.76721599,1.54668375 4.1674047,1.54668375 L1.64941186,1.54668375 L1.64941186,1.54761702 Z M1.64941186,7.06790702 L1.64941186,11.8042505 L0.145212207,11.8042505 L0.145212207,0.110381756 L4.13461128,0.110381756 C5.14840447,0.110381756 6.00888141,0.448225371 6.71791067,1.12297933 C7.43740394,1.79773329 7.79701042,2.61994385 7.79701042,3.58867775 C7.79701042,4.57981013 7.43731051,5.40762031 6.71791067,6.07117503 C6.01999941,6.73566302 5.15858818,7.06697375 4.13461128,7.06697375 L1.64941186,7.06697375 L1.64941186,7.06790702 Z" id="Fill-1"></path>
                                <path d="M9.31707424,9.35440834 C9.31707424,9.74638159 9.48337706,10.073026 9.81607612,10.3343415 C10.1485883,10.595657 10.5381854,10.7263147 10.9848673,10.7263147 C11.6172851,10.7263147 12.1806593,10.4919707 12.6767649,10.024496 C13.1729639,9.55599458 13.4204561,9.00629876 13.4204561,8.37540847 C12.9514448,8.00490042 12.297445,7.82011303 11.4584566,7.82011303 C10.8475273,7.82011303 10.3383417,7.96756963 9.93005895,8.26154958 C9.52168276,8.55543619 9.31707424,8.91857141 9.31707424,9.35440834 M11.2631909,3.5401384 C12.3749907,3.5401384 13.2522848,3.83691815 13.8961009,4.43047765 C14.5388893,5.02403715 14.8601901,5.83784829 14.8601901,6.87191106 L14.8601901,11.8042412 L13.4214839,11.8042412 L13.4214839,10.6936503 L13.3559904,10.6936503 C12.7346906,11.6081612 11.9059794,12.0655567 10.8708844,12.0655567 C9.98798466,12.0655567 9.24896483,11.8042412 8.65560011,11.2816102 C8.06148796,10.7589792 7.76438517,10.1056904 7.76438517,9.3217439 C7.76438517,8.49393372 8.07727739,7.83588529 8.70418295,7.34601205 C9.33108852,6.85604548 10.1673675,6.61059556 11.2137672,6.61059556 C12.1068507,6.61059556 12.8430677,6.77391775 13.4204561,7.10056213 L13.4204561,6.75711889 C13.4204561,6.23448789 13.2130448,5.7911848 12.7992497,5.42627637 C12.3843335,5.06136793 11.9003736,4.87938035 11.3444738,4.87938035 C10.5045511,4.87938035 9.84036755,5.23308955 9.34986766,5.94144122 L8.0249574,5.10803142 C8.75556866,4.06276941 9.83466841,3.5401384 11.2631909,3.5401384" id="Fill-3"></path>
                                <polygon id="Fill-5" points="23.1164897 3.8014539 18.0966672 15.3320005 16.5437912 15.3320005 18.4077842 11.2974758 15.1049916 3.8014539 16.7399912 3.8014539 19.1270906 9.55039497 19.1597906 9.55039497 21.4814901 3.8014539"></polygon>
                            </g>
                            <g id="G">
                                <path d="M13.1865148,6.87260706 C13.1865148,6.39943935 13.1463406,5.94307048 13.0706634,5.50630029 L6.72686492,5.50630029 L6.72686492,8.09425704 L10.3603012,8.09425704 C10.2042755,8.93783948 9.73246136,9.65561717 9.01679867,10.136251 L9.01679867,11.8170697 L11.1852753,11.8170697 C12.4549693,10.6467495 13.1865148,8.91740087 13.1865148,6.87260706" id="Fill-8" fill="#4285F4"></path>
                                <path d="M6.72685557,13.439083 C8.54217229,13.439083 10.0706634,12.843657 11.185266,11.8170603 L9.01678933,10.1362417 C8.4132409,10.542214 7.63591536,10.7792645 6.72685557,10.7792645 C4.97226741,10.7792645 3.48301633,9.59774511 2.9504736,8.00558709 L0.716596976,8.00558709 L0.716596976,9.73680229 C1.82372529,11.9318525 4.09871047,13.439083 6.72685557,13.439083" id="Fill-10" fill="#34A853"></path>
                                <path d="M2.95048294,8.00556842 C2.81407726,7.59959612 2.73933442,7.166559 2.73933442,6.71952284 C2.73933442,6.27248667 2.81407726,5.83944956 2.95048294,5.43347726 L2.95048294,3.70226205 L0.716606319,3.70226205 C0.258806425,4.60940015 9.34285496e-06,5.63413023 9.34285496e-06,6.71952284 C9.34285496e-06,7.80491544 0.258806425,8.82973885 0.716606319,9.73678363 L2.95048294,8.00556842 Z" id="Fill-12" fill="#FABB05"></path>
                                <path d="M6.72685557,2.65981851 C7.71813249,2.65981851 8.60663799,3.00046194 9.30735212,3.66774974 L9.30735212,3.66868301 L11.2273088,1.75081387 C10.0613205,0.666354532 8.54123801,0 6.72685557,0 C4.09871047,0 1.82372529,1.50723049 0.716596976,3.70228071 L2.9504736,5.43349592 C3.48301633,3.84133789 4.97226741,2.65981851 6.72685557,2.65981851" id="Fill-14" fill="#E94235"></path>
                            </g>
                        </g>
                    </g>
                    <path d="M62.678,4.474 L59.878,4.474 L59.878,2.976 L67.046,2.976 L67.046,4.474 L64.246,4.474 L64.246,13 L62.678,13 L62.678,4.474 Z M69.646,13.224 C69.1326641,13.224 68.6753353,13.1236677 68.274,12.923 C67.8726647,12.7223323 67.5600011,12.4376685 67.336,12.069 C67.1119989,11.7003315 67,11.282669 67,10.816 C67,10.078663 67.2776639,9.49533548 67.833,9.066 C68.3883361,8.63666452 69.0906624,8.422 69.94,8.422 C70.3600021,8.422 70.7379983,8.46166627 71.074,8.541 C71.4100017,8.62033373 71.675999,8.7066662 71.872,8.8 L71.872,8.436 C71.872,7.99733114 71.7086683,7.64033471 71.382,7.365 C71.0553317,7.08966529 70.6353359,6.952 70.122,6.952 C69.7579982,6.952 69.4150016,7.03133254 69.093,7.19 C68.7709984,7.34866746 68.512001,7.5679986 68.316,7.848 L67.238,7.022 C67.5553349,6.58333114 67.9659975,6.24266788 68.47,6 C68.9740025,5.75733212 69.5339969,5.636 70.15,5.636 C71.1860052,5.636 71.9839972,5.89033079 72.544,6.399 C73.1040028,6.90766921 73.384,7.62399538 73.384,8.548 L73.384,13 L71.872,13 L71.872,12.146 L71.802,12.146 C71.5966656,12.4540015 71.3073352,12.7106656 70.934,12.916 C70.5606648,13.1213344 70.1313358,13.224 69.646,13.224 Z M69.912,11.95 C70.2853352,11.95 70.6213318,11.8613342 70.92,11.684 C71.2186682,11.5066658 71.4519992,11.2686682 71.62,10.97 C71.7880008,10.6713318 71.872,10.3493351 71.872,10.004 C71.6573323,9.88266606 71.4076681,9.78466704 71.123,9.71 C70.8383319,9.63533296 70.5420015,9.598 70.234,9.598 C69.6553304,9.598 69.230668,9.71233219 68.96,9.941 C68.689332,10.1696678 68.554,10.4659982 68.554,10.83 C68.554,11.1566683 68.6799987,11.4249989 68.932,11.635 C69.1840013,11.8450011 69.5106647,11.95 69.912,11.95 Z M75.214,2.976 L76.754,2.976 L76.754,13 L75.214,13 L75.214,2.976 Z M78.71,2.976 L80.25,2.976 L80.25,13 L78.71,13 L78.71,2.976 Z M85.398,13.224 C84.6979965,13.224 84.0703361,13.0606683 83.515,12.734 C82.9596639,12.4073317 82.5256683,11.9570029 82.213,11.383 C81.9003318,10.8089971 81.744,10.1626703 81.744,9.444 C81.744,8.76266326 81.8956652,8.13033625 82.199,7.547 C82.5023349,6.96366375 82.924664,6.49933506 83.466,6.154 C84.0073361,5.80866494 84.6233299,5.636 85.314,5.636 C86.0326703,5.636 86.6556641,5.79466508 87.183,6.112 C87.710336,6.42933492 88.1116653,6.86333058 88.387,7.414 C88.6623347,7.96466942 88.8,8.58532988 88.8,9.276 C88.8,9.40666732 88.7860002,9.56999902 88.758,9.766 L83.284,9.766 C83.3400003,10.42867 83.5756646,10.9396649 83.991,11.299 C84.4063354,11.6583351 84.8893306,11.838 85.44,11.838 C85.8786689,11.838 86.2589984,11.7376677 86.581,11.537 C86.9030016,11.3363323 87.161999,11.0633351 87.358,10.718 L88.66,11.334 C88.3239983,11.9220029 87.8853361,12.3839983 87.344,12.72 C86.802664,13.0560017 86.1540038,13.224 85.398,13.224 Z M87.232,8.59 C87.2133333,8.33799874 87.1340007,8.08833457 86.994,7.841 C86.854,7.59366543 86.6416681,7.38600084 86.357,7.218 C86.0723319,7.04999916 85.7246687,6.966 85.314,6.966 C84.8193309,6.966 84.4016684,7.11299853 84.061,7.407 C83.7203317,7.70100147 83.4846673,8.09533086 83.354,8.59 L87.232,8.59 Z M90.35,5.86 L91.82,5.86 L91.82,6.798 L91.89,6.798 C92.0953344,6.46199832 92.400998,6.18433443 92.807,5.965 C93.2130021,5.74566557 93.6446644,5.636 94.102,5.636 C94.9700044,5.636 95.6303311,5.89033079 96.083,6.399 C96.535669,6.90766921 96.762,7.60066228 96.762,8.478 L96.762,13 L95.222,13 L95.222,8.688 C95.222,8.1279972 95.0843347,7.71733464 94.809,7.456 C94.5336653,7.19466536 94.1533358,7.064 93.668,7.064 C93.322665,7.064 93.014668,7.15966571 92.744,7.351 C92.473332,7.54233429 92.2633341,7.79666508 92.114,8.114 C91.9646659,8.43133492 91.89,8.77199818 91.89,9.136 L91.89,13 L90.35,13 L90.35,5.86 Z M98.648,5.86 L100.118,5.86 L100.118,6.798 L100.188,6.798 C100.393334,6.46199832 100.698998,6.18433443 101.105,5.965 C101.511002,5.74566557 101.942664,5.636 102.4,5.636 C103.268004,5.636 103.928331,5.89033079 104.381,6.399 C104.833669,6.90766921 105.06,7.60066228 105.06,8.478 L105.06,13 L103.52,13 L103.52,8.688 C103.52,8.1279972 103.382335,7.71733464 103.107,7.456 C102.831665,7.19466536 102.451336,7.064 101.966,7.064 C101.620665,7.064 101.312668,7.15966571 101.042,7.351 C100.771332,7.54233429 100.561334,7.79666508 100.412,8.114 C100.262666,8.43133492 100.188,8.77199818 100.188,9.136 L100.188,13 L98.648,13 L98.648,5.86 Z M109.116,13.224 C108.602664,13.224 108.145335,13.1236677 107.744,12.923 C107.342665,12.7223323 107.030001,12.4376685 106.806,12.069 C106.581999,11.7003315 106.47,11.282669 106.47,10.816 C106.47,10.078663 106.747664,9.49533548 107.303,9.066 C107.858336,8.63666452 108.560662,8.422 109.41,8.422 C109.830002,8.422 110.207998,8.46166627 110.544,8.541 C110.880002,8.62033373 111.145999,8.7066662 111.342,8.8 L111.342,8.436 C111.342,7.99733114 111.178668,7.64033471 110.852,7.365 C110.525332,7.08966529 110.105336,6.952 109.592,6.952 C109.227998,6.952 108.885002,7.03133254 108.563,7.19 C108.240998,7.34866746 107.982001,7.5679986 107.786,7.848 L106.708,7.022 C107.025335,6.58333114 107.435998,6.24266788 107.94,6 C108.444003,5.75733212 109.003997,5.636 109.62,5.636 C110.656005,5.636 111.453997,5.89033079 112.014,6.399 C112.574003,6.90766921 112.854,7.62399538 112.854,8.548 L112.854,13 L111.342,13 L111.342,12.146 L111.272,12.146 C111.066666,12.4540015 110.777335,12.7106656 110.404,12.916 C110.030665,13.1213344 109.601336,13.224 109.116,13.224 Z M109.382,11.95 C109.755335,11.95 110.091332,11.8613342 110.39,11.684 C110.688668,11.5066658 110.921999,11.2686682 111.09,10.97 C111.258001,10.6713318 111.342,10.3493351 111.342,10.004 C111.127332,9.88266606 110.877668,9.78466704 110.593,9.71 C110.308332,9.63533296 110.012002,9.598 109.704,9.598 C109.12533,9.598 108.700668,9.71233219 108.43,9.941 C108.159332,10.1696678 108.024,10.4659982 108.024,10.83 C108.024,11.1566683 108.149999,11.4249989 108.402,11.635 C108.654001,11.8450011 108.980665,11.95 109.382,11.95 Z M118.054,5.86 L119.524,5.86 L119.524,6.798 L119.594,6.798 C119.799334,6.4713317 120.102665,6.19600112 120.504,5.972 C120.905335,5.74799888 121.357998,5.636 121.862,5.636 C122.506003,5.636 123.089331,5.7993317 123.612,6.126 C124.134669,6.4526683 124.547665,6.90299713 124.851,7.477 C125.154335,8.05100287 125.306,8.70199636 125.306,9.43 C125.306,10.1580036 125.154335,10.8089971 124.851,11.383 C124.547665,11.9570029 124.134669,12.4073317 123.612,12.734 C123.089331,13.0606683 122.506003,13.224 121.862,13.224 C121.357998,13.224 120.905335,13.1120011 120.504,12.888 C120.102665,12.6639989 119.799334,12.3933349 119.594,12.076 L119.524,12.076 L119.594,13.07 L119.594,16.024 L118.054,16.024 L118.054,5.86 Z M121.638,11.81 C122.011335,11.81 122.361332,11.712001 122.688,11.516 C123.014668,11.319999 123.275999,11.0400018 123.472,10.676 C123.668001,10.3119982 123.766,9.896669 123.766,9.43 C123.766,8.963331 123.668001,8.55033513 123.472,8.191 C123.275999,7.83166487 123.014668,7.55400098 122.688,7.358 C122.361332,7.16199902 122.011335,7.064 121.638,7.064 C121.264665,7.064 120.917002,7.16199902 120.595,7.358 C120.272998,7.55400098 120.014001,7.83166487 119.818,8.191 C119.621999,8.55033513 119.524,8.963331 119.524,9.43 C119.524,9.896669 119.621999,10.3119982 119.818,10.676 C120.014001,11.0400018 120.272998,11.319999 120.595,11.516 C120.917002,11.712001 121.264665,11.81 121.638,11.81 Z M129.39,13.224 C128.521996,13.224 127.861669,12.9650026 127.409,12.447 C126.956331,11.9289974 126.73,11.2080046 126.73,10.284 L126.73,5.86 L128.27,5.86 L128.27,10.074 C128.27,10.6526696 128.407665,11.0866652 128.683,11.376 C128.958335,11.6653348 129.319998,11.81 129.768,11.81 C130.132002,11.81 130.453999,11.7143343 130.734,11.523 C131.014001,11.3316657 131.228666,11.0773349 131.378,10.76 C131.527334,10.4426651 131.602,10.1020018 131.602,9.738 L131.602,5.86 L133.142,5.86 L133.142,13 L131.686,13 L131.686,12.076 L131.602,12.076 C131.405999,12.4120017 131.102669,12.6873323 130.692,12.902 C130.281331,13.1166677 129.847336,13.224 129.39,13.224 Z M135.084,2.976 L136.624,2.976 L136.624,5.706 L136.554,6.798 L136.624,6.798 C136.829334,6.46199832 137.134998,6.18433443 137.541,5.965 C137.947002,5.74566557 138.383331,5.636 138.85,5.636 C139.718004,5.636 140.380664,5.89033079 140.838,6.399 C141.295336,6.90766921 141.524,7.60066228 141.524,8.478 L141.524,13 L139.984,13 L139.984,8.688 C139.984,8.14666396 139.841668,7.74066802 139.557,7.47 C139.272332,7.19933198 138.901336,7.064 138.444,7.064 C138.098665,7.064 137.788335,7.16199902 137.513,7.358 C137.237665,7.55400098 137.020668,7.81299839 136.862,8.135 C136.703333,8.45700161 136.624,8.79999818 136.624,9.164 L136.624,13 L135.084,13 L135.084,2.976 Z M146.686,13.224 C145.985997,13.224 145.358336,13.0606683 144.803,12.734 C144.247664,12.4073317 143.813668,11.9570029 143.501,11.383 C143.188332,10.8089971 143.032,10.1626703 143.032,9.444 C143.032,8.76266326 143.183665,8.13033625 143.487,7.547 C143.790335,6.96366375 144.212664,6.49933506 144.754,6.154 C145.295336,5.80866494 145.91133,5.636 146.602,5.636 C147.32067,5.636 147.943664,5.79466508 148.471,6.112 C148.998336,6.42933492 149.399665,6.86333058 149.675,7.414 C149.950335,7.96466942 150.088,8.58532988 150.088,9.276 C150.088,9.40666732 150.074,9.56999902 150.046,9.766 L144.572,9.766 C144.628,10.42867 144.863665,10.9396649 145.279,11.299 C145.694335,11.6583351 146.177331,11.838 146.728,11.838 C147.166669,11.838 147.546998,11.7376677 147.869,11.537 C148.191002,11.3363323 148.449999,11.0633351 148.646,10.718 L149.948,11.334 C149.611998,11.9220029 149.173336,12.3839983 148.632,12.72 C148.090664,13.0560017 147.442004,13.224 146.686,13.224 Z M148.52,8.59 C148.501333,8.33799874 148.422001,8.08833457 148.282,7.841 C148.142,7.59366543 147.929668,7.38600084 147.645,7.218 C147.360332,7.04999916 147.012669,6.966 146.602,6.966 C146.107331,6.966 145.689668,7.11299853 145.349,7.407 C145.008332,7.70100147 144.772667,8.09533086 144.642,8.59 L148.52,8.59 Z M151.638,2.976 L153.178,2.976 L153.178,13 L151.638,13 L151.638,2.976 Z M156.016,4.824 C155.726665,4.824 155.481668,4.72366767 155.281,4.523 C155.080332,4.32233233 154.98,4.07733478 154.98,3.788 C154.98,3.49866522 155.080332,3.25366767 155.281,3.053 C155.481668,2.85233233 155.726665,2.752 156.016,2.752 C156.305335,2.752 156.550332,2.85233233 156.751,3.053 C156.951668,3.25366767 157.052,3.49866522 157.052,3.788 C157.052,4.07733478 156.951668,4.32233233 156.751,4.523 C156.550332,4.72366767 156.305335,4.824 156.016,4.824 Z M155.246,5.86 L156.786,5.86 L156.786,13 L155.246,13 L155.246,5.86 Z M158.854,5.86 L160.324,5.86 L160.324,6.798 L160.394,6.798 C160.608668,6.45266494 160.911998,6.17266774 161.304,5.958 C161.696002,5.74333226 162.115998,5.636 162.564,5.636 C163.077336,5.636 163.525332,5.75499881 163.908,5.993 C164.290669,6.23100119 164.565999,6.54599804 164.734,6.938 C164.976668,6.54599804 165.300998,6.23100119 165.707,5.993 C166.113002,5.75499881 166.591331,5.636 167.142,5.636 C167.963338,5.636 168.586331,5.88566417 169.011,6.385 C169.435669,6.88433583 169.648,7.56332904 169.648,8.422 L169.648,13 L168.108,13 L168.108,8.688 C168.108,7.60532792 167.646005,7.064 166.722,7.064 C166.227331,7.064 165.821335,7.26466466 165.504,7.666 C165.186665,8.06733534 165.028,8.56199706 165.028,9.15 L165.028,13 L163.488,13 L163.488,8.688 C163.488,7.60532792 163.012005,7.064 162.06,7.064 C161.574664,7.064 161.175668,7.26466466 160.863,7.666 C160.550332,8.06733534 160.394,8.56199706 160.394,9.15 L160.394,13 L158.854,13 L158.854,5.86 Z M174.81,13.224 C174.109997,13.224 173.482336,13.0606683 172.927,12.734 C172.371664,12.4073317 171.937668,11.9570029 171.625,11.383 C171.312332,10.8089971 171.156,10.1626703 171.156,9.444 C171.156,8.76266326 171.307665,8.13033625 171.611,7.547 C171.914335,6.96366375 172.336664,6.49933506 172.878,6.154 C173.419336,5.80866494 174.03533,5.636 174.726,5.636 C175.44467,5.636 176.067664,5.79466508 176.595,6.112 C177.122336,6.42933492 177.523665,6.86333058 177.799,7.414 C178.074335,7.96466942 178.212,8.58532988 178.212,9.276 C178.212,9.40666732 178.198,9.56999902 178.17,9.766 L172.696,9.766 C172.752,10.42867 172.987665,10.9396649 173.403,11.299 C173.818336,11.6583351 174.301331,11.838 174.852,11.838 C175.290669,11.838 175.670998,11.7376677 175.993,11.537 C176.315002,11.3363323 176.573999,11.0633351 176.77,10.718 L178.072,11.334 C177.735998,11.9220029 177.297336,12.3839983 176.756,12.72 C176.214664,13.0560017 175.566004,13.224 174.81,13.224 Z M176.644,8.59 C176.625333,8.33799874 176.546001,8.08833457 176.406,7.841 C176.266,7.59366543 176.053668,7.38600084 175.769,7.218 C175.484332,7.04999916 175.136669,6.966 174.726,6.966 C174.231331,6.966 173.813668,7.11299853 173.473,7.407 C173.132332,7.70100147 172.896667,8.09533086 172.766,8.59 L176.644,8.59 Z M183.094,13.224 C182.393997,13.224 181.766336,13.0606683 181.211,12.734 C180.655664,12.4073317 180.221668,11.9570029 179.909,11.383 C179.596332,10.8089971 179.44,10.1626703 179.44,9.444 C179.44,8.76266326 179.591665,8.13033625 179.895,7.547 C180.198335,6.96366375 180.620664,6.49933506 181.162,6.154 C181.703336,5.80866494 182.31933,5.636 183.01,5.636 C183.72867,5.636 184.351664,5.79466508 184.879,6.112 C185.406336,6.42933492 185.807665,6.86333058 186.083,7.414 C186.358335,7.96466942 186.496,8.58532988 186.496,9.276 C186.496,9.40666732 186.482,9.56999902 186.454,9.766 L180.98,9.766 C181.036,10.42867 181.271665,10.9396649 181.687,11.299 C182.102336,11.6583351 182.585331,11.838 183.136,11.838 C183.574669,11.838 183.954998,11.7376677 184.277,11.537 C184.599002,11.3363323 184.857999,11.0633351 185.054,10.718 L186.356,11.334 C186.019998,11.9220029 185.581336,12.3839983 185.04,12.72 C184.498664,13.0560017 183.850004,13.224 183.094,13.224 Z M184.928,8.59 C184.909333,8.33799874 184.830001,8.08833457 184.69,7.841 C184.55,7.59366543 184.337668,7.38600084 184.053,7.218 C183.768332,7.04999916 183.420669,6.966 183.01,6.966 C182.515331,6.966 182.097668,7.11299853 181.757,7.407 C181.416332,7.70100147 181.180667,8.09533086 181.05,8.59 L184.928,8.59 Z M188.046,5.86 L189.516,5.86 L189.516,6.798 L189.586,6.798 C189.791334,6.46199832 190.096998,6.18433443 190.503,5.965 C190.909002,5.74566557 191.340664,5.636 191.798,5.636 C192.666004,5.636 193.326331,5.89033079 193.779,6.399 C194.231669,6.90766921 194.458,7.60066228 194.458,8.478 L194.458,13 L192.918,13 L192.918,8.688 C192.918,8.1279972 192.780335,7.71733464 192.505,7.456 C192.229665,7.19466536 191.849336,7.064 191.364,7.064 C191.018665,7.064 190.710668,7.15966571 190.44,7.351 C190.169332,7.54233429 189.959334,7.79666508 189.81,8.114 C189.660666,8.43133492 189.586,8.77199818 189.586,9.136 L189.586,13 L188.046,13 L188.046,5.86 Z" id="Tallennapuhelimeen" fill="#FFFFFF" fill-rule="nonzero"></path>
                </g>
            </g>
        </g>
    </g>
</svg>