<?xml version="1.0" encoding="UTF-8"?>
<svg width="288px" height="44px" viewBox="0 0 288 44" version="1.1" xmlns="http://www.w3.org/2000/svg" xmlns:xlink="http://www.w3.org/1999/xlink">
    <!-- Generator: Sketch 58 (84663) - https://sketch.com -->
    <title>Save to Google Pay - Ukrainian (Dark)</title>
    <desc>Created with Sketch.</desc>
    <defs>
        <path d="M4,0 L276,0 C278.209139,-4.05812251e-16 280,1.790861 280,4 L280,32 C280,34.209139 278.209139,36 276,36 L4,36 C1.790861,36 2.705415e-16,34.209139 0,32 L0,4 C-2.705415e-16,1.790861 1.790861,4.05812251e-16 4,0 Z" id="path-1"></path>
        <filter x="-2.3%" y="-15.3%" width="104.6%" height="136.1%" filterUnits="objectBoundingBox" id="filter-2">
            <feMorphology radius="0.5" operator="dilate" in="SourceAlpha" result="shadowSpreadOuter1"></feMorphology>
            <feOffset dx="0" dy="1" in="shadowSpreadOuter1" result="shadowOffsetOuter1"></feOffset>
            <feGaussianBlur stdDeviation="1.5" in="shadowOffsetOuter1" result="shadowBlurOuter1"></feGaussianBlur>
            <feColorMatrix values="0 0 0 0 0.235294118   0 0 0 0 0.250980392   0 0 0 0 0.262745098  0 0 0 0.15 0" type="matrix" in="shadowBlurOuter1" result="shadowMatrixOuter1"></feColorMatrix>
            <feOffset dx="0" dy="1" in="SourceAlpha" result="shadowOffsetOuter2"></feOffset>
            <feGaussianBlur stdDeviation="0.5" in="shadowOffsetOuter2" result="shadowBlurOuter2"></feGaussianBlur>
            <feColorMatrix values="0 0 0 0 0.235294118   0 0 0 0 0.250980392   0 0 0 0 0.262745098  0 0 0 0.3 0" type="matrix" in="shadowBlurOuter2" result="shadowMatrixOuter2"></feColorMatrix>
            <feMerge>
                <feMergeNode in="shadowMatrixOuter1"></feMergeNode>
                <feMergeNode in="shadowMatrixOuter2"></feMergeNode>
            </feMerge>
        </filter>
    </defs>
    <g id="Buttons-(Save-to-phone)" stroke="none" stroke-width="1" fill="none" fill-rule="evenodd">
        <g id="Language-Variations---Flattened" transform="translate(-192.000000, -1677.000000)">
            <g id="Save-to-Google-Pay---Ukrainian-(Dark)" transform="translate(196.000000, 1680.000000)">
                <g id="bg-copy-3">
                    <use fill="black" fill-opacity="1" filter="url(#filter-2)" xlink:href="#path-1"></use>
                    <use fill="#000000" fill-rule="evenodd" xlink:href="#path-1"></use>
                </g>
                <g id="buttonContent" transform="translate(39.000000, 10.000000)">
                    <rect id="Rectangle" fill="#3C4043" x="50" y="0" width="1" height="16"></rect>
                    <g id="Gpay-logo-18px-h">
                        <g id="GPay" transform="translate(0.000000, 0.261474)">
                            <g id="Pay" transform="translate(17.615069, 0.825706)" fill="#FFFFFF">
                                <path d="M1.64941186,1.54761702 L1.64941186,5.63067176 L4.1674047,5.63067176 C4.76721599,5.63067176 5.26322816,5.42908551 5.65562807,5.02591302 C6.05830511,4.6236738 6.26011078,4.1439732 6.26011078,3.58867775 C6.26011078,3.04458155 6.05830511,2.57048056 5.65562807,2.16730807 C5.26322816,1.75386962 4.76721599,1.54668375 4.1674047,1.54668375 L1.64941186,1.54668375 L1.64941186,1.54761702 Z M1.64941186,7.06790702 L1.64941186,11.8042505 L0.145212207,11.8042505 L0.145212207,0.110381756 L4.13461128,0.110381756 C5.14840447,0.110381756 6.00888141,0.448225371 6.71791067,1.12297933 C7.43740394,1.79773329 7.79701042,2.61994385 7.79701042,3.58867775 C7.79701042,4.57981013 7.43731051,5.40762031 6.71791067,6.07117503 C6.01999941,6.73566302 5.15858818,7.06697375 4.13461128,7.06697375 L1.64941186,7.06697375 L1.64941186,7.06790702 Z" id="Fill-1"></path>
                                <path d="M9.31707424,9.35440834 C9.31707424,9.74638159 9.48337706,10.073026 9.81607612,10.3343415 C10.1485883,10.595657 10.5381854,10.7263147 10.9848673,10.7263147 C11.6172851,10.7263147 12.1806593,10.4919707 12.6767649,10.024496 C13.1729639,9.55599458 13.4204561,9.00629876 13.4204561,8.37540847 C12.9514448,8.00490042 12.297445,7.82011303 11.4584566,7.82011303 C10.8475273,7.82011303 10.3383417,7.96756963 9.93005895,8.26154958 C9.52168276,8.55543619 9.31707424,8.91857141 9.31707424,9.35440834 M11.2631909,3.5401384 C12.3749907,3.5401384 13.2522848,3.83691815 13.8961009,4.43047765 C14.5388893,5.02403715 14.8601901,5.83784829 14.8601901,6.87191106 L14.8601901,11.8042412 L13.4214839,11.8042412 L13.4214839,10.6936503 L13.3559904,10.6936503 C12.7346906,11.6081612 11.9059794,12.0655567 10.8708844,12.0655567 C9.98798466,12.0655567 9.24896483,11.8042412 8.65560011,11.2816102 C8.06148796,10.7589792 7.76438517,10.1056904 7.76438517,9.3217439 C7.76438517,8.49393372 8.07727739,7.83588529 8.70418295,7.34601205 C9.33108852,6.85604548 10.1673675,6.61059556 11.2137672,6.61059556 C12.1068507,6.61059556 12.8430677,6.77391775 13.4204561,7.10056213 L13.4204561,6.75711889 C13.4204561,6.23448789 13.2130448,5.7911848 12.7992497,5.42627637 C12.3843335,5.06136793 11.9003736,4.87938035 11.3444738,4.87938035 C10.5045511,4.87938035 9.84036755,5.23308955 9.34986766,5.94144122 L8.0249574,5.10803142 C8.75556866,4.06276941 9.83466841,3.5401384 11.2631909,3.5401384" id="Fill-3"></path>
                                <polygon id="Fill-5" points="23.1164897 3.8014539 18.0966672 15.3320005 16.5437912 15.3320005 18.4077842 11.2974758 15.1049916 3.8014539 16.7399912 3.8014539 19.1270906 9.55039497 19.1597906 9.55039497 21.4814901 3.8014539"></polygon>
                            </g>
                            <g id="G">
                                <path d="M13.1865148,6.87260706 C13.1865148,6.39943935 13.1463406,5.94307048 13.0706634,5.50630029 L6.72686492,5.50630029 L6.72686492,8.09425704 L10.3603012,8.09425704 C10.2042755,8.93783948 9.73246136,9.65561717 9.01679867,10.136251 L9.01679867,11.8170697 L11.1852753,11.8170697 C12.4549693,10.6467495 13.1865148,8.91740087 13.1865148,6.87260706" id="Fill-8" fill="#4285F4"></path>
                                <path d="M6.72685557,13.439083 C8.54217229,13.439083 10.0706634,12.843657 11.185266,11.8170603 L9.01678933,10.1362417 C8.4132409,10.542214 7.63591536,10.7792645 6.72685557,10.7792645 C4.97226741,10.7792645 3.48301633,9.59774511 2.9504736,8.00558709 L0.716596976,8.00558709 L0.716596976,9.73680229 C1.82372529,11.9318525 4.09871047,13.439083 6.72685557,13.439083" id="Fill-10" fill="#34A853"></path>
                                <path d="M2.95048294,8.00556842 C2.81407726,7.59959612 2.73933442,7.166559 2.73933442,6.71952284 C2.73933442,6.27248667 2.81407726,5.83944956 2.95048294,5.43347726 L2.95048294,3.70226205 L0.716606319,3.70226205 C0.258806425,4.60940015 9.34285496e-06,5.63413023 9.34285496e-06,6.71952284 C9.34285496e-06,7.80491544 0.258806425,8.82973885 0.716606319,9.73678363 L2.95048294,8.00556842 Z" id="Fill-12" fill="#FABB05"></path>
                                <path d="M6.72685557,2.65981851 C7.71813249,2.65981851 8.60663799,3.00046194 9.30735212,3.66774974 L9.30735212,3.66868301 L11.2273088,1.75081387 C10.0613205,0.666354532 8.54123801,0 6.72685557,0 C4.09871047,0 1.82372529,1.50723049 0.716596976,3.70228071 L2.9504736,5.43349592 C3.48301633,3.84133789 4.97226741,2.65981851 6.72685557,2.65981851" id="Fill-14" fill="#E94235"></path>
                            </g>
                        </g>
                    </g>
                    <path d="M63.448,13.224 C62.7013296,13.224 62.0130031,13.0093355 61.383,12.58 C60.7529968,12.1506645 60.3213345,11.5160042 60.088,10.676 L61.516,10.102 C61.6466673,10.6153359 61.8846649,11.0213318 62.23,11.32 C62.5753351,11.6186682 62.981331,11.768 63.448,11.768 C63.9426691,11.768 64.3696649,11.6070016 64.729,11.285 C65.0883351,10.9629984 65.268,10.568669 65.268,10.102 C65.268,9.635331 65.0790019,9.24333492 64.701,8.926 C64.3229981,8.60866508 63.8586694,8.45 63.308,8.45 L62.482,8.45 L62.482,7.078 L63.21,7.078 C63.7140025,7.078 64.1293317,6.94500133 64.456,6.679 C64.7826683,6.41299867 64.946,6.046669 64.946,5.58 C64.946,5.16933128 64.7943348,4.83333464 64.491,4.572 C64.1876651,4.31066536 63.8073356,4.18 63.35,4.18 C62.9299979,4.18 62.5800014,4.30366543 62.3,4.551 C62.0199986,4.79833457 61.8240006,5.08999832 61.712,5.426 L60.326,4.852 C60.522001,4.30133058 60.8766641,3.81366879 61.39,3.389 C61.9033359,2.96433121 62.5613293,2.752 63.364,2.752 C63.9706697,2.752 64.5119976,2.87099881 64.988,3.109 C65.4640024,3.34700119 65.8326654,3.6759979 66.094,4.096 C66.3553346,4.5160021 66.486,4.98733072 66.486,5.51 C66.486,6.04200266 66.3740011,6.47599832 66.15,6.812 C65.9259989,7.14800168 65.6226686,7.42799888 65.24,7.652 L65.24,7.736 C65.7160024,7.95066774 66.0986652,8.26333128 66.388,8.674 C66.6773348,9.08466872 66.822,9.58399706 66.822,10.172 C66.822,10.7413362 66.6750015,11.259331 66.381,11.726 C66.0869985,12.192669 65.6833359,12.5589987 65.17,12.825 C64.6566641,13.0910013 64.0826698,13.224 63.448,13.224 Z M72.166,13.224 C71.4473297,13.224 70.8056695,13.058335 70.241,12.727 C69.6763305,12.395665 69.2306683,11.8800035 68.904,11.18 C68.5773317,10.4799965 68.414,9.59800532 68.414,8.534 C68.414,7.4139944 68.5399987,6.50867012 68.792,5.818 C69.0440013,5.12732988 69.3939978,4.57666872 69.842,4.166 C70.1780017,3.85799846 70.5839976,3.61766753 71.06,3.445 C71.5360024,3.27233247 72.0493306,3.186 72.6,3.186 C72.9453351,3.186 73.2066658,3.16966683 73.384,3.137 C73.5613342,3.10433317 73.687333,3.05766697 73.762,2.997 C73.836667,2.93633303 73.8926665,2.85000056 73.93,2.738 L75.358,2.738 C75.2459994,3.41000336 74.9846687,3.87199874 74.574,4.124 C74.1633313,4.37600126 73.5426708,4.502 72.712,4.502 C72.2546644,4.502 71.8836681,4.55566613 71.599,4.663 C71.3143319,4.77033387 71.0646677,4.9173324 70.85,5.104 C70.3366641,5.570669 70.0380004,6.16332974 69.954,6.882 L70.038,6.882 C70.2806679,6.52733156 70.6143312,6.23100119 71.039,5.993 C71.4636688,5.75499881 71.9699971,5.636 72.558,5.636 C73.1833365,5.636 73.7526641,5.80633163 74.266,6.147 C74.7793359,6.48766837 75.1806652,6.94966375 75.47,7.533 C75.7593348,8.11633625 75.904,8.74866326 75.904,9.43 C75.904,10.1393369 75.7453349,10.7833304 75.428,11.362 C75.1106651,11.9406696 74.6673362,12.395665 74.098,12.727 C73.5286638,13.058335 72.8846703,13.224 72.166,13.224 Z M72.166,11.81 C72.558002,11.81 72.9219983,11.7143343 73.258,11.523 C73.5940017,11.3316657 73.8623323,11.0563351 74.063,10.697 C74.2636677,10.3376649 74.364,9.91533576 74.364,9.43 C74.364,8.94466424 74.2636677,8.52466844 74.063,8.17 C73.8623323,7.81533156 73.5940017,7.54233429 73.258,7.351 C72.9219983,7.15966571 72.558002,7.064 72.166,7.064 C71.773998,7.064 71.412335,7.15966571 71.081,7.351 C70.749665,7.54233429 70.4836677,7.81533156 70.283,8.17 C70.0823323,8.52466844 69.982,8.94466424 69.982,9.43 C69.982,9.91533576 70.0823323,10.3376649 70.283,10.697 C70.4836677,11.0563351 70.749665,11.3316657 71.081,11.523 C71.412335,11.7143343 71.773998,11.81 72.166,11.81 Z M80.604,13.224 C79.9039965,13.224 79.2763361,13.0606683 78.721,12.734 C78.1656639,12.4073317 77.7316682,11.9570029 77.419,11.383 C77.1063318,10.8089971 76.95,10.1626703 76.95,9.444 C76.95,8.76266326 77.1016652,8.13033625 77.405,7.547 C77.7083349,6.96366375 78.130664,6.49933506 78.672,6.154 C79.2133361,5.80866494 79.8293299,5.636 80.52,5.636 C81.2386703,5.636 81.861664,5.79466508 82.389,6.112 C82.916336,6.42933492 83.3176653,6.86333058 83.593,7.414 C83.8683347,7.96466942 84.006,8.58532988 84.006,9.276 C84.006,9.40666732 83.9920002,9.56999902 83.964,9.766 L78.49,9.766 C78.5460003,10.42867 78.7816646,10.9396649 79.197,11.299 C79.6123354,11.6583351 80.0953306,11.838 80.646,11.838 C81.0846689,11.838 81.4649984,11.7376677 81.787,11.537 C82.1090016,11.3363323 82.367999,11.0633351 82.564,10.718 L83.866,11.334 C83.5299983,11.9220029 83.0913361,12.3839983 82.55,12.72 C82.008664,13.0560017 81.3600038,13.224 80.604,13.224 Z M82.438,8.59 C82.4193333,8.33799874 82.3400007,8.08833457 82.2,7.841 C82.06,7.59366543 81.8476681,7.38600084 81.563,7.218 C81.2783319,7.04999916 80.9306687,6.966 80.52,6.966 C80.0253309,6.966 79.6076684,7.11299853 79.267,7.407 C78.9263316,7.70100147 78.6906673,8.09533086 78.56,8.59 L82.438,8.59 Z M85.5,5.86 L86.97,5.86 L86.97,6.798 L87.04,6.798 C87.2453344,6.4713317 87.5486647,6.19600112 87.95,5.972 C88.3513354,5.74799888 88.8039975,5.636 89.308,5.636 C89.9520032,5.636 90.5353307,5.7993317 91.058,6.126 C91.5806693,6.4526683 91.9936652,6.90299713 92.297,7.477 C92.6003349,8.05100287 92.752,8.70199636 92.752,9.43 C92.752,10.1580036 92.6003349,10.8089971 92.297,11.383 C91.9936652,11.9570029 91.5806693,12.4073317 91.058,12.734 C90.5353307,13.0606683 89.9520032,13.224 89.308,13.224 C88.8039975,13.224 88.3513354,13.1120011 87.95,12.888 C87.5486647,12.6639989 87.2453344,12.3933349 87.04,12.076 L86.97,12.076 L87.04,13.07 L87.04,16.024 L85.5,16.024 L85.5,5.86 Z M89.084,11.81 C89.4573352,11.81 89.8073317,11.712001 90.134,11.516 C90.4606683,11.319999 90.721999,11.0400018 90.918,10.676 C91.114001,10.3119982 91.212,9.896669 91.212,9.43 C91.212,8.963331 91.114001,8.55033513 90.918,8.191 C90.721999,7.83166487 90.4606683,7.55400098 90.134,7.358 C89.8073317,7.16199902 89.4573352,7.064 89.084,7.064 C88.7106648,7.064 88.3630016,7.16199902 88.041,7.358 C87.7189984,7.55400098 87.460001,7.83166487 87.264,8.191 C87.067999,8.55033513 86.97,8.963331 86.97,9.43 C86.97,9.896669 87.067999,10.3119982 87.264,10.676 C87.460001,11.0400018 87.7189984,11.319999 88.041,11.516 C88.3630016,11.712001 88.7106648,11.81 89.084,11.81 Z M97.564,13.224 C96.8639965,13.224 96.2363361,13.0606683 95.681,12.734 C95.1256639,12.4073317 94.6916683,11.9570029 94.379,11.383 C94.0663318,10.8089971 93.91,10.1626703 93.91,9.444 C93.91,8.76266326 94.0616652,8.13033625 94.365,7.547 C94.6683349,6.96366375 95.090664,6.49933506 95.632,6.154 C96.1733361,5.80866494 96.7893299,5.636 97.48,5.636 C98.1986703,5.636 98.8216641,5.79466508 99.349,6.112 C99.876336,6.42933492 100.277665,6.86333058 100.553,7.414 C100.828335,7.96466942 100.966,8.58532988 100.966,9.276 C100.966,9.40666732 100.952,9.56999902 100.924,9.766 L95.45,9.766 C95.5060003,10.42867 95.7416646,10.9396649 96.157,11.299 C96.5723354,11.6583351 97.0553306,11.838 97.606,11.838 C98.0446689,11.838 98.4249984,11.7376677 98.747,11.537 C99.0690016,11.3363323 99.327999,11.0633351 99.524,10.718 L100.826,11.334 C100.489998,11.9220029 100.051336,12.3839983 99.51,12.72 C98.968664,13.0560017 98.3200038,13.224 97.564,13.224 Z M99.398,8.59 C99.3793333,8.33799874 99.3000007,8.08833457 99.16,7.841 C99.02,7.59366543 98.8076681,7.38600084 98.523,7.218 C98.2383319,7.04999916 97.8906687,6.966 97.48,6.966 C96.9853309,6.966 96.5676684,7.11299853 96.227,7.407 C95.8863317,7.70100147 95.6506673,8.09533086 95.52,8.59 L99.398,8.59 Z M102.516,5.86 L107.514,5.86 L107.514,7.218 L104.056,7.218 L104.056,13 L102.516,13 L102.516,5.86 Z M110.73,7.288 L108.462,7.288 L108.462,5.86 L114.552,5.86 L114.552,7.288 L112.27,7.288 L112.27,13 L110.73,13 L110.73,7.288 Z M115.99,5.86 L117.53,5.86 L117.53,9.346 L117.46,10.69 L117.53,10.69 L120.89,5.86 L122.43,5.86 L122.43,13 L120.89,13 L120.89,9.514 L120.96,8.17 L120.89,8.17 L117.53,13 L115.99,13 L115.99,5.86 Z M127.798,5.86 L131.368,5.86 C131.778669,5.86 132.151998,5.94166585 132.488,6.105 C132.824002,6.26833415 133.087666,6.49233191 133.279,6.777 C133.470334,7.06166809 133.566,7.37666494 133.566,7.722 C133.566,8.08600182 133.484334,8.40333198 133.321,8.674 C133.157666,8.94466802 132.940668,9.14533268 132.67,9.276 L132.67,9.36 C133.024668,9.5000007 133.304666,9.7099986 133.51,9.99 C133.715334,10.2700014 133.818,10.5919982 133.818,10.956 C133.818,11.3573353 133.713001,11.7143318 133.503,12.027 C133.292999,12.3396682 133.015335,12.5799992 132.67,12.748 C132.324665,12.9160008 131.956002,13 131.564,13 L127.798,13 L127.798,5.86 Z M131.2,8.758 C131.442668,8.758 131.645666,8.68100077 131.809,8.527 C131.972334,8.37299923 132.054,8.1793345 132.054,7.946 C132.054,7.7126655 131.972334,7.51900077 131.809,7.365 C131.645666,7.21099923 131.442668,7.134 131.2,7.134 L129.296,7.134 L129.296,8.758 L131.2,8.758 Z M131.41,11.698 C131.671335,11.698 131.890666,11.6140008 132.068,11.446 C132.245334,11.2779992 132.334,11.0680013 132.334,10.816 C132.334,10.5639987 132.245334,10.3516675 132.068,10.179 C131.890666,10.0063325 131.671335,9.92 131.41,9.92 L129.296,9.92 L129.296,11.698 L131.41,11.698 Z M140.488,7.288 L138.22,7.288 L138.22,5.86 L144.31,5.86 L144.31,7.288 L142.028,7.288 L142.028,13 L140.488,13 L140.488,7.288 Z M148.87,13.224 C148.169997,13.224 147.542336,13.0606683 146.987,12.734 C146.431664,12.4073317 145.997668,11.9570029 145.685,11.383 C145.372332,10.8089971 145.216,10.1626703 145.216,9.444 C145.216,8.76266326 145.367665,8.13033625 145.671,7.547 C145.974335,6.96366375 146.396664,6.49933506 146.938,6.154 C147.479336,5.80866494 148.09533,5.636 148.786,5.636 C149.50467,5.636 150.127664,5.79466508 150.655,6.112 C151.182336,6.42933492 151.583665,6.86333058 151.859,7.414 C152.134335,7.96466942 152.272,8.58532988 152.272,9.276 C152.272,9.40666732 152.258,9.56999902 152.23,9.766 L146.756,9.766 C146.812,10.42867 147.047665,10.9396649 147.463,11.299 C147.878335,11.6583351 148.361331,11.838 148.912,11.838 C149.350669,11.838 149.730998,11.7376677 150.053,11.537 C150.375002,11.3363323 150.633999,11.0633351 150.83,10.718 L152.132,11.334 C151.795998,11.9220029 151.357336,12.3839983 150.816,12.72 C150.274664,13.0560017 149.626004,13.224 148.87,13.224 Z M150.704,8.59 C150.685333,8.33799874 150.606001,8.08833457 150.466,7.841 C150.326,7.59366543 150.113668,7.38600084 149.829,7.218 C149.544332,7.04999916 149.196669,6.966 148.786,6.966 C148.291331,6.966 147.873668,7.11299853 147.533,7.407 C147.192332,7.70100147 146.956667,8.09533086 146.826,8.59 L150.704,8.59 Z M154.074,13.112 C153.765999,13.112 153.518668,13.074667 153.332,13 L153.346,11.628 C153.495334,11.6746669 153.649333,11.698 153.808,11.698 C154.013334,11.698 154.172,11.630334 154.284,11.495 C154.396001,11.359666 154.475333,11.1333349 154.522,10.816 C154.568667,10.4986651 154.592,10.0506696 154.592,9.472 L154.592,5.86 L160.724,5.86 L160.724,13 L159.226,13 L159.226,7.26 L156.076,7.26 L156.076,9.906 C156.076,12.043344 155.408673,13.112 154.074,13.112 Z M165.872,13.224 C165.171997,13.224 164.544336,13.0606683 163.989,12.734 C163.433664,12.4073317 162.999668,11.9570029 162.687,11.383 C162.374332,10.8089971 162.218,10.1626703 162.218,9.444 C162.218,8.76266326 162.369665,8.13033625 162.673,7.547 C162.976335,6.96366375 163.398664,6.49933506 163.94,6.154 C164.481336,5.80866494 165.09733,5.636 165.788,5.636 C166.50667,5.636 167.129664,5.79466508 167.657,6.112 C168.184336,6.42933492 168.585665,6.86333058 168.861,7.414 C169.136335,7.96466942 169.274,8.58532988 169.274,9.276 C169.274,9.40666732 169.26,9.56999902 169.232,9.766 L163.758,9.766 C163.814,10.42867 164.049665,10.9396649 164.465,11.299 C164.880335,11.6583351 165.363331,11.838 165.914,11.838 C166.352669,11.838 166.732998,11.7376677 167.055,11.537 C167.377002,11.3363323 167.635999,11.0633351 167.832,10.718 L169.134,11.334 C168.797998,11.9220029 168.359336,12.3839983 167.818,12.72 C167.276664,13.0560017 166.628004,13.224 165.872,13.224 Z M167.706,8.59 C167.687333,8.33799874 167.608001,8.08833457 167.468,7.841 C167.328,7.59366543 167.115668,7.38600084 166.831,7.218 C166.546332,7.04999916 166.198669,6.966 165.788,6.966 C165.293331,6.966 164.875668,7.11299853 164.535,7.407 C164.194332,7.70100147 163.958667,8.09533086 163.828,8.59 L167.706,8.59 Z M180.358,9.43 C180.358,10.1300035 180.185335,10.7483306 179.84,11.285 C179.494665,11.8216694 179.014003,12.2509984 178.398,12.573 C177.781997,12.8950016 177.072671,13.0979996 176.27,13.182 L176.27,16.024 L174.73,16.024 L174.73,13.182 C173.507327,13.0606661 172.520337,12.66867 171.769,12.006 C171.017663,11.34333 170.642,10.4846719 170.642,9.43 C170.642,8.7299965 170.814665,8.11166935 171.16,7.575 C171.505335,7.03833065 171.985997,6.60900161 172.602,6.287 C173.218003,5.96499839 173.927329,5.76200042 174.73,5.678 L174.73,2.976 L176.27,2.976 L176.27,5.678 C177.072671,5.76200042 177.781997,5.96499839 178.398,6.287 C179.014003,6.60900161 179.494665,7.03833065 179.84,7.575 C180.185335,8.11166935 180.358,8.7299965 180.358,9.43 Z M172.126,9.43 C172.126,10.0833366 172.356998,10.6153313 172.819,11.026 C173.281002,11.4366687 173.917996,11.6933328 174.73,11.796 L174.73,7.064 C173.917996,7.16666718 173.281002,7.42566459 172.819,7.841 C172.356998,8.25633541 172.126,8.78599678 172.126,9.43 Z M176.27,11.796 C177.072671,11.6933328 177.707331,11.4343354 178.174,11.019 C178.640669,10.6036646 178.874,10.0740032 178.874,9.43 C178.874,8.78599678 178.640669,8.25633541 178.174,7.841 C177.707331,7.42566459 177.072671,7.16666718 176.27,7.064 L176.27,11.796 Z M185.394,13.224 C184.67533,13.224 184.031336,13.058335 183.462,12.727 C182.892664,12.395665 182.449335,11.9406696 182.132,11.362 C181.814665,10.7833304 181.656,10.1393369 181.656,9.43 C181.656,8.72066312 181.814665,8.07666956 182.132,7.498 C182.449335,6.91933044 182.892664,6.46433499 183.462,6.133 C184.031336,5.80166501 184.67533,5.636 185.394,5.636 C186.11267,5.636 186.756664,5.80399832 187.326,6.14 C187.895336,6.47600168 188.338665,6.93333044 188.656,7.512 C188.973335,8.09066956 189.132,8.7299965 189.132,9.43 C189.132,10.1393369 188.973335,10.7833304 188.656,11.362 C188.338665,11.9406696 187.895336,12.395665 187.326,12.727 C186.756664,13.058335 186.11267,13.224 185.394,13.224 Z M185.394,11.81 C185.786002,11.81 186.149998,11.7143343 186.486,11.523 C186.822002,11.3316657 187.090332,11.0563351 187.291,10.697 C187.491668,10.3376649 187.592,9.91533576 187.592,9.43 C187.592,8.94466424 187.491668,8.52466844 187.291,8.17 C187.090332,7.81533156 186.822002,7.54233429 186.486,7.351 C186.149998,7.15966571 185.786002,7.064 185.394,7.064 C185.001998,7.064 184.638002,7.15966571 184.302,7.351 C183.965998,7.54233429 183.697668,7.81533156 183.497,8.17 C183.296332,8.52466844 183.196,8.94466424 183.196,9.43 C183.196,9.91533576 183.296332,10.3376649 183.497,10.697 C183.697668,11.0563351 183.965998,11.3316657 184.302,11.523 C184.638002,11.7143343 185.001998,11.81 185.394,11.81 Z M190.556,5.86 L192.096,5.86 L192.096,8.688 L195.54,8.688 L195.54,5.86 L197.08,5.86 L197.08,13 L195.54,13 L195.54,10.13 L192.096,10.13 L192.096,13 L190.556,13 L190.556,5.86 Z M199.904,4.824 C199.614665,4.824 199.369668,4.72366767 199.169,4.523 C198.968332,4.32233233 198.868,4.07733478 198.868,3.788 C198.868,3.49866522 198.968332,3.25366767 199.169,3.053 C199.369668,2.85233233 199.614665,2.752 199.904,2.752 C200.193335,2.752 200.438332,2.85233233 200.639,3.053 C200.839668,3.25366767 200.94,3.49866522 200.94,3.788 C200.94,4.07733478 200.839668,4.32233233 200.639,4.523 C200.438332,4.72366767 200.193335,4.824 199.904,4.824 Z M199.134,5.86 L200.674,5.86 L200.674,13 L199.134,13 L199.134,5.86 Z" id="Зберегтивтелефоні" fill="#FFFFFF" fill-rule="nonzero"></path>
                </g>
            </g>
        </g>
    </g>
</svg>