<?xml version="1.0" encoding="UTF-8"?>
<svg width="288px" height="44px" viewBox="0 0 288 44" version="1.1" xmlns="http://www.w3.org/2000/svg" xmlns:xlink="http://www.w3.org/1999/xlink">
    <!-- Generator: Sketch 58 (84663) - https://sketch.com -->
    <title>Save to Google Pay - Swedish (Light)</title>
    <desc>Created with Sketch.</desc>
    <defs>
        <path d="M4,0 L276,0 C278.209139,-4.05812251e-16 280,1.790861 280,4 L280,32 C280,34.209139 278.209139,36 276,36 L4,36 C1.790861,36 2.705415e-16,34.209139 0,32 L0,4 C-2.705415e-16,1.790861 1.790861,4.05812251e-16 4,0 Z" id="path-1"></path>
        <filter x="-2.3%" y="-15.3%" width="104.6%" height="136.1%" filterUnits="objectBoundingBox" id="filter-2">
            <feMorphology radius="0.5" operator="dilate" in="SourceAlpha" result="shadowSpreadOuter1"></feMorphology>
            <feOffset dx="0" dy="1" in="shadowSpreadOuter1" result="shadowOffsetOuter1"></feOffset>
            <feGaussianBlur stdDeviation="1.5" in="shadowOffsetOuter1" result="shadowBlurOuter1"></feGaussianBlur>
            <feColorMatrix values="0 0 0 0 0.235294118   0 0 0 0 0.250980392   0 0 0 0 0.262745098  0 0 0 0.15 0" type="matrix" in="shadowBlurOuter1" result="shadowMatrixOuter1"></feColorMatrix>
            <feOffset dx="0" dy="1" in="SourceAlpha" result="shadowOffsetOuter2"></feOffset>
            <feGaussianBlur stdDeviation="0.5" in="shadowOffsetOuter2" result="shadowBlurOuter2"></feGaussianBlur>
            <feColorMatrix values="0 0 0 0 0.235294118   0 0 0 0 0.250980392   0 0 0 0 0.262745098  0 0 0 0.3 0" type="matrix" in="shadowBlurOuter2" result="shadowMatrixOuter2"></feColorMatrix>
            <feMerge>
                <feMergeNode in="shadowMatrixOuter1"></feMergeNode>
                <feMergeNode in="shadowMatrixOuter2"></feMergeNode>
            </feMerge>
        </filter>
    </defs>
    <g id="Buttons-(Save-to-phone)" stroke="none" stroke-width="1" fill="none" fill-rule="evenodd">
        <g id="Language-Variations---Flattened" transform="translate(-192.000000, -1561.000000)">
            <g id="Save-to-Google-Pay---Swedish-(Light)" transform="translate(196.000000, 1564.000000)">
                <g id="bg">
                    <use fill="black" fill-opacity="1" filter="url(#filter-2)" xlink:href="#path-1"></use>
                    <use fill="#FFFFFF" fill-rule="evenodd" xlink:href="#path-1"></use>
                </g>
                <g id="buttonContent" transform="translate(52.000000, 10.000000)">
                    <path d="M63.546,13.224 C62.7153292,13.224 61.96867,12.9813358 61.306,12.496 C60.64333,12.0106642 60.1860013,11.3293377 59.934,10.452 L61.418,9.85 C61.5673341,10.4006694 61.8309981,10.8509982 62.209,11.201 C62.5870019,11.5510018 63.0419973,11.726 63.574,11.726 C64.0686691,11.726 64.4886649,11.5976679 64.834,11.341 C65.1793351,11.0843321 65.352,10.7320022 65.352,10.284 C65.352,9.87333128 65.2003349,9.53500133 64.897,9.269 C64.5936652,9.00299867 64.0640038,8.73466802 63.308,8.464 L62.678,8.24 C62.0059966,8.0066655 61.4413356,7.67066886 60.984,7.232 C60.5266644,6.79333114 60.298,6.21467026 60.298,5.496 C60.298,5.00133086 60.433332,4.5440021 60.704,4.124 C60.974668,3.7039979 61.3503309,3.37033457 61.831,3.123 C62.3116691,2.87566543 62.8553303,2.752 63.462,2.752 C64.3393377,2.752 65.0393307,2.96433121 65.562,3.389 C66.0846693,3.81366879 66.4346658,4.29199734 66.612,4.824 L65.198,5.426 C65.0953328,5.10866508 64.8993348,4.82866788 64.61,4.586 C64.3206652,4.34333212 63.9473356,4.222 63.49,4.222 C63.0326644,4.222 62.6476682,4.3386655 62.335,4.572 C62.0223318,4.8053345 61.866,5.10399818 61.866,5.468 C61.866,5.81333506 62.0059986,6.09799888 62.286,6.322 C62.5660014,6.54600112 63.0046637,6.76066564 63.602,6.966 L64.232,7.176 C65.090671,7.47466816 65.7556643,7.86433093 66.227,8.345 C66.6983357,8.82566907 66.934,9.46732932 66.934,10.27 C66.934,10.9233366 66.7660017,11.4716645 66.43,11.915 C66.0939983,12.3583355 65.6670026,12.6873323 65.149,12.902 C64.6309974,13.1166677 64.0966694,13.224 63.546,13.224 Z M68.568,5.86 L70.038,5.86 L70.038,6.798 L70.108,6.798 C70.3133344,6.4713317 70.6166647,6.19600112 71.018,5.972 C71.4193353,5.74799888 71.8719975,5.636 72.376,5.636 C73.0200032,5.636 73.6033307,5.7993317 74.126,6.126 C74.6486693,6.4526683 75.0616652,6.90299713 75.365,7.477 C75.6683349,8.05100287 75.82,8.70199636 75.82,9.43 C75.82,10.1580036 75.6683349,10.8089971 75.365,11.383 C75.0616652,11.9570029 74.6486693,12.4073317 74.126,12.734 C73.6033307,13.0606683 73.0200032,13.224 72.376,13.224 C71.8719975,13.224 71.4193353,13.1120011 71.018,12.888 C70.6166647,12.6639989 70.3133344,12.3933349 70.108,12.076 L70.038,12.076 L70.108,13.07 L70.108,16.024 L68.568,16.024 L68.568,5.86 Z M72.152,11.81 C72.5253352,11.81 72.8753317,11.712001 73.202,11.516 C73.5286683,11.319999 73.789999,11.0400018 73.986,10.676 C74.182001,10.3119982 74.28,9.896669 74.28,9.43 C74.28,8.963331 74.182001,8.55033513 73.986,8.191 C73.789999,7.83166487 73.5286683,7.55400098 73.202,7.358 C72.8753317,7.16199902 72.5253352,7.064 72.152,7.064 C71.7786648,7.064 71.4310016,7.16199902 71.109,7.358 C70.7869984,7.55400098 70.528001,7.83166487 70.332,8.191 C70.135999,8.55033513 70.038,8.963331 70.038,9.43 C70.038,9.896669 70.135999,10.3119982 70.332,10.676 C70.528001,11.0400018 70.7869984,11.319999 71.109,11.516 C71.4310016,11.712001 71.7786648,11.81 72.152,11.81 Z M79.61,13.224 C79.0966641,13.224 78.6393354,13.1236677 78.238,12.923 C77.8366647,12.7223323 77.5240011,12.4376685 77.3,12.069 C77.0759989,11.7003315 76.964,11.282669 76.964,10.816 C76.964,10.078663 77.2416639,9.49533548 77.797,9.066 C78.3523361,8.63666452 79.0546624,8.422 79.904,8.422 C80.3240021,8.422 80.7019983,8.46166627 81.038,8.541 C81.3740017,8.62033373 81.639999,8.7066662 81.836,8.8 L81.836,8.436 C81.836,7.99733114 81.6726683,7.64033471 81.346,7.365 C81.0193317,7.08966529 80.5993359,6.952 80.086,6.952 C79.7219982,6.952 79.3790016,7.03133254 79.057,7.19 C78.7349984,7.34866746 78.476001,7.5679986 78.28,7.848 L77.202,7.022 C77.5193349,6.58333114 77.9299975,6.24266788 78.434,6 C78.9380025,5.75733212 79.4979969,5.636 80.114,5.636 C81.1500052,5.636 81.9479972,5.89033079 82.508,6.399 C83.0680028,6.90766921 83.348,7.62399538 83.348,8.548 L83.348,13 L81.836,13 L81.836,12.146 L81.766,12.146 C81.5606657,12.4540015 81.2713352,12.7106656 80.898,12.916 C80.5246648,13.1213344 80.0953358,13.224 79.61,13.224 Z M79.876,11.95 C80.2493352,11.95 80.5853319,11.8613342 80.884,11.684 C81.1826682,11.5066658 81.4159992,11.2686682 81.584,10.97 C81.7520009,10.6713318 81.836,10.3493351 81.836,10.004 C81.6213323,9.88266606 81.3716681,9.78466704 81.087,9.71 C80.8023319,9.63533296 80.5060016,9.598 80.198,9.598 C79.6193305,9.598 79.194668,9.71233219 78.924,9.941 C78.653332,10.1696678 78.518,10.4659982 78.518,10.83 C78.518,11.1566683 78.6439988,11.4249989 78.896,11.635 C79.1480013,11.845001 79.4746647,11.95 79.876,11.95 Z M85.178,5.86 L86.648,5.86 L86.648,6.91 L86.718,6.91 C86.8766675,6.54599818 87.1519981,6.24500119 87.544,6.007 C87.936002,5.76899881 88.3513312,5.65 88.79,5.65 C89.1353351,5.65 89.4246655,5.6966662 89.658,5.79 L89.658,7.386 C89.2473313,7.23666592 88.8786683,7.162 88.552,7.162 C88.1973316,7.162 87.8823347,7.2553324 87.607,7.442 C87.3316653,7.6286676 87.1146675,7.87833177 86.956,8.191 C86.7973326,8.50366823 86.718,8.8466648 86.718,9.22 L86.718,13 L85.178,13 L85.178,5.86 Z M92.972,13.224 C92.4586641,13.224 92.0013354,13.1236677 91.6,12.923 C91.1986647,12.7223323 90.8860011,12.4376685 90.662,12.069 C90.4379989,11.7003315 90.326,11.282669 90.326,10.816 C90.326,10.078663 90.6036639,9.49533548 91.159,9.066 C91.7143361,8.63666452 92.4166624,8.422 93.266,8.422 C93.6860021,8.422 94.0639983,8.46166627 94.4,8.541 C94.7360017,8.62033373 95.001999,8.7066662 95.198,8.8 L95.198,8.436 C95.198,7.99733114 95.0346683,7.64033471 94.708,7.365 C94.3813317,7.08966529 93.9613359,6.952 93.448,6.952 C93.0839982,6.952 92.7410016,7.03133254 92.419,7.19 C92.0969984,7.34866746 91.838001,7.5679986 91.642,7.848 L90.564,7.022 C90.8813349,6.58333114 91.2919975,6.24266788 91.796,6 C92.3000025,5.75733212 92.8599969,5.636 93.476,5.636 C94.5120052,5.636 95.3099972,5.89033079 95.87,6.399 C96.4300028,6.90766921 96.71,7.62399538 96.71,8.548 L96.71,13 L95.198,13 L95.198,12.146 L95.128,12.146 C94.9226657,12.4540015 94.6333352,12.7106656 94.26,12.916 C93.8866648,13.1213344 93.4573358,13.224 92.972,13.224 Z M93.238,11.95 C93.6113352,11.95 93.9473319,11.8613342 94.246,11.684 C94.5446682,11.5066658 94.7779992,11.2686682 94.946,10.97 C95.1140009,10.6713318 95.198,10.3493351 95.198,10.004 C94.9833323,9.88266606 94.7336681,9.78466704 94.449,9.71 C94.1643319,9.63533296 93.8680016,9.598 93.56,9.598 C92.9813305,9.598 92.556668,9.71233219 92.286,9.941 C92.015332,10.1696678 91.88,10.4659982 91.88,10.83 C91.88,11.1566683 92.0059988,11.4249989 92.258,11.635 C92.5100013,11.845001 92.8366647,11.95 93.238,11.95 Z M101.91,5.86 L103.38,5.86 L103.38,6.798 L103.45,6.798 C103.655334,6.4713317 103.958665,6.19600112 104.36,5.972 C104.761335,5.74799888 105.213998,5.636 105.718,5.636 C106.362003,5.636 106.945331,5.7993317 107.468,6.126 C107.990669,6.4526683 108.403665,6.90299713 108.707,7.477 C109.010335,8.05100287 109.162,8.70199636 109.162,9.43 C109.162,10.1580036 109.010335,10.8089971 108.707,11.383 C108.403665,11.9570029 107.990669,12.4073317 107.468,12.734 C106.945331,13.0606683 106.362003,13.224 105.718,13.224 C105.213998,13.224 104.761335,13.1120011 104.36,12.888 C103.958665,12.6639989 103.655334,12.3933349 103.45,12.076 L103.38,12.076 L103.45,13.07 L103.45,16.024 L101.91,16.024 L101.91,5.86 Z M105.494,11.81 C105.867335,11.81 106.217332,11.712001 106.544,11.516 C106.870668,11.319999 107.131999,11.0400018 107.328,10.676 C107.524001,10.3119982 107.622,9.896669 107.622,9.43 C107.622,8.963331 107.524001,8.55033513 107.328,8.191 C107.131999,7.83166487 106.870668,7.55400098 106.544,7.358 C106.217332,7.16199902 105.867335,7.064 105.494,7.064 C105.120665,7.064 104.773002,7.16199902 104.451,7.358 C104.128998,7.55400098 103.870001,7.83166487 103.674,8.191 C103.477999,8.55033513 103.38,8.963331 103.38,9.43 C103.38,9.896669 103.477999,10.3119982 103.674,10.676 C103.870001,11.0400018 104.128998,11.319999 104.451,11.516 C104.773002,11.712001 105.120665,11.81 105.494,11.81 Z M112.952,13.224 C112.438664,13.224 111.981335,13.1236677 111.58,12.923 C111.178665,12.7223323 110.866001,12.4376685 110.642,12.069 C110.417999,11.7003315 110.306,11.282669 110.306,10.816 C110.306,10.078663 110.583664,9.49533548 111.139,9.066 C111.694336,8.63666452 112.396662,8.422 113.246,8.422 C113.666002,8.422 114.043998,8.46166627 114.38,8.541 C114.716002,8.62033373 114.981999,8.7066662 115.178,8.8 L115.178,8.436 C115.178,7.99733114 115.014668,7.64033471 114.688,7.365 C114.361332,7.08966529 113.941336,6.952 113.428,6.952 C113.063998,6.952 112.721002,7.03133254 112.399,7.19 C112.076998,7.34866746 111.818001,7.5679986 111.622,7.848 L110.544,7.022 C110.861335,6.58333114 111.271998,6.24266788 111.776,6 C112.280003,5.75733212 112.839997,5.636 113.456,5.636 C114.492005,5.636 115.289997,5.89033079 115.85,6.399 C116.410003,6.90766921 116.69,7.62399538 116.69,8.548 L116.69,13 L115.178,13 L115.178,12.146 L115.108,12.146 C114.902666,12.4540015 114.613335,12.7106656 114.24,12.916 C113.866665,13.1213344 113.437336,13.224 112.952,13.224 Z M113.218,11.95 C113.591335,11.95 113.927332,11.8613342 114.226,11.684 C114.524668,11.5066658 114.757999,11.2686682 114.926,10.97 C115.094001,10.6713318 115.178,10.3493351 115.178,10.004 C114.963332,9.88266606 114.713668,9.78466704 114.429,9.71 C114.144332,9.63533296 113.848002,9.598 113.54,9.598 C112.96133,9.598 112.536668,9.71233219 112.266,9.941 C111.995332,10.1696678 111.86,10.4659982 111.86,10.83 C111.86,11.1566683 111.985999,11.4249989 112.238,11.635 C112.490001,11.845001 112.816665,11.95 113.218,11.95 Z M113.568,4.796 C113.157331,4.796 112.807335,4.65133478 112.518,4.362 C112.228665,4.07266522 112.084,3.72266872 112.084,3.312 C112.084,2.90133128 112.228665,2.55366809 112.518,2.269 C112.807335,1.98433191 113.157331,1.842 113.568,1.842 C113.978669,1.842 114.328665,1.98433191 114.618,2.269 C114.907335,2.55366809 115.052,2.90133128 115.052,3.312 C115.052,3.72266872 114.907335,4.07266522 114.618,4.362 C114.328665,4.65133478 113.978669,4.796 113.568,4.796 Z M113.568,3.886 C113.717334,3.886 113.847999,3.82766725 113.96,3.711 C114.072001,3.59433275 114.128,3.46133408 114.128,3.312 C114.128,3.16266592 114.072001,3.03433387 113.96,2.927 C113.847999,2.81966613 113.717334,2.766 113.568,2.766 C113.418666,2.766 113.288001,2.81966613 113.176,2.927 C113.063999,3.03433387 113.008,3.16266592 113.008,3.312 C113.008,3.47066746 113.063999,3.60599944 113.176,3.718 C113.288001,3.83000056 113.418666,3.886 113.568,3.886 Z M121.946,5.86 L123.416,5.86 L123.416,6.798 L123.486,6.798 C123.700668,6.45266494 124.003998,6.17266774 124.396,5.958 C124.788002,5.74333226 125.207998,5.636 125.656,5.636 C126.169336,5.636 126.617331,5.75499881 127,5.993 C127.382669,6.23100119 127.657999,6.54599804 127.826,6.938 C128.068668,6.54599804 128.392998,6.23100119 128.799,5.993 C129.205002,5.75499881 129.683331,5.636 130.234,5.636 C131.055337,5.636 131.678331,5.88566417 132.103,6.385 C132.527669,6.88433583 132.74,7.56332904 132.74,8.422 L132.74,13 L131.2,13 L131.2,8.688 C131.2,7.60532792 130.738005,7.064 129.814,7.064 C129.319331,7.064 128.913335,7.26466466 128.596,7.666 C128.278665,8.06733534 128.12,8.56199706 128.12,9.15 L128.12,13 L126.58,13 L126.58,8.688 C126.58,7.60532792 126.104005,7.064 125.152,7.064 C124.666664,7.064 124.267668,7.26466466 123.955,7.666 C123.642332,8.06733534 123.486,8.56199706 123.486,9.15 L123.486,13 L121.946,13 L121.946,5.86 Z M137.986,13.224 C137.26733,13.224 136.623336,13.058335 136.054,12.727 C135.484664,12.395665 135.041335,11.9406696 134.724,11.362 C134.406665,10.7833304 134.248,10.1393369 134.248,9.43 C134.248,8.72066312 134.406665,8.07666956 134.724,7.498 C135.041335,6.91933044 135.484664,6.46433499 136.054,6.133 C136.623336,5.80166501 137.26733,5.636 137.986,5.636 C138.70467,5.636 139.348664,5.80399832 139.918,6.14 C140.487336,6.47600168 140.930665,6.93333044 141.248,7.512 C141.565335,8.09066956 141.724,8.7299965 141.724,9.43 C141.724,10.1393369 141.565335,10.7833304 141.248,11.362 C140.930665,11.9406696 140.487336,12.395665 139.918,12.727 C139.348664,13.058335 138.70467,13.224 137.986,13.224 Z M137.986,11.81 C138.378002,11.81 138.741998,11.7143343 139.078,11.523 C139.414002,11.3316657 139.682332,11.0563351 139.883,10.697 C140.083668,10.3376649 140.184,9.91533576 140.184,9.43 C140.184,8.94466424 140.083668,8.52466844 139.883,8.17 C139.682332,7.81533156 139.414002,7.54233429 139.078,7.351 C138.741998,7.15966571 138.378002,7.064 137.986,7.064 C137.593998,7.064 137.230002,7.15966571 136.894,7.351 C136.557998,7.54233429 136.289668,7.81533156 136.089,8.17 C135.888332,8.52466844 135.788,8.94466424 135.788,9.43 C135.788,9.91533576 135.888332,10.3376649 136.089,10.697 C136.289668,11.0563351 136.557998,11.3316657 136.894,11.523 C137.230002,11.7143343 137.593998,11.81 137.986,11.81 Z M147.026,13.224 C146.521998,13.224 146.069335,13.1120011 145.668,12.888 C145.266665,12.6639989 144.963334,12.3933349 144.758,12.076 L144.688,12.076 L144.688,13 L143.218,13 L143.218,2.976 L144.758,2.976 L144.758,5.79 L144.688,6.798 L144.758,6.798 C144.963334,6.4713317 145.266665,6.19600112 145.668,5.972 C146.069335,5.74799888 146.521998,5.636 147.026,5.636 C147.670003,5.636 148.253331,5.7993317 148.776,6.126 C149.298669,6.4526683 149.711665,6.90299713 150.015,7.477 C150.318335,8.05100287 150.47,8.70199636 150.47,9.43 C150.47,10.1580036 150.318335,10.8089971 150.015,11.383 C149.711665,11.9570029 149.298669,12.4073317 148.776,12.734 C148.253331,13.0606683 147.670003,13.224 147.026,13.224 Z M146.802,11.81 C147.175335,11.81 147.525332,11.712001 147.852,11.516 C148.178668,11.319999 148.439999,11.0400018 148.636,10.676 C148.832001,10.3119982 148.93,9.896669 148.93,9.43 C148.93,8.963331 148.832001,8.55033513 148.636,8.191 C148.439999,7.83166487 148.178668,7.55400098 147.852,7.358 C147.525332,7.16199902 147.175335,7.064 146.802,7.064 C146.428665,7.064 146.081002,7.16199902 145.759,7.358 C145.436998,7.55400098 145.178001,7.83166487 144.982,8.191 C144.785999,8.55033513 144.688,8.963331 144.688,9.43 C144.688,9.896669 144.785999,10.3119982 144.982,10.676 C145.178001,11.0400018 145.436998,11.319999 145.759,11.516 C146.081002,11.712001 146.428665,11.81 146.802,11.81 Z M152.832,4.824 C152.542665,4.824 152.297668,4.72366767 152.097,4.523 C151.896332,4.32233233 151.796,4.07733478 151.796,3.788 C151.796,3.49866522 151.896332,3.25366767 152.097,3.053 C152.297668,2.85233233 152.542665,2.752 152.832,2.752 C153.121335,2.752 153.366332,2.85233233 153.567,3.053 C153.767668,3.25366767 153.868,3.49866522 153.868,3.788 C153.868,4.07733478 153.767668,4.32233233 153.567,4.523 C153.366332,4.72366767 153.121335,4.824 152.832,4.824 Z M152.062,5.86 L153.602,5.86 L153.602,13 L152.062,13 L152.062,5.86 Z M155.67,2.976 L157.21,2.976 L157.21,13 L155.67,13 L155.67,2.976 Z M162.358,13.224 C161.657997,13.224 161.030336,13.0606683 160.475,12.734 C159.919664,12.4073317 159.485668,11.9570029 159.173,11.383 C158.860332,10.8089971 158.704,10.1626703 158.704,9.444 C158.704,8.76266326 158.855665,8.13033625 159.159,7.547 C159.462335,6.96366375 159.884664,6.49933506 160.426,6.154 C160.967336,5.80866494 161.58333,5.636 162.274,5.636 C162.99267,5.636 163.615664,5.79466508 164.143,6.112 C164.670336,6.42933492 165.071665,6.86333058 165.347,7.414 C165.622335,7.96466942 165.76,8.58532988 165.76,9.276 C165.76,9.40666732 165.746,9.56999902 165.718,9.766 L160.244,9.766 C160.3,10.42867 160.535665,10.9396649 160.951,11.299 C161.366335,11.6583351 161.849331,11.838 162.4,11.838 C162.838669,11.838 163.218998,11.7376677 163.541,11.537 C163.863002,11.3363323 164.121999,11.0633351 164.318,10.718 L165.62,11.334 C165.283998,11.9220029 164.845336,12.3839983 164.304,12.72 C163.762664,13.0560017 163.114004,13.224 162.358,13.224 Z M164.192,8.59 C164.173333,8.33799874 164.094001,8.08833457 163.954,7.841 C163.814,7.59366543 163.601668,7.38600084 163.317,7.218 C163.032332,7.04999916 162.684669,6.966 162.274,6.966 C161.779331,6.966 161.361668,7.11299853 161.021,7.407 C160.680332,7.70100147 160.444667,8.09533086 160.314,8.59 L164.192,8.59 Z M167.31,5.86 L168.78,5.86 L168.78,6.798 L168.85,6.798 C169.055334,6.46199832 169.360998,6.18433443 169.767,5.965 C170.173002,5.74566557 170.604664,5.636 171.062,5.636 C171.930004,5.636 172.590331,5.89033079 173.043,6.399 C173.495669,6.90766921 173.722,7.60066228 173.722,8.478 L173.722,13 L172.182,13 L172.182,8.688 C172.182,8.1279972 172.044335,7.71733464 171.769,7.456 C171.493665,7.19466536 171.113336,7.064 170.628,7.064 C170.282665,7.064 169.974668,7.15966571 169.704,7.351 C169.433332,7.54233429 169.223334,7.79666508 169.074,8.114 C168.924666,8.43133492 168.85,8.77199818 168.85,9.136 L168.85,13 L167.31,13 L167.31,5.86 Z" id="Sparapåmobilen" fill="#3C4043" fill-rule="nonzero"></path>
                    <rect id="Rectangle" fill="#202124" opacity="0.100000001" x="50" y="0" width="1" height="16"></rect>
                    <g id="Gpay-logo-18px-h">
                        <g id="GPay" transform="translate(0.000000, 0.261474)">
                            <g id="Pay" transform="translate(17.615069, 0.825706)" fill="#5F6368">
                                <path d="M1.64941186,1.54761702 L1.64941186,5.63067176 L4.1674047,5.63067176 C4.76721599,5.63067176 5.26322816,5.42908551 5.65562807,5.02591302 C6.05830511,4.6236738 6.26011078,4.1439732 6.26011078,3.58867775 C6.26011078,3.04458155 6.05830511,2.57048056 5.65562807,2.16730807 C5.26322816,1.75386962 4.76721599,1.54668375 4.1674047,1.54668375 L1.64941186,1.54668375 L1.64941186,1.54761702 Z M1.64941186,7.06790702 L1.64941186,11.8042505 L0.145212207,11.8042505 L0.145212207,0.110381756 L4.13461128,0.110381756 C5.14840447,0.110381756 6.00888141,0.448225371 6.71791067,1.12297933 C7.43740394,1.79773329 7.79701042,2.61994385 7.79701042,3.58867775 C7.79701042,4.57981013 7.43731051,5.40762031 6.71791067,6.07117503 C6.01999941,6.73566302 5.15858818,7.06697375 4.13461128,7.06697375 L1.64941186,7.06697375 L1.64941186,7.06790702 Z" id="Fill-1"></path>
                                <path d="M9.31707424,9.35440834 C9.31707424,9.74638159 9.48337706,10.073026 9.81607612,10.3343415 C10.1485883,10.595657 10.5381854,10.7263147 10.9848673,10.7263147 C11.6172851,10.7263147 12.1806593,10.4919707 12.6767649,10.024496 C13.1729639,9.55599458 13.4204561,9.00629876 13.4204561,8.37540847 C12.9514448,8.00490042 12.297445,7.82011303 11.4584566,7.82011303 C10.8475273,7.82011303 10.3383417,7.96756963 9.93005895,8.26154958 C9.52168276,8.55543619 9.31707424,8.91857141 9.31707424,9.35440834 M11.2631909,3.5401384 C12.3749907,3.5401384 13.2522848,3.83691815 13.8961009,4.43047765 C14.5388893,5.02403715 14.8601901,5.83784829 14.8601901,6.87191106 L14.8601901,11.8042412 L13.4214839,11.8042412 L13.4214839,10.6936503 L13.3559904,10.6936503 C12.7346906,11.6081612 11.9059794,12.0655567 10.8708844,12.0655567 C9.98798466,12.0655567 9.24896483,11.8042412 8.65560011,11.2816102 C8.06148796,10.7589792 7.76438517,10.1056904 7.76438517,9.3217439 C7.76438517,8.49393372 8.07727739,7.83588529 8.70418295,7.34601205 C9.33108852,6.85604548 10.1673675,6.61059556 11.2137672,6.61059556 C12.1068507,6.61059556 12.8430677,6.77391775 13.4204561,7.10056213 L13.4204561,6.75711889 C13.4204561,6.23448789 13.2130448,5.7911848 12.7992497,5.42627637 C12.3843335,5.06136793 11.9003736,4.87938035 11.3444738,4.87938035 C10.5045511,4.87938035 9.84036755,5.23308955 9.34986766,5.94144122 L8.0249574,5.10803142 C8.75556866,4.06276941 9.83466841,3.5401384 11.2631909,3.5401384" id="Fill-3"></path>
                                <polygon id="Fill-5" points="23.1164897 3.8014539 18.0966672 15.3320005 16.5437912 15.3320005 18.4077842 11.2974758 15.1049916 3.8014539 16.7399912 3.8014539 19.1270906 9.55039497 19.1597906 9.55039497 21.4814901 3.8014539"></polygon>
                            </g>
                            <g id="G">
                                <path d="M13.1865148,6.87260706 C13.1865148,6.39943935 13.1463406,5.94307048 13.0706634,5.50630029 L6.72686492,5.50630029 L6.72686492,8.09425704 L10.3603012,8.09425704 C10.2042755,8.93783948 9.73246136,9.65561717 9.01679867,10.136251 L9.01679867,11.8170697 L11.1852753,11.8170697 C12.4549693,10.6467495 13.1865148,8.91740087 13.1865148,6.87260706" id="Fill-8" fill="#4285F4"></path>
                                <path d="M6.72685557,13.439083 C8.54217229,13.439083 10.0706634,12.843657 11.185266,11.8170603 L9.01678933,10.1362417 C8.4132409,10.542214 7.63591536,10.7792645 6.72685557,10.7792645 C4.97226741,10.7792645 3.48301633,9.59774511 2.9504736,8.00558709 L0.716596976,8.00558709 L0.716596976,9.73680229 C1.82372529,11.9318525 4.09871047,13.439083 6.72685557,13.439083" id="Fill-10" fill="#34A853"></path>
                                <path d="M2.95048294,8.00556842 C2.81407726,7.59959612 2.73933442,7.166559 2.73933442,6.71952284 C2.73933442,6.27248667 2.81407726,5.83944956 2.95048294,5.43347726 L2.95048294,3.70226205 L0.716606319,3.70226205 C0.258806425,4.60940015 9.34285496e-06,5.63413023 9.34285496e-06,6.71952284 C9.34285496e-06,7.80491544 0.258806425,8.82973885 0.716606319,9.73678363 L2.95048294,8.00556842 Z" id="Fill-12" fill="#FABB05"></path>
                                <path d="M6.72685557,2.65981851 C7.71813249,2.65981851 8.60663799,3.00046194 9.30735212,3.66774974 L9.30735212,3.66868301 L11.2273088,1.75081387 C10.0613205,0.666354532 8.54123801,0 6.72685557,0 C4.09871047,0 1.82372529,1.50723049 0.716596976,3.70228071 L2.9504736,5.43349592 C3.48301633,3.84133789 4.97226741,2.65981851 6.72685557,2.65981851" id="Fill-14" fill="#E94235"></path>
                            </g>
                        </g>
                    </g>
                </g>
            </g>
        </g>
    </g>
</svg>