<?xml version="1.0" encoding="UTF-8"?>
<svg width="280px" height="36px" viewBox="0 0 280 36" version="1.1" xmlns="http://www.w3.org/2000/svg" xmlns:xlink="http://www.w3.org/1999/xlink">
    <!-- Generator: Sketch 58 (84663) - https://sketch.com -->
    <title>Save to Google Pay - Spanish (Light with Stroke)</title>
    <desc>Created with Sketch.</desc>
    <g id="Buttons-(Save-to-phone)" stroke="none" stroke-width="1" fill="none" fill-rule="evenodd">
        <g id="Language-Variations-Copy" transform="translate(-196.000000, -1412.000000)">
            <g id="Save-to-Google-Pay---Spanish-(Light-with-Stroke)" transform="translate(196.000000, 1412.000000)">
                <path d="M4,0.5 C2.06700338,0.5 0.5,2.06700338 0.5,4 L0.5,32 C0.5,33.9329966 2.06700338,35.5 4,35.5 L276,35.5 C277.932997,35.5 279.5,33.9329966 279.5,32 L279.5,4 C279.5,2.06700338 277.932997,0.5 276,0.5 L4,0.5 Z" id="bg-copy-23" stroke="#BDC1C6" fill="#FFFFFF"></path>
                <g id="buttonContent" transform="translate(35.000000, 10.000000)">
                    <path d="M65.394,13.224 C64.4419952,13.224 63.5646707,12.9953356 62.762,12.538 C61.9593293,12.0806644 61.3223357,11.453004 60.851,10.655 C60.3796643,9.85699601 60.144,8.9680049 60.144,7.988 C60.144,7.0079951 60.3796643,6.11900399 60.851,5.321 C61.3223357,4.52299601 61.9593293,3.89533562 62.762,3.438 C63.5646707,2.98066438 64.4419952,2.752 65.394,2.752 C66.1500038,2.752 66.8546634,2.88733198 67.508,3.158 C68.1613366,3.42866802 68.7073311,3.80666424 69.146,4.292 L68.054,5.384 C67.7273317,5.01999818 67.3376689,4.74000098 66.885,4.544 C66.4323311,4.34799902 65.9306694,4.25 65.38,4.25 C64.7359968,4.25 64.1340028,4.40399846 63.574,4.712 C63.0139972,5.02000154 62.5660017,5.45866382 62.23,6.028 C61.8939983,6.59733618 61.726,7.25066298 61.726,7.988 C61.726,8.72533702 61.8939983,9.37866382 62.23,9.948 C62.5660017,10.5173362 63.0139972,10.9559985 63.574,11.264 C64.1340028,11.5720015 64.7406634,11.726 65.394,11.726 C65.9913363,11.726 66.4906647,11.6373342 66.892,11.46 C67.2933353,11.2826658 67.6526651,11.0446682 67.97,10.746 C68.1753344,10.5406656 68.3503326,10.2840015 68.495,9.976 C68.6396674,9.66799846 68.7353331,9.33200182 68.782,8.968 L65.38,8.968 L65.38,7.568 L70.266,7.568 C70.3126669,7.82933464 70.336,8.0999986 70.336,8.38 C70.336,9.01466984 70.238001,9.62366375 70.042,10.207 C69.845999,10.7903362 69.5333355,11.2966645 69.104,11.726 C68.1613286,12.7246717 66.9246743,13.224 65.394,13.224 Z M74.644,13.224 C73.7759957,13.224 73.1156689,12.9650026 72.663,12.447 C72.2103311,11.9289974 71.984,11.2080046 71.984,10.284 L71.984,5.86 L73.524,5.86 L73.524,10.074 C73.524,10.6526696 73.6616653,11.0866652 73.937,11.376 C74.2123347,11.6653348 74.5739978,11.81 75.022,11.81 C75.3860018,11.81 75.7079986,11.7143343 75.988,11.523 C76.2680014,11.3316657 76.4826659,11.0773349 76.632,10.76 C76.7813341,10.4426651 76.856,10.1020018 76.856,9.738 L76.856,5.86 L78.396,5.86 L78.396,13 L76.94,13 L76.94,12.076 L76.856,12.076 C76.659999,12.4120017 76.3566687,12.6873323 75.946,12.902 C75.5353313,13.1166677 75.1013356,13.224 74.644,13.224 Z M82.508,13.224 C81.9946641,13.224 81.5373354,13.1236677 81.136,12.923 C80.7346647,12.7223323 80.4220011,12.4376685 80.198,12.069 C79.9739989,11.7003315 79.862,11.282669 79.862,10.816 C79.862,10.078663 80.1396639,9.49533548 80.695,9.066 C81.2503361,8.63666452 81.9526624,8.422 82.802,8.422 C83.2220021,8.422 83.5999983,8.46166627 83.936,8.541 C84.2720017,8.62033373 84.537999,8.7066662 84.734,8.8 L84.734,8.436 C84.734,7.99733114 84.5706683,7.64033471 84.244,7.365 C83.9173317,7.08966529 83.4973359,6.952 82.984,6.952 C82.6199982,6.952 82.2770016,7.03133254 81.955,7.19 C81.6329984,7.34866746 81.374001,7.5679986 81.178,7.848 L80.1,7.022 C80.4173349,6.58333114 80.8279975,6.24266788 81.332,6 C81.8360025,5.75733212 82.3959969,5.636 83.012,5.636 C84.0480052,5.636 84.8459972,5.89033079 85.406,6.399 C85.9660028,6.90766921 86.246,7.62399538 86.246,8.548 L86.246,13 L84.734,13 L84.734,12.146 L84.664,12.146 C84.4586657,12.4540015 84.1693352,12.7106656 83.796,12.916 C83.4226648,13.1213344 82.9933358,13.224 82.508,13.224 Z M82.774,11.95 C83.1473352,11.95 83.4833319,11.8613342 83.782,11.684 C84.0806682,11.5066658 84.3139992,11.2686682 84.482,10.97 C84.6500009,10.6713318 84.734,10.3493351 84.734,10.004 C84.5193323,9.88266606 84.2696681,9.78466704 83.985,9.71 C83.7003319,9.63533296 83.4040016,9.598 83.096,9.598 C82.5173305,9.598 82.092668,9.71233219 81.822,9.941 C81.551332,10.1696678 81.416,10.4659982 81.416,10.83 C81.416,11.1566683 81.5419988,11.4249989 81.794,11.635 C82.0460013,11.8450011 82.3726647,11.95 82.774,11.95 Z M88.076,5.86 L89.546,5.86 L89.546,6.91 L89.616,6.91 C89.7746675,6.54599818 90.0499981,6.24500119 90.442,6.007 C90.834002,5.76899881 91.2493312,5.65 91.688,5.65 C92.0333351,5.65 92.3226655,5.6966662 92.556,5.79 L92.556,7.386 C92.1453313,7.23666592 91.7766683,7.162 91.45,7.162 C91.0953316,7.162 90.7803347,7.2553324 90.505,7.442 C90.2296653,7.6286676 90.0126675,7.87833177 89.854,8.191 C89.6953326,8.50366823 89.616,8.8466648 89.616,9.22 L89.616,13 L88.076,13 L88.076,5.86 Z M96.514,13.224 C95.8699968,13.224 95.2866693,13.0606683 94.764,12.734 C94.2413307,12.4073317 93.8283349,11.9570029 93.525,11.383 C93.2216652,10.8089971 93.07,10.1580036 93.07,9.43 C93.07,8.70199636 93.2216652,8.05100287 93.525,7.477 C93.8283349,6.90299713 94.2413307,6.4526683 94.764,6.126 C95.2866693,5.7993317 95.8699968,5.636 96.514,5.636 C97.0180025,5.636 97.4706647,5.74799888 97.872,5.972 C98.2733354,6.19600112 98.5766657,6.4713317 98.782,6.798 L98.852,6.798 L98.782,5.79 L98.782,2.976 L100.322,2.976 L100.322,13 L98.852,13 L98.852,12.076 L98.782,12.076 C98.5766657,12.3933349 98.2733354,12.6639989 97.872,12.888 C97.4706647,13.1120011 97.0180025,13.224 96.514,13.224 Z M96.738,11.81 C97.1113352,11.81 97.4589984,11.712001 97.781,11.516 C98.1030016,11.319999 98.361999,11.0400018 98.558,10.676 C98.754001,10.3119982 98.852,9.896669 98.852,9.43 C98.852,8.963331 98.754001,8.55033513 98.558,8.191 C98.361999,7.83166487 98.1030016,7.55400098 97.781,7.358 C97.4589984,7.16199902 97.1113352,7.064 96.738,7.064 C96.3646648,7.064 96.0146683,7.16199902 95.688,7.358 C95.3613317,7.55400098 95.100001,7.83166487 94.904,8.191 C94.707999,8.55033513 94.61,8.963331 94.61,9.43 C94.61,9.896669 94.707999,10.3119982 94.904,10.676 C95.100001,11.0400018 95.3613317,11.319999 95.688,11.516 C96.0146683,11.712001 96.3646648,11.81 96.738,11.81 Z M104.434,13.224 C103.920664,13.224 103.463335,13.1236677 103.062,12.923 C102.660665,12.7223323 102.348001,12.4376685 102.124,12.069 C101.899999,11.7003315 101.788,11.282669 101.788,10.816 C101.788,10.078663 102.065664,9.49533548 102.621,9.066 C103.176336,8.63666452 103.878662,8.422 104.728,8.422 C105.148002,8.422 105.525998,8.46166627 105.862,8.541 C106.198002,8.62033373 106.463999,8.7066662 106.66,8.8 L106.66,8.436 C106.66,7.99733114 106.496668,7.64033471 106.17,7.365 C105.843332,7.08966529 105.423336,6.952 104.91,6.952 C104.545998,6.952 104.203002,7.03133254 103.881,7.19 C103.558998,7.34866746 103.300001,7.5679986 103.104,7.848 L102.026,7.022 C102.343335,6.58333114 102.753998,6.24266788 103.258,6 C103.762003,5.75733212 104.321997,5.636 104.938,5.636 C105.974005,5.636 106.771997,5.89033079 107.332,6.399 C107.892003,6.90766921 108.172,7.62399538 108.172,8.548 L108.172,13 L106.66,13 L106.66,12.146 L106.59,12.146 C106.384666,12.4540015 106.095335,12.7106656 105.722,12.916 C105.348665,13.1213344 104.919336,13.224 104.434,13.224 Z M104.7,11.95 C105.073335,11.95 105.409332,11.8613342 105.708,11.684 C106.006668,11.5066658 106.239999,11.2686682 106.408,10.97 C106.576001,10.6713318 106.66,10.3493351 106.66,10.004 C106.445332,9.88266606 106.195668,9.78466704 105.911,9.71 C105.626332,9.63533296 105.330002,9.598 105.022,9.598 C104.44333,9.598 104.018668,9.71233219 103.748,9.941 C103.477332,10.1696678 103.342,10.4659982 103.342,10.83 C103.342,11.1566683 103.467999,11.4249989 103.72,11.635 C103.972001,11.8450011 104.298665,11.95 104.7,11.95 Z M110.002,5.86 L111.472,5.86 L111.472,6.91 L111.542,6.91 C111.700667,6.54599818 111.975998,6.24500119 112.368,6.007 C112.760002,5.76899881 113.175331,5.65 113.614,5.65 C113.959335,5.65 114.248666,5.6966662 114.482,5.79 L114.482,7.386 C114.071331,7.23666592 113.702668,7.162 113.376,7.162 C113.021332,7.162 112.706335,7.2553324 112.431,7.442 C112.155665,7.6286676 111.938667,7.87833177 111.78,8.191 C111.621333,8.50366823 111.542,8.8466648 111.542,9.22 L111.542,13 L110.002,13 L110.002,5.86 Z M122.496,13.224 C121.795997,13.224 121.168336,13.0606683 120.613,12.734 C120.057664,12.4073317 119.623668,11.9570029 119.311,11.383 C118.998332,10.8089971 118.842,10.1626703 118.842,9.444 C118.842,8.76266326 118.993665,8.13033625 119.297,7.547 C119.600335,6.96366375 120.022664,6.49933506 120.564,6.154 C121.105336,5.80866494 121.72133,5.636 122.412,5.636 C123.13067,5.636 123.753664,5.79466508 124.281,6.112 C124.808336,6.42933492 125.209665,6.86333058 125.485,7.414 C125.760335,7.96466942 125.898,8.58532988 125.898,9.276 C125.898,9.40666732 125.884,9.56999902 125.856,9.766 L120.382,9.766 C120.438,10.42867 120.673665,10.9396649 121.089,11.299 C121.504335,11.6583351 121.987331,11.838 122.538,11.838 C122.976669,11.838 123.356998,11.7376677 123.679,11.537 C124.001002,11.3363323 124.259999,11.0633351 124.456,10.718 L125.758,11.334 C125.421998,11.9220029 124.983336,12.3839983 124.442,12.72 C123.900664,13.0560017 123.252004,13.224 122.496,13.224 Z M124.33,8.59 C124.311333,8.33799874 124.232001,8.08833457 124.092,7.841 C123.952,7.59366543 123.739668,7.38600084 123.455,7.218 C123.170332,7.04999916 122.822669,6.966 122.412,6.966 C121.917331,6.966 121.499668,7.11299853 121.159,7.407 C120.818332,7.70100147 120.582667,8.09533086 120.452,8.59 L124.33,8.59 Z M127.448,5.86 L128.918,5.86 L128.918,6.798 L128.988,6.798 C129.193334,6.46199832 129.498998,6.18433443 129.905,5.965 C130.311002,5.74566557 130.742664,5.636 131.2,5.636 C132.068004,5.636 132.728331,5.89033079 133.181,6.399 C133.633669,6.90766921 133.86,7.60066228 133.86,8.478 L133.86,13 L132.32,13 L132.32,8.688 C132.32,8.1279972 132.182335,7.71733464 131.907,7.456 C131.631665,7.19466536 131.251336,7.064 130.766,7.064 C130.420665,7.064 130.112668,7.15966571 129.842,7.351 C129.571332,7.54233429 129.361334,7.79666508 129.212,8.114 C129.062666,8.43133492 128.988,8.77199818 128.988,9.136 L128.988,13 L127.448,13 L127.448,5.86 Z M142.434,13.224 C141.733997,13.224 141.106336,13.0606683 140.551,12.734 C139.995664,12.4073317 139.561668,11.9570029 139.249,11.383 C138.936332,10.8089971 138.78,10.1626703 138.78,9.444 C138.78,8.76266326 138.931665,8.13033625 139.235,7.547 C139.538335,6.96366375 139.960664,6.49933506 140.502,6.154 C141.043336,5.80866494 141.65933,5.636 142.35,5.636 C143.06867,5.636 143.691664,5.79466508 144.219,6.112 C144.746336,6.42933492 145.147665,6.86333058 145.423,7.414 C145.698335,7.96466942 145.836,8.58532988 145.836,9.276 C145.836,9.40666732 145.822,9.56999902 145.794,9.766 L140.32,9.766 C140.376,10.42867 140.611665,10.9396649 141.027,11.299 C141.442335,11.6583351 141.925331,11.838 142.476,11.838 C142.914669,11.838 143.294998,11.7376677 143.617,11.537 C143.939002,11.3363323 144.197999,11.0633351 144.394,10.718 L145.696,11.334 C145.359998,11.9220029 144.921336,12.3839983 144.38,12.72 C143.838664,13.0560017 143.190004,13.224 142.434,13.224 Z M144.268,8.59 C144.249333,8.33799874 144.170001,8.08833457 144.03,7.841 C143.89,7.59366543 143.677668,7.38600084 143.393,7.218 C143.108332,7.04999916 142.760669,6.966 142.35,6.966 C141.855331,6.966 141.437668,7.11299853 141.097,7.407 C140.756332,7.70100147 140.520667,8.09533086 140.39,8.59 L144.268,8.59 Z M147.386,2.976 L148.926,2.976 L148.926,13 L147.386,13 L147.386,2.976 Z M157.234,13.112 C156.916665,13.112 156.618001,13.0606672 156.338,12.958 C156.057999,12.8553328 155.829334,12.7200008 155.652,12.552 C155.250665,12.1506647 155.05,11.6046701 155.05,10.914 L155.05,7.218 L153.804,7.218 L153.804,5.86 L155.05,5.86 L155.05,3.844 L156.59,3.844 L156.59,5.86 L158.326,5.86 L158.326,7.218 L156.59,7.218 L156.59,10.578 C156.59,10.9606686 156.664666,11.2313325 156.814,11.39 C156.954001,11.5766676 157.196665,11.67 157.542,11.67 C157.700668,11.67 157.840666,11.6490002 157.962,11.607 C158.083334,11.5649998 158.213999,11.4973338 158.354,11.404 L158.354,12.902 C158.045999,13.0420007 157.672669,13.112 157.234,13.112 Z M162.928,13.224 C162.227997,13.224 161.600336,13.0606683 161.045,12.734 C160.489664,12.4073317 160.055668,11.9570029 159.743,11.383 C159.430332,10.8089971 159.274,10.1626703 159.274,9.444 C159.274,8.76266326 159.425665,8.13033625 159.729,7.547 C160.032335,6.96366375 160.454664,6.49933506 160.996,6.154 C161.537336,5.80866494 162.15333,5.636 162.844,5.636 C163.56267,5.636 164.185664,5.79466508 164.713,6.112 C165.240336,6.42933492 165.641665,6.86333058 165.917,7.414 C166.192335,7.96466942 166.33,8.58532988 166.33,9.276 C166.33,9.40666732 166.316,9.56999902 166.288,9.766 L160.814,9.766 C160.87,10.42867 161.105665,10.9396649 161.521,11.299 C161.936335,11.6583351 162.419331,11.838 162.97,11.838 C163.408669,11.838 163.788998,11.7376677 164.111,11.537 C164.433002,11.3363323 164.691999,11.0633351 164.888,10.718 L166.19,11.334 C165.853998,11.9220029 165.415336,12.3839983 164.874,12.72 C164.332664,13.0560017 163.684004,13.224 162.928,13.224 Z M164.762,8.59 C164.743333,8.33799874 164.664001,8.08833457 164.524,7.841 C164.384,7.59366543 164.171668,7.38600084 163.887,7.218 C163.602332,7.04999916 163.254669,6.966 162.844,6.966 C162.349331,6.966 161.931668,7.11299853 161.591,7.407 C161.250332,7.70100147 161.014667,8.09533086 160.884,8.59 L164.762,8.59 Z M167.88,2.976 L169.42,2.976 L169.42,13 L167.88,13 L167.88,2.976 Z M174.568,13.224 C173.867997,13.224 173.240336,13.0606683 172.685,12.734 C172.129664,12.4073317 171.695668,11.9570029 171.383,11.383 C171.070332,10.8089971 170.914,10.1626703 170.914,9.444 C170.914,8.76266326 171.065665,8.13033625 171.369,7.547 C171.672335,6.96366375 172.094664,6.49933506 172.636,6.154 C173.177336,5.80866494 173.79333,5.636 174.484,5.636 C175.20267,5.636 175.825664,5.79466508 176.353,6.112 C176.880336,6.42933492 177.281665,6.86333058 177.557,7.414 C177.832335,7.96466942 177.97,8.58532988 177.97,9.276 C177.97,9.40666732 177.956,9.56999902 177.928,9.766 L172.454,9.766 C172.51,10.42867 172.745665,10.9396649 173.161,11.299 C173.576336,11.6583351 174.059331,11.838 174.61,11.838 C175.048669,11.838 175.428998,11.7376677 175.751,11.537 C176.073002,11.3363323 176.331999,11.0633351 176.528,10.718 L177.83,11.334 C177.493998,11.9220029 177.055336,12.3839983 176.514,12.72 C175.972664,13.0560017 175.324004,13.224 174.568,13.224 Z M176.402,8.59 C176.383333,8.33799874 176.304001,8.08833457 176.164,7.841 C176.024,7.59366543 175.811668,7.38600084 175.527,7.218 C175.242332,7.04999916 174.894669,6.966 174.484,6.966 C173.989331,6.966 173.571668,7.11299853 173.231,7.407 C172.890332,7.70100147 172.654667,8.09533086 172.524,8.59 L176.402,8.59 Z M174.498,2.654 L176.248,2.654 L175.128,4.488 L173.84,4.488 L174.498,2.654 Z M180.178,7.218 L178.876,7.218 L178.876,5.86 L180.178,5.86 L180.178,5.3 C180.178,4.5533296 180.411331,3.96066886 180.878,3.522 C181.344669,3.08333114 181.941996,2.864 182.67,2.864 C183.090002,2.864 183.453999,2.91533282 183.762,3.018 L183.762,4.53 C183.593999,4.46466634 183.437667,4.41100021 183.293,4.369 C183.148333,4.32699979 182.982668,4.306 182.796,4.306 C182.487999,4.306 182.231334,4.40399902 182.026,4.6 C181.820666,4.79600098 181.718,5.06666494 181.718,5.412 L181.718,5.86 L183.51,5.86 L183.51,7.218 L181.718,7.218 L181.718,13 L180.178,13 L180.178,7.218 Z M188.028,13.224 C187.30933,13.224 186.665336,13.058335 186.096,12.727 C185.526664,12.395665 185.083335,11.9406696 184.766,11.362 C184.448665,10.7833304 184.29,10.1393369 184.29,9.43 C184.29,8.72066312 184.448665,8.07666956 184.766,7.498 C185.083335,6.91933044 185.526664,6.46433499 186.096,6.133 C186.665336,5.80166501 187.30933,5.636 188.028,5.636 C188.74667,5.636 189.390664,5.80399832 189.96,6.14 C190.529336,6.47600168 190.972665,6.93333044 191.29,7.512 C191.607335,8.09066956 191.766,8.7299965 191.766,9.43 C191.766,10.1393369 191.607335,10.7833304 191.29,11.362 C190.972665,11.9406696 190.529336,12.395665 189.96,12.727 C189.390664,13.058335 188.74667,13.224 188.028,13.224 Z M188.028,11.81 C188.420002,11.81 188.783998,11.7143343 189.12,11.523 C189.456002,11.3316657 189.724332,11.0563351 189.925,10.697 C190.125668,10.3376649 190.226,9.91533576 190.226,9.43 C190.226,8.94466424 190.125668,8.52466844 189.925,8.17 C189.724332,7.81533156 189.456002,7.54233429 189.12,7.351 C188.783998,7.15966571 188.420002,7.064 188.028,7.064 C187.635998,7.064 187.272002,7.15966571 186.936,7.351 C186.599998,7.54233429 186.331668,7.81533156 186.131,8.17 C185.930332,8.52466844 185.83,8.94466424 185.83,9.43 C185.83,9.91533576 185.930332,10.3376649 186.131,10.697 C186.331668,11.0563351 186.599998,11.3316657 186.936,11.523 C187.272002,11.7143343 187.635998,11.81 188.028,11.81 Z M193.19,5.86 L194.66,5.86 L194.66,6.798 L194.73,6.798 C194.935334,6.46199832 195.240998,6.18433443 195.647,5.965 C196.053002,5.74566557 196.484664,5.636 196.942,5.636 C197.810004,5.636 198.470331,5.89033079 198.923,6.399 C199.375669,6.90766921 199.602,7.60066228 199.602,8.478 L199.602,13 L198.062,13 L198.062,8.688 C198.062,8.1279972 197.924335,7.71733464 197.649,7.456 C197.373665,7.19466536 196.993336,7.064 196.508,7.064 C196.162665,7.064 195.854668,7.15966571 195.584,7.351 C195.313332,7.54233429 195.103334,7.79666508 194.954,8.114 C194.804666,8.43133492 194.73,8.77199818 194.73,9.136 L194.73,13 L193.19,13 L193.19,5.86 Z M204.834,13.224 C204.11533,13.224 203.471336,13.058335 202.902,12.727 C202.332664,12.395665 201.889335,11.9406696 201.572,11.362 C201.254665,10.7833304 201.096,10.1393369 201.096,9.43 C201.096,8.72066312 201.254665,8.07666956 201.572,7.498 C201.889335,6.91933044 202.332664,6.46433499 202.902,6.133 C203.471336,5.80166501 204.11533,5.636 204.834,5.636 C205.55267,5.636 206.196664,5.80399832 206.766,6.14 C207.335336,6.47600168 207.778665,6.93333044 208.096,7.512 C208.413335,8.09066956 208.572,8.7299965 208.572,9.43 C208.572,10.1393369 208.413335,10.7833304 208.096,11.362 C207.778665,11.9406696 207.335336,12.395665 206.766,12.727 C206.196664,13.058335 205.55267,13.224 204.834,13.224 Z M204.834,11.81 C205.226002,11.81 205.589998,11.7143343 205.926,11.523 C206.262002,11.3316657 206.530332,11.0563351 206.731,10.697 C206.931668,10.3376649 207.032,9.91533576 207.032,9.43 C207.032,8.94466424 206.931668,8.52466844 206.731,8.17 C206.530332,7.81533156 206.262002,7.54233429 205.926,7.351 C205.589998,7.15966571 205.226002,7.064 204.834,7.064 C204.441998,7.064 204.078002,7.15966571 203.742,7.351 C203.405998,7.54233429 203.137668,7.81533156 202.937,8.17 C202.736332,8.52466844 202.636,8.94466424 202.636,9.43 C202.636,9.91533576 202.736332,10.3376649 202.937,10.697 C203.137668,11.0563351 203.405998,11.3316657 203.742,11.523 C204.078002,11.7143343 204.441998,11.81 204.834,11.81 Z" id="Guardarenelteléfonoo" fill="#3C4043" fill-rule="nonzero"></path>
                    <rect id="Rectangle-Copy" fill="#202124" opacity="0.100000001" x="50" y="0" width="1" height="16"></rect>
                    <g id="Gpay-logo-18px-h-Copy-19">
                        <g id="GPay" transform="translate(0.000000, 0.261474)">
                            <g id="Pay" transform="translate(17.615069, 0.825706)" fill="#5F6368">
                                <path d="M1.64941186,1.54761702 L1.64941186,5.63067176 L4.1674047,5.63067176 C4.76721599,5.63067176 5.26322816,5.42908551 5.65562807,5.02591302 C6.05830511,4.6236738 6.26011078,4.1439732 6.26011078,3.58867775 C6.26011078,3.04458155 6.05830511,2.57048056 5.65562807,2.16730807 C5.26322816,1.75386962 4.76721599,1.54668375 4.1674047,1.54668375 L1.64941186,1.54668375 L1.64941186,1.54761702 Z M1.64941186,7.06790702 L1.64941186,11.8042505 L0.145212207,11.8042505 L0.145212207,0.110381756 L4.13461128,0.110381756 C5.14840447,0.110381756 6.00888141,0.448225371 6.71791067,1.12297933 C7.43740394,1.79773329 7.79701042,2.61994385 7.79701042,3.58867775 C7.79701042,4.57981013 7.43731051,5.40762031 6.71791067,6.07117503 C6.01999941,6.73566302 5.15858818,7.06697375 4.13461128,7.06697375 L1.64941186,7.06697375 L1.64941186,7.06790702 Z" id="Fill-1"></path>
                                <path d="M9.31707424,9.35440834 C9.31707424,9.74638159 9.48337706,10.073026 9.81607612,10.3343415 C10.1485883,10.595657 10.5381854,10.7263147 10.9848673,10.7263147 C11.6172851,10.7263147 12.1806593,10.4919707 12.6767649,10.024496 C13.1729639,9.55599458 13.4204561,9.00629876 13.4204561,8.37540847 C12.9514448,8.00490042 12.297445,7.82011303 11.4584566,7.82011303 C10.8475273,7.82011303 10.3383417,7.96756963 9.93005895,8.26154958 C9.52168276,8.55543619 9.31707424,8.91857141 9.31707424,9.35440834 M11.2631909,3.5401384 C12.3749907,3.5401384 13.2522848,3.83691815 13.8961009,4.43047765 C14.5388893,5.02403715 14.8601901,5.83784829 14.8601901,6.87191106 L14.8601901,11.8042412 L13.4214839,11.8042412 L13.4214839,10.6936503 L13.3559904,10.6936503 C12.7346906,11.6081612 11.9059794,12.0655567 10.8708844,12.0655567 C9.98798466,12.0655567 9.24896483,11.8042412 8.65560011,11.2816102 C8.06148796,10.7589792 7.76438517,10.1056904 7.76438517,9.3217439 C7.76438517,8.49393372 8.07727739,7.83588529 8.70418295,7.34601205 C9.33108852,6.85604548 10.1673675,6.61059556 11.2137672,6.61059556 C12.1068507,6.61059556 12.8430677,6.77391775 13.4204561,7.10056213 L13.4204561,6.75711889 C13.4204561,6.23448789 13.2130448,5.7911848 12.7992497,5.42627637 C12.3843335,5.06136793 11.9003736,4.87938035 11.3444738,4.87938035 C10.5045511,4.87938035 9.84036755,5.23308955 9.34986766,5.94144122 L8.0249574,5.10803142 C8.75556866,4.06276941 9.83466841,3.5401384 11.2631909,3.5401384" id="Fill-3"></path>
                                <polygon id="Fill-5" points="23.1164897 3.8014539 18.0966672 15.3320005 16.5437912 15.3320005 18.4077842 11.2974758 15.1049916 3.8014539 16.7399912 3.8014539 19.1270906 9.55039497 19.1597906 9.55039497 21.4814901 3.8014539"></polygon>
                            </g>
                            <g id="G">
                                <path d="M13.1865148,6.87260706 C13.1865148,6.39943935 13.1463406,5.94307048 13.0706634,5.50630029 L6.72686492,5.50630029 L6.72686492,8.09425704 L10.3603012,8.09425704 C10.2042755,8.93783948 9.73246136,9.65561717 9.01679867,10.136251 L9.01679867,11.8170697 L11.1852753,11.8170697 C12.4549693,10.6467495 13.1865148,8.91740087 13.1865148,6.87260706" id="Fill-8" fill="#4285F4"></path>
                                <path d="M6.72685557,13.439083 C8.54217229,13.439083 10.0706634,12.843657 11.185266,11.8170603 L9.01678933,10.1362417 C8.4132409,10.542214 7.63591536,10.7792645 6.72685557,10.7792645 C4.97226741,10.7792645 3.48301633,9.59774511 2.9504736,8.00558709 L0.716596976,8.00558709 L0.716596976,9.73680229 C1.82372529,11.9318525 4.09871047,13.439083 6.72685557,13.439083" id="Fill-10" fill="#34A853"></path>
                                <path d="M2.95048294,8.00556842 C2.81407726,7.59959612 2.73933442,7.166559 2.73933442,6.71952284 C2.73933442,6.27248667 2.81407726,5.83944956 2.95048294,5.43347726 L2.95048294,3.70226205 L0.716606319,3.70226205 C0.258806425,4.60940015 9.34285496e-06,5.63413023 9.34285496e-06,6.71952284 C9.34285496e-06,7.80491544 0.258806425,8.82973885 0.716606319,9.73678363 L2.95048294,8.00556842 Z" id="Fill-12" fill="#FABB05"></path>
                                <path d="M6.72685557,2.65981851 C7.71813249,2.65981851 8.60663799,3.00046194 9.30735212,3.66774974 L9.30735212,3.66868301 L11.2273088,1.75081387 C10.0613205,0.666354532 8.54123801,0 6.72685557,0 C4.09871047,0 1.82372529,1.50723049 0.716596976,3.70228071 L2.9504736,5.43349592 C3.48301633,3.84133789 4.97226741,2.65981851 6.72685557,2.65981851" id="Fill-14" fill="#E94235"></path>
                            </g>
                        </g>
                    </g>
                </g>
            </g>
        </g>
    </g>
</svg>