<?xml version="1.0" encoding="UTF-8"?>
<svg width="280px" height="36px" viewBox="0 0 280 36" version="1.1" xmlns="http://www.w3.org/2000/svg" xmlns:xlink="http://www.w3.org/1999/xlink">
    <!-- Generator: Sketch 58 (84663) - https://sketch.com -->
    <title>Save to Google Pay - Czech (Light with Stroke)</title>
    <desc>Created with Sketch.</desc>
    <g id="Buttons-(Save-to-phone)" stroke="none" stroke-width="1" fill="none" fill-rule="evenodd">
        <g id="Language-Variations---Flattened" transform="translate(-196.000000, -482.000000)">
            <g id="Save-to-Google-Pay---Czech-(Light-with-Stroke)" transform="translate(196.000000, 482.000000)">
                <path d="M4,0.5 C2.06700338,0.5 0.5,2.06700338 0.5,4 L0.5,32 C0.5,33.9329966 2.06700338,35.5 4,35.5 L276,35.5 C277.932997,35.5 279.5,33.9329966 279.5,32 L279.5,4 C279.5,2.06700338 277.932997,0.5 276,0.5 L4,0.5 Z" id="bg-copy-5" stroke="#BDC1C6" fill="#FFFFFF"></path>
                <g id="buttonContent" transform="translate(51.000000, 10.000000)">
                    <path d="M64.26,13.224 C63.5133296,13.224 62.8530029,13.0560017 62.279,12.72 C61.7049971,12.3839983 61.2593349,11.9080031 60.942,11.292 C60.6246651,10.6759969 60.466,9.96200406 60.466,9.15 L60.466,2.976 L62.02,2.976 L62.02,9.234 C62.02,9.97133702 62.2136647,10.5709977 62.601,11.033 C62.9883353,11.4950023 63.5413297,11.726 64.26,11.726 C64.9786703,11.726 65.5293314,11.4973356 65.912,11.04 C66.2946686,10.5826644 66.486,9.9806704 66.486,9.234 L66.486,2.976 L68.054,2.976 L68.054,9.15 C68.054,9.95267068 67.9000015,10.6619969 67.592,11.278 C67.2839985,11.8940031 66.8453362,12.3723316 66.276,12.713 C65.7066638,13.0536684 65.0346705,13.224 64.26,13.224 Z M70.066,2.976 L71.606,2.976 L71.606,13 L70.066,13 L70.066,2.976 Z M76.838,13.224 C76.1193298,13.224 75.4753362,13.058335 74.906,12.727 C74.3366638,12.395665 73.8933349,11.9406696 73.576,11.362 C73.2586651,10.7833304 73.1,10.1393369 73.1,9.43 C73.1,8.72066312 73.2586651,8.07666956 73.576,7.498 C73.8933349,6.91933044 74.3366638,6.46433499 74.906,6.133 C75.4753362,5.80166501 76.1193298,5.636 76.838,5.636 C77.5566703,5.636 78.2006638,5.80399832 78.77,6.14 C79.3393362,6.47600168 79.7826651,6.93333044 80.1,7.512 C80.4173349,8.09066956 80.576,8.7299965 80.576,9.43 C80.576,10.1393369 80.4173349,10.7833304 80.1,11.362 C79.7826651,11.9406696 79.3393362,12.395665 78.77,12.727 C78.2006638,13.058335 77.5566703,13.224 76.838,13.224 Z M76.838,11.81 C77.230002,11.81 77.5939983,11.7143343 77.93,11.523 C78.2660017,11.3316657 78.5343323,11.0563351 78.735,10.697 C78.9356677,10.3376649 79.036,9.91533576 79.036,9.43 C79.036,8.94466424 78.9356677,8.52466844 78.735,8.17 C78.5343323,7.81533156 78.2660017,7.54233429 77.93,7.351 C77.5939983,7.15966571 77.230002,7.064 76.838,7.064 C76.4459981,7.064 76.0820017,7.15966571 75.746,7.351 C75.4099983,7.54233429 75.1416677,7.81533156 74.941,8.17 C74.7403323,8.52466844 74.64,8.94466424 74.64,9.43 C74.64,9.91533576 74.7403323,10.3376649 74.941,10.697 C75.1416677,11.0563351 75.4099983,11.3316657 75.746,11.523 C76.0820017,11.7143343 76.4459981,11.81 76.838,11.81 Z M81.636,11.712 L85.584,7.218 L81.748,7.218 L81.748,5.86 L87.474,5.86 L87.474,7.162 L83.526,11.656 L87.586,11.656 L87.586,13 L81.636,13 L81.636,11.712 Z M82.434,2.794 L82.434,2.696 L83.918,2.696 L84.548,3.536 L84.688,3.536 L85.318,2.696 L86.802,2.696 L86.802,2.794 L85.29,4.488 L83.946,4.488 L82.434,2.794 Z M90.186,4.824 C89.8966652,4.824 89.6516677,4.72366767 89.451,4.523 C89.2503324,4.32233233 89.15,4.07733478 89.15,3.788 C89.15,3.49866522 89.2503324,3.25366767 89.451,3.053 C89.6516677,2.85233233 89.8966652,2.752 90.186,2.752 C90.4753348,2.752 90.7203324,2.85233233 90.921,3.053 C91.1216677,3.25366767 91.222,3.49866522 91.222,3.788 C91.222,4.07733478 91.1216677,4.32233233 90.921,4.523 C90.7203324,4.72366767 90.4753348,4.824 90.186,4.824 Z M89.416,5.86 L90.956,5.86 L90.956,13 L89.416,13 L89.416,5.86 Z M95.88,13.112 C95.5626651,13.112 95.2640014,13.0606672 94.984,12.958 C94.7039986,12.8553328 94.4753342,12.7200008 94.298,12.552 C93.8966647,12.1506647 93.696,11.6046701 93.696,10.914 L93.696,7.218 L92.45,7.218 L92.45,5.86 L93.696,5.86 L93.696,3.844 L95.236,3.844 L95.236,5.86 L96.972,5.86 L96.972,7.218 L95.236,7.218 L95.236,10.578 C95.236,10.9606686 95.3106659,11.2313325 95.46,11.39 C95.6000007,11.5766676 95.842665,11.67 96.188,11.67 C96.3466675,11.67 96.4866661,11.6490002 96.608,11.607 C96.729334,11.5649998 96.8599993,11.4973338 97,11.404 L97,12.902 C96.6919985,13.0420007 96.3186689,13.112 95.88,13.112 Z M105.07,13.224 C104.425997,13.224 103.842669,13.0606683 103.32,12.734 C102.797331,12.4073317 102.384335,11.9570029 102.081,11.383 C101.777665,10.8089971 101.626,10.1580036 101.626,9.43 C101.626,8.70199636 101.777665,8.05100287 102.081,7.477 C102.384335,6.90299713 102.797331,6.4526683 103.32,6.126 C103.842669,5.7993317 104.425997,5.636 105.07,5.636 C105.574003,5.636 106.026665,5.74799888 106.428,5.972 C106.829335,6.19600112 107.132666,6.4713317 107.338,6.798 L107.408,6.798 L107.338,5.79 L107.338,2.976 L108.878,2.976 L108.878,13 L107.408,13 L107.408,12.076 L107.338,12.076 C107.132666,12.3933349 106.829335,12.6639989 106.428,12.888 C106.026665,13.1120011 105.574003,13.224 105.07,13.224 Z M105.294,11.81 C105.667335,11.81 106.014998,11.712001 106.337,11.516 C106.659002,11.319999 106.917999,11.0400018 107.114,10.676 C107.310001,10.3119982 107.408,9.896669 107.408,9.43 C107.408,8.963331 107.310001,8.55033513 107.114,8.191 C106.917999,7.83166487 106.659002,7.55400098 106.337,7.358 C106.014998,7.16199902 105.667335,7.064 105.294,7.064 C104.920665,7.064 104.570668,7.16199902 104.244,7.358 C103.917332,7.55400098 103.656001,7.83166487 103.46,8.191 C103.263999,8.55033513 103.166,8.963331 103.166,9.43 C103.166,9.896669 103.263999,10.3119982 103.46,10.676 C103.656001,11.0400018 103.917332,11.319999 104.244,11.516 C104.570668,11.712001 104.920665,11.81 105.294,11.81 Z M114.096,13.224 C113.37733,13.224 112.733336,13.058335 112.164,12.727 C111.594664,12.395665 111.151335,11.9406696 110.834,11.362 C110.516665,10.7833304 110.358,10.1393369 110.358,9.43 C110.358,8.72066312 110.516665,8.07666956 110.834,7.498 C111.151335,6.91933044 111.594664,6.46433499 112.164,6.133 C112.733336,5.80166501 113.37733,5.636 114.096,5.636 C114.81467,5.636 115.458664,5.80399832 116.028,6.14 C116.597336,6.47600168 117.040665,6.93333044 117.358,7.512 C117.675335,8.09066956 117.834,8.7299965 117.834,9.43 C117.834,10.1393369 117.675335,10.7833304 117.358,11.362 C117.040665,11.9406696 116.597336,12.395665 116.028,12.727 C115.458664,13.058335 114.81467,13.224 114.096,13.224 Z M114.096,11.81 C114.488002,11.81 114.851998,11.7143343 115.188,11.523 C115.524002,11.3316657 115.792332,11.0563351 115.993,10.697 C116.193668,10.3376649 116.294,9.91533576 116.294,9.43 C116.294,8.94466424 116.193668,8.52466844 115.993,8.17 C115.792332,7.81533156 115.524002,7.54233429 115.188,7.351 C114.851998,7.15966571 114.488002,7.064 114.096,7.064 C113.703998,7.064 113.340002,7.15966571 113.004,7.351 C112.667998,7.54233429 112.399668,7.81533156 112.199,8.17 C111.998332,8.52466844 111.898,8.94466424 111.898,9.43 C111.898,9.91533576 111.998332,10.3376649 112.199,10.697 C112.399668,11.0563351 112.667998,11.3316657 113.004,11.523 C113.340002,11.7143343 113.703998,11.81 114.096,11.81 Z M125.75,13.112 C125.432665,13.112 125.134001,13.0606672 124.854,12.958 C124.573999,12.8553328 124.345334,12.7200008 124.168,12.552 C123.766665,12.1506647 123.566,11.6046701 123.566,10.914 L123.566,7.218 L122.32,7.218 L122.32,5.86 L123.566,5.86 L123.566,3.844 L125.106,3.844 L125.106,5.86 L126.842,5.86 L126.842,7.218 L125.106,7.218 L125.106,10.578 C125.106,10.9606686 125.180666,11.2313325 125.33,11.39 C125.470001,11.5766676 125.712665,11.67 126.058,11.67 C126.216668,11.67 126.356666,11.6490002 126.478,11.607 C126.599334,11.5649998 126.729999,11.4973338 126.87,11.404 L126.87,12.902 C126.561999,13.0420007 126.188669,13.112 125.75,13.112 Z M131.444,13.224 C130.743997,13.224 130.116336,13.0606683 129.561,12.734 C129.005664,12.4073317 128.571668,11.9570029 128.259,11.383 C127.946332,10.8089971 127.79,10.1626703 127.79,9.444 C127.79,8.76266326 127.941665,8.13033625 128.245,7.547 C128.548335,6.96366375 128.970664,6.49933506 129.512,6.154 C130.053336,5.80866494 130.66933,5.636 131.36,5.636 C132.07867,5.636 132.701664,5.79466508 133.229,6.112 C133.756336,6.42933492 134.157665,6.86333058 134.433,7.414 C134.708335,7.96466942 134.846,8.58532988 134.846,9.276 C134.846,9.40666732 134.832,9.56999902 134.804,9.766 L129.33,9.766 C129.386,10.42867 129.621665,10.9396649 130.037,11.299 C130.452335,11.6583351 130.935331,11.838 131.486,11.838 C131.924669,11.838 132.304998,11.7376677 132.627,11.537 C132.949002,11.3363323 133.207999,11.0633351 133.404,10.718 L134.706,11.334 C134.369998,11.9220029 133.931336,12.3839983 133.39,12.72 C132.848664,13.0560017 132.200004,13.224 131.444,13.224 Z M133.278,8.59 C133.259333,8.33799874 133.180001,8.08833457 133.04,7.841 C132.9,7.59366543 132.687668,7.38600084 132.403,7.218 C132.118332,7.04999916 131.770669,6.966 131.36,6.966 C130.865331,6.966 130.447668,7.11299853 130.107,7.407 C129.766332,7.70100147 129.530667,8.09533086 129.4,8.59 L133.278,8.59 Z M136.396,2.976 L137.936,2.976 L137.936,13 L136.396,13 L136.396,2.976 Z M143.084,13.224 C142.383997,13.224 141.756336,13.0606683 141.201,12.734 C140.645664,12.4073317 140.211668,11.9570029 139.899,11.383 C139.586332,10.8089971 139.43,10.1626703 139.43,9.444 C139.43,8.76266326 139.581665,8.13033625 139.885,7.547 C140.188335,6.96366375 140.610664,6.49933506 141.152,6.154 C141.693336,5.80866494 142.30933,5.636 143,5.636 C143.71867,5.636 144.341664,5.79466508 144.869,6.112 C145.396336,6.42933492 145.797665,6.86333058 146.073,7.414 C146.348335,7.96466942 146.486,8.58532988 146.486,9.276 C146.486,9.40666732 146.472,9.56999902 146.444,9.766 L140.97,9.766 C141.026,10.42867 141.261665,10.9396649 141.677,11.299 C142.092335,11.6583351 142.575331,11.838 143.126,11.838 C143.564669,11.838 143.944998,11.7376677 144.267,11.537 C144.589002,11.3363323 144.847999,11.0633351 145.044,10.718 L146.346,11.334 C146.009998,11.9220029 145.571336,12.3839983 145.03,12.72 C144.488664,13.0560017 143.840004,13.224 143.084,13.224 Z M144.918,8.59 C144.899333,8.33799874 144.820001,8.08833457 144.68,7.841 C144.54,7.59366543 144.327668,7.38600084 144.043,7.218 C143.758332,7.04999916 143.410669,6.966 143,6.966 C142.505331,6.966 142.087668,7.11299853 141.747,7.407 C141.406332,7.70100147 141.170667,8.09533086 141.04,8.59 L144.918,8.59 Z M148.694,7.218 L147.392,7.218 L147.392,5.86 L148.694,5.86 L148.694,5.3 C148.694,4.5533296 148.927331,3.96066886 149.394,3.522 C149.860669,3.08333114 150.457996,2.864 151.186,2.864 C151.606002,2.864 151.969999,2.91533282 152.278,3.018 L152.278,4.53 C152.109999,4.46466634 151.953667,4.41100021 151.809,4.369 C151.664333,4.32699979 151.498668,4.306 151.312,4.306 C151.003999,4.306 150.747334,4.40399902 150.542,4.6 C150.336666,4.79600098 150.234,5.06666494 150.234,5.412 L150.234,5.86 L152.026,5.86 L152.026,7.218 L150.234,7.218 L150.234,13 L148.694,13 L148.694,7.218 Z M156.544,13.224 C155.82533,13.224 155.181336,13.058335 154.612,12.727 C154.042664,12.395665 153.599335,11.9406696 153.282,11.362 C152.964665,10.7833304 152.806,10.1393369 152.806,9.43 C152.806,8.72066312 152.964665,8.07666956 153.282,7.498 C153.599335,6.91933044 154.042664,6.46433499 154.612,6.133 C155.181336,5.80166501 155.82533,5.636 156.544,5.636 C157.26267,5.636 157.906664,5.80399832 158.476,6.14 C159.045336,6.47600168 159.488665,6.93333044 159.806,7.512 C160.123335,8.09066956 160.282,8.7299965 160.282,9.43 C160.282,10.1393369 160.123335,10.7833304 159.806,11.362 C159.488665,11.9406696 159.045336,12.395665 158.476,12.727 C157.906664,13.058335 157.26267,13.224 156.544,13.224 Z M156.544,11.81 C156.936002,11.81 157.299998,11.7143343 157.636,11.523 C157.972002,11.3316657 158.240332,11.0563351 158.441,10.697 C158.641668,10.3376649 158.742,9.91533576 158.742,9.43 C158.742,8.94466424 158.641668,8.52466844 158.441,8.17 C158.240332,7.81533156 157.972002,7.54233429 157.636,7.351 C157.299998,7.15966571 156.936002,7.064 156.544,7.064 C156.151998,7.064 155.788002,7.15966571 155.452,7.351 C155.115998,7.54233429 154.847668,7.81533156 154.647,8.17 C154.446332,8.52466844 154.346,8.94466424 154.346,9.43 C154.346,9.91533576 154.446332,10.3376649 154.647,10.697 C154.847668,11.0563351 155.115998,11.3316657 155.452,11.523 C155.788002,11.7143343 156.151998,11.81 156.544,11.81 Z M161.706,5.86 L163.176,5.86 L163.176,6.798 L163.246,6.798 C163.451334,6.46199832 163.756998,6.18433443 164.163,5.965 C164.569002,5.74566557 165.000664,5.636 165.458,5.636 C166.326004,5.636 166.986331,5.89033079 167.439,6.399 C167.891669,6.90766921 168.118,7.60066228 168.118,8.478 L168.118,13 L166.578,13 L166.578,8.688 C166.578,8.1279972 166.440335,7.71733464 166.165,7.456 C165.889665,7.19466536 165.509336,7.064 165.024,7.064 C164.678665,7.064 164.370668,7.15966571 164.1,7.351 C163.829332,7.54233429 163.619334,7.79666508 163.47,8.114 C163.320666,8.43133492 163.246,8.77199818 163.246,9.136 L163.246,13 L161.706,13 L161.706,5.86 Z M172.608,13.224 C171.739996,13.224 171.079669,12.9650026 170.627,12.447 C170.174331,11.9289974 169.948,11.2080046 169.948,10.284 L169.948,5.86 L171.488,5.86 L171.488,10.074 C171.488,10.6526696 171.625665,11.0866652 171.901,11.376 C172.176335,11.6653348 172.537998,11.81 172.986,11.81 C173.350002,11.81 173.671999,11.7143343 173.952,11.523 C174.232002,11.3316657 174.446666,11.0773349 174.596,10.76 C174.745334,10.4426651 174.82,10.1020018 174.82,9.738 L174.82,5.86 L176.36,5.86 L176.36,13 L174.904,13 L174.904,12.076 L174.82,12.076 C174.623999,12.4120017 174.320669,12.6873323 173.91,12.902 C173.499331,13.1166677 173.065336,13.224 172.608,13.224 Z" id="Uložitdotelefonu" fill="#3C4043" fill-rule="nonzero"></path>
                    <rect id="Rectangle-Copy" fill="#202124" opacity="0.100000001" x="50" y="0" width="1" height="16"></rect>
                    <g id="Gpay-logo-18px-h-Copy">
                        <g id="GPay" transform="translate(0.000000, 0.261474)">
                            <g id="Pay" transform="translate(17.615069, 0.825706)" fill="#5F6368">
                                <path d="M1.64941186,1.54761702 L1.64941186,5.63067176 L4.1674047,5.63067176 C4.76721599,5.63067176 5.26322816,5.42908551 5.65562807,5.02591302 C6.05830511,4.6236738 6.26011078,4.1439732 6.26011078,3.58867775 C6.26011078,3.04458155 6.05830511,2.57048056 5.65562807,2.16730807 C5.26322816,1.75386962 4.76721599,1.54668375 4.1674047,1.54668375 L1.64941186,1.54668375 L1.64941186,1.54761702 Z M1.64941186,7.06790702 L1.64941186,11.8042505 L0.145212207,11.8042505 L0.145212207,0.110381756 L4.13461128,0.110381756 C5.14840447,0.110381756 6.00888141,0.448225371 6.71791067,1.12297933 C7.43740394,1.79773329 7.79701042,2.61994385 7.79701042,3.58867775 C7.79701042,4.57981013 7.43731051,5.40762031 6.71791067,6.07117503 C6.01999941,6.73566302 5.15858818,7.06697375 4.13461128,7.06697375 L1.64941186,7.06697375 L1.64941186,7.06790702 Z" id="Fill-1"></path>
                                <path d="M9.31707424,9.35440834 C9.31707424,9.74638159 9.48337706,10.073026 9.81607612,10.3343415 C10.1485883,10.595657 10.5381854,10.7263147 10.9848673,10.7263147 C11.6172851,10.7263147 12.1806593,10.4919707 12.6767649,10.024496 C13.1729639,9.55599458 13.4204561,9.00629876 13.4204561,8.37540847 C12.9514448,8.00490042 12.297445,7.82011303 11.4584566,7.82011303 C10.8475273,7.82011303 10.3383417,7.96756963 9.93005895,8.26154958 C9.52168276,8.55543619 9.31707424,8.91857141 9.31707424,9.35440834 M11.2631909,3.5401384 C12.3749907,3.5401384 13.2522848,3.83691815 13.8961009,4.43047765 C14.5388893,5.02403715 14.8601901,5.83784829 14.8601901,6.87191106 L14.8601901,11.8042412 L13.4214839,11.8042412 L13.4214839,10.6936503 L13.3559904,10.6936503 C12.7346906,11.6081612 11.9059794,12.0655567 10.8708844,12.0655567 C9.98798466,12.0655567 9.24896483,11.8042412 8.65560011,11.2816102 C8.06148796,10.7589792 7.76438517,10.1056904 7.76438517,9.3217439 C7.76438517,8.49393372 8.07727739,7.83588529 8.70418295,7.34601205 C9.33108852,6.85604548 10.1673675,6.61059556 11.2137672,6.61059556 C12.1068507,6.61059556 12.8430677,6.77391775 13.4204561,7.10056213 L13.4204561,6.75711889 C13.4204561,6.23448789 13.2130448,5.7911848 12.7992497,5.42627637 C12.3843335,5.06136793 11.9003736,4.87938035 11.3444738,4.87938035 C10.5045511,4.87938035 9.84036755,5.23308955 9.34986766,5.94144122 L8.0249574,5.10803142 C8.75556866,4.06276941 9.83466841,3.5401384 11.2631909,3.5401384" id="Fill-3"></path>
                                <polygon id="Fill-5" points="23.1164897 3.8014539 18.0966672 15.3320005 16.5437912 15.3320005 18.4077842 11.2974758 15.1049916 3.8014539 16.7399912 3.8014539 19.1270906 9.55039497 19.1597906 9.55039497 21.4814901 3.8014539"></polygon>
                            </g>
                            <g id="G">
                                <path d="M13.1865148,6.87260706 C13.1865148,6.39943935 13.1463406,5.94307048 13.0706634,5.50630029 L6.72686492,5.50630029 L6.72686492,8.09425704 L10.3603012,8.09425704 C10.2042755,8.93783948 9.73246136,9.65561717 9.01679867,10.136251 L9.01679867,11.8170697 L11.1852753,11.8170697 C12.4549693,10.6467495 13.1865148,8.91740087 13.1865148,6.87260706" id="Fill-8" fill="#4285F4"></path>
                                <path d="M6.72685557,13.439083 C8.54217229,13.439083 10.0706634,12.843657 11.185266,11.8170603 L9.01678933,10.1362417 C8.4132409,10.542214 7.63591536,10.7792645 6.72685557,10.7792645 C4.97226741,10.7792645 3.48301633,9.59774511 2.9504736,8.00558709 L0.716596976,8.00558709 L0.716596976,9.73680229 C1.82372529,11.9318525 4.09871047,13.439083 6.72685557,13.439083" id="Fill-10" fill="#34A853"></path>
                                <path d="M2.95048294,8.00556842 C2.81407726,7.59959612 2.73933442,7.166559 2.73933442,6.71952284 C2.73933442,6.27248667 2.81407726,5.83944956 2.95048294,5.43347726 L2.95048294,3.70226205 L0.716606319,3.70226205 C0.258806425,4.60940015 9.34285496e-06,5.63413023 9.34285496e-06,6.71952284 C9.34285496e-06,7.80491544 0.258806425,8.82973885 0.716606319,9.73678363 L2.95048294,8.00556842 Z" id="Fill-12" fill="#FABB05"></path>
                                <path d="M6.72685557,2.65981851 C7.71813249,2.65981851 8.60663799,3.00046194 9.30735212,3.66774974 L9.30735212,3.66868301 L11.2273088,1.75081387 C10.0613205,0.666354532 8.54123801,0 6.72685557,0 C4.09871047,0 1.82372529,1.50723049 0.716596976,3.70228071 L2.9504736,5.43349592 C3.48301633,3.84133789 4.97226741,2.65981851 6.72685557,2.65981851" id="Fill-14" fill="#E94235"></path>
                            </g>
                        </g>
                    </g>
                </g>
            </g>
        </g>
    </g>
</svg>