<?xml version="1.0" encoding="UTF-8"?>
<svg width="280px" height="36px" viewBox="0 0 280 36" version="1.1" xmlns="http://www.w3.org/2000/svg" xmlns:xlink="http://www.w3.org/1999/xlink">
    <!-- Generator: Sketch 58 (84663) - https://sketch.com -->
    <title>Save to Google Pay - English (Light with Stroke)</title>
    <desc>Created with Sketch.</desc>
    <g id="Buttons-(Save-to-phone)" stroke="none" stroke-width="1" fill="none" fill-rule="evenodd">
        <g id="Language-Variations-Copy" transform="translate(-196.000000, -163.000000)">
            <g id="Save-to-Google-Pay---English-(Light-with-Stroke)" transform="translate(196.000000, 163.000000)">
                <path d="M4,0.5 C2.06700338,0.5 0.5,2.06700338 0.5,4 L0.5,32 C0.5,33.9329966 2.06700338,35.5 4,35.5 L276,35.5 C277.932997,35.5 279.5,33.9329966 279.5,32 L279.5,4 C279.5,2.06700338 277.932997,0.5 276,0.5 L4,0.5 Z" id="bg" stroke="#BDC1C6" fill="#FFFFFF"></path>
                <g id="buttonContent" transform="translate(62.500000, 10.000000)">
                    <path d="M63.612,12.472 C62.7813292,12.472 62.03467,12.2293358 61.372,11.744 C60.70933,11.2586642 60.2520013,10.5773377 60,9.7 L61.484,9.098 C61.6333341,9.64866942 61.8969981,10.0989982 62.275,10.449 C62.6530019,10.7990018 63.1079973,10.974 63.64,10.974 C64.1346691,10.974 64.5546649,10.8456679 64.9,10.589 C65.2453351,10.332332 65.418,9.98000224 65.418,9.532 C65.418,9.12133128 65.2663349,8.78300133 64.963,8.517 C64.6596652,8.25099867 64.1300038,7.98266802 63.374,7.712 L62.744,7.488 C62.0719966,7.2546655 61.5073356,6.91866886 61.05,6.48 C60.5926644,6.04133114 60.364,5.46267026 60.364,4.744 C60.364,4.24933086 60.499332,3.7920021 60.77,3.372 C61.040668,2.9519979 61.4163309,2.61833457 61.897,2.371 C62.3776691,2.12366543 62.9213303,2 63.528,2 C64.4053377,2 65.1053307,2.21233121 65.628,2.637 C66.1506693,3.06166879 66.5006658,3.53999734 66.678,4.072 L65.264,4.674 C65.1613328,4.35666508 64.9653348,4.07666788 64.676,3.834 C64.3866652,3.59133212 64.0133356,3.47 63.556,3.47 C63.0986644,3.47 62.7136682,3.5866655 62.401,3.82 C62.0883318,4.0533345 61.932,4.35199818 61.932,4.716 C61.932,5.06133506 62.0719986,5.34599888 62.352,5.57 C62.6320014,5.79400112 63.0706637,6.00866564 63.668,6.214 L64.298,6.424 C65.156671,6.72266816 65.8216643,7.11233093 66.293,7.593 C66.7643357,8.07366907 67,8.71532932 67,9.518 C67,10.1713366 66.8320017,10.7196644 66.496,11.163 C66.1599983,11.6063355 65.7330026,11.9353323 65.215,12.15 C64.6969974,12.3646677 64.1626694,12.472 63.612,12.472 Z M70.93,12.472 C70.4166641,12.472 69.9593353,12.3716677 69.558,12.171 C69.1566647,11.9703323 68.8440011,11.6856685 68.62,11.317 C68.3959989,10.9483315 68.284,10.530669 68.284,10.064 C68.284,9.32666298 68.5616639,8.74333548 69.117,8.314 C69.6723361,7.88466452 70.3746624,7.67 71.224,7.67 C71.6440021,7.67 72.0219983,7.70966627 72.358,7.789 C72.6940017,7.86833373 72.959999,7.9546662 73.156,8.048 L73.156,7.684 C73.156,7.24533114 72.9926683,6.88833471 72.666,6.613 C72.3393317,6.33766529 71.9193359,6.2 71.406,6.2 C71.0419982,6.2 70.6990016,6.27933254 70.377,6.438 C70.0549984,6.59666746 69.796001,6.8159986 69.6,7.096 L68.522,6.27 C68.8393349,5.83133114 69.2499975,5.49066788 69.754,5.248 C70.2580025,5.00533212 70.8179969,4.884 71.434,4.884 C72.4700052,4.884 73.2679972,5.13833079 73.828,5.647 C74.3880028,6.15566921 74.668,6.87199538 74.668,7.796 L74.668,12.248 L73.156,12.248 L73.156,11.394 L73.086,11.394 C72.8806656,11.7020015 72.5913352,11.9586656 72.218,12.164 C71.8446648,12.3693344 71.4153358,12.472 70.93,12.472 Z M71.196,11.198 C71.5693352,11.198 71.9053318,11.1093342 72.204,10.932 C72.5026682,10.7546658 72.7359992,10.5166682 72.904,10.218 C73.0720008,9.91933184 73.156,9.59733506 73.156,9.252 C72.9413323,9.13066606 72.6916681,9.03266704 72.407,8.958 C72.1223319,8.88333296 71.8260015,8.846 71.518,8.846 C70.9393304,8.846 70.514668,8.96033219 70.244,9.189 C69.973332,9.41766781 69.838,9.71399818 69.838,10.078 C69.838,10.4046683 69.9639987,10.6729989 70.216,10.883 C70.4680013,11.093001 70.7946647,11.198 71.196,11.198 Z M75.56,5.108 L77.282,5.108 L79.256,10.26 L79.312,10.26 L81.328,5.108 L83.008,5.108 L80.04,12.248 L78.5,12.248 L75.56,5.108 Z M87.204,12.472 C86.5039965,12.472 85.8763361,12.3086683 85.321,11.982 C84.7656639,11.6553317 84.3316682,11.2050029 84.019,10.631 C83.7063318,10.0569971 83.55,9.41067026 83.55,8.692 C83.55,8.01066326 83.7016652,7.37833625 84.005,6.795 C84.3083349,6.21166375 84.730664,5.74733506 85.272,5.402 C85.8133361,5.05666494 86.4293299,4.884 87.12,4.884 C87.8386703,4.884 88.461664,5.04266508 88.989,5.36 C89.516336,5.67733492 89.9176653,6.11133058 90.193,6.662 C90.4683347,7.21266942 90.606,7.83332988 90.606,8.524 C90.606,8.65466732 90.5920002,8.81799902 90.564,9.014 L85.09,9.014 C85.1460003,9.67666998 85.3816646,10.1876649 85.797,10.547 C86.2123354,10.9063351 86.6953306,11.086 87.246,11.086 C87.6846689,11.086 88.0649984,10.9856677 88.387,10.785 C88.7090016,10.5843323 88.967999,10.3113351 89.164,9.966 L90.466,10.582 C90.1299983,11.1700029 89.6913361,11.6319983 89.15,11.968 C88.608664,12.3040017 87.9600038,12.472 87.204,12.472 Z M89.038,7.838 C89.0193333,7.58599874 88.9400007,7.33633457 88.8,7.089 C88.66,6.84166543 88.4476681,6.63400084 88.163,6.466 C87.8783319,6.29799916 87.5306687,6.214 87.12,6.214 C86.6253309,6.214 86.2076684,6.36099853 85.867,6.655 C85.5263316,6.94900147 85.2906673,7.34333086 85.16,7.838 L89.038,7.838 Z M98.508,12.36 C98.1906651,12.36 97.8920014,12.3086672 97.612,12.206 C97.3319986,12.1033328 97.1033342,11.9680008 96.926,11.8 C96.5246647,11.3986647 96.324,10.8526701 96.324,10.162 L96.324,6.466 L95.078,6.466 L95.078,5.108 L96.324,5.108 L96.324,3.092 L97.864,3.092 L97.864,5.108 L99.6,5.108 L99.6,6.466 L97.864,6.466 L97.864,9.826 C97.864,10.2086686 97.9386659,10.4793325 98.088,10.638 C98.2280007,10.8246676 98.470665,10.918 98.816,10.918 C98.9746675,10.918 99.1146661,10.8970002 99.236,10.855 C99.357334,10.8129998 99.4879993,10.7453338 99.628,10.652 L99.628,12.15 C99.3199985,12.2900007 98.9466689,12.36 98.508,12.36 Z M104.286,12.472 C103.56733,12.472 102.923336,12.306335 102.354,11.975 C101.784664,11.643665 101.341335,11.1886696 101.024,10.61 C100.706665,10.0313304 100.548,9.38733688 100.548,8.678 C100.548,7.96866312 100.706665,7.32466956 101.024,6.746 C101.341335,6.16733044 101.784664,5.71233499 102.354,5.381 C102.923336,5.04966501 103.56733,4.884 104.286,4.884 C105.00467,4.884 105.648664,5.05199832 106.218,5.388 C106.787336,5.72400168 107.230665,6.18133044 107.548,6.76 C107.865335,7.33866956 108.024,7.9779965 108.024,8.678 C108.024,9.38733688 107.865335,10.0313304 107.548,10.61 C107.230665,11.1886696 106.787336,11.643665 106.218,11.975 C105.648664,12.306335 105.00467,12.472 104.286,12.472 Z M104.286,11.058 C104.678002,11.058 105.041998,10.9623343 105.378,10.771 C105.714002,10.5796657 105.982332,10.3043351 106.183,9.945 C106.383668,9.58566487 106.484,9.16333576 106.484,8.678 C106.484,8.19266424 106.383668,7.77266844 106.183,7.418 C105.982332,7.06333156 105.714002,6.79033429 105.378,6.599 C105.041998,6.40766571 104.678002,6.312 104.286,6.312 C103.893998,6.312 103.530002,6.40766571 103.194,6.599 C102.857998,6.79033429 102.589668,7.06333156 102.389,7.418 C102.188332,7.77266844 102.088,8.19266424 102.088,8.678 C102.088,9.16333576 102.188332,9.58566487 102.389,9.945 C102.589668,10.3043351 102.857998,10.5796657 103.194,10.771 C103.530002,10.9623343 103.893998,11.058 104.286,11.058 Z M112.958,5.108 L114.428,5.108 L114.428,6.046 L114.498,6.046 C114.703334,5.7193317 115.006665,5.44400112 115.408,5.22 C115.809335,4.99599888 116.261998,4.884 116.766,4.884 C117.410003,4.884 117.993331,5.0473317 118.516,5.374 C119.038669,5.7006683 119.451665,6.15099713 119.755,6.725 C120.058335,7.29900287 120.21,7.94999636 120.21,8.678 C120.21,9.40600364 120.058335,10.0569971 119.755,10.631 C119.451665,11.2050029 119.038669,11.6553317 118.516,11.982 C117.993331,12.3086683 117.410003,12.472 116.766,12.472 C116.261998,12.472 115.809335,12.3600011 115.408,12.136 C115.006665,11.9119989 114.703334,11.6413349 114.498,11.324 L114.428,11.324 L114.498,12.318 L114.498,15.272 L112.958,15.272 L112.958,5.108 Z M116.542,11.058 C116.915335,11.058 117.265332,10.960001 117.592,10.764 C117.918668,10.567999 118.179999,10.2880018 118.376,9.924 C118.572001,9.55999818 118.67,9.144669 118.67,8.678 C118.67,8.211331 118.572001,7.79833513 118.376,7.439 C118.179999,7.07966487 117.918668,6.80200098 117.592,6.606 C117.265332,6.40999902 116.915335,6.312 116.542,6.312 C116.168665,6.312 115.821002,6.40999902 115.499,6.606 C115.176998,6.80200098 114.918001,7.07966487 114.722,7.439 C114.525999,7.79833513 114.428,8.211331 114.428,8.678 C114.428,9.144669 114.525999,9.55999818 114.722,9.924 C114.918001,10.2880018 115.176998,10.567999 115.499,10.764 C115.821002,10.960001 116.168665,11.058 116.542,11.058 Z M121.62,2.224 L123.16,2.224 L123.16,4.954 L123.09,6.046 L123.16,6.046 C123.365334,5.70999832 123.670998,5.43233443 124.077,5.213 C124.483002,4.99366557 124.919331,4.884 125.386,4.884 C126.254004,4.884 126.916664,5.13833079 127.374,5.647 C127.831336,6.15566921 128.06,6.84866228 128.06,7.726 L128.06,12.248 L126.52,12.248 L126.52,7.936 C126.52,7.39466396 126.377668,6.98866802 126.093,6.718 C125.808332,6.44733198 125.437336,6.312 124.98,6.312 C124.634665,6.312 124.324335,6.40999902 124.049,6.606 C123.773665,6.80200098 123.556668,7.06099839 123.398,7.383 C123.239333,7.70500161 123.16,8.04799818 123.16,8.412 L123.16,12.248 L121.62,12.248 L121.62,2.224 Z M133.306,12.472 C132.58733,12.472 131.943336,12.306335 131.374,11.975 C130.804664,11.643665 130.361335,11.1886696 130.044,10.61 C129.726665,10.0313304 129.568,9.38733688 129.568,8.678 C129.568,7.96866312 129.726665,7.32466956 130.044,6.746 C130.361335,6.16733044 130.804664,5.71233499 131.374,5.381 C131.943336,5.04966501 132.58733,4.884 133.306,4.884 C134.02467,4.884 134.668664,5.05199832 135.238,5.388 C135.807336,5.72400168 136.250665,6.18133044 136.568,6.76 C136.885335,7.33866956 137.044,7.9779965 137.044,8.678 C137.044,9.38733688 136.885335,10.0313304 136.568,10.61 C136.250665,11.1886696 135.807336,11.643665 135.238,11.975 C134.668664,12.306335 134.02467,12.472 133.306,12.472 Z M133.306,11.058 C133.698002,11.058 134.061998,10.9623343 134.398,10.771 C134.734002,10.5796657 135.002332,10.3043351 135.203,9.945 C135.403668,9.58566487 135.504,9.16333576 135.504,8.678 C135.504,8.19266424 135.403668,7.77266844 135.203,7.418 C135.002332,7.06333156 134.734002,6.79033429 134.398,6.599 C134.061998,6.40766571 133.698002,6.312 133.306,6.312 C132.913998,6.312 132.550002,6.40766571 132.214,6.599 C131.877998,6.79033429 131.609668,7.06333156 131.409,7.418 C131.208332,7.77266844 131.108,8.19266424 131.108,8.678 C131.108,9.16333576 131.208332,9.58566487 131.409,9.945 C131.609668,10.3043351 131.877998,10.5796657 132.214,10.771 C132.550002,10.9623343 132.913998,11.058 133.306,11.058 Z M138.468,5.108 L139.938,5.108 L139.938,6.046 L140.008,6.046 C140.213334,5.70999832 140.518998,5.43233443 140.925,5.213 C141.331002,4.99366557 141.762664,4.884 142.22,4.884 C143.088004,4.884 143.748331,5.13833079 144.201,5.647 C144.653669,6.15566921 144.88,6.84866228 144.88,7.726 L144.88,12.248 L143.34,12.248 L143.34,7.936 C143.34,7.3759972 143.202335,6.96533464 142.927,6.704 C142.651665,6.44266536 142.271336,6.312 141.786,6.312 C141.440665,6.312 141.132668,6.40766571 140.862,6.599 C140.591332,6.79033429 140.381334,7.04466508 140.232,7.362 C140.082666,7.67933492 140.008,8.01999818 140.008,8.384 L140.008,12.248 L138.468,12.248 L138.468,5.108 Z M150.028,12.472 C149.327997,12.472 148.700336,12.3086683 148.145,11.982 C147.589664,11.6553317 147.155668,11.2050029 146.843,10.631 C146.530332,10.0569971 146.374,9.41067026 146.374,8.692 C146.374,8.01066326 146.525665,7.37833625 146.829,6.795 C147.132335,6.21166375 147.554664,5.74733506 148.096,5.402 C148.637336,5.05666494 149.25333,4.884 149.944,4.884 C150.66267,4.884 151.285664,5.04266508 151.813,5.36 C152.340336,5.67733492 152.741665,6.11133058 153.017,6.662 C153.292335,7.21266942 153.43,7.83332988 153.43,8.524 C153.43,8.65466732 153.416,8.81799902 153.388,9.014 L147.914,9.014 C147.97,9.67666998 148.205665,10.1876649 148.621,10.547 C149.036335,10.9063351 149.519331,11.086 150.07,11.086 C150.508669,11.086 150.888998,10.9856677 151.211,10.785 C151.533002,10.5843323 151.791999,10.3113351 151.988,9.966 L153.29,10.582 C152.953998,11.1700029 152.515336,11.6319983 151.974,11.968 C151.432664,12.3040017 150.784004,12.472 150.028,12.472 Z M151.862,7.838 C151.843333,7.58599874 151.764001,7.33633457 151.624,7.089 C151.484,6.84166543 151.271668,6.63400084 150.987,6.466 C150.702332,6.29799916 150.354669,6.214 149.944,6.214 C149.449331,6.214 149.031668,6.36099853 148.691,6.655 C148.350332,6.94900147 148.114667,7.34333086 147.984,7.838 L151.862,7.838 Z" id="Savetophonee" fill="#3C4043" fill-rule="nonzero"></path>
                    <rect id="Rectangle-Copy" fill="#202124" opacity="0.100000001" x="50" y="0" width="1" height="16"></rect>
                    <g id="Gpay-logo-18px-h">
                        <g id="GPay" transform="translate(0.000000, 0.261474)">
                            <g id="Pay" transform="translate(17.615069, 0.825706)" fill="#5F6368">
                                <path d="M1.64941186,1.54761702 L1.64941186,5.63067176 L4.1674047,5.63067176 C4.76721599,5.63067176 5.26322816,5.42908551 5.65562807,5.02591302 C6.05830511,4.6236738 6.26011078,4.1439732 6.26011078,3.58867775 C6.26011078,3.04458155 6.05830511,2.57048056 5.65562807,2.16730807 C5.26322816,1.75386962 4.76721599,1.54668375 4.1674047,1.54668375 L1.64941186,1.54668375 L1.64941186,1.54761702 Z M1.64941186,7.06790702 L1.64941186,11.8042505 L0.145212207,11.8042505 L0.145212207,0.110381756 L4.13461128,0.110381756 C5.14840447,0.110381756 6.00888141,0.448225371 6.71791067,1.12297933 C7.43740394,1.79773329 7.79701042,2.61994385 7.79701042,3.58867775 C7.79701042,4.57981013 7.43731051,5.40762031 6.71791067,6.07117503 C6.01999941,6.73566302 5.15858818,7.06697375 4.13461128,7.06697375 L1.64941186,7.06697375 L1.64941186,7.06790702 Z" id="Fill-1"></path>
                                <path d="M9.31707424,9.35440834 C9.31707424,9.74638159 9.48337706,10.073026 9.81607612,10.3343415 C10.1485883,10.595657 10.5381854,10.7263147 10.9848673,10.7263147 C11.6172851,10.7263147 12.1806593,10.4919707 12.6767649,10.024496 C13.1729639,9.55599458 13.4204561,9.00629876 13.4204561,8.37540847 C12.9514448,8.00490042 12.297445,7.82011303 11.4584566,7.82011303 C10.8475273,7.82011303 10.3383417,7.96756963 9.93005895,8.26154958 C9.52168276,8.55543619 9.31707424,8.91857141 9.31707424,9.35440834 M11.2631909,3.5401384 C12.3749907,3.5401384 13.2522848,3.83691815 13.8961009,4.43047765 C14.5388893,5.02403715 14.8601901,5.83784829 14.8601901,6.87191106 L14.8601901,11.8042412 L13.4214839,11.8042412 L13.4214839,10.6936503 L13.3559904,10.6936503 C12.7346906,11.6081612 11.9059794,12.0655567 10.8708844,12.0655567 C9.98798466,12.0655567 9.24896483,11.8042412 8.65560011,11.2816102 C8.06148796,10.7589792 7.76438517,10.1056904 7.76438517,9.3217439 C7.76438517,8.49393372 8.07727739,7.83588529 8.70418295,7.34601205 C9.33108852,6.85604548 10.1673675,6.61059556 11.2137672,6.61059556 C12.1068507,6.61059556 12.8430677,6.77391775 13.4204561,7.10056213 L13.4204561,6.75711889 C13.4204561,6.23448789 13.2130448,5.7911848 12.7992497,5.42627637 C12.3843335,5.06136793 11.9003736,4.87938035 11.3444738,4.87938035 C10.5045511,4.87938035 9.84036755,5.23308955 9.34986766,5.94144122 L8.0249574,5.10803142 C8.75556866,4.06276941 9.83466841,3.5401384 11.2631909,3.5401384" id="Fill-3"></path>
                                <polygon id="Fill-5" points="23.1164897 3.8014539 18.0966672 15.3320005 16.5437912 15.3320005 18.4077842 11.2974758 15.1049916 3.8014539 16.7399912 3.8014539 19.1270906 9.55039497 19.1597906 9.55039497 21.4814901 3.8014539"></polygon>
                            </g>
                            <g id="G">
                                <path d="M13.1865148,6.87260706 C13.1865148,6.39943935 13.1463406,5.94307048 13.0706634,5.50630029 L6.72686492,5.50630029 L6.72686492,8.09425704 L10.3603012,8.09425704 C10.2042755,8.93783948 9.73246136,9.65561717 9.01679867,10.136251 L9.01679867,11.8170697 L11.1852753,11.8170697 C12.4549693,10.6467495 13.1865148,8.91740087 13.1865148,6.87260706" id="Fill-8" fill="#4285F4"></path>
                                <path d="M6.72685557,13.439083 C8.54217229,13.439083 10.0706634,12.843657 11.185266,11.8170603 L9.01678933,10.1362417 C8.4132409,10.542214 7.63591536,10.7792645 6.72685557,10.7792645 C4.97226741,10.7792645 3.48301633,9.59774511 2.9504736,8.00558709 L0.716596976,8.00558709 L0.716596976,9.73680229 C1.82372529,11.9318525 4.09871047,13.439083 6.72685557,13.439083" id="Fill-10" fill="#34A853"></path>
                                <path d="M2.95048294,8.00556842 C2.81407726,7.59959612 2.73933442,7.166559 2.73933442,6.71952284 C2.73933442,6.27248667 2.81407726,5.83944956 2.95048294,5.43347726 L2.95048294,3.70226205 L0.716606319,3.70226205 C0.258806425,4.60940015 9.34285496e-06,5.63413023 9.34285496e-06,6.71952284 C9.34285496e-06,7.80491544 0.258806425,8.82973885 0.716606319,9.73678363 L2.95048294,8.00556842 Z" id="Fill-12" fill="#FABB05"></path>
                                <path d="M6.72685557,2.65981851 C7.71813249,2.65981851 8.60663799,3.00046194 9.30735212,3.66774974 L9.30735212,3.66868301 L11.2273088,1.75081387 C10.0613205,0.666354532 8.54123801,0 6.72685557,0 C4.09871047,0 1.82372529,1.50723049 0.716596976,3.70228071 L2.9504736,5.43349592 C3.48301633,3.84133789 4.97226741,2.65981851 6.72685557,2.65981851" id="Fill-14" fill="#E94235"></path>
                            </g>
                        </g>
                    </g>
                </g>
            </g>
        </g>
    </g>
</svg>