<?xml version="1.0" encoding="UTF-8"?>
<svg width="288px" height="44px" viewBox="0 0 288 44" version="1.1" xmlns="http://www.w3.org/2000/svg" xmlns:xlink="http://www.w3.org/1999/xlink">
    <!-- Generator: Sketch 58 (84663) - https://sketch.com -->
    <title>Save to Google Pay - Traditional Chinese (Dark)</title>
    <desc>Created with Sketch.</desc>
    <defs>
        <path d="M4,0 L276,0 C278.209139,-4.05812251e-16 280,1.790861 280,4 L280,32 C280,34.209139 278.209139,36 276,36 L4,36 C1.790861,36 2.705415e-16,34.209139 0,32 L0,4 C-2.705415e-16,1.790861 1.790861,4.05812251e-16 4,0 Z" id="path-1"></path>
        <filter x="-2.3%" y="-15.3%" width="104.6%" height="136.1%" filterUnits="objectBoundingBox" id="filter-2">
            <feMorphology radius="0.5" operator="dilate" in="SourceAlpha" result="shadowSpreadOuter1"></feMorphology>
            <feOffset dx="0" dy="1" in="shadowSpreadOuter1" result="shadowOffsetOuter1"></feOffset>
            <feGaussianBlur stdDeviation="1.5" in="shadowOffsetOuter1" result="shadowBlurOuter1"></feGaussianBlur>
            <feColorMatrix values="0 0 0 0 0.235294118   0 0 0 0 0.250980392   0 0 0 0 0.262745098  0 0 0 0.15 0" type="matrix" in="shadowBlurOuter1" result="shadowMatrixOuter1"></feColorMatrix>
            <feOffset dx="0" dy="1" in="SourceAlpha" result="shadowOffsetOuter2"></feOffset>
            <feGaussianBlur stdDeviation="0.5" in="shadowOffsetOuter2" result="shadowBlurOuter2"></feGaussianBlur>
            <feColorMatrix values="0 0 0 0 0.235294118   0 0 0 0 0.250980392   0 0 0 0 0.262745098  0 0 0 0.3 0" type="matrix" in="shadowBlurOuter2" result="shadowMatrixOuter2"></feColorMatrix>
            <feMerge>
                <feMergeNode in="shadowMatrixOuter1"></feMergeNode>
                <feMergeNode in="shadowMatrixOuter2"></feMergeNode>
            </feMerge>
        </filter>
    </defs>
    <g id="Buttons-(Save-to-phone)" stroke="none" stroke-width="1" fill="none" fill-rule="evenodd">
        <g id="Language-Variations-Copy" transform="translate(-192.000000, -848.000000)">
            <g id="Save-to-Google-Pay---Traditional-Chinese-(Dark)" transform="translate(196.000000, 851.000000)">
                <g id="bg-copy-13">
                    <use fill="black" fill-opacity="1" filter="url(#filter-2)" xlink:href="#path-1"></use>
                    <use fill="#000000" fill-rule="evenodd" xlink:href="#path-1"></use>
                </g>
                <g id="buttonContent" transform="translate(74.500000, 8.000000)">
                    <rect id="Rectangle" fill="#3C4043" x="50" y="2" width="1" height="16"></rect>
                    <g id="Gpay-logo-18px-h-Copy-12" transform="translate(0.000000, 3.000000)">
                        <g id="GPay" transform="translate(0.000000, 0.261474)">
                            <g id="Pay" transform="translate(17.615069, 0.825706)" fill="#FFFFFF">
                                <path d="M1.64941186,1.54761702 L1.64941186,5.63067176 L4.1674047,5.63067176 C4.76721599,5.63067176 5.26322816,5.42908551 5.65562807,5.02591302 C6.05830511,4.6236738 6.26011078,4.1439732 6.26011078,3.58867775 C6.26011078,3.04458155 6.05830511,2.57048056 5.65562807,2.16730807 C5.26322816,1.75386962 4.76721599,1.54668375 4.1674047,1.54668375 L1.64941186,1.54668375 L1.64941186,1.54761702 Z M1.64941186,7.06790702 L1.64941186,11.8042505 L0.145212207,11.8042505 L0.145212207,0.110381756 L4.13461128,0.110381756 C5.14840447,0.110381756 6.00888141,0.448225371 6.71791067,1.12297933 C7.43740394,1.79773329 7.79701042,2.61994385 7.79701042,3.58867775 C7.79701042,4.57981013 7.43731051,5.40762031 6.71791067,6.07117503 C6.01999941,6.73566302 5.15858818,7.06697375 4.13461128,7.06697375 L1.64941186,7.06697375 L1.64941186,7.06790702 Z" id="Fill-1"></path>
                                <path d="M9.31707424,9.35440834 C9.31707424,9.74638159 9.48337706,10.073026 9.81607612,10.3343415 C10.1485883,10.595657 10.5381854,10.7263147 10.9848673,10.7263147 C11.6172851,10.7263147 12.1806593,10.4919707 12.6767649,10.024496 C13.1729639,9.55599458 13.4204561,9.00629876 13.4204561,8.37540847 C12.9514448,8.00490042 12.297445,7.82011303 11.4584566,7.82011303 C10.8475273,7.82011303 10.3383417,7.96756963 9.93005895,8.26154958 C9.52168276,8.55543619 9.31707424,8.91857141 9.31707424,9.35440834 M11.2631909,3.5401384 C12.3749907,3.5401384 13.2522848,3.83691815 13.8961009,4.43047765 C14.5388893,5.02403715 14.8601901,5.83784829 14.8601901,6.87191106 L14.8601901,11.8042412 L13.4214839,11.8042412 L13.4214839,10.6936503 L13.3559904,10.6936503 C12.7346906,11.6081612 11.9059794,12.0655567 10.8708844,12.0655567 C9.98798466,12.0655567 9.24896483,11.8042412 8.65560011,11.2816102 C8.06148796,10.7589792 7.76438517,10.1056904 7.76438517,9.3217439 C7.76438517,8.49393372 8.07727739,7.83588529 8.70418295,7.34601205 C9.33108852,6.85604548 10.1673675,6.61059556 11.2137672,6.61059556 C12.1068507,6.61059556 12.8430677,6.77391775 13.4204561,7.10056213 L13.4204561,6.75711889 C13.4204561,6.23448789 13.2130448,5.7911848 12.7992497,5.42627637 C12.3843335,5.06136793 11.9003736,4.87938035 11.3444738,4.87938035 C10.5045511,4.87938035 9.84036755,5.23308955 9.34986766,5.94144122 L8.0249574,5.10803142 C8.75556866,4.06276941 9.83466841,3.5401384 11.2631909,3.5401384" id="Fill-3"></path>
                                <polygon id="Fill-5" points="23.1164897 3.8014539 18.0966672 15.3320005 16.5437912 15.3320005 18.4077842 11.2974758 15.1049916 3.8014539 16.7399912 3.8014539 19.1270906 9.55039497 19.1597906 9.55039497 21.4814901 3.8014539"></polygon>
                            </g>
                            <g id="G">
                                <path d="M13.1865148,6.87260706 C13.1865148,6.39943935 13.1463406,5.94307048 13.0706634,5.50630029 L6.72686492,5.50630029 L6.72686492,8.09425704 L10.3603012,8.09425704 C10.2042755,8.93783948 9.73246136,9.65561717 9.01679867,10.136251 L9.01679867,11.8170697 L11.1852753,11.8170697 C12.4549693,10.6467495 13.1865148,8.91740087 13.1865148,6.87260706" id="Fill-8" fill="#4285F4"></path>
                                <path d="M6.72685557,13.439083 C8.54217229,13.439083 10.0706634,12.843657 11.185266,11.8170603 L9.01678933,10.1362417 C8.4132409,10.542214 7.63591536,10.7792645 6.72685557,10.7792645 C4.97226741,10.7792645 3.48301633,9.59774511 2.9504736,8.00558709 L0.716596976,8.00558709 L0.716596976,9.73680229 C1.82372529,11.9318525 4.09871047,13.439083 6.72685557,13.439083" id="Fill-10" fill="#34A853"></path>
                                <path d="M2.95048294,8.00556842 C2.81407726,7.59959612 2.73933442,7.166559 2.73933442,6.71952284 C2.73933442,6.27248667 2.81407726,5.83944956 2.95048294,5.43347726 L2.95048294,3.70226205 L0.716606319,3.70226205 C0.258806425,4.60940015 9.34285496e-06,5.63413023 9.34285496e-06,6.71952284 C9.34285496e-06,7.80491544 0.258806425,8.82973885 0.716606319,9.73678363 L2.95048294,8.00556842 Z" id="Fill-12" fill="#FABB05"></path>
                                <path d="M6.72685557,2.65981851 C7.71813249,2.65981851 8.60663799,3.00046194 9.30735212,3.66774974 L9.30735212,3.66868301 L11.2273088,1.75081387 C10.0613205,0.666354532 8.54123801,0 6.72685557,0 C4.09871047,0 1.82372529,1.50723049 0.716596976,3.70228071 L2.9504736,5.43349592 C3.48301633,3.84133789 4.97226741,2.65981851 6.72685557,2.65981851" id="Fill-14" fill="#E94235"></path>
                            </g>
                        </g>
                    </g>
                    <path d="M62.734,3.548 C62.174,5.704 61.264,7.608 60.018,9.26 L60.354,10.324 C60.816,9.75 61.25,9.148 61.642,8.518 L61.642,16.428 L62.608,16.428 L62.608,6.754 C63.014,5.886 63.364,4.948 63.644,3.968 L62.734,3.548 Z M67.76,5.2 L67.76,6.082 L69.006,6.082 L69.006,7.846 L67.396,7.846 L67.396,8.77 L69.608,8.77 C68.824,9.694 67.914,10.408 66.878,10.912 L67.368,11.668 L67.8823704,11.3797037 C67.9684444,11.3288889 68.054,11.276 68.138,11.22 L68.138,16.4 L69.048,16.4 L69.048,15.756 L71.344,15.756 L71.344,16.4 L72.24,16.4 L72.24,10.002 L69.636,10.002 C70,9.638 70.364,9.218 70.7,8.77 L72.702,8.77 L72.702,7.846 L71.33,7.846 C71.862,6.978 72.338,5.97 72.758,4.85 L71.988,4.444 C71.526,5.732 70.966,6.866 70.308,7.846 L69.902,7.846 L69.902,6.082 L71.078,6.082 L71.078,5.2 L69.902,5.2 L69.902,3.562 L69.006,3.562 L69.006,5.2 L67.76,5.2 Z M69.048,13.292 L71.344,13.292 L71.344,14.888 L69.048,14.888 L69.048,13.292 Z M71.344,12.466 L69.048,12.466 L69.048,10.856 L71.344,10.856 L71.344,12.466 Z M64.568,15.42 L66.122,15.42 L66.122,16.176 L67.004,16.176 L67.004,11.444 L63.686,11.444 L63.686,16.288 L64.568,16.288 L64.568,15.42 Z M66.122,14.58 L64.568,14.58 L64.568,12.284 L66.122,12.284 L66.122,14.58 Z M63.476,5.41 L63.476,6.334 L67.298,6.334 L67.298,5.41 L65.548,5.41 L66.08,5.214 C65.926,4.71 65.702,4.164 65.422,3.576 L64.47,3.842 C64.75,4.346 64.988,4.864 65.198,5.41 L63.476,5.41 Z M63.826,7.482 L63.826,8.364 L66.878,8.364 L66.878,7.482 L63.826,7.482 Z M63.854,9.456 L63.854,10.352 L66.892,10.352 L66.892,9.456 L63.854,9.456 Z M74.728,4.99 L74.728,5.97 L78.13,5.97 C77.22,7.944 75.918,9.68 74.21,11.178 L74.84,11.976 C75.372,11.5 75.862,11.01 76.338,10.492 L76.338,16.414 L77.318,16.414 L77.318,9.288 C78.074,8.28 78.718,7.174 79.236,5.97 L86.782,5.97 L86.782,4.99 L79.614,4.99 C79.768,4.542 79.908,4.094 80.048,3.632 L79.026,3.506 C78.886,4.01 78.718,4.5 78.536,4.99 L74.728,4.99 Z M78.41,11.5 L78.41,12.466 L82.47,12.466 L82.47,14.79 C82.47,15.21 82.246,15.434 81.826,15.434 C81.252,15.434 80.72,15.42 80.216,15.406 L80.482,16.358 L82.232,16.358 C83.058,16.358 83.478,15.938 83.478,15.112 L83.478,12.466 L86.978,12.466 L86.978,11.5 L83.478,11.5 L83.478,10.618 C84.43,9.988 85.284,9.316 86.04,8.616 L86.04,7.678 L79.488,7.678 L79.488,8.616 L84.752,8.616 C84.024,9.232 83.268,9.75 82.47,10.198 L82.47,11.5 L78.41,11.5 Z M88.962,4.248 L88.962,5.228 L92.868,5.228 C91.916,6.796 90.754,7.986 89.382,8.77 L89.648,9.652 C92.658,9.498 95.598,9.204 98.454,8.756 C98.804,9.218 99.126,9.666 99.42,10.114 L100.246,9.526 C99.56,8.504 98.566,7.3 97.264,5.928 L96.452,6.446 C96.9,6.922 97.334,7.412 97.754,7.916 C95.626,8.266 93.414,8.504 91.146,8.644 C92.224,7.776 93.19,6.642 94.03,5.228 L100.582,5.228 L100.582,4.248 L88.962,4.248 Z M89.62,11.556 L89.62,12.522 L94.282,12.522 L94.282,14.86 L88.64,14.86 L88.64,15.84 L100.96,15.84 L100.96,14.86 L95.318,14.86 L95.318,12.522 L99.91,12.522 L99.91,11.556 L95.318,11.556 L95.318,9.932 L94.282,9.932 L94.282,11.556 L89.62,11.556 Z M113.654,3.688 C110.98,4.332 107.62,4.668 103.56,4.668 L103.868,5.578 C105.604,5.578 107.214,5.508 108.698,5.396 L108.698,7.678 L103.84,7.678 L103.84,8.658 L108.698,8.658 L108.698,10.954 L102.678,10.954 L102.678,11.92 L108.698,11.92 L108.698,14.762 C108.698,15.154 108.474,15.364 108.054,15.364 C107.41,15.364 106.724,15.336 106.01,15.308 L106.234,16.288 L108.404,16.288 C109.272,16.288 109.72,15.854 109.72,15.014 L109.72,11.92 L115.236,11.92 L115.236,10.954 L109.72,10.954 L109.72,8.658 L114.186,8.658 L114.186,7.678 L109.72,7.678 L109.72,5.312 C111.4,5.144 112.87,4.878 114.144,4.542 L113.654,3.688 Z M122.848,10.002 L121.952,10.002 L121.94163,10.4168148 C121.939556,10.5091111 121.938,10.6133333 121.938,10.73 L120.384,10.73 L120.384,11.626 L121.896,11.626 C121.868,12.368 121.728,13.054 121.476,13.684 C121.224,14.314 120.706,15 119.936,15.742 L120.636,16.4 C121.28,15.784 121.798,15.112 122.162,14.384 C122.33,14.02 122.456,13.642 122.568,13.236 C123.1,13.558 123.632,13.964 124.15,14.454 L124.668,13.67 C124.066,13.166 123.408,12.746 122.708,12.382 C122.736,12.214 122.75,12.06 122.764,11.892 L122.778,11.626 L122.778,11.626 L124.892,11.626 C124.892,11.696 124.906,11.78 124.934,11.864 C125.13,12.746 125.396,13.516 125.732,14.188 C125.018,14.72 124.192,15.168 123.254,15.518 L123.646,16.372 C124.57,16.008 125.424,15.546 126.194,14.986 L126.264,15.098 C126.852,15.896 127.454,16.302 128.084,16.316 C128.756,16.316 129.246,15.56 129.582,14.076 L128.798,13.558 L128.712059,13.9818828 C128.507063,14.906375 128.27125,15.378 128.014,15.378 C127.664,15.378 127.272,15.07 126.838,14.454 C127.51,13.852 128.098,13.138 128.588,12.326 L127.874,11.794 C127.468,12.466 126.978,13.068 126.404,13.614 C126.166,13.054 125.97,12.382 125.802,11.626 L129.47,11.626 L129.47,10.73 L128.21,10.73 C128,10.282 127.776,9.904 127.524,9.568 L126.726,9.862 C126.95,10.128 127.16,10.422 127.342,10.73 L125.662,10.73 C125.508,9.61 125.424,8.336 125.41,6.922 L125.41,3.576 L124.486,3.576 L124.486,6.922 C124.486,8.322 124.57,9.582 124.738,10.73 L122.82,10.73 L122.846432,10.111312 C122.84744,10.072 122.848,10.0356 122.848,10.002 Z M119.222,16.358 L119.222,9.12 L119.501482,9.58614815 C119.696444,9.918 119.908,10.2913333 120.132,10.702 L120.65,9.946 C120.174,9.26 119.698,8.63 119.222,8.056 L119.222,7.272 L120.328,7.272 L120.328,6.334 L119.222,6.334 L119.222,3.562 L118.284,3.562 L118.284,6.334 L116.898,6.334 L116.898,7.272 L118.242,7.272 C117.906,8.826 117.36,10.212 116.604,11.444 L117.01,12.452 C117.514,11.542 117.948,10.534 118.284,9.414 L118.284,16.358 L119.222,16.358 Z M123.576,7.44 L122.974,7.65 C123.072,7.958 123.17,8.294 123.254,8.644 L121.91,8.868 L121.91,8.868 C122.498,8.266 123.31,7.034 124.374,5.158 L123.646,4.92 C123.408,5.354 123.184,5.76 122.96,6.138 C122.568,6.194 122.12,6.236 121.644,6.292 C121.98,5.816 122.428,5.018 122.988,3.884 L122.204,3.618 L121.98812,4.106488 C121.36064,5.5003 120.9146,6.25 120.65,6.376 L120.79,7.048 L122.105125,6.922 C122.243375,6.908 122.379,6.894 122.512,6.88 C121.728,8.126 121.154,8.812 120.762,8.952 L120.93,9.652 L121.821333,9.53637037 C122.393778,9.45755556 122.922667,9.37666667 123.408,9.302 L123.492,9.71266667 C123.506,9.78422222 123.52,9.85733333 123.534,9.932 L124.192,9.764 C124.01,8.896 123.8,8.112 123.576,7.44 Z M128.686,7.146 C128.966,7.832 129.232,8.63 129.456,9.54 L128.77,9.708 C128.714,9.47 128.658,9.246 128.602,9.05 L126.916815,9.28851852 C126.612444,9.33 126.296667,9.372 125.97,9.414 L125.816,8.714 C126.194,8.574 126.768,7.916 127.538,6.726 L126.68925,6.81 C126.397,6.838 126.096,6.866 125.788,6.894 L125.648,6.25 C125.942,6.124 126.46,5.242 127.202,3.618 L127.972,3.884 L127.701333,4.40206481 C127.265778,5.21905556 126.908,5.80433333 126.628,6.166 L127.35075,6.082 C127.58,6.054 127.797,6.026 128,5.998 L128.658,4.864 L128.658,4.864 L129.386,5.102 L129.012621,5.72675 C128.1645,7.12325 127.4785,8.091 126.964,8.63 L127.72175,8.511 C127.9615,8.4725 128.189,8.434 128.406,8.392 C128.294,8.028 128.168,7.678 128.042,7.342 L128.686,7.146 Z" id="儲存至手機" fill="#FFFFFF" fill-rule="nonzero"></path>
                </g>
            </g>
        </g>
    </g>
</svg>