<?xml version="1.0" encoding="UTF-8"?>
<svg width="288px" height="44px" viewBox="0 0 288 44" version="1.1" xmlns="http://www.w3.org/2000/svg" xmlns:xlink="http://www.w3.org/1999/xlink">
    <!-- Generator: Sketch 58 (84663) - https://sketch.com -->
    <title>Save to Google Pay - Dutch (Dark)</title>
    <desc>Created with Sketch.</desc>
    <defs>
        <path d="M4,0 L276,0 C278.209139,-4.05812251e-16 280,1.790861 280,4 L280,32 C280,34.209139 278.209139,36 276,36 L4,36 C1.790861,36 2.705415e-16,34.209139 0,32 L0,4 C-2.705415e-16,1.790861 1.790861,4.05812251e-16 4,0 Z" id="path-1"></path>
        <filter x="-2.3%" y="-15.3%" width="104.6%" height="136.1%" filterUnits="objectBoundingBox" id="filter-2">
            <feMorphology radius="0.5" operator="dilate" in="SourceAlpha" result="shadowSpreadOuter1"></feMorphology>
            <feOffset dx="0" dy="1" in="shadowSpreadOuter1" result="shadowOffsetOuter1"></feOffset>
            <feGaussianBlur stdDeviation="1.5" in="shadowOffsetOuter1" result="shadowBlurOuter1"></feGaussianBlur>
            <feColorMatrix values="0 0 0 0 0.235294118   0 0 0 0 0.250980392   0 0 0 0 0.262745098  0 0 0 0.15 0" type="matrix" in="shadowBlurOuter1" result="shadowMatrixOuter1"></feColorMatrix>
            <feOffset dx="0" dy="1" in="SourceAlpha" result="shadowOffsetOuter2"></feOffset>
            <feGaussianBlur stdDeviation="0.5" in="shadowOffsetOuter2" result="shadowBlurOuter2"></feGaussianBlur>
            <feColorMatrix values="0 0 0 0 0.235294118   0 0 0 0 0.250980392   0 0 0 0 0.262745098  0 0 0 0.3 0" type="matrix" in="shadowBlurOuter2" result="shadowMatrixOuter2"></feColorMatrix>
            <feMerge>
                <feMergeNode in="shadowMatrixOuter1"></feMergeNode>
                <feMergeNode in="shadowMatrixOuter2"></feMergeNode>
            </feMerge>
        </filter>
    </defs>
    <g id="Buttons-(Save-to-phone)" stroke="none" stroke-width="1" fill="none" fill-rule="evenodd">
        <g id="Language-Variations-Copy" transform="translate(-192.000000, -228.000000)">
            <g id="Save-to-Google-Pay---Dutch-(Dark)" transform="translate(196.000000, 231.000000)">
                <g id="bg-copy-3">
                    <use fill="black" fill-opacity="1" filter="url(#filter-2)" xlink:href="#path-1"></use>
                    <use fill="#000000" fill-rule="evenodd" xlink:href="#path-1"></use>
                </g>
                <g id="buttonContent" transform="translate(42.500000, 10.000000)">
                    <rect id="Rectangle" fill="#3C4043" x="50" y="0" width="1" height="16"></rect>
                    <g id="Gpay-logo-18px-h">
                        <g id="GPay" transform="translate(0.000000, 0.261474)">
                            <g id="Pay" transform="translate(17.615069, 0.825706)" fill="#FFFFFF">
                                <path d="M1.64941186,1.54761702 L1.64941186,5.63067176 L4.1674047,5.63067176 C4.76721599,5.63067176 5.26322816,5.42908551 5.65562807,5.02591302 C6.05830511,4.6236738 6.26011078,4.1439732 6.26011078,3.58867775 C6.26011078,3.04458155 6.05830511,2.57048056 5.65562807,2.16730807 C5.26322816,1.75386962 4.76721599,1.54668375 4.1674047,1.54668375 L1.64941186,1.54668375 L1.64941186,1.54761702 Z M1.64941186,7.06790702 L1.64941186,11.8042505 L0.145212207,11.8042505 L0.145212207,0.110381756 L4.13461128,0.110381756 C5.14840447,0.110381756 6.00888141,0.448225371 6.71791067,1.12297933 C7.43740394,1.79773329 7.79701042,2.61994385 7.79701042,3.58867775 C7.79701042,4.57981013 7.43731051,5.40762031 6.71791067,6.07117503 C6.01999941,6.73566302 5.15858818,7.06697375 4.13461128,7.06697375 L1.64941186,7.06697375 L1.64941186,7.06790702 Z" id="Fill-1"></path>
                                <path d="M9.31707424,9.35440834 C9.31707424,9.74638159 9.48337706,10.073026 9.81607612,10.3343415 C10.1485883,10.595657 10.5381854,10.7263147 10.9848673,10.7263147 C11.6172851,10.7263147 12.1806593,10.4919707 12.6767649,10.024496 C13.1729639,9.55599458 13.4204561,9.00629876 13.4204561,8.37540847 C12.9514448,8.00490042 12.297445,7.82011303 11.4584566,7.82011303 C10.8475273,7.82011303 10.3383417,7.96756963 9.93005895,8.26154958 C9.52168276,8.55543619 9.31707424,8.91857141 9.31707424,9.35440834 M11.2631909,3.5401384 C12.3749907,3.5401384 13.2522848,3.83691815 13.8961009,4.43047765 C14.5388893,5.02403715 14.8601901,5.83784829 14.8601901,6.87191106 L14.8601901,11.8042412 L13.4214839,11.8042412 L13.4214839,10.6936503 L13.3559904,10.6936503 C12.7346906,11.6081612 11.9059794,12.0655567 10.8708844,12.0655567 C9.98798466,12.0655567 9.24896483,11.8042412 8.65560011,11.2816102 C8.06148796,10.7589792 7.76438517,10.1056904 7.76438517,9.3217439 C7.76438517,8.49393372 8.07727739,7.83588529 8.70418295,7.34601205 C9.33108852,6.85604548 10.1673675,6.61059556 11.2137672,6.61059556 C12.1068507,6.61059556 12.8430677,6.77391775 13.4204561,7.10056213 L13.4204561,6.75711889 C13.4204561,6.23448789 13.2130448,5.7911848 12.7992497,5.42627637 C12.3843335,5.06136793 11.9003736,4.87938035 11.3444738,4.87938035 C10.5045511,4.87938035 9.84036755,5.23308955 9.34986766,5.94144122 L8.0249574,5.10803142 C8.75556866,4.06276941 9.83466841,3.5401384 11.2631909,3.5401384" id="Fill-3"></path>
                                <polygon id="Fill-5" points="23.1164897 3.8014539 18.0966672 15.3320005 16.5437912 15.3320005 18.4077842 11.2974758 15.1049916 3.8014539 16.7399912 3.8014539 19.1270906 9.55039497 19.1597906 9.55039497 21.4814901 3.8014539"></polygon>
                            </g>
                            <g id="G">
                                <path d="M13.1865148,6.87260706 C13.1865148,6.39943935 13.1463406,5.94307048 13.0706634,5.50630029 L6.72686492,5.50630029 L6.72686492,8.09425704 L10.3603012,8.09425704 C10.2042755,8.93783948 9.73246136,9.65561717 9.01679867,10.136251 L9.01679867,11.8170697 L11.1852753,11.8170697 C12.4549693,10.6467495 13.1865148,8.91740087 13.1865148,6.87260706" id="Fill-8" fill="#4285F4"></path>
                                <path d="M6.72685557,13.439083 C8.54217229,13.439083 10.0706634,12.843657 11.185266,11.8170603 L9.01678933,10.1362417 C8.4132409,10.542214 7.63591536,10.7792645 6.72685557,10.7792645 C4.97226741,10.7792645 3.48301633,9.59774511 2.9504736,8.00558709 L0.716596976,8.00558709 L0.716596976,9.73680229 C1.82372529,11.9318525 4.09871047,13.439083 6.72685557,13.439083" id="Fill-10" fill="#34A853"></path>
                                <path d="M2.95048294,8.00556842 C2.81407726,7.59959612 2.73933442,7.166559 2.73933442,6.71952284 C2.73933442,6.27248667 2.81407726,5.83944956 2.95048294,5.43347726 L2.95048294,3.70226205 L0.716606319,3.70226205 C0.258806425,4.60940015 9.34285496e-06,5.63413023 9.34285496e-06,6.71952284 C9.34285496e-06,7.80491544 0.258806425,8.82973885 0.716606319,9.73678363 L2.95048294,8.00556842 Z" id="Fill-12" fill="#FABB05"></path>
                                <path d="M6.72685557,2.65981851 C7.71813249,2.65981851 8.60663799,3.00046194 9.30735212,3.66774974 L9.30735212,3.66868301 L11.2273088,1.75081387 C10.0613205,0.666354532 8.54123801,0 6.72685557,0 C4.09871047,0 1.82372529,1.50723049 0.716596976,3.70228071 L2.9504736,5.43349592 C3.48301633,3.84133789 4.97226741,2.65981851 6.72685557,2.65981851" id="Fill-14" fill="#E94235"></path>
                            </g>
                        </g>
                    </g>
                    <path d="M65.338,13.224 C64.3673285,13.224 63.4853373,12.9930023 62.692,12.531 C61.8986627,12.0689977 61.2756689,11.4366707 60.823,10.634 C60.3703311,9.83132932 60.144,8.94933814 60.144,7.988 C60.144,7.02666186 60.3703311,6.14700399 60.823,5.349 C61.2756689,4.55099601 61.8986627,3.918669 62.692,3.452 C63.4853373,2.985331 64.3673285,2.752 65.338,2.752 C66.3086715,2.752 67.1883294,2.985331 67.977,3.452 C68.7656706,3.918669 69.3886644,4.55099601 69.846,5.349 C70.3033356,6.14700399 70.532,7.02666186 70.532,7.988 C70.532,8.94933814 70.3056689,9.83132932 69.853,10.634 C69.4003311,11.4366707 68.7773373,12.0689977 67.984,12.531 C67.1906627,12.9930023 66.3086715,13.224 65.338,13.224 Z M65.338,11.726 C66.00067,11.726 66.6073306,11.5673349 67.158,11.25 C67.7086694,10.9326651 68.1426651,10.4916695 68.46,9.927 C68.7773349,9.36233051 68.936,8.71600364 68.936,7.988 C68.936,7.25999636 68.7773349,6.61366949 68.46,6.049 C68.1426651,5.48433051 67.7086694,5.04333492 67.158,4.726 C66.6073306,4.40866508 66.00067,4.25 65.338,4.25 C64.67533,4.25 64.0686694,4.40866508 63.518,4.726 C62.9673306,5.04333492 62.5310016,5.48433051 62.209,6.049 C61.8869984,6.61366949 61.726,7.25999636 61.726,7.988 C61.726,8.71600364 61.8869984,9.36233051 62.209,9.927 C62.5310016,10.4916695 62.9673306,10.9326651 63.518,11.25 C64.0686694,11.5673349 64.67533,11.726 65.338,11.726 Z M72.166,5.86 L73.636,5.86 L73.636,6.798 L73.706,6.798 C73.9113344,6.4713317 74.2146647,6.19600112 74.616,5.972 C75.0173353,5.74799888 75.4699975,5.636 75.974,5.636 C76.6180032,5.636 77.2013307,5.7993317 77.724,6.126 C78.2466693,6.4526683 78.6596652,6.90299713 78.963,7.477 C79.2663349,8.05100287 79.418,8.70199636 79.418,9.43 C79.418,10.1580036 79.2663349,10.8089971 78.963,11.383 C78.6596652,11.9570029 78.2466693,12.4073317 77.724,12.734 C77.2013307,13.0606683 76.6180032,13.224 75.974,13.224 C75.4699975,13.224 75.0173353,13.1120011 74.616,12.888 C74.2146647,12.6639989 73.9113344,12.3933349 73.706,12.076 L73.636,12.076 L73.706,13.07 L73.706,16.024 L72.166,16.024 L72.166,5.86 Z M75.75,11.81 C76.1233352,11.81 76.4733317,11.712001 76.8,11.516 C77.1266683,11.319999 77.387999,11.0400018 77.584,10.676 C77.780001,10.3119982 77.878,9.896669 77.878,9.43 C77.878,8.963331 77.780001,8.55033513 77.584,8.191 C77.387999,7.83166487 77.1266683,7.55400098 76.8,7.358 C76.4733317,7.16199902 76.1233352,7.064 75.75,7.064 C75.3766648,7.064 75.0290016,7.16199902 74.707,7.358 C74.3849984,7.55400098 74.126001,7.83166487 73.93,8.191 C73.733999,8.55033513 73.636,8.963331 73.636,9.43 C73.636,9.896669 73.733999,10.3119982 73.93,10.676 C74.126001,11.0400018 74.3849984,11.319999 74.707,11.516 C75.0290016,11.712001 75.3766648,11.81 75.75,11.81 Z M83.502,13.224 C82.6806626,13.224 82.0086693,13.0443351 81.486,12.685 C80.9633307,12.3256649 80.5946678,11.8660028 80.38,11.306 L81.752,10.704 C81.9200009,11.0773352 82.1556652,11.361999 82.459,11.558 C82.7623349,11.754001 83.1099981,11.852 83.502,11.852 C83.8846686,11.852 84.2066654,11.784334 84.468,11.649 C84.7293347,11.513666 84.86,11.310668 84.86,11.04 C84.86,10.7786654 84.7480011,10.5733341 84.524,10.424 C84.2999989,10.2746659 83.954669,10.1440006 83.488,10.032 L82.634,9.822 C82.0646638,9.6819993 81.5933352,9.43466844 81.22,9.08 C80.8466648,8.72533156 80.66,8.27733604 80.66,7.736 C80.66,7.3159979 80.7836654,6.94733492 81.031,6.63 C81.2783346,6.31266508 81.6119979,6.06766753 82.032,5.895 C82.4520021,5.72233247 82.9093309,5.636 83.404,5.636 C84.06667,5.636 84.6499975,5.76899867 85.154,6.035 C85.6580025,6.30100133 86.0219989,6.68599748 86.246,7.19 L84.902,7.778 C84.631332,7.22733058 84.1366703,6.952 83.418,6.952 C83.072665,6.952 82.7833345,7.0219993 82.55,7.162 C82.3166655,7.3020007 82.2,7.48399888 82.2,7.708 C82.2,7.92266774 82.2886658,8.09766599 82.466,8.233 C82.6433342,8.36833401 82.904665,8.4826662 83.25,8.576 L84.3,8.842 C85.0000035,9.01933422 85.5296649,9.28766487 85.889,9.647 C86.2483351,10.0063351 86.428,10.4473307 86.428,10.97 C86.428,11.4180022 86.299668,11.8123316 86.043,12.153 C85.7863321,12.4936684 85.4340023,12.7573324 84.986,12.944 C84.5379978,13.1306676 84.0433361,13.224 83.502,13.224 Z M87.908,2.976 L89.448,2.976 L89.448,13 L87.908,13 L87.908,2.976 Z M93.574,13.224 C93.0606641,13.224 92.6033354,13.1236677 92.202,12.923 C91.8006647,12.7223323 91.4880011,12.4376685 91.264,12.069 C91.0399989,11.7003315 90.928,11.282669 90.928,10.816 C90.928,10.078663 91.2056639,9.49533548 91.761,9.066 C92.3163361,8.63666452 93.0186624,8.422 93.868,8.422 C94.2880021,8.422 94.6659983,8.46166627 95.002,8.541 C95.3380017,8.62033373 95.603999,8.7066662 95.8,8.8 L95.8,8.436 C95.8,7.99733114 95.6366683,7.64033471 95.31,7.365 C94.9833317,7.08966529 94.5633359,6.952 94.05,6.952 C93.6859982,6.952 93.3430016,7.03133254 93.021,7.19 C92.6989984,7.34866746 92.440001,7.5679986 92.244,7.848 L91.166,7.022 C91.4833349,6.58333114 91.8939975,6.24266788 92.398,6 C92.9020025,5.75733212 93.4619969,5.636 94.078,5.636 C95.1140052,5.636 95.9119972,5.89033079 96.472,6.399 C97.0320028,6.90766921 97.312,7.62399538 97.312,8.548 L97.312,13 L95.8,13 L95.8,12.146 L95.73,12.146 C95.5246657,12.4540015 95.2353352,12.7106656 94.862,12.916 C94.4886648,13.1213344 94.0593358,13.224 93.574,13.224 Z M93.84,11.95 C94.2133352,11.95 94.5493319,11.8613342 94.848,11.684 C95.1466682,11.5066658 95.3799992,11.2686682 95.548,10.97 C95.7160009,10.6713318 95.8,10.3493351 95.8,10.004 C95.5853323,9.88266606 95.3356681,9.78466704 95.051,9.71 C94.7663319,9.63533296 94.4700016,9.598 94.162,9.598 C93.5833305,9.598 93.158668,9.71233219 92.888,9.941 C92.617332,10.1696678 92.482,10.4659982 92.482,10.83 C92.482,11.1566683 92.6079988,11.4249989 92.86,11.635 C93.1120013,11.8450011 93.4386647,11.95 93.84,11.95 Z M101.312,13.224 C100.798664,13.224 100.341335,13.1236677 99.94,12.923 C99.5386647,12.7223323 99.2260011,12.4376685 99.002,12.069 C98.7779989,11.7003315 98.666,11.282669 98.666,10.816 C98.666,10.078663 98.9436639,9.49533548 99.499,9.066 C100.054336,8.63666452 100.756662,8.422 101.606,8.422 C102.026002,8.422 102.403998,8.46166627 102.74,8.541 C103.076002,8.62033373 103.341999,8.7066662 103.538,8.8 L103.538,8.436 C103.538,7.99733114 103.374668,7.64033471 103.048,7.365 C102.721332,7.08966529 102.301336,6.952 101.788,6.952 C101.423998,6.952 101.081002,7.03133254 100.759,7.19 C100.436998,7.34866746 100.178001,7.5679986 99.982,7.848 L98.904,7.022 C99.2213349,6.58333114 99.6319975,6.24266788 100.136,6 C100.640003,5.75733212 101.199997,5.636 101.816,5.636 C102.852005,5.636 103.649997,5.89033079 104.21,6.399 C104.770003,6.90766921 105.05,7.62399538 105.05,8.548 L105.05,13 L103.538,13 L103.538,12.146 L103.468,12.146 C103.262666,12.4540015 102.973335,12.7106656 102.6,12.916 C102.226665,13.1213344 101.797336,13.224 101.312,13.224 Z M101.578,11.95 C101.951335,11.95 102.287332,11.8613342 102.586,11.684 C102.884668,11.5066658 103.117999,11.2686682 103.286,10.97 C103.454001,10.6713318 103.538,10.3493351 103.538,10.004 C103.323332,9.88266606 103.073668,9.78466704 102.789,9.71 C102.504332,9.63533296 102.208002,9.598 101.9,9.598 C101.32133,9.598 100.896668,9.71233219 100.626,9.941 C100.355332,10.1696678 100.22,10.4659982 100.22,10.83 C100.22,11.1566683 100.345999,11.4249989 100.598,11.635 C100.850001,11.8450011 101.176665,11.95 101.578,11.95 Z M106.88,5.86 L108.35,5.86 L108.35,6.798 L108.42,6.798 C108.625334,6.46199832 108.930998,6.18433443 109.337,5.965 C109.743002,5.74566557 110.174664,5.636 110.632,5.636 C111.500004,5.636 112.160331,5.89033079 112.613,6.399 C113.065669,6.90766921 113.292,7.60066228 113.292,8.478 L113.292,13 L111.752,13 L111.752,8.688 C111.752,8.1279972 111.614335,7.71733464 111.339,7.456 C111.063665,7.19466536 110.683336,7.064 110.198,7.064 C109.852665,7.064 109.544668,7.15966571 109.274,7.351 C109.003332,7.54233429 108.793334,7.79666508 108.644,8.114 C108.494666,8.43133492 108.42,8.77199818 108.42,9.136 L108.42,13 L106.88,13 L106.88,5.86 Z M121.95,13.224 C121.23133,13.224 120.587336,13.058335 120.018,12.727 C119.448664,12.395665 119.005335,11.9406696 118.688,11.362 C118.370665,10.7833304 118.212,10.1393369 118.212,9.43 C118.212,8.72066312 118.370665,8.07666956 118.688,7.498 C119.005335,6.91933044 119.448664,6.46433499 120.018,6.133 C120.587336,5.80166501 121.23133,5.636 121.95,5.636 C122.66867,5.636 123.312664,5.80399832 123.882,6.14 C124.451336,6.47600168 124.894665,6.93333044 125.212,7.512 C125.529335,8.09066956 125.688,8.7299965 125.688,9.43 C125.688,10.1393369 125.529335,10.7833304 125.212,11.362 C124.894665,11.9406696 124.451336,12.395665 123.882,12.727 C123.312664,13.058335 122.66867,13.224 121.95,13.224 Z M121.95,11.81 C122.342002,11.81 122.705998,11.7143343 123.042,11.523 C123.378002,11.3316657 123.646332,11.0563351 123.847,10.697 C124.047668,10.3376649 124.148,9.91533576 124.148,9.43 C124.148,8.94466424 124.047668,8.52466844 123.847,8.17 C123.646332,7.81533156 123.378002,7.54233429 123.042,7.351 C122.705998,7.15966571 122.342002,7.064 121.95,7.064 C121.557998,7.064 121.194002,7.15966571 120.858,7.351 C120.521998,7.54233429 120.253668,7.81533156 120.053,8.17 C119.852332,8.52466844 119.752,8.94466424 119.752,9.43 C119.752,9.91533576 119.852332,10.3376649 120.053,10.697 C120.253668,11.0563351 120.521998,11.3316657 120.858,11.523 C121.194002,11.7143343 121.557998,11.81 121.95,11.81 Z M127.126,5.86 L128.596,5.86 L128.596,6.798 L128.666,6.798 C128.871334,6.4713317 129.174665,6.19600112 129.576,5.972 C129.977335,5.74799888 130.429998,5.636 130.934,5.636 C131.578003,5.636 132.161331,5.7993317 132.684,6.126 C133.206669,6.4526683 133.619665,6.90299713 133.923,7.477 C134.226335,8.05100287 134.378,8.70199636 134.378,9.43 C134.378,10.1580036 134.226335,10.8089971 133.923,11.383 C133.619665,11.9570029 133.206669,12.4073317 132.684,12.734 C132.161331,13.0606683 131.578003,13.224 130.934,13.224 C130.429998,13.224 129.977335,13.1120011 129.576,12.888 C129.174665,12.6639989 128.871334,12.3933349 128.666,12.076 L128.596,12.076 L128.666,13.07 L128.666,16.024 L127.126,16.024 L127.126,5.86 Z M130.71,11.81 C131.083335,11.81 131.433332,11.712001 131.76,11.516 C132.086668,11.319999 132.347999,11.0400018 132.544,10.676 C132.740001,10.3119982 132.838,9.896669 132.838,9.43 C132.838,8.963331 132.740001,8.55033513 132.544,8.191 C132.347999,7.83166487 132.086668,7.55400098 131.76,7.358 C131.433332,7.16199902 131.083335,7.064 130.71,7.064 C130.336665,7.064 129.989002,7.16199902 129.667,7.358 C129.344998,7.55400098 129.086001,7.83166487 128.89,8.191 C128.693999,8.55033513 128.596,8.963331 128.596,9.43 C128.596,9.896669 128.693999,10.3119982 128.89,10.676 C129.086001,11.0400018 129.344998,11.319999 129.667,11.516 C129.989002,11.712001 130.336665,11.81 130.71,11.81 Z M142.28,13.112 C141.962665,13.112 141.664001,13.0606672 141.384,12.958 C141.103999,12.8553328 140.875334,12.7200008 140.698,12.552 C140.296665,12.1506647 140.096,11.6046701 140.096,10.914 L140.096,7.218 L138.85,7.218 L138.85,5.86 L140.096,5.86 L140.096,3.844 L141.636,3.844 L141.636,5.86 L143.372,5.86 L143.372,7.218 L141.636,7.218 L141.636,10.578 C141.636,10.9606686 141.710666,11.2313325 141.86,11.39 C142.000001,11.5766676 142.242665,11.67 142.588,11.67 C142.746668,11.67 142.886666,11.6490002 143.008,11.607 C143.129334,11.5649998 143.259999,11.4973338 143.4,11.404 L143.4,12.902 C143.091999,13.0420007 142.718669,13.112 142.28,13.112 Z M147.974,13.224 C147.273997,13.224 146.646336,13.0606683 146.091,12.734 C145.535664,12.4073317 145.101668,11.9570029 144.789,11.383 C144.476332,10.8089971 144.32,10.1626703 144.32,9.444 C144.32,8.76266326 144.471665,8.13033625 144.775,7.547 C145.078335,6.96366375 145.500664,6.49933506 146.042,6.154 C146.583336,5.80866494 147.19933,5.636 147.89,5.636 C148.60867,5.636 149.231664,5.79466508 149.759,6.112 C150.286336,6.42933492 150.687665,6.86333058 150.963,7.414 C151.238335,7.96466942 151.376,8.58532988 151.376,9.276 C151.376,9.40666732 151.362,9.56999902 151.334,9.766 L145.86,9.766 C145.916,10.42867 146.151665,10.9396649 146.567,11.299 C146.982335,11.6583351 147.465331,11.838 148.016,11.838 C148.454669,11.838 148.834998,11.7376677 149.157,11.537 C149.479002,11.3363323 149.737999,11.0633351 149.934,10.718 L151.236,11.334 C150.899998,11.9220029 150.461336,12.3839983 149.92,12.72 C149.378664,13.0560017 148.730004,13.224 147.974,13.224 Z M149.808,8.59 C149.789333,8.33799874 149.710001,8.08833457 149.57,7.841 C149.43,7.59366543 149.217668,7.38600084 148.933,7.218 C148.648332,7.04999916 148.300669,6.966 147.89,6.966 C147.395331,6.966 146.977668,7.11299853 146.637,7.407 C146.296332,7.70100147 146.060667,8.09533086 145.93,8.59 L149.808,8.59 Z M152.926,2.976 L154.466,2.976 L154.466,13 L152.926,13 L152.926,2.976 Z M159.614,13.224 C158.913997,13.224 158.286336,13.0606683 157.731,12.734 C157.175664,12.4073317 156.741668,11.9570029 156.429,11.383 C156.116332,10.8089971 155.96,10.1626703 155.96,9.444 C155.96,8.76266326 156.111665,8.13033625 156.415,7.547 C156.718335,6.96366375 157.140664,6.49933506 157.682,6.154 C158.223336,5.80866494 158.83933,5.636 159.53,5.636 C160.24867,5.636 160.871664,5.79466508 161.399,6.112 C161.926336,6.42933492 162.327665,6.86333058 162.603,7.414 C162.878335,7.96466942 163.016,8.58532988 163.016,9.276 C163.016,9.40666732 163.002,9.56999902 162.974,9.766 L157.5,9.766 C157.556,10.42867 157.791665,10.9396649 158.207,11.299 C158.622335,11.6583351 159.105331,11.838 159.656,11.838 C160.094669,11.838 160.474998,11.7376677 160.797,11.537 C161.119002,11.3363323 161.377999,11.0633351 161.574,10.718 L162.876,11.334 C162.539998,11.9220029 162.101336,12.3839983 161.56,12.72 C161.018664,13.0560017 160.370004,13.224 159.614,13.224 Z M161.448,8.59 C161.429333,8.33799874 161.350001,8.08833457 161.21,7.841 C161.07,7.59366543 160.857668,7.38600084 160.573,7.218 C160.288332,7.04999916 159.940669,6.966 159.53,6.966 C159.035331,6.966 158.617668,7.11299853 158.277,7.407 C157.936332,7.70100147 157.700667,8.09533086 157.57,8.59 L161.448,8.59 Z M165.224,7.218 L163.922,7.218 L163.922,5.86 L165.224,5.86 L165.224,5.3 C165.224,4.5533296 165.457331,3.96066886 165.924,3.522 C166.390669,3.08333114 166.987996,2.864 167.716,2.864 C168.136002,2.864 168.499999,2.91533282 168.808,3.018 L168.808,4.53 C168.639999,4.46466634 168.483667,4.41100021 168.339,4.369 C168.194333,4.32699979 168.028668,4.306 167.842,4.306 C167.533999,4.306 167.277334,4.40399902 167.072,4.6 C166.866666,4.79600098 166.764,5.06666494 166.764,5.412 L166.764,5.86 L168.556,5.86 L168.556,7.218 L166.764,7.218 L166.764,13 L165.224,13 L165.224,7.218 Z M173.074,13.224 C172.35533,13.224 171.711336,13.058335 171.142,12.727 C170.572664,12.395665 170.129335,11.9406696 169.812,11.362 C169.494665,10.7833304 169.336,10.1393369 169.336,9.43 C169.336,8.72066312 169.494665,8.07666956 169.812,7.498 C170.129335,6.91933044 170.572664,6.46433499 171.142,6.133 C171.711336,5.80166501 172.35533,5.636 173.074,5.636 C173.79267,5.636 174.436664,5.80399832 175.006,6.14 C175.575336,6.47600168 176.018665,6.93333044 176.336,7.512 C176.653335,8.09066956 176.812,8.7299965 176.812,9.43 C176.812,10.1393369 176.653335,10.7833304 176.336,11.362 C176.018665,11.9406696 175.575336,12.395665 175.006,12.727 C174.436664,13.058335 173.79267,13.224 173.074,13.224 Z M173.074,11.81 C173.466002,11.81 173.829998,11.7143343 174.166,11.523 C174.502002,11.3316657 174.770332,11.0563351 174.971,10.697 C175.171668,10.3376649 175.272,9.91533576 175.272,9.43 C175.272,8.94466424 175.171668,8.52466844 174.971,8.17 C174.770332,7.81533156 174.502002,7.54233429 174.166,7.351 C173.829998,7.15966571 173.466002,7.064 173.074,7.064 C172.681998,7.064 172.318002,7.15966571 171.982,7.351 C171.645998,7.54233429 171.377668,7.81533156 171.177,8.17 C170.976332,8.52466844 170.876,8.94466424 170.876,9.43 C170.876,9.91533576 170.976332,10.3376649 171.177,10.697 C171.377668,11.0563351 171.645998,11.3316657 171.982,11.523 C172.318002,11.7143343 172.681998,11.81 173.074,11.81 Z M181.722,13.224 C181.00333,13.224 180.359336,13.058335 179.79,12.727 C179.220664,12.395665 178.777335,11.9406696 178.46,11.362 C178.142665,10.7833304 177.984,10.1393369 177.984,9.43 C177.984,8.72066312 178.142665,8.07666956 178.46,7.498 C178.777335,6.91933044 179.220664,6.46433499 179.79,6.133 C180.359336,5.80166501 181.00333,5.636 181.722,5.636 C182.44067,5.636 183.084664,5.80399832 183.654,6.14 C184.223336,6.47600168 184.666665,6.93333044 184.984,7.512 C185.301335,8.09066956 185.46,8.7299965 185.46,9.43 C185.46,10.1393369 185.301335,10.7833304 184.984,11.362 C184.666665,11.9406696 184.223336,12.395665 183.654,12.727 C183.084664,13.058335 182.44067,13.224 181.722,13.224 Z M181.722,11.81 C182.114002,11.81 182.477998,11.7143343 182.814,11.523 C183.150002,11.3316657 183.418332,11.0563351 183.619,10.697 C183.819668,10.3376649 183.92,9.91533576 183.92,9.43 C183.92,8.94466424 183.819668,8.52466844 183.619,8.17 C183.418332,7.81533156 183.150002,7.54233429 182.814,7.351 C182.477998,7.15966571 182.114002,7.064 181.722,7.064 C181.329998,7.064 180.966002,7.15966571 180.63,7.351 C180.293998,7.54233429 180.025668,7.81533156 179.825,8.17 C179.624332,8.52466844 179.524,8.94466424 179.524,9.43 C179.524,9.91533576 179.624332,10.3376649 179.825,10.697 C180.025668,11.0563351 180.293998,11.3316657 180.63,11.523 C180.966002,11.7143343 181.329998,11.81 181.722,11.81 Z M186.884,5.86 L188.354,5.86 L188.354,6.798 L188.424,6.798 C188.629334,6.46199832 188.934998,6.18433443 189.341,5.965 C189.747002,5.74566557 190.178664,5.636 190.636,5.636 C191.504004,5.636 192.164331,5.89033079 192.617,6.399 C193.069669,6.90766921 193.296,7.60066228 193.296,8.478 L193.296,13 L191.756,13 L191.756,8.688 C191.756,8.1279972 191.618335,7.71733464 191.343,7.456 C191.067665,7.19466536 190.687336,7.064 190.202,7.064 C189.856665,7.064 189.548668,7.15966571 189.278,7.351 C189.007332,7.54233429 188.797334,7.79666508 188.648,8.114 C188.498666,8.43133492 188.424,8.77199818 188.424,9.136 L188.424,13 L186.884,13 L186.884,5.86 Z" id="Opslaanoptelefoon" fill="#FFFFFF" fill-rule="nonzero"></path>
                </g>
            </g>
        </g>
    </g>
</svg>