<?xml version="1.0" encoding="UTF-8"?>
<svg width="288px" height="44px" viewBox="0 0 288 44" version="1.1" xmlns="http://www.w3.org/2000/svg" xmlns:xlink="http://www.w3.org/1999/xlink">
    <!-- Generator: Sketch 58 (84663) - https://sketch.com -->
    <title>Save to Google Pay - Indonesian (Light)</title>
    <desc>Created with Sketch.</desc>
    <defs>
        <path d="M4,0 L276,0 C278.209139,-4.05812251e-16 280,1.790861 280,4 L280,32 C280,34.209139 278.209139,36 276,36 L4,36 C1.790861,36 2.705415e-16,34.209139 0,32 L0,4 C-2.705415e-16,1.790861 1.790861,4.05812251e-16 4,0 Z" id="path-1"></path>
        <filter x="-2.3%" y="-15.3%" width="104.6%" height="136.1%" filterUnits="objectBoundingBox" id="filter-2">
            <feMorphology radius="0.5" operator="dilate" in="SourceAlpha" result="shadowSpreadOuter1"></feMorphology>
            <feOffset dx="0" dy="1" in="shadowSpreadOuter1" result="shadowOffsetOuter1"></feOffset>
            <feGaussianBlur stdDeviation="1.5" in="shadowOffsetOuter1" result="shadowBlurOuter1"></feGaussianBlur>
            <feColorMatrix values="0 0 0 0 0.235294118   0 0 0 0 0.250980392   0 0 0 0 0.262745098  0 0 0 0.15 0" type="matrix" in="shadowBlurOuter1" result="shadowMatrixOuter1"></feColorMatrix>
            <feOffset dx="0" dy="1" in="SourceAlpha" result="shadowOffsetOuter2"></feOffset>
            <feGaussianBlur stdDeviation="0.5" in="shadowOffsetOuter2" result="shadowBlurOuter2"></feGaussianBlur>
            <feColorMatrix values="0 0 0 0 0.235294118   0 0 0 0 0.250980392   0 0 0 0 0.262745098  0 0 0 0.3 0" type="matrix" in="shadowBlurOuter2" result="shadowMatrixOuter2"></feColorMatrix>
            <feMerge>
                <feMergeNode in="shadowMatrixOuter1"></feMergeNode>
                <feMergeNode in="shadowMatrixOuter2"></feMergeNode>
            </feMerge>
        </filter>
    </defs>
    <g id="Buttons-(Save-to-phone)" stroke="none" stroke-width="1" fill="none" fill-rule="evenodd">
        <g id="Language-Variations---Flatened" transform="translate(-192.000000, -276.000000)">
            <g id="Save-to-Google-Pay---Indonesian-(Light)" transform="translate(196.000000, 279.000000)">
                <g id="bg-copy">
                    <use fill="black" fill-opacity="1" filter="url(#filter-2)" xlink:href="#path-1"></use>
                    <use fill="#FFFFFF" fill-rule="evenodd" xlink:href="#path-1"></use>
                </g>
                <g id="buttonContent" transform="translate(52.000000, 10.000000)">
                    <path d="M63.546,13.224 C62.7153292,13.224 61.96867,12.9813358 61.306,12.496 C60.64333,12.0106642 60.1860013,11.3293377 59.934,10.452 L61.418,9.85 C61.5673341,10.4006694 61.8309981,10.8509982 62.209,11.201 C62.5870019,11.5510018 63.0419973,11.726 63.574,11.726 C64.0686691,11.726 64.4886649,11.5976679 64.834,11.341 C65.1793351,11.0843321 65.352,10.7320022 65.352,10.284 C65.352,9.87333128 65.2003349,9.53500133 64.897,9.269 C64.5936652,9.00299867 64.0640038,8.73466802 63.308,8.464 L62.678,8.24 C62.0059966,8.0066655 61.4413356,7.67066886 60.984,7.232 C60.5266644,6.79333114 60.298,6.21467026 60.298,5.496 C60.298,5.00133086 60.433332,4.5440021 60.704,4.124 C60.974668,3.7039979 61.3503309,3.37033457 61.831,3.123 C62.3116691,2.87566543 62.8553303,2.752 63.462,2.752 C64.3393377,2.752 65.0393307,2.96433121 65.562,3.389 C66.0846693,3.81366879 66.4346658,4.29199734 66.612,4.824 L65.198,5.426 C65.0953328,5.10866508 64.8993348,4.82866788 64.61,4.586 C64.3206652,4.34333212 63.9473356,4.222 63.49,4.222 C63.0326644,4.222 62.6476682,4.3386655 62.335,4.572 C62.0223318,4.8053345 61.866,5.10399818 61.866,5.468 C61.866,5.81333506 62.0059986,6.09799888 62.286,6.322 C62.5660014,6.54600112 63.0046637,6.76066564 63.602,6.966 L64.232,7.176 C65.090671,7.47466816 65.7556643,7.86433093 66.227,8.345 C66.6983357,8.82566907 66.934,9.46732932 66.934,10.27 C66.934,10.9233366 66.7660017,11.4716645 66.43,11.915 C66.0939983,12.3583355 65.6670026,12.6873323 65.149,12.902 C64.6309974,13.1166677 64.0966694,13.224 63.546,13.224 Z M69.506,4.824 C69.2166652,4.824 68.9716677,4.72366767 68.771,4.523 C68.5703323,4.32233233 68.47,4.07733478 68.47,3.788 C68.47,3.49866522 68.5703323,3.25366767 68.771,3.053 C68.9716677,2.85233233 69.2166652,2.752 69.506,2.752 C69.7953348,2.752 70.0403323,2.85233233 70.241,3.053 C70.4416677,3.25366767 70.542,3.49866522 70.542,3.788 C70.542,4.07733478 70.4416677,4.32233233 70.241,4.523 C70.0403323,4.72366767 69.7953348,4.824 69.506,4.824 Z M68.736,5.86 L70.276,5.86 L70.276,13 L68.736,13 L68.736,5.86 Z M72.344,5.86 L73.814,5.86 L73.814,6.798 L73.884,6.798 C74.0986678,6.45266494 74.4019981,6.17266774 74.794,5.958 C75.186002,5.74333226 75.6059978,5.636 76.054,5.636 C76.5673359,5.636 77.0153314,5.75499881 77.398,5.993 C77.7806686,6.23100119 78.0559992,6.54599804 78.224,6.938 C78.4666679,6.54599804 78.790998,6.23100119 79.197,5.993 C79.603002,5.75499881 80.0813306,5.636 80.632,5.636 C81.4533375,5.636 82.0763312,5.88566417 82.501,6.385 C82.9256688,6.88433583 83.138,7.56332904 83.138,8.422 L83.138,13 L81.598,13 L81.598,8.688 C81.598,7.60532792 81.1360046,7.064 80.212,7.064 C79.7173309,7.064 79.3113349,7.26466466 78.994,7.666 C78.6766651,8.06733534 78.518,8.56199706 78.518,9.15 L78.518,13 L76.978,13 L76.978,8.688 C76.978,7.60532792 76.5020048,7.064 75.55,7.064 C75.0646643,7.064 74.6656682,7.26466466 74.353,7.666 C74.0403318,8.06733534 73.884,8.56199706 73.884,9.15 L73.884,13 L72.344,13 L72.344,5.86 Z M84.982,5.86 L86.452,5.86 L86.452,6.798 L86.522,6.798 C86.7273344,6.4713317 87.0306647,6.19600112 87.432,5.972 C87.8333354,5.74799888 88.2859975,5.636 88.79,5.636 C89.4340032,5.636 90.0173307,5.7993317 90.54,6.126 C91.0626693,6.4526683 91.4756652,6.90299713 91.779,7.477 C92.0823349,8.05100287 92.234,8.70199636 92.234,9.43 C92.234,10.1580036 92.0823349,10.8089971 91.779,11.383 C91.4756652,11.9570029 91.0626693,12.4073317 90.54,12.734 C90.0173307,13.0606683 89.4340032,13.224 88.79,13.224 C88.2859975,13.224 87.8333354,13.1120011 87.432,12.888 C87.0306647,12.6639989 86.7273344,12.3933349 86.522,12.076 L86.452,12.076 L86.522,13.07 L86.522,16.024 L84.982,16.024 L84.982,5.86 Z M88.566,11.81 C88.9393352,11.81 89.2893317,11.712001 89.616,11.516 C89.9426683,11.319999 90.203999,11.0400018 90.4,10.676 C90.596001,10.3119982 90.694,9.896669 90.694,9.43 C90.694,8.963331 90.596001,8.55033513 90.4,8.191 C90.203999,7.83166487 89.9426683,7.55400098 89.616,7.358 C89.2893317,7.16199902 88.9393352,7.064 88.566,7.064 C88.1926648,7.064 87.8450016,7.16199902 87.523,7.358 C87.2009984,7.55400098 86.942001,7.83166487 86.746,8.191 C86.549999,8.55033513 86.452,8.963331 86.452,9.43 C86.452,9.896669 86.549999,10.3119982 86.746,10.676 C86.942001,11.0400018 87.2009984,11.319999 87.523,11.516 C87.8450016,11.712001 88.1926648,11.81 88.566,11.81 Z M96.024,13.224 C95.5106641,13.224 95.0533354,13.1236677 94.652,12.923 C94.2506647,12.7223323 93.9380011,12.4376685 93.714,12.069 C93.4899989,11.7003315 93.378,11.282669 93.378,10.816 C93.378,10.078663 93.6556639,9.49533548 94.211,9.066 C94.7663361,8.63666452 95.4686624,8.422 96.318,8.422 C96.7380021,8.422 97.1159983,8.46166627 97.452,8.541 C97.7880017,8.62033373 98.053999,8.7066662 98.25,8.8 L98.25,8.436 C98.25,7.99733114 98.0866683,7.64033471 97.76,7.365 C97.4333317,7.08966529 97.0133359,6.952 96.5,6.952 C96.1359982,6.952 95.7930016,7.03133254 95.471,7.19 C95.1489984,7.34866746 94.890001,7.5679986 94.694,7.848 L93.616,7.022 C93.9333349,6.58333114 94.3439975,6.24266788 94.848,6 C95.3520025,5.75733212 95.9119969,5.636 96.528,5.636 C97.5640052,5.636 98.3619972,5.89033079 98.922,6.399 C99.4820028,6.90766921 99.762,7.62399538 99.762,8.548 L99.762,13 L98.25,13 L98.25,12.146 L98.18,12.146 C97.9746657,12.4540015 97.6853352,12.7106656 97.312,12.916 C96.9386648,13.1213344 96.5093358,13.224 96.024,13.224 Z M96.29,11.95 C96.6633352,11.95 96.9993319,11.8613342 97.298,11.684 C97.5966682,11.5066658 97.8299992,11.2686682 97.998,10.97 C98.1660009,10.6713318 98.25,10.3493351 98.25,10.004 C98.0353323,9.88266606 97.7856681,9.78466704 97.501,9.71 C97.2163319,9.63533296 96.9200016,9.598 96.612,9.598 C96.0333305,9.598 95.608668,9.71233219 95.338,9.941 C95.067332,10.1696678 94.932,10.4659982 94.932,10.83 C94.932,11.1566683 95.0579988,11.4249989 95.31,11.635 C95.5620013,11.8450011 95.8886647,11.95 96.29,11.95 Z M101.592,5.86 L103.062,5.86 L103.062,6.798 L103.132,6.798 C103.337334,6.46199832 103.642998,6.18433443 104.049,5.965 C104.455002,5.74566557 104.886664,5.636 105.344,5.636 C106.212004,5.636 106.872331,5.89033079 107.325,6.399 C107.777669,6.90766921 108.004,7.60066228 108.004,8.478 L108.004,13 L106.464,13 L106.464,8.688 C106.464,8.1279972 106.326335,7.71733464 106.051,7.456 C105.775665,7.19466536 105.395336,7.064 104.91,7.064 C104.564665,7.064 104.256668,7.15966571 103.986,7.351 C103.715332,7.54233429 103.505334,7.79666508 103.356,8.114 C103.206666,8.43133492 103.132,8.77199818 103.132,9.136 L103.132,13 L101.592,13 L101.592,5.86 Z M113.316,2.976 L114.856,2.976 L114.856,8.814 L114.898,8.814 L117.824,5.86 L119.756,5.86 L119.756,5.944 L116.984,8.702 L119.84,12.916 L119.84,13 L118.006,13 L115.906,9.766 L114.856,10.788 L114.856,13 L113.316,13 L113.316,2.976 Z M123.994,13.224 C123.293997,13.224 122.666336,13.0606683 122.111,12.734 C121.555664,12.4073317 121.121668,11.9570029 120.809,11.383 C120.496332,10.8089971 120.34,10.1626703 120.34,9.444 C120.34,8.76266326 120.491665,8.13033625 120.795,7.547 C121.098335,6.96366375 121.520664,6.49933506 122.062,6.154 C122.603336,5.80866494 123.21933,5.636 123.91,5.636 C124.62867,5.636 125.251664,5.79466508 125.779,6.112 C126.306336,6.42933492 126.707665,6.86333058 126.983,7.414 C127.258335,7.96466942 127.396,8.58532988 127.396,9.276 C127.396,9.40666732 127.382,9.56999902 127.354,9.766 L121.88,9.766 C121.936,10.42867 122.171665,10.9396649 122.587,11.299 C123.002335,11.6583351 123.485331,11.838 124.036,11.838 C124.474669,11.838 124.854998,11.7376677 125.177,11.537 C125.499002,11.3363323 125.757999,11.0633351 125.954,10.718 L127.256,11.334 C126.919998,11.9220029 126.481336,12.3839983 125.94,12.72 C125.398664,13.0560017 124.750004,13.224 123.994,13.224 Z M125.828,8.59 C125.809333,8.33799874 125.730001,8.08833457 125.59,7.841 C125.45,7.59366543 125.237668,7.38600084 124.953,7.218 C124.668332,7.04999916 124.320669,6.966 123.91,6.966 C123.415331,6.966 122.997668,7.11299853 122.657,7.407 C122.316332,7.70100147 122.080667,8.09533086 121.95,8.59 L125.828,8.59 Z M132.316,5.86 L133.786,5.86 L133.786,6.798 L133.856,6.798 C134.061334,6.4713317 134.364665,6.19600112 134.766,5.972 C135.167335,5.74799888 135.619998,5.636 136.124,5.636 C136.768003,5.636 137.351331,5.7993317 137.874,6.126 C138.396669,6.4526683 138.809665,6.90299713 139.113,7.477 C139.416335,8.05100287 139.568,8.70199636 139.568,9.43 C139.568,10.1580036 139.416335,10.8089971 139.113,11.383 C138.809665,11.9570029 138.396669,12.4073317 137.874,12.734 C137.351331,13.0606683 136.768003,13.224 136.124,13.224 C135.619998,13.224 135.167335,13.1120011 134.766,12.888 C134.364665,12.6639989 134.061334,12.3933349 133.856,12.076 L133.786,12.076 L133.856,13.07 L133.856,16.024 L132.316,16.024 L132.316,5.86 Z M135.9,11.81 C136.273335,11.81 136.623332,11.712001 136.95,11.516 C137.276668,11.319999 137.537999,11.0400018 137.734,10.676 C137.930001,10.3119982 138.028,9.896669 138.028,9.43 C138.028,8.963331 137.930001,8.55033513 137.734,8.191 C137.537999,7.83166487 137.276668,7.55400098 136.95,7.358 C136.623332,7.16199902 136.273335,7.064 135.9,7.064 C135.526665,7.064 135.179002,7.16199902 134.857,7.358 C134.534998,7.55400098 134.276001,7.83166487 134.08,8.191 C133.883999,8.55033513 133.786,8.963331 133.786,9.43 C133.786,9.896669 133.883999,10.3119982 134.08,10.676 C134.276001,11.0400018 134.534998,11.319999 134.857,11.516 C135.179002,11.712001 135.526665,11.81 135.9,11.81 Z M144.464,13.224 C143.74533,13.224 143.101336,13.058335 142.532,12.727 C141.962664,12.395665 141.519335,11.9406696 141.202,11.362 C140.884665,10.7833304 140.726,10.1393369 140.726,9.43 C140.726,8.72066312 140.884665,8.07666956 141.202,7.498 C141.519335,6.91933044 141.962664,6.46433499 142.532,6.133 C143.101336,5.80166501 143.74533,5.636 144.464,5.636 C145.18267,5.636 145.826664,5.80399832 146.396,6.14 C146.965336,6.47600168 147.408665,6.93333044 147.726,7.512 C148.043335,8.09066956 148.202,8.7299965 148.202,9.43 C148.202,10.1393369 148.043335,10.7833304 147.726,11.362 C147.408665,11.9406696 146.965336,12.395665 146.396,12.727 C145.826664,13.058335 145.18267,13.224 144.464,13.224 Z M144.464,11.81 C144.856002,11.81 145.219998,11.7143343 145.556,11.523 C145.892002,11.3316657 146.160332,11.0563351 146.361,10.697 C146.561668,10.3376649 146.662,9.91533576 146.662,9.43 C146.662,8.94466424 146.561668,8.52466844 146.361,8.17 C146.160332,7.81533156 145.892002,7.54233429 145.556,7.351 C145.219998,7.15966571 144.856002,7.064 144.464,7.064 C144.071998,7.064 143.708002,7.15966571 143.372,7.351 C143.035998,7.54233429 142.767668,7.81533156 142.567,8.17 C142.366332,8.52466844 142.266,8.94466424 142.266,9.43 C142.266,9.91533576 142.366332,10.3376649 142.567,10.697 C142.767668,11.0563351 143.035998,11.3316657 143.372,11.523 C143.708002,11.7143343 144.071998,11.81 144.464,11.81 Z M149.626,5.86 L151.096,5.86 L151.096,6.798 L151.166,6.798 C151.371334,6.46199832 151.676998,6.18433443 152.083,5.965 C152.489002,5.74566557 152.920664,5.636 153.378,5.636 C154.246004,5.636 154.906331,5.89033079 155.359,6.399 C155.811669,6.90766921 156.038,7.60066228 156.038,8.478 L156.038,13 L154.498,13 L154.498,8.688 C154.498,8.1279972 154.360335,7.71733464 154.085,7.456 C153.809665,7.19466536 153.429336,7.064 152.944,7.064 C152.598665,7.064 152.290668,7.15966571 152.02,7.351 C151.749332,7.54233429 151.539334,7.79666508 151.39,8.114 C151.240666,8.43133492 151.166,8.77199818 151.166,9.136 L151.166,13 L149.626,13 L149.626,5.86 Z M160.458,13.224 C159.636663,13.224 158.964669,13.0443351 158.442,12.685 C157.919331,12.3256649 157.550668,11.8660028 157.336,11.306 L158.708,10.704 C158.876001,11.0773352 159.111665,11.361999 159.415,11.558 C159.718335,11.754001 160.065998,11.852 160.458,11.852 C160.840669,11.852 161.162665,11.784334 161.424,11.649 C161.685335,11.513666 161.816,11.310668 161.816,11.04 C161.816,10.7786654 161.704001,10.5733341 161.48,10.424 C161.255999,10.2746659 160.910669,10.1440006 160.444,10.032 L159.59,9.822 C159.020664,9.6819993 158.549335,9.43466844 158.176,9.08 C157.802665,8.72533156 157.616,8.27733604 157.616,7.736 C157.616,7.3159979 157.739666,6.94733492 157.987,6.63 C158.234335,6.31266508 158.567998,6.06766753 158.988,5.895 C159.408002,5.72233247 159.865331,5.636 160.36,5.636 C161.02267,5.636 161.605998,5.76899867 162.11,6.035 C162.614003,6.30100133 162.977999,6.68599748 163.202,7.19 L161.858,7.778 C161.587332,7.22733058 161.09267,6.952 160.374,6.952 C160.028665,6.952 159.739335,7.0219993 159.506,7.162 C159.272666,7.3020007 159.156,7.48399888 159.156,7.708 C159.156,7.92266774 159.244666,8.09766599 159.422,8.233 C159.599334,8.36833401 159.860665,8.4826662 160.206,8.576 L161.256,8.842 C161.956004,9.01933422 162.485665,9.28766487 162.845,9.647 C163.204335,10.0063351 163.384,10.4473307 163.384,10.97 C163.384,11.4180022 163.255668,11.8123316 162.999,12.153 C162.742332,12.4936684 162.390002,12.7573324 161.942,12.944 C161.493998,13.1306676 160.999336,13.224 160.458,13.224 Z M168.196,13.224 C167.495997,13.224 166.868336,13.0606683 166.313,12.734 C165.757664,12.4073317 165.323668,11.9570029 165.011,11.383 C164.698332,10.8089971 164.542,10.1626703 164.542,9.444 C164.542,8.76266326 164.693665,8.13033625 164.997,7.547 C165.300335,6.96366375 165.722664,6.49933506 166.264,6.154 C166.805336,5.80866494 167.42133,5.636 168.112,5.636 C168.83067,5.636 169.453664,5.79466508 169.981,6.112 C170.508336,6.42933492 170.909665,6.86333058 171.185,7.414 C171.460335,7.96466942 171.598,8.58532988 171.598,9.276 C171.598,9.40666732 171.584,9.56999902 171.556,9.766 L166.082,9.766 C166.138,10.42867 166.373665,10.9396649 166.789,11.299 C167.204335,11.6583351 167.687331,11.838 168.238,11.838 C168.676669,11.838 169.056998,11.7376677 169.379,11.537 C169.701002,11.3363323 169.959999,11.0633351 170.156,10.718 L171.458,11.334 C171.121998,11.9220029 170.683336,12.3839983 170.142,12.72 C169.600664,13.0560017 168.952004,13.224 168.196,13.224 Z M170.03,8.59 C170.011333,8.33799874 169.932001,8.08833457 169.792,7.841 C169.652,7.59366543 169.439668,7.38600084 169.155,7.218 C168.870332,7.04999916 168.522669,6.966 168.112,6.966 C167.617331,6.966 167.199668,7.11299853 166.859,7.407 C166.518332,7.70100147 166.282667,8.09533086 166.152,8.59 L170.03,8.59 Z M173.148,2.976 L174.688,2.976 L174.688,13 L173.148,13 L173.148,2.976 Z" id="SaveToPhone" fill="#3C4043"></path>
                    <rect id="Rectangle" fill="#202124" opacity="0.100000001" x="50" y="0" width="1" height="16"></rect>
                    <g id="Gpay-logo-18px-h">
                        <g id="GPay" transform="translate(0.000000, 0.261474)">
                            <g id="Pay" transform="translate(17.615069, 0.825706)" fill="#5F6368">
                                <path d="M1.64941186,1.54761702 L1.64941186,5.63067176 L4.1674047,5.63067176 C4.76721599,5.63067176 5.26322816,5.42908551 5.65562807,5.02591302 C6.05830511,4.6236738 6.26011078,4.1439732 6.26011078,3.58867775 C6.26011078,3.04458155 6.05830511,2.57048056 5.65562807,2.16730807 C5.26322816,1.75386962 4.76721599,1.54668375 4.1674047,1.54668375 L1.64941186,1.54668375 L1.64941186,1.54761702 Z M1.64941186,7.06790702 L1.64941186,11.8042505 L0.145212207,11.8042505 L0.145212207,0.110381756 L4.13461128,0.110381756 C5.14840447,0.110381756 6.00888141,0.448225371 6.71791067,1.12297933 C7.43740394,1.79773329 7.79701042,2.61994385 7.79701042,3.58867775 C7.79701042,4.57981013 7.43731051,5.40762031 6.71791067,6.07117503 C6.01999941,6.73566302 5.15858818,7.06697375 4.13461128,7.06697375 L1.64941186,7.06697375 L1.64941186,7.06790702 Z" id="Fill-1"></path>
                                <path d="M9.31707424,9.35440834 C9.31707424,9.74638159 9.48337706,10.073026 9.81607612,10.3343415 C10.1485883,10.595657 10.5381854,10.7263147 10.9848673,10.7263147 C11.6172851,10.7263147 12.1806593,10.4919707 12.6767649,10.024496 C13.1729639,9.55599458 13.4204561,9.00629876 13.4204561,8.37540847 C12.9514448,8.00490042 12.297445,7.82011303 11.4584566,7.82011303 C10.8475273,7.82011303 10.3383417,7.96756963 9.93005895,8.26154958 C9.52168276,8.55543619 9.31707424,8.91857141 9.31707424,9.35440834 M11.2631909,3.5401384 C12.3749907,3.5401384 13.2522848,3.83691815 13.8961009,4.43047765 C14.5388893,5.02403715 14.8601901,5.83784829 14.8601901,6.87191106 L14.8601901,11.8042412 L13.4214839,11.8042412 L13.4214839,10.6936503 L13.3559904,10.6936503 C12.7346906,11.6081612 11.9059794,12.0655567 10.8708844,12.0655567 C9.98798466,12.0655567 9.24896483,11.8042412 8.65560011,11.2816102 C8.06148796,10.7589792 7.76438517,10.1056904 7.76438517,9.3217439 C7.76438517,8.49393372 8.07727739,7.83588529 8.70418295,7.34601205 C9.33108852,6.85604548 10.1673675,6.61059556 11.2137672,6.61059556 C12.1068507,6.61059556 12.8430677,6.77391775 13.4204561,7.10056213 L13.4204561,6.75711889 C13.4204561,6.23448789 13.2130448,5.7911848 12.7992497,5.42627637 C12.3843335,5.06136793 11.9003736,4.87938035 11.3444738,4.87938035 C10.5045511,4.87938035 9.84036755,5.23308955 9.34986766,5.94144122 L8.0249574,5.10803142 C8.75556866,4.06276941 9.83466841,3.5401384 11.2631909,3.5401384" id="Fill-3"></path>
                                <polygon id="Fill-5" points="23.1164897 3.8014539 18.0966672 15.3320005 16.5437912 15.3320005 18.4077842 11.2974758 15.1049916 3.8014539 16.7399912 3.8014539 19.1270906 9.55039497 19.1597906 9.55039497 21.4814901 3.8014539"></polygon>
                            </g>
                            <g id="G">
                                <path d="M13.1865148,6.87260706 C13.1865148,6.39943935 13.1463406,5.94307048 13.0706634,5.50630029 L6.72686492,5.50630029 L6.72686492,8.09425704 L10.3603012,8.09425704 C10.2042755,8.93783948 9.73246136,9.65561717 9.01679867,10.136251 L9.01679867,11.8170697 L11.1852753,11.8170697 C12.4549693,10.6467495 13.1865148,8.91740087 13.1865148,6.87260706" id="Fill-8" fill="#4285F4"></path>
                                <path d="M6.72685557,13.439083 C8.54217229,13.439083 10.0706634,12.843657 11.185266,11.8170603 L9.01678933,10.1362417 C8.4132409,10.542214 7.63591536,10.7792645 6.72685557,10.7792645 C4.97226741,10.7792645 3.48301633,9.59774511 2.9504736,8.00558709 L0.716596976,8.00558709 L0.716596976,9.73680229 C1.82372529,11.9318525 4.09871047,13.439083 6.72685557,13.439083" id="Fill-10" fill="#34A853"></path>
                                <path d="M2.95048294,8.00556842 C2.81407726,7.59959612 2.73933442,7.166559 2.73933442,6.71952284 C2.73933442,6.27248667 2.81407726,5.83944956 2.95048294,5.43347726 L2.95048294,3.70226205 L0.716606319,3.70226205 C0.258806425,4.60940015 9.34285496e-06,5.63413023 9.34285496e-06,6.71952284 C9.34285496e-06,7.80491544 0.258806425,8.82973885 0.716606319,9.73678363 L2.95048294,8.00556842 Z" id="Fill-12" fill="#FABB05"></path>
                                <path d="M6.72685557,2.65981851 C7.71813249,2.65981851 8.60663799,3.00046194 9.30735212,3.66774974 L9.30735212,3.66868301 L11.2273088,1.75081387 C10.0613205,0.666354532 8.54123801,0 6.72685557,0 C4.09871047,0 1.82372529,1.50723049 0.716596976,3.70228071 L2.9504736,5.43349592 C3.48301633,3.84133789 4.97226741,2.65981851 6.72685557,2.65981851" id="Fill-14" fill="#E94235"></path>
                            </g>
                        </g>
                    </g>
                </g>
            </g>
        </g>
    </g>
</svg>