<?xml version="1.0" encoding="UTF-8"?>
<svg width="280px" height="36px" viewBox="0 0 280 36" version="1.1" xmlns="http://www.w3.org/2000/svg" xmlns:xlink="http://www.w3.org/1999/xlink">
    <!-- Generator: Sketch 58 (84663) - https://sketch.com -->
    <title>Save to Google Pay - German (Light with Stroke)</title>
    <desc>Created with Sketch.</desc>
    <g id="Buttons-(Save-to-phone)" stroke="none" stroke-width="1" fill="none" fill-rule="evenodd">
        <g id="Language-Variations-Copy" transform="translate(-196.000000, -637.000000)">
            <g id="Save-to-Google-Pay---German-(Light-with-Stroke)" transform="translate(196.000000, 637.000000)">
                <path d="M4,0.5 C2.06700338,0.5 0.5,2.06700338 0.5,4 L0.5,32 C0.5,33.9329966 2.06700338,35.5 4,35.5 L276,35.5 C277.932997,35.5 279.5,33.9329966 279.5,32 L279.5,4 C279.5,2.06700338 277.932997,0.5 276,0.5 L4,0.5 Z" id="bg-copy-8" stroke="#BDC1C6" fill="#FFFFFF"></path>
                <g id="buttonContent-Copy-9" transform="translate(10.000000, 10.000000)">
                    <path d="M54.976,2.976 L56.768,2.976 L60.534,13 L58.798,13 L57.902,10.438 L53.856,10.438 L52.946,13 L51.21,13 L54.976,2.976 Z M57.37,8.982 L56.306,6 L55.914,4.838 L55.83,4.838 L55.438,6 L54.374,8.982 L57.37,8.982 Z M64.244,13.224 C63.3759957,13.224 62.7156689,12.9650026 62.263,12.447 C61.8103311,11.9289974 61.584,11.2080046 61.584,10.284 L61.584,5.86 L63.124,5.86 L63.124,10.074 C63.124,10.6526696 63.2616653,11.0866652 63.537,11.376 C63.8123347,11.6653348 64.1739978,11.81 64.622,11.81 C64.9860018,11.81 65.3079986,11.7143343 65.588,11.523 C65.8680014,11.3316657 66.0826659,11.0773349 66.232,10.76 C66.3813341,10.4426651 66.456,10.1020018 66.456,9.738 L66.456,5.86 L67.996,5.86 L67.996,13 L66.54,13 L66.54,12.076 L66.456,12.076 C66.259999,12.4120017 65.9566687,12.6873323 65.546,12.902 C65.1353313,13.1166677 64.7013356,13.224 64.244,13.224 Z M70.586,7.218 L69.284,7.218 L69.284,5.86 L70.586,5.86 L70.586,5.3 C70.586,4.5533296 70.819331,3.96066886 71.286,3.522 C71.752669,3.08333114 72.3499964,2.864 73.078,2.864 C73.4980021,2.864 73.8619985,2.91533282 74.17,3.018 L74.17,4.53 C74.0019992,4.46466634 73.8456674,4.41100021 73.701,4.369 C73.5563326,4.32699979 73.3906676,4.306 73.204,4.306 C72.8959985,4.306 72.6393344,4.40399902 72.434,4.6 C72.2286656,4.79600098 72.126,5.06666494 72.126,5.412 L72.126,5.86 L73.918,5.86 L73.918,7.218 L72.126,7.218 L72.126,13 L70.586,13 L70.586,7.218 Z M81.688,13.224 C81.0439968,13.224 80.4606693,13.0606683 79.938,12.734 C79.4153307,12.4073317 79.0023348,11.9570029 78.699,11.383 C78.3956651,10.8089971 78.244,10.1580036 78.244,9.43 C78.244,8.70199636 78.3956651,8.05100287 78.699,7.477 C79.0023348,6.90299713 79.4153307,6.4526683 79.938,6.126 C80.4606693,5.7993317 81.0439968,5.636 81.688,5.636 C82.1920025,5.636 82.6446647,5.74799888 83.046,5.972 C83.4473353,6.19600112 83.7506656,6.4713317 83.956,6.798 L84.026,6.798 L83.956,5.79 L83.956,2.976 L85.496,2.976 L85.496,13 L84.026,13 L84.026,12.076 L83.956,12.076 C83.7506656,12.3933349 83.4473353,12.6639989 83.046,12.888 C82.6446647,13.1120011 82.1920025,13.224 81.688,13.224 Z M81.912,11.81 C82.2853352,11.81 82.6329984,11.712001 82.955,11.516 C83.2770016,11.319999 83.535999,11.0400018 83.732,10.676 C83.928001,10.3119982 84.026,9.896669 84.026,9.43 C84.026,8.963331 83.928001,8.55033513 83.732,8.191 C83.535999,7.83166487 83.2770016,7.55400098 82.955,7.358 C82.6329984,7.16199902 82.2853352,7.064 81.912,7.064 C81.5386648,7.064 81.1886683,7.16199902 80.862,7.358 C80.5353317,7.55400098 80.274001,7.83166487 80.078,8.191 C79.881999,8.55033513 79.784,8.963331 79.784,9.43 C79.784,9.896669 79.881999,10.3119982 80.078,10.676 C80.274001,11.0400018 80.5353317,11.319999 80.862,11.516 C81.1886683,11.712001 81.5386648,11.81 81.912,11.81 Z M90.55,13.224 C89.8499965,13.224 89.2223361,13.0606683 88.667,12.734 C88.1116639,12.4073317 87.6776682,11.9570029 87.365,11.383 C87.0523318,10.8089971 86.896,10.1626703 86.896,9.444 C86.896,8.76266326 87.0476652,8.13033625 87.351,7.547 C87.6543348,6.96366375 88.076664,6.49933506 88.618,6.154 C89.159336,5.80866494 89.7753299,5.636 90.466,5.636 C91.1846703,5.636 91.807664,5.79466508 92.335,6.112 C92.862336,6.42933492 93.2636653,6.86333058 93.539,7.414 C93.8143347,7.96466942 93.952,8.58532988 93.952,9.276 C93.952,9.40666732 93.9380001,9.56999902 93.91,9.766 L88.436,9.766 C88.4920003,10.42867 88.7276646,10.9396649 89.143,11.299 C89.5583354,11.6583351 90.0413306,11.838 90.592,11.838 C91.0306689,11.838 91.4109984,11.7376677 91.733,11.537 C92.0550016,11.3363323 92.313999,11.0633351 92.51,10.718 L93.812,11.334 C93.4759983,11.9220029 93.037336,12.3839983 92.496,12.72 C91.954664,13.0560017 91.3060038,13.224 90.55,13.224 Z M92.384,8.59 C92.3653332,8.33799874 92.2860007,8.08833457 92.146,7.841 C92.006,7.59366543 91.7936681,7.38600084 91.509,7.218 C91.2243319,7.04999916 90.8766687,6.966 90.466,6.966 C89.9713309,6.966 89.5536684,7.11299853 89.213,7.407 C88.8723316,7.70100147 88.6366673,8.09533086 88.506,8.59 L92.384,8.59 Z M95.352,5.86 L96.822,5.86 L96.822,6.798 L96.892,6.798 C97.1066677,6.45266494 97.409998,6.17266774 97.802,5.958 C98.194002,5.74333226 98.6139978,5.636 99.062,5.636 C99.5753359,5.636 100.023331,5.75499881 100.406,5.993 C100.788669,6.23100119 101.063999,6.54599804 101.232,6.938 C101.474668,6.54599804 101.798998,6.23100119 102.205,5.993 C102.611002,5.75499881 103.089331,5.636 103.64,5.636 C104.461337,5.636 105.084331,5.88566417 105.509,6.385 C105.933669,6.88433583 106.146,7.56332904 106.146,8.422 L106.146,13 L104.606,13 L104.606,8.688 C104.606,7.60532792 104.144005,7.064 103.22,7.064 C102.725331,7.064 102.319335,7.26466466 102.002,7.666 C101.684665,8.06733534 101.526,8.56199706 101.526,9.15 L101.526,13 L99.986,13 L99.986,8.688 C99.986,7.60532792 99.5100048,7.064 98.558,7.064 C98.0726642,7.064 97.6736682,7.26466466 97.361,7.666 C97.0483318,8.06733534 96.892,8.56199706 96.892,9.15 L96.892,13 L95.352,13 L95.352,5.86 Z M114.322,13.224 C113.491329,13.224 112.74467,12.9813358 112.082,12.496 C111.41933,12.0106642 110.962001,11.3293377 110.71,10.452 L112.194,9.85 C112.343334,10.4006694 112.606998,10.8509982 112.985,11.201 C113.363002,11.5510018 113.817997,11.726 114.35,11.726 C114.844669,11.726 115.264665,11.5976679 115.61,11.341 C115.955335,11.0843321 116.128,10.7320022 116.128,10.284 C116.128,9.87333128 115.976335,9.53500133 115.673,9.269 C115.369665,9.00299867 114.840004,8.73466802 114.084,8.464 L113.454,8.24 C112.781997,8.0066655 112.217336,7.67066886 111.76,7.232 C111.302664,6.79333114 111.074,6.21467026 111.074,5.496 C111.074,5.00133086 111.209332,4.5440021 111.48,4.124 C111.750668,3.7039979 112.126331,3.37033457 112.607,3.123 C113.087669,2.87566543 113.63133,2.752 114.238,2.752 C115.115338,2.752 115.815331,2.96433121 116.338,3.389 C116.860669,3.81366879 117.210666,4.29199734 117.388,4.824 L115.974,5.426 C115.871333,5.10866508 115.675335,4.82866788 115.386,4.586 C115.096665,4.34333212 114.723336,4.222 114.266,4.222 C113.808664,4.222 113.423668,4.3386655 113.111,4.572 C112.798332,4.8053345 112.642,5.10399818 112.642,5.468 C112.642,5.81333506 112.781999,6.09799888 113.062,6.322 C113.342001,6.54600112 113.780664,6.76066564 114.378,6.966 L115.008,7.176 C115.866671,7.47466816 116.531664,7.86433093 117.003,8.345 C117.474336,8.82566907 117.71,9.46732932 117.71,10.27 C117.71,10.9233366 117.542002,11.4716645 117.206,11.915 C116.869998,12.3583355 116.443003,12.6873323 115.925,12.902 C115.406997,13.1166677 114.872669,13.224 114.322,13.224 Z M119.25,5.86 L120.72,5.86 L120.72,6.798 L120.79,6.798 C121.004668,6.45266494 121.307998,6.17266774 121.7,5.958 C122.092002,5.74333226 122.511998,5.636 122.96,5.636 C123.473336,5.636 123.921331,5.75499881 124.304,5.993 C124.686669,6.23100119 124.961999,6.54599804 125.13,6.938 C125.372668,6.54599804 125.696998,6.23100119 126.103,5.993 C126.509002,5.75499881 126.987331,5.636 127.538,5.636 C128.359337,5.636 128.982331,5.88566417 129.407,6.385 C129.831669,6.88433583 130.044,7.56332904 130.044,8.422 L130.044,13 L128.504,13 L128.504,8.688 C128.504,7.60532792 128.042005,7.064 127.118,7.064 C126.623331,7.064 126.217335,7.26466466 125.9,7.666 C125.582665,8.06733534 125.424,8.56199706 125.424,9.15 L125.424,13 L123.884,13 L123.884,8.688 C123.884,7.60532792 123.408005,7.064 122.456,7.064 C121.970664,7.064 121.571668,7.26466466 121.259,7.666 C120.946332,8.06733534 120.79,8.56199706 120.79,9.15 L120.79,13 L119.25,13 L119.25,5.86 Z M134.034,13.224 C133.520664,13.224 133.063335,13.1236677 132.662,12.923 C132.260665,12.7223323 131.948001,12.4376685 131.724,12.069 C131.499999,11.7003315 131.388,11.282669 131.388,10.816 C131.388,10.078663 131.665664,9.49533548 132.221,9.066 C132.776336,8.63666452 133.478662,8.422 134.328,8.422 C134.748002,8.422 135.125998,8.46166627 135.462,8.541 C135.798002,8.62033373 136.063999,8.7066662 136.26,8.8 L136.26,8.436 C136.26,7.99733114 136.096668,7.64033471 135.77,7.365 C135.443332,7.08966529 135.023336,6.952 134.51,6.952 C134.145998,6.952 133.803002,7.03133254 133.481,7.19 C133.158998,7.34866746 132.900001,7.5679986 132.704,7.848 L131.626,7.022 C131.943335,6.58333114 132.353997,6.24266788 132.858,6 C133.362003,5.75733212 133.921997,5.636 134.538,5.636 C135.574005,5.636 136.371997,5.89033079 136.932,6.399 C137.492003,6.90766921 137.772,7.62399538 137.772,8.548 L137.772,13 L136.26,13 L136.26,12.146 L136.19,12.146 C135.984666,12.4540015 135.695335,12.7106656 135.322,12.916 C134.948665,13.1213344 134.519336,13.224 134.034,13.224 Z M134.3,11.95 C134.673335,11.95 135.009332,11.8613342 135.308,11.684 C135.606668,11.5066658 135.839999,11.2686682 136.008,10.97 C136.176001,10.6713318 136.26,10.3493351 136.26,10.004 C136.045332,9.88266606 135.795668,9.78466704 135.511,9.71 C135.226332,9.63533296 134.930002,9.598 134.622,9.598 C134.04333,9.598 133.618668,9.71233219 133.348,9.941 C133.077332,10.1696678 132.942,10.4659982 132.942,10.83 C132.942,11.1566683 133.067999,11.4249989 133.32,11.635 C133.572001,11.8450011 133.898665,11.95 134.3,11.95 Z M139.452,5.86 L140.922,5.86 L140.922,6.91 L140.992,6.91 C141.178668,6.52733142 141.470331,6.22400112 141.867,6 C142.263669,5.77599888 142.695331,5.664 143.162,5.664 C143.423335,5.664 143.614666,5.68266648 143.736,5.72 L143.736,7.274 C143.502665,7.20866634 143.255335,7.176 142.994,7.176 C142.38733,7.176 141.902002,7.36733142 141.538,7.75 C141.173998,8.13266858 140.992,8.63666354 140.992,9.262 L140.992,13 L139.452,13 L139.452,5.86 Z M148.118,13.112 C147.800665,13.112 147.502001,13.0606672 147.222,12.958 C146.941999,12.8553328 146.713334,12.7200008 146.536,12.552 C146.134665,12.1506647 145.934,11.6046701 145.934,10.914 L145.934,7.218 L144.688,7.218 L144.688,5.86 L145.934,5.86 L145.934,3.844 L147.474,3.844 L147.474,5.86 L149.21,5.86 L149.21,7.218 L147.474,7.218 L147.474,10.578 C147.474,10.9606686 147.548666,11.2313325 147.698,11.39 C147.838001,11.5766676 148.080665,11.67 148.426,11.67 C148.584667,11.67 148.724666,11.6490002 148.846,11.607 C148.967334,11.5649998 149.097999,11.4973338 149.238,11.404 L149.238,12.902 C148.929998,13.0420007 148.556669,13.112 148.118,13.112 Z M150.624,5.86 L152.094,5.86 L152.094,6.798 L152.164,6.798 C152.369334,6.4713317 152.672665,6.19600112 153.074,5.972 C153.475335,5.74799888 153.927997,5.636 154.432,5.636 C155.076003,5.636 155.659331,5.7993317 156.182,6.126 C156.704669,6.4526683 157.117665,6.90299713 157.421,7.477 C157.724335,8.05100287 157.876,8.70199636 157.876,9.43 C157.876,10.1580036 157.724335,10.8089971 157.421,11.383 C157.117665,11.9570029 156.704669,12.4073317 156.182,12.734 C155.659331,13.0606683 155.076003,13.224 154.432,13.224 C153.927997,13.224 153.475335,13.1120011 153.074,12.888 C152.672665,12.6639989 152.369334,12.3933349 152.164,12.076 L152.094,12.076 L152.164,13.07 L152.164,16.024 L150.624,16.024 L150.624,5.86 Z M154.208,11.81 C154.581335,11.81 154.931332,11.712001 155.258,11.516 C155.584668,11.319999 155.845999,11.0400018 156.042,10.676 C156.238001,10.3119982 156.336,9.896669 156.336,9.43 C156.336,8.963331 156.238001,8.55033513 156.042,8.191 C155.845999,7.83166487 155.584668,7.55400098 155.258,7.358 C154.931332,7.16199902 154.581335,7.064 154.208,7.064 C153.834665,7.064 153.487002,7.16199902 153.165,7.358 C152.842998,7.55400098 152.584001,7.83166487 152.388,8.191 C152.191999,8.55033513 152.094,8.963331 152.094,9.43 C152.094,9.896669 152.191999,10.3119982 152.388,10.676 C152.584001,11.0400018 152.842998,11.319999 153.165,11.516 C153.487002,11.712001 153.834665,11.81 154.208,11.81 Z M159.276,2.976 L160.816,2.976 L160.816,5.706 L160.746,6.798 L160.816,6.798 C161.021334,6.46199832 161.326998,6.18433443 161.733,5.965 C162.139002,5.74566557 162.575331,5.636 163.042,5.636 C163.910004,5.636 164.572664,5.89033079 165.03,6.399 C165.487336,6.90766921 165.716,7.60066228 165.716,8.478 L165.716,13 L164.176,13 L164.176,8.688 C164.176,8.14666396 164.033668,7.74066802 163.749,7.47 C163.464332,7.19933198 163.093336,7.064 162.636,7.064 C162.290665,7.064 161.980335,7.16199902 161.705,7.358 C161.429665,7.55400098 161.212667,7.81299839 161.054,8.135 C160.895333,8.45700161 160.816,8.79999818 160.816,9.164 L160.816,13 L159.276,13 L159.276,2.976 Z M170.812,13.224 C170.09333,13.224 169.449336,13.058335 168.88,12.727 C168.310664,12.395665 167.867335,11.9406696 167.55,11.362 C167.232665,10.7833304 167.074,10.1393369 167.074,9.43 C167.074,8.72066312 167.232665,8.07666956 167.55,7.498 C167.867335,6.91933044 168.310664,6.46433499 168.88,6.133 C169.449336,5.80166501 170.09333,5.636 170.812,5.636 C171.53067,5.636 172.174664,5.80399832 172.744,6.14 C173.313336,6.47600168 173.756665,6.93333044 174.074,7.512 C174.391335,8.09066956 174.55,8.7299965 174.55,9.43 C174.55,10.1393369 174.391335,10.7833304 174.074,11.362 C173.756665,11.9406696 173.313336,12.395665 172.744,12.727 C172.174664,13.058335 171.53067,13.224 170.812,13.224 Z M170.812,11.81 C171.204002,11.81 171.567998,11.7143343 171.904,11.523 C172.240002,11.3316657 172.508332,11.0563351 172.709,10.697 C172.909668,10.3376649 173.01,9.91533576 173.01,9.43 C173.01,8.94466424 172.909668,8.52466844 172.709,8.17 C172.508332,7.81533156 172.240002,7.54233429 171.904,7.351 C171.567998,7.15966571 171.204002,7.064 170.812,7.064 C170.419998,7.064 170.056002,7.15966571 169.72,7.351 C169.383998,7.54233429 169.115668,7.81533156 168.915,8.17 C168.714332,8.52466844 168.614,8.94466424 168.614,9.43 C168.614,9.91533576 168.714332,10.3376649 168.915,10.697 C169.115668,11.0563351 169.383998,11.3316657 169.72,11.523 C170.056002,11.7143343 170.419998,11.81 170.812,11.81 Z M175.964,5.86 L177.434,5.86 L177.434,6.798 L177.504,6.798 C177.709334,6.46199832 178.014998,6.18433443 178.421,5.965 C178.827002,5.74566557 179.258664,5.636 179.716,5.636 C180.584004,5.636 181.244331,5.89033079 181.697,6.399 C182.149669,6.90766921 182.376,7.60066228 182.376,8.478 L182.376,13 L180.836,13 L180.836,8.688 C180.836,8.1279972 180.698335,7.71733464 180.423,7.456 C180.147665,7.19466536 179.767336,7.064 179.282,7.064 C178.936665,7.064 178.628668,7.15966571 178.358,7.351 C178.087332,7.54233429 177.877334,7.79666508 177.728,8.114 C177.578666,8.43133492 177.504,8.77199818 177.504,9.136 L177.504,13 L175.964,13 L175.964,5.86 Z M187.374,13.224 C186.673997,13.224 186.046336,13.0606683 185.491,12.734 C184.935664,12.4073317 184.501668,11.9570029 184.189,11.383 C183.876332,10.8089971 183.72,10.1626703 183.72,9.444 C183.72,8.76266326 183.871665,8.13033625 184.175,7.547 C184.478335,6.96366375 184.900664,6.49933506 185.442,6.154 C185.983336,5.80866494 186.59933,5.636 187.29,5.636 C188.00867,5.636 188.631664,5.79466508 189.159,6.112 C189.686336,6.42933492 190.087665,6.86333058 190.363,7.414 C190.638335,7.96466942 190.776,8.58532988 190.776,9.276 C190.776,9.40666732 190.762,9.56999902 190.734,9.766 L185.26,9.766 C185.316,10.42867 185.551665,10.9396649 185.967,11.299 C186.382335,11.6583351 186.865331,11.838 187.416,11.838 C187.854669,11.838 188.234998,11.7376677 188.557,11.537 C188.879002,11.3363323 189.137999,11.0633351 189.334,10.718 L190.636,11.334 C190.299998,11.9220029 189.861336,12.3839983 189.32,12.72 C188.778664,13.0560017 188.130004,13.224 187.374,13.224 Z M189.208,8.59 C189.189333,8.33799874 189.110001,8.08833457 188.97,7.841 C188.83,7.59366543 188.617668,7.38600084 188.333,7.218 C188.048332,7.04999916 187.700669,6.966 187.29,6.966 C186.795331,6.966 186.377668,7.11299853 186.037,7.407 C185.696332,7.70100147 185.460667,8.09533086 185.33,8.59 L189.208,8.59 Z M198.056,13.224 C197.234663,13.224 196.562669,13.0443351 196.04,12.685 C195.517331,12.3256649 195.148668,11.8660028 194.934,11.306 L196.306,10.704 C196.474001,11.0773352 196.709665,11.361999 197.013,11.558 C197.316335,11.754001 197.663998,11.852 198.056,11.852 C198.438669,11.852 198.760665,11.784334 199.022,11.649 C199.283335,11.513666 199.414,11.310668 199.414,11.04 C199.414,10.7786654 199.302001,10.5733341 199.078,10.424 C198.853999,10.2746659 198.508669,10.1440006 198.042,10.032 L197.188,9.822 C196.618664,9.6819993 196.147335,9.43466844 195.774,9.08 C195.400665,8.72533156 195.214,8.27733604 195.214,7.736 C195.214,7.3159979 195.337665,6.94733492 195.585,6.63 C195.832335,6.31266508 196.165998,6.06766753 196.586,5.895 C197.006002,5.72233247 197.463331,5.636 197.958,5.636 C198.62067,5.636 199.203997,5.76899867 199.708,6.035 C200.212003,6.30100133 200.575999,6.68599748 200.8,7.19 L199.456,7.778 C199.185332,7.22733058 198.69067,6.952 197.972,6.952 C197.626665,6.952 197.337334,7.0219993 197.104,7.162 C196.870666,7.3020007 196.754,7.48399888 196.754,7.708 C196.754,7.92266774 196.842666,8.09766599 197.02,8.233 C197.197334,8.36833401 197.458665,8.4826662 197.804,8.576 L198.854,8.842 C199.554004,9.01933422 200.083665,9.28766487 200.443,9.647 C200.802335,10.0063351 200.982,10.4473307 200.982,10.97 C200.982,11.4180022 200.853668,11.8123316 200.597,12.153 C200.340332,12.4936684 199.988002,12.7573324 199.54,12.944 C199.091998,13.1306676 198.597336,13.224 198.056,13.224 Z M202.256,5.86 L203.726,5.86 L203.726,6.798 L203.796,6.798 C204.001334,6.4713317 204.304665,6.19600112 204.706,5.972 C205.107335,5.74799888 205.559997,5.636 206.064,5.636 C206.708003,5.636 207.291331,5.7993317 207.814,6.126 C208.336669,6.4526683 208.749665,6.90299713 209.053,7.477 C209.356335,8.05100287 209.508,8.70199636 209.508,9.43 C209.508,10.1580036 209.356335,10.8089971 209.053,11.383 C208.749665,11.9570029 208.336669,12.4073317 207.814,12.734 C207.291331,13.0606683 206.708003,13.224 206.064,13.224 C205.559997,13.224 205.107335,13.1120011 204.706,12.888 C204.304665,12.6639989 204.001334,12.3933349 203.796,12.076 L203.726,12.076 L203.796,13.07 L203.796,16.024 L202.256,16.024 L202.256,5.86 Z M205.84,11.81 C206.213335,11.81 206.563332,11.712001 206.89,11.516 C207.216668,11.319999 207.477999,11.0400018 207.674,10.676 C207.870001,10.3119982 207.968,9.896669 207.968,9.43 C207.968,8.963331 207.870001,8.55033513 207.674,8.191 C207.477999,7.83166487 207.216668,7.55400098 206.89,7.358 C206.563332,7.16199902 206.213335,7.064 205.84,7.064 C205.466665,7.064 205.119002,7.16199902 204.797,7.358 C204.474998,7.55400098 204.216001,7.83166487 204.02,8.191 C203.823999,8.55033513 203.726,8.963331 203.726,9.43 C203.726,9.896669 203.823999,10.3119982 204.02,10.676 C204.216001,11.0400018 204.474998,11.319999 204.797,11.516 C205.119002,11.712001 205.466665,11.81 205.84,11.81 Z M214.17,13.224 C213.469997,13.224 212.842336,13.0606683 212.287,12.734 C211.731664,12.4073317 211.297668,11.9570029 210.985,11.383 C210.672332,10.8089971 210.516,10.1626703 210.516,9.444 C210.516,8.76266326 210.667665,8.13033625 210.971,7.547 C211.274335,6.96366375 211.696664,6.49933506 212.238,6.154 C212.779336,5.80866494 213.39533,5.636 214.086,5.636 C214.80467,5.636 215.427664,5.79466508 215.955,6.112 C216.482336,6.42933492 216.883665,6.86333058 217.159,7.414 C217.434335,7.96466942 217.572,8.58532988 217.572,9.276 C217.572,9.40666732 217.558,9.56999902 217.53,9.766 L212.056,9.766 C212.112,10.42867 212.347665,10.9396649 212.763,11.299 C213.178335,11.6583351 213.661331,11.838 214.212,11.838 C214.650669,11.838 215.030998,11.7376677 215.353,11.537 C215.675002,11.3363323 215.933999,11.0633351 216.13,10.718 L217.432,11.334 C217.095998,11.9220029 216.657336,12.3839983 216.116,12.72 C215.574664,13.0560017 214.926004,13.224 214.17,13.224 Z M216.004,8.59 C215.985333,8.33799874 215.906001,8.08833457 215.766,7.841 C215.626,7.59366543 215.413668,7.38600084 215.129,7.218 C214.844332,7.04999916 214.496669,6.966 214.086,6.966 C213.591331,6.966 213.173668,7.11299853 212.833,7.407 C212.492332,7.70100147 212.256667,8.09533086 212.126,8.59 L216.004,8.59 Z M219.854,4.824 C219.564665,4.824 219.319668,4.72366767 219.119,4.523 C218.918332,4.32233233 218.818,4.07733478 218.818,3.788 C218.818,3.49866522 218.918332,3.25366767 219.119,3.053 C219.319668,2.85233233 219.564665,2.752 219.854,2.752 C220.143335,2.752 220.388332,2.85233233 220.589,3.053 C220.789668,3.25366767 220.89,3.49866522 220.89,3.788 C220.89,4.07733478 220.789668,4.32233233 220.589,4.523 C220.388332,4.72366767 220.143335,4.824 219.854,4.824 Z M219.084,5.86 L220.624,5.86 L220.624,13 L219.084,13 L219.084,5.86 Z M225.846,13.224 C225.136663,13.224 224.499669,13.0606683 223.935,12.734 C223.370331,12.4073317 222.931668,11.9570029 222.619,11.383 C222.306332,10.8089971 222.15,10.1580036 222.15,9.43 C222.15,8.70199636 222.306332,8.05100287 222.619,7.477 C222.931668,6.90299713 223.370331,6.4526683 223.935,6.126 C224.499669,5.7993317 225.136663,5.636 225.846,5.636 C226.630004,5.636 227.297331,5.81333156 227.848,6.168 C228.398669,6.52266844 228.790665,7.0033303 229.024,7.61 L227.61,8.198 C227.292665,7.44199622 226.690671,7.064 225.804,7.064 C225.421331,7.064 225.069002,7.16199902 224.747,7.358 C224.424998,7.55400098 224.168334,7.83166487 223.977,8.191 C223.785666,8.55033513 223.69,8.963331 223.69,9.43 C223.69,9.896669 223.785666,10.3119982 223.977,10.676 C224.168334,11.0400018 224.424998,11.319999 224.747,11.516 C225.069002,11.712001 225.421331,11.81 225.804,11.81 C226.252002,11.81 226.636998,11.7096677 226.959,11.509 C227.281002,11.3083323 227.525999,11.0213352 227.694,10.648 L229.08,11.25 C228.809332,11.8566697 228.398669,12.3373316 227.848,12.692 C227.297331,13.0466684 226.630004,13.224 225.846,13.224 Z M230.396,2.976 L231.936,2.976 L231.936,5.706 L231.866,6.798 L231.936,6.798 C232.141334,6.46199832 232.446998,6.18433443 232.853,5.965 C233.259002,5.74566557 233.695331,5.636 234.162,5.636 C235.030004,5.636 235.692664,5.89033079 236.15,6.399 C236.607336,6.90766921 236.836,7.60066228 236.836,8.478 L236.836,13 L235.296,13 L235.296,8.688 C235.296,8.14666396 235.153668,7.74066802 234.869,7.47 C234.584332,7.19933198 234.213336,7.064 233.756,7.064 C233.410665,7.064 233.100335,7.16199902 232.825,7.358 C232.549665,7.55400098 232.332667,7.81299839 232.174,8.135 C232.015333,8.45700161 231.936,8.79999818 231.936,9.164 L231.936,13 L230.396,13 L230.396,2.976 Z M241.848,13.224 C241.147997,13.224 240.520336,13.0606683 239.965,12.734 C239.409664,12.4073317 238.975668,11.9570029 238.663,11.383 C238.350332,10.8089971 238.194,10.1626703 238.194,9.444 C238.194,8.76266326 238.345665,8.13033625 238.649,7.547 C238.952335,6.96366375 239.374664,6.49933506 239.916,6.154 C240.457336,5.80866494 241.07333,5.636 241.764,5.636 C242.48267,5.636 243.105664,5.79466508 243.633,6.112 C244.160336,6.42933492 244.561665,6.86333058 244.837,7.414 C245.112335,7.96466942 245.25,8.58532988 245.25,9.276 C245.25,9.40666732 245.236,9.56999902 245.208,9.766 L239.734,9.766 C239.79,10.42867 240.025665,10.9396649 240.441,11.299 C240.856335,11.6583351 241.339331,11.838 241.89,11.838 C242.328669,11.838 242.708998,11.7376677 243.031,11.537 C243.353002,11.3363323 243.611999,11.0633351 243.808,10.718 L245.11,11.334 C244.773998,11.9220029 244.335336,12.3839983 243.794,12.72 C243.252664,13.0560017 242.604004,13.224 241.848,13.224 Z M243.682,8.59 C243.663333,8.33799874 243.584001,8.08833457 243.444,7.841 C243.304,7.59366543 243.091668,7.38600084 242.807,7.218 C242.522332,7.04999916 242.174669,6.966 241.764,6.966 C241.269331,6.966 240.851668,7.11299853 240.511,7.407 C240.170332,7.70100147 239.934667,8.09533086 239.804,8.59 L243.682,8.59 Z M246.65,5.86 L248.12,5.86 L248.12,6.91 L248.19,6.91 C248.348667,6.54599818 248.623998,6.24500119 249.016,6.007 C249.408002,5.76899881 249.823331,5.65 250.262,5.65 C250.607335,5.65 250.896666,5.6966662 251.13,5.79 L251.13,7.386 C250.719331,7.23666592 250.350668,7.162 250.024,7.162 C249.669332,7.162 249.354335,7.2553324 249.079,7.442 C248.803665,7.6286676 248.586667,7.87833177 248.428,8.191 C248.269333,8.50366823 248.19,8.8466648 248.19,9.22 L248.19,13 L246.65,13 L246.65,5.86 Z M252.306,5.86 L253.776,5.86 L253.776,6.798 L253.846,6.798 C254.051334,6.46199832 254.356998,6.18433443 254.763,5.965 C255.169002,5.74566557 255.600664,5.636 256.058,5.636 C256.926004,5.636 257.586331,5.89033079 258.039,6.399 C258.491669,6.90766921 258.718,7.60066228 258.718,8.478 L258.718,13 L257.178,13 L257.178,8.688 C257.178,8.1279972 257.040335,7.71733464 256.765,7.456 C256.489665,7.19466536 256.109336,7.064 255.624,7.064 C255.278665,7.064 254.970668,7.15966571 254.7,7.351 C254.429332,7.54233429 254.219334,7.79666508 254.07,8.114 C253.920666,8.43133492 253.846,8.77199818 253.846,9.136 L253.846,13 L252.306,13 L252.306,5.86 Z" id="AufdemSmarphonespeichern" fill="#3C4043" fill-rule="nonzero"></path>
                    <rect id="Rectangle-Copy" fill="#202124" opacity="0.100000001" x="46" y="0" width="1" height="16"></rect>
                    <g id="Gpay-logo-18px-h-Copy-4">
                        <g id="GPay" transform="translate(0.000000, 0.261474)">
                            <g id="Pay" transform="translate(17.615069, 0.825706)" fill="#5F6368">
                                <path d="M1.64941186,1.54761702 L1.64941186,5.63067176 L4.1674047,5.63067176 C4.76721599,5.63067176 5.26322816,5.42908551 5.65562807,5.02591302 C6.05830511,4.6236738 6.26011078,4.1439732 6.26011078,3.58867775 C6.26011078,3.04458155 6.05830511,2.57048056 5.65562807,2.16730807 C5.26322816,1.75386962 4.76721599,1.54668375 4.1674047,1.54668375 L1.64941186,1.54668375 L1.64941186,1.54761702 Z M1.64941186,7.06790702 L1.64941186,11.8042505 L0.145212207,11.8042505 L0.145212207,0.110381756 L4.13461128,0.110381756 C5.14840447,0.110381756 6.00888141,0.448225371 6.71791067,1.12297933 C7.43740394,1.79773329 7.79701042,2.61994385 7.79701042,3.58867775 C7.79701042,4.57981013 7.43731051,5.40762031 6.71791067,6.07117503 C6.01999941,6.73566302 5.15858818,7.06697375 4.13461128,7.06697375 L1.64941186,7.06697375 L1.64941186,7.06790702 Z" id="Fill-1"></path>
                                <path d="M9.31707424,9.35440834 C9.31707424,9.74638159 9.48337706,10.073026 9.81607612,10.3343415 C10.1485883,10.595657 10.5381854,10.7263147 10.9848673,10.7263147 C11.6172851,10.7263147 12.1806593,10.4919707 12.6767649,10.024496 C13.1729639,9.55599458 13.4204561,9.00629876 13.4204561,8.37540847 C12.9514448,8.00490042 12.297445,7.82011303 11.4584566,7.82011303 C10.8475273,7.82011303 10.3383417,7.96756963 9.93005895,8.26154958 C9.52168276,8.55543619 9.31707424,8.91857141 9.31707424,9.35440834 M11.2631909,3.5401384 C12.3749907,3.5401384 13.2522848,3.83691815 13.8961009,4.43047765 C14.5388893,5.02403715 14.8601901,5.83784829 14.8601901,6.87191106 L14.8601901,11.8042412 L13.4214839,11.8042412 L13.4214839,10.6936503 L13.3559904,10.6936503 C12.7346906,11.6081612 11.9059794,12.0655567 10.8708844,12.0655567 C9.98798466,12.0655567 9.24896483,11.8042412 8.65560011,11.2816102 C8.06148796,10.7589792 7.76438517,10.1056904 7.76438517,9.3217439 C7.76438517,8.49393372 8.07727739,7.83588529 8.70418295,7.34601205 C9.33108852,6.85604548 10.1673675,6.61059556 11.2137672,6.61059556 C12.1068507,6.61059556 12.8430677,6.77391775 13.4204561,7.10056213 L13.4204561,6.75711889 C13.4204561,6.23448789 13.2130448,5.7911848 12.7992497,5.42627637 C12.3843335,5.06136793 11.9003736,4.87938035 11.3444738,4.87938035 C10.5045511,4.87938035 9.84036755,5.23308955 9.34986766,5.94144122 L8.0249574,5.10803142 C8.75556866,4.06276941 9.83466841,3.5401384 11.2631909,3.5401384" id="Fill-3"></path>
                                <polygon id="Fill-5" points="23.1164897 3.8014539 18.0966672 15.3320005 16.5437912 15.3320005 18.4077842 11.2974758 15.1049916 3.8014539 16.7399912 3.8014539 19.1270906 9.55039497 19.1597906 9.55039497 21.4814901 3.8014539"></polygon>
                            </g>
                            <g id="G">
                                <path d="M13.1865148,6.87260706 C13.1865148,6.39943935 13.1463406,5.94307048 13.0706634,5.50630029 L6.72686492,5.50630029 L6.72686492,8.09425704 L10.3603012,8.09425704 C10.2042755,8.93783948 9.73246136,9.65561717 9.01679867,10.136251 L9.01679867,11.8170697 L11.1852753,11.8170697 C12.4549693,10.6467495 13.1865148,8.91740087 13.1865148,6.87260706" id="Fill-8" fill="#4285F4"></path>
                                <path d="M6.72685557,13.439083 C8.54217229,13.439083 10.0706634,12.843657 11.185266,11.8170603 L9.01678933,10.1362417 C8.4132409,10.542214 7.63591536,10.7792645 6.72685557,10.7792645 C4.97226741,10.7792645 3.48301633,9.59774511 2.9504736,8.00558709 L0.716596976,8.00558709 L0.716596976,9.73680229 C1.82372529,11.9318525 4.09871047,13.439083 6.72685557,13.439083" id="Fill-10" fill="#34A853"></path>
                                <path d="M2.95048294,8.00556842 C2.81407726,7.59959612 2.73933442,7.166559 2.73933442,6.71952284 C2.73933442,6.27248667 2.81407726,5.83944956 2.95048294,5.43347726 L2.95048294,3.70226205 L0.716606319,3.70226205 C0.258806425,4.60940015 9.34285496e-06,5.63413023 9.34285496e-06,6.71952284 C9.34285496e-06,7.80491544 0.258806425,8.82973885 0.716606319,9.73678363 L2.95048294,8.00556842 Z" id="Fill-12" fill="#FABB05"></path>
                                <path d="M6.72685557,2.65981851 C7.71813249,2.65981851 8.60663799,3.00046194 9.30735212,3.66774974 L9.30735212,3.66868301 L11.2273088,1.75081387 C10.0613205,0.666354532 8.54123801,0 6.72685557,0 C4.09871047,0 1.82372529,1.50723049 0.716596976,3.70228071 L2.9504736,5.43349592 C3.48301633,3.84133789 4.97226741,2.65981851 6.72685557,2.65981851" id="Fill-14" fill="#E94235"></path>
                            </g>
                        </g>
                    </g>
                </g>
            </g>
        </g>
    </g>
</svg>