<?xml version="1.0" encoding="UTF-8"?>
<svg width="288px" height="44px" viewBox="0 0 288 44" version="1.1" xmlns="http://www.w3.org/2000/svg" xmlns:xlink="http://www.w3.org/1999/xlink">
    <!-- Generator: Sketch 58 (84663) - https://sketch.com -->
    <title>Save to Google Pay - Japanese (Dark)</title>
    <desc>Created with Sketch.</desc>
    <defs>
        <path d="M4,0 L276,0 C278.209139,-4.05812251e-16 280,1.790861 280,4 L280,32 C280,34.209139 278.209139,36 276,36 L4,36 C1.790861,36 2.705415e-16,34.209139 0,32 L0,4 C-2.705415e-16,1.790861 1.790861,4.05812251e-16 4,0 Z" id="path-1"></path>
        <filter x="-2.3%" y="-15.3%" width="104.6%" height="136.1%" filterUnits="objectBoundingBox" id="filter-2">
            <feMorphology radius="0.5" operator="dilate" in="SourceAlpha" result="shadowSpreadOuter1"></feMorphology>
            <feOffset dx="0" dy="1" in="shadowSpreadOuter1" result="shadowOffsetOuter1"></feOffset>
            <feGaussianBlur stdDeviation="1.5" in="shadowOffsetOuter1" result="shadowBlurOuter1"></feGaussianBlur>
            <feColorMatrix values="0 0 0 0 0.235294118   0 0 0 0 0.250980392   0 0 0 0 0.262745098  0 0 0 0.15 0" type="matrix" in="shadowBlurOuter1" result="shadowMatrixOuter1"></feColorMatrix>
            <feOffset dx="0" dy="1" in="SourceAlpha" result="shadowOffsetOuter2"></feOffset>
            <feGaussianBlur stdDeviation="0.5" in="shadowOffsetOuter2" result="shadowBlurOuter2"></feGaussianBlur>
            <feColorMatrix values="0 0 0 0 0.235294118   0 0 0 0 0.250980392   0 0 0 0 0.262745098  0 0 0 0.3 0" type="matrix" in="shadowBlurOuter2" result="shadowMatrixOuter2"></feColorMatrix>
            <feMerge>
                <feMergeNode in="shadowMatrixOuter1"></feMergeNode>
                <feMergeNode in="shadowMatrixOuter2"></feMergeNode>
            </feMerge>
        </filter>
    </defs>
    <g id="Buttons-(Save-to-phone)" stroke="none" stroke-width="1" fill="none" fill-rule="evenodd">
        <g id="Language-Variations-Copy" transform="translate(-192.000000, -693.000000)">
            <g id="Save-to-Google-Pay---Japanese-(Dark)" transform="translate(196.000000, 696.000000)">
                <g id="bg-copy-10">
                    <use fill="black" fill-opacity="1" filter="url(#filter-2)" xlink:href="#path-1"></use>
                    <use fill="#000000" fill-rule="evenodd" xlink:href="#path-1"></use>
                </g>
                <g id="buttonContent" transform="translate(39.500000, 10.000000)">
                    <rect id="Rectangle" fill="#3C4043" x="50" y="0" width="1" height="16"></rect>
                    <g id="Gpay-logo-18px-h-Copy-9" transform="translate(0.000000, 1.000000)">
                        <g id="GPay" transform="translate(0.000000, 0.261474)">
                            <g id="Pay" transform="translate(17.615069, 0.825706)" fill="#FFFFFF">
                                <path d="M1.64941186,1.54761702 L1.64941186,5.63067176 L4.1674047,5.63067176 C4.76721599,5.63067176 5.26322816,5.42908551 5.65562807,5.02591302 C6.05830511,4.6236738 6.26011078,4.1439732 6.26011078,3.58867775 C6.26011078,3.04458155 6.05830511,2.57048056 5.65562807,2.16730807 C5.26322816,1.75386962 4.76721599,1.54668375 4.1674047,1.54668375 L1.64941186,1.54668375 L1.64941186,1.54761702 Z M1.64941186,7.06790702 L1.64941186,11.8042505 L0.145212207,11.8042505 L0.145212207,0.110381756 L4.13461128,0.110381756 C5.14840447,0.110381756 6.00888141,0.448225371 6.71791067,1.12297933 C7.43740394,1.79773329 7.79701042,2.61994385 7.79701042,3.58867775 C7.79701042,4.57981013 7.43731051,5.40762031 6.71791067,6.07117503 C6.01999941,6.73566302 5.15858818,7.06697375 4.13461128,7.06697375 L1.64941186,7.06697375 L1.64941186,7.06790702 Z" id="Fill-1"></path>
                                <path d="M9.31707424,9.35440834 C9.31707424,9.74638159 9.48337706,10.073026 9.81607612,10.3343415 C10.1485883,10.595657 10.5381854,10.7263147 10.9848673,10.7263147 C11.6172851,10.7263147 12.1806593,10.4919707 12.6767649,10.024496 C13.1729639,9.55599458 13.4204561,9.00629876 13.4204561,8.37540847 C12.9514448,8.00490042 12.297445,7.82011303 11.4584566,7.82011303 C10.8475273,7.82011303 10.3383417,7.96756963 9.93005895,8.26154958 C9.52168276,8.55543619 9.31707424,8.91857141 9.31707424,9.35440834 M11.2631909,3.5401384 C12.3749907,3.5401384 13.2522848,3.83691815 13.8961009,4.43047765 C14.5388893,5.02403715 14.8601901,5.83784829 14.8601901,6.87191106 L14.8601901,11.8042412 L13.4214839,11.8042412 L13.4214839,10.6936503 L13.3559904,10.6936503 C12.7346906,11.6081612 11.9059794,12.0655567 10.8708844,12.0655567 C9.98798466,12.0655567 9.24896483,11.8042412 8.65560011,11.2816102 C8.06148796,10.7589792 7.76438517,10.1056904 7.76438517,9.3217439 C7.76438517,8.49393372 8.07727739,7.83588529 8.70418295,7.34601205 C9.33108852,6.85604548 10.1673675,6.61059556 11.2137672,6.61059556 C12.1068507,6.61059556 12.8430677,6.77391775 13.4204561,7.10056213 L13.4204561,6.75711889 C13.4204561,6.23448789 13.2130448,5.7911848 12.7992497,5.42627637 C12.3843335,5.06136793 11.9003736,4.87938035 11.3444738,4.87938035 C10.5045511,4.87938035 9.84036755,5.23308955 9.34986766,5.94144122 L8.0249574,5.10803142 C8.75556866,4.06276941 9.83466841,3.5401384 11.2631909,3.5401384" id="Fill-3"></path>
                                <polygon id="Fill-5" points="23.1164897 3.8014539 18.0966672 15.3320005 16.5437912 15.3320005 18.4077842 11.2974758 15.1049916 3.8014539 16.7399912 3.8014539 19.1270906 9.55039497 19.1597906 9.55039497 21.4814901 3.8014539"></polygon>
                            </g>
                            <g id="G">
                                <path d="M13.1865148,6.87260706 C13.1865148,6.39943935 13.1463406,5.94307048 13.0706634,5.50630029 L6.72686492,5.50630029 L6.72686492,8.09425704 L10.3603012,8.09425704 C10.2042755,8.93783948 9.73246136,9.65561717 9.01679867,10.136251 L9.01679867,11.8170697 L11.1852753,11.8170697 C12.4549693,10.6467495 13.1865148,8.91740087 13.1865148,6.87260706" id="Fill-8" fill="#4285F4"></path>
                                <path d="M6.72685557,13.439083 C8.54217229,13.439083 10.0706634,12.843657 11.185266,11.8170603 L9.01678933,10.1362417 C8.4132409,10.542214 7.63591536,10.7792645 6.72685557,10.7792645 C4.97226741,10.7792645 3.48301633,9.59774511 2.9504736,8.00558709 L0.716596976,8.00558709 L0.716596976,9.73680229 C1.82372529,11.9318525 4.09871047,13.439083 6.72685557,13.439083" id="Fill-10" fill="#34A853"></path>
                                <path d="M2.95048294,8.00556842 C2.81407726,7.59959612 2.73933442,7.166559 2.73933442,6.71952284 C2.73933442,6.27248667 2.81407726,5.83944956 2.95048294,5.43347726 L2.95048294,3.70226205 L0.716606319,3.70226205 C0.258806425,4.60940015 9.34285496e-06,5.63413023 9.34285496e-06,6.71952284 C9.34285496e-06,7.80491544 0.258806425,8.82973885 0.716606319,9.73678363 L2.95048294,8.00556842 Z" id="Fill-12" fill="#FABB05"></path>
                                <path d="M6.72685557,2.65981851 C7.71813249,2.65981851 8.60663799,3.00046194 9.30735212,3.66774974 L9.30735212,3.66868301 L11.2273088,1.75081387 C10.0613205,0.666354532 8.54123801,0 6.72685557,0 C4.09871047,0 1.82372529,1.50723049 0.716596976,3.70228071 L2.9504736,5.43349592 C3.48301633,3.84133789 4.97226741,2.65981851 6.72685557,2.65981851" id="Fill-14" fill="#E94235"></path>
                            </g>
                        </g>
                    </g>
                    <path d="M66.864,9.514 C67.48,9.9284 68.11392,10.3876 68.758592,10.898768 L69.244,11.292 C70.336,12.174 71.204,12.972 71.848,13.686 L72.702,12.972 C72.03,12.216 71.12,11.39 69.986,10.48 C69.188,9.836 68.376,9.234 67.55,8.674 C68.586,7.288 69.496,5.636 70.266,3.732 L69.58,3.27 L61.964,3.27 L61.964,4.292 L68.81,4.292 C67.186,8.128 64.428,10.984 60.536,12.846 L61.208,13.742 C63.49,12.594 65.366,11.194 66.836,9.542 L66.864,9.514 Z M74.966,3.158 L74.966,4.166 L84.794,4.166 C84.234,5.076 83.562,6.028 82.75,7.036 C82.05,7.89 81.308,8.688 80.552,9.444 C79.46,8.506 78.382,7.694 77.318,7.008 L76.646,7.834 C77.696,8.52 78.886,9.444 80.202,10.62 C81.518,11.796 82.624,12.902 83.534,13.952 L84.388,13.238 C83.422,12.146 82.414,11.124 81.364,10.172 C82.204,9.346 83.086,8.366 83.996,7.232 C84.976,5.972 85.746,4.824 86.32,3.802 L85.704,3.158 L74.966,3.158 Z M89.606,7.428 L89.606,8.45 L100.008,8.45 L100.008,7.428 L89.606,7.428 Z M106.416,2.08 L106.416,13.868 L107.522,13.868 L107.522,7.582 C108.488,7.75 109.524,8.03 110.63,8.394 C111.638,8.73 112.59,9.108 113.458,9.528 L113.934,8.604 C112.982,8.142 111.96,7.736 110.868,7.386 C109.692,6.994 108.572,6.7 107.522,6.518 L107.522,2.08 L106.416,2.08 Z M117.57,3.452 L117.57,4.46 L126.544,4.46 C125.984,6.476 125.046,8.212 123.73,9.696 C122.498,11.068 120.972,12.16 119.152,13 L119.866,13.854 C121.966,12.902 123.688,11.572 125.046,9.836 C126.362,8.156 127.286,6.182 127.818,3.9 L127.23,3.452 L117.57,3.452 Z M138.188,4.782 L138.188,6.63 L133.344,6.63 L133.344,7.596 L137.838,7.596 C137.334,8.31 136.662,9.08 135.794,9.892 C134.898,10.718 133.988,11.418 133.078,11.992 L133.736,12.776 C134.576,12.244 135.458,11.558 136.368,10.69 L136.783425,10.2764106 C137.500923,9.54166864 137.974769,8.93569231 138.188,8.45 L138.188,12.118 C138.188,12.426 138.048,12.58 137.796,12.58 C137.418,12.58 136.956,12.538 136.396,12.468 L136.396,13.406 L137.717154,13.500003 C137.771471,13.5026116 137.816364,13.504 137.852,13.504 C138.72,13.504 139.168,13.07 139.168,12.23 L139.168,7.596 L141.562,7.596 L141.562,6.63 L139.168,6.63 L139.168,4.782 L138.188,4.782 Z M146.542,2.724 L146.01,3.662 C147.13,4.25 148.446,5.118 149.986,6.252 L150.686,5.412 C149.09,4.222 147.704,3.326 146.542,2.724 Z M155.992,4.992 C155.124,6.952 153.906,8.618 152.366,9.962 C150.742,11.362 148.852,12.328 146.696,12.86 L147.2,13.84 C149.552,13.238 151.582,12.188 153.262,10.704 C154.83,9.304 156.076,7.526 157,5.398 L155.992,4.992 Z M170.772,3.746 C168.448,3.746 166.152,3.83 163.87,3.998 L164.038,5.006 C166.11,4.852 168.336,4.782 170.73,4.782 L170.772,3.746 Z M164.556,8.184 C163.968,9.192 163.688,10.032 163.688,10.704 C163.688,11.558 164.08,12.174 164.864,12.552 C165.54,12.89 166.590214,13.0710714 168.003434,13.0952143 L168.336,13.098 C169.036,13.098 170.016,13.042 171.29,12.944 L171.234,11.894 C170.142,12.006 169.176,12.076 168.336,12.076 C167.146,12.076 166.264,11.964 165.704,11.754 C165.088,11.516 164.78,11.152 164.78,10.662 C164.78,10.144 165.032,9.486 165.536,8.688 L164.556,8.184 Z M161.406,2.22 C160.86,4.32 160.594,6.42 160.594,8.492 C160.594,10.466 160.888,12.202 161.476,13.686 L162.47,13.308 C161.924,11.95 161.658,10.34 161.658,8.492 C161.658,6.476 161.91,4.474 162.442,2.472 L161.406,2.22 Z M176.312,1.478 C175.654,3.662 174.59,5.608 173.134,7.288 L173.47,8.366 C174.016,7.778 174.52,7.148 174.996,6.49 L174.996,14.428 L176.018,14.428 L176.018,4.838 C176.508,3.914 176.928,2.948 177.264,1.912 L176.312,1.478 Z M178.09,2.192 L178.09,6.602 L180.876,6.602 L180.876,8.128 L176.984,8.128 L176.984,9.108 L179.882,9.108 C179.042,10.62 177.95,11.824 176.606,12.748 L177.18,13.658 C178.594,12.566 179.77,11.054 180.708,9.108 L180.876,9.108 L180.876,14.4 L181.884,14.4 L181.884,9.108 L182.052,9.108 C182.962,10.914 184.11,12.426 185.51,13.644 L186.154,12.762 C184.768,11.726 183.676,10.508 182.878,9.108 L185.916,9.108 L185.916,8.128 L181.884,8.128 L181.884,6.602 L184.698,6.602 L184.698,2.192 L178.09,2.192 Z M183.704,5.636 L179.084,5.636 L179.084,3.158 L183.704,3.158 L183.704,5.636 Z M187.928,2.99 L187.928,3.97 L191.33,3.97 C190.42,5.944 189.118,7.68 187.41,9.178 L188.04,9.976 C188.572,9.5 189.062,9.01 189.538,8.492 L189.538,14.414 L190.518,14.414 L190.518,7.288 C191.274,6.28 191.918,5.174 192.436,3.97 L199.982,3.97 L199.982,2.99 L192.814,2.99 C192.968,2.542 193.108,2.094 193.248,1.632 L192.226,1.506 C192.086,2.01 191.918,2.5 191.736,2.99 L187.928,2.99 Z M191.61,9.5 L195.67,9.5 L195.67,8.198 C196.468,7.75 197.224,7.232 197.952,6.616 L192.688,6.616 L192.688,5.678 L199.24,5.678 L199.24,6.616 C198.484,7.316 197.63,7.988 196.678,8.618 L196.678,9.5 L200.178,9.5 L200.178,10.466 L196.678,10.466 L196.678,13.112 C196.678,13.938 196.258,14.358 195.432,14.358 L193.682,14.358 L193.416,13.406 L194.19475,13.42525 C194.4625,13.4305 194.739,13.434 195.026,13.434 C195.446,13.434 195.67,13.21 195.67,12.79 L195.67,10.466 L191.61,10.466 L191.61,9.5 Z" id="スマートフォンに保存" fill="#FFFFFF" fill-rule="nonzero"></path>
                </g>
            </g>
        </g>
    </g>
</svg>