<?xml version="1.0" encoding="UTF-8"?>
<svg width="288px" height="44px" viewBox="0 0 288 44" version="1.1" xmlns="http://www.w3.org/2000/svg" xmlns:xlink="http://www.w3.org/1999/xlink">
    <!-- Generator: Sketch 58 (84663) - https://sketch.com -->
    <title>Save to Google Pay - Danish (Light)</title>
    <desc>Created with Sketch.</desc>
    <defs>
        <path d="M4,0 L276,0 C278.209139,-4.05812251e-16 280,1.790861 280,4 L280,32 C280,34.209139 278.209139,36 276,36 L4,36 C1.790861,36 2.705415e-16,34.209139 0,32 L0,4 C-2.705415e-16,1.790861 1.790861,4.05812251e-16 4,0 Z" id="path-1"></path>
        <filter x="-2.3%" y="-15.3%" width="104.6%" height="136.1%" filterUnits="objectBoundingBox" id="filter-2">
            <feMorphology radius="0.5" operator="dilate" in="SourceAlpha" result="shadowSpreadOuter1"></feMorphology>
            <feOffset dx="0" dy="1" in="shadowSpreadOuter1" result="shadowOffsetOuter1"></feOffset>
            <feGaussianBlur stdDeviation="1.5" in="shadowOffsetOuter1" result="shadowBlurOuter1"></feGaussianBlur>
            <feColorMatrix values="0 0 0 0 0.235294118   0 0 0 0 0.250980392   0 0 0 0 0.262745098  0 0 0 0.15 0" type="matrix" in="shadowBlurOuter1" result="shadowMatrixOuter1"></feColorMatrix>
            <feOffset dx="0" dy="1" in="SourceAlpha" result="shadowOffsetOuter2"></feOffset>
            <feGaussianBlur stdDeviation="0.5" in="shadowOffsetOuter2" result="shadowBlurOuter2"></feGaussianBlur>
            <feColorMatrix values="0 0 0 0 0.235294118   0 0 0 0 0.250980392   0 0 0 0 0.262745098  0 0 0 0.3 0" type="matrix" in="shadowBlurOuter2" result="shadowMatrixOuter2"></feColorMatrix>
            <feMerge>
                <feMergeNode in="shadowMatrixOuter1"></feMergeNode>
                <feMergeNode in="shadowMatrixOuter2"></feMergeNode>
            </feMerge>
        </filter>
    </defs>
    <g id="Buttons-(Save-to-phone)" stroke="none" stroke-width="1" fill="none" fill-rule="evenodd">
        <g id="Language-Variations---Flattened" transform="translate(-192.000000, -595.000000)">
            <g id="Save-to-Google-Pay---Danish-(Light)" transform="translate(196.000000, 598.000000)">
                <g id="bg">
                    <use fill="black" fill-opacity="1" filter="url(#filter-2)" xlink:href="#path-1"></use>
                    <use fill="#FFFFFF" fill-rule="evenodd" xlink:href="#path-1"></use>
                </g>
                <g id="buttonContent" transform="translate(50.000000, 10.000000)">
                    <path d="M65.394,13.224 C64.4419952,13.224 63.5646707,12.9953356 62.762,12.538 C61.9593293,12.0806644 61.3223357,11.453004 60.851,10.655 C60.3796643,9.85699601 60.144,8.9680049 60.144,7.988 C60.144,7.0079951 60.3796643,6.11900399 60.851,5.321 C61.3223357,4.52299601 61.9593293,3.89533562 62.762,3.438 C63.5646707,2.98066438 64.4419952,2.752 65.394,2.752 C66.1500038,2.752 66.8546634,2.88733198 67.508,3.158 C68.1613366,3.42866802 68.7073311,3.80666424 69.146,4.292 L68.054,5.384 C67.7273317,5.01999818 67.3376689,4.74000098 66.885,4.544 C66.4323311,4.34799902 65.9306694,4.25 65.38,4.25 C64.7359968,4.25 64.1340028,4.40399846 63.574,4.712 C63.0139972,5.02000154 62.5660017,5.45866382 62.23,6.028 C61.8939983,6.59733618 61.726,7.25066298 61.726,7.988 C61.726,8.72533702 61.8939983,9.37866382 62.23,9.948 C62.5660017,10.5173362 63.0139972,10.9559985 63.574,11.264 C64.1340028,11.5720015 64.7406634,11.726 65.394,11.726 C65.9913363,11.726 66.4906647,11.6373342 66.892,11.46 C67.2933353,11.2826658 67.6526651,11.0446682 67.97,10.746 C68.1753344,10.5406656 68.3503326,10.2840015 68.495,9.976 C68.6396674,9.66799846 68.7353331,9.33200182 68.782,8.968 L65.38,8.968 L65.38,7.568 L70.266,7.568 C70.3126669,7.82933464 70.336,8.0999986 70.336,8.38 C70.336,9.01466984 70.238001,9.62366375 70.042,10.207 C69.845999,10.7903362 69.5333355,11.2966645 69.104,11.726 C68.1613286,12.7246717 66.9246743,13.224 65.394,13.224 Z M75.232,13.224 C74.5319965,13.224 73.9043361,13.0606683 73.349,12.734 C72.7936639,12.4073317 72.3596682,11.9570029 72.047,11.383 C71.7343318,10.8089971 71.578,10.1626703 71.578,9.444 C71.578,8.76266326 71.7296652,8.13033625 72.033,7.547 C72.3363349,6.96366375 72.758664,6.49933506 73.3,6.154 C73.841336,5.80866494 74.4573299,5.636 75.148,5.636 C75.8666703,5.636 76.489664,5.79466508 77.017,6.112 C77.544336,6.42933492 77.9456653,6.86333058 78.221,7.414 C78.4963347,7.96466942 78.634,8.58532988 78.634,9.276 C78.634,9.40666732 78.6200001,9.56999902 78.592,9.766 L73.118,9.766 C73.1740003,10.42867 73.4096646,10.9396649 73.825,11.299 C74.2403354,11.6583351 74.7233306,11.838 75.274,11.838 C75.7126689,11.838 76.0929984,11.7376677 76.415,11.537 C76.7370016,11.3363323 76.995999,11.0633351 77.192,10.718 L78.494,11.334 C78.1579983,11.9220029 77.719336,12.3839983 77.178,12.72 C76.636664,13.0560017 75.9880038,13.224 75.232,13.224 Z M77.066,8.59 C77.0473332,8.33799874 76.9680007,8.08833457 76.828,7.841 C76.688,7.59366543 76.4756681,7.38600084 76.191,7.218 C75.9063319,7.04999916 75.5586687,6.966 75.148,6.966 C74.6533309,6.966 74.2356684,7.11299853 73.895,7.407 C73.5543316,7.70100147 73.3186673,8.09533086 73.188,8.59 L77.066,8.59 Z M80.184,5.86 L81.654,5.86 L81.654,6.798 L81.724,6.798 C81.9386678,6.45266494 82.2419981,6.17266774 82.634,5.958 C83.026002,5.74333226 83.4459978,5.636 83.894,5.636 C84.4073359,5.636 84.8553314,5.75499881 85.238,5.993 C85.6206686,6.23100119 85.8959992,6.54599804 86.064,6.938 C86.3066679,6.54599804 86.630998,6.23100119 87.037,5.993 C87.443002,5.75499881 87.9213306,5.636 88.472,5.636 C89.2933375,5.636 89.9163312,5.88566417 90.341,6.385 C90.7656688,6.88433583 90.978,7.56332904 90.978,8.422 L90.978,13 L89.438,13 L89.438,8.688 C89.438,7.60532792 88.9760046,7.064 88.052,7.064 C87.5573309,7.064 87.1513349,7.26466466 86.834,7.666 C86.5166651,8.06733534 86.358,8.56199706 86.358,9.15 L86.358,13 L84.818,13 L84.818,8.688 C84.818,7.60532792 84.3420048,7.064 83.39,7.064 C82.9046643,7.064 82.5056682,7.26466466 82.193,7.666 C81.8803318,8.06733534 81.724,8.56199706 81.724,9.15 L81.724,13 L80.184,13 L80.184,5.86 Z M96.248,5.86 L97.718,5.86 L97.718,6.798 L97.788,6.798 C97.9933344,6.4713317 98.2966647,6.19600112 98.698,5.972 C99.0993354,5.74799888 99.5519975,5.636 100.056,5.636 C100.700003,5.636 101.283331,5.7993317 101.806,6.126 C102.328669,6.4526683 102.741665,6.90299713 103.045,7.477 C103.348335,8.05100287 103.5,8.70199636 103.5,9.43 C103.5,10.1580036 103.348335,10.8089971 103.045,11.383 C102.741665,11.9570029 102.328669,12.4073317 101.806,12.734 C101.283331,13.0606683 100.700003,13.224 100.056,13.224 C99.5519975,13.224 99.0993354,13.1120011 98.698,12.888 C98.2966647,12.6639989 97.9933344,12.3933349 97.788,12.076 L97.718,12.076 L97.788,13.07 L97.788,16.024 L96.248,16.024 L96.248,5.86 Z M99.832,11.81 C100.205335,11.81 100.555332,11.712001 100.882,11.516 C101.208668,11.319999 101.469999,11.0400018 101.666,10.676 C101.862001,10.3119982 101.96,9.896669 101.96,9.43 C101.96,8.963331 101.862001,8.55033513 101.666,8.191 C101.469999,7.83166487 101.208668,7.55400098 100.882,7.358 C100.555332,7.16199902 100.205335,7.064 99.832,7.064 C99.4586648,7.064 99.1110016,7.16199902 98.789,7.358 C98.4669984,7.55400098 98.208001,7.83166487 98.012,8.191 C97.815999,8.55033513 97.718,8.963331 97.718,9.43 C97.718,9.896669 97.815999,10.3119982 98.012,10.676 C98.208001,11.0400018 98.4669984,11.319999 98.789,11.516 C99.1110016,11.712001 99.4586648,11.81 99.832,11.81 Z M107.29,13.224 C106.776664,13.224 106.319335,13.1236677 105.918,12.923 C105.516665,12.7223323 105.204001,12.4376685 104.98,12.069 C104.755999,11.7003315 104.644,11.282669 104.644,10.816 C104.644,10.078663 104.921664,9.49533548 105.477,9.066 C106.032336,8.63666452 106.734662,8.422 107.584,8.422 C108.004002,8.422 108.381998,8.46166627 108.718,8.541 C109.054002,8.62033373 109.319999,8.7066662 109.516,8.8 L109.516,8.436 C109.516,7.99733114 109.352668,7.64033471 109.026,7.365 C108.699332,7.08966529 108.279336,6.952 107.766,6.952 C107.401998,6.952 107.059002,7.03133254 106.737,7.19 C106.414998,7.34866746 106.156001,7.5679986 105.96,7.848 L104.882,7.022 C105.199335,6.58333114 105.609998,6.24266788 106.114,6 C106.618003,5.75733212 107.177997,5.636 107.794,5.636 C108.830005,5.636 109.627997,5.89033079 110.188,6.399 C110.748003,6.90766921 111.028,7.62399538 111.028,8.548 L111.028,13 L109.516,13 L109.516,12.146 L109.446,12.146 C109.240666,12.4540015 108.951335,12.7106656 108.578,12.916 C108.204665,13.1213344 107.775336,13.224 107.29,13.224 Z M107.556,11.95 C107.929335,11.95 108.265332,11.8613342 108.564,11.684 C108.862668,11.5066658 109.095999,11.2686682 109.264,10.97 C109.432001,10.6713318 109.516,10.3493351 109.516,10.004 C109.301332,9.88266606 109.051668,9.78466704 108.767,9.71 C108.482332,9.63533296 108.186002,9.598 107.878,9.598 C107.29933,9.598 106.874668,9.71233219 106.604,9.941 C106.333332,10.1696678 106.198,10.4659982 106.198,10.83 C106.198,11.1566683 106.323999,11.4249989 106.576,11.635 C106.828001,11.845001 107.154665,11.95 107.556,11.95 Z M107.906,4.796 C107.495331,4.796 107.145335,4.65133478 106.856,4.362 C106.566665,4.07266522 106.422,3.72266872 106.422,3.312 C106.422,2.90133128 106.566665,2.55366809 106.856,2.269 C107.145335,1.98433191 107.495331,1.842 107.906,1.842 C108.316669,1.842 108.666665,1.98433191 108.956,2.269 C109.245335,2.55366809 109.39,2.90133128 109.39,3.312 C109.39,3.72266872 109.245335,4.07266522 108.956,4.362 C108.666665,4.65133478 108.316669,4.796 107.906,4.796 Z M107.906,3.886 C108.055334,3.886 108.185999,3.82766725 108.298,3.711 C108.410001,3.59433275 108.466,3.46133408 108.466,3.312 C108.466,3.16266592 108.410001,3.03433387 108.298,2.927 C108.185999,2.81966613 108.055334,2.766 107.906,2.766 C107.756666,2.766 107.626001,2.81966613 107.514,2.927 C107.401999,3.03433387 107.346,3.16266592 107.346,3.312 C107.346,3.47066746 107.401999,3.60599944 107.514,3.718 C107.626001,3.83000056 107.756666,3.886 107.906,3.886 Z M119.21,13.112 C118.892665,13.112 118.594001,13.0606672 118.314,12.958 C118.033999,12.8553328 117.805334,12.7200008 117.628,12.552 C117.226665,12.1506647 117.026,11.6046701 117.026,10.914 L117.026,7.218 L115.78,7.218 L115.78,5.86 L117.026,5.86 L117.026,3.844 L118.566,3.844 L118.566,5.86 L120.302,5.86 L120.302,7.218 L118.566,7.218 L118.566,10.578 C118.566,10.9606686 118.640666,11.2313325 118.79,11.39 C118.930001,11.5766676 119.172665,11.67 119.518,11.67 C119.676668,11.67 119.816666,11.6490002 119.938,11.607 C120.059334,11.5649998 120.189999,11.4973338 120.33,11.404 L120.33,12.902 C120.021999,13.0420007 119.648669,13.112 119.21,13.112 Z M124.904,13.224 C124.203997,13.224 123.576336,13.0606683 123.021,12.734 C122.465664,12.4073317 122.031668,11.9570029 121.719,11.383 C121.406332,10.8089971 121.25,10.1626703 121.25,9.444 C121.25,8.76266326 121.401665,8.13033625 121.705,7.547 C122.008335,6.96366375 122.430664,6.49933506 122.972,6.154 C123.513336,5.80866494 124.12933,5.636 124.82,5.636 C125.53867,5.636 126.161664,5.79466508 126.689,6.112 C127.216336,6.42933492 127.617665,6.86333058 127.893,7.414 C128.168335,7.96466942 128.306,8.58532988 128.306,9.276 C128.306,9.40666732 128.292,9.56999902 128.264,9.766 L122.79,9.766 C122.846,10.42867 123.081665,10.9396649 123.497,11.299 C123.912335,11.6583351 124.395331,11.838 124.946,11.838 C125.384669,11.838 125.764998,11.7376677 126.087,11.537 C126.409002,11.3363323 126.667999,11.0633351 126.864,10.718 L128.166,11.334 C127.829998,11.9220029 127.391336,12.3839983 126.85,12.72 C126.308664,13.0560017 125.660004,13.224 124.904,13.224 Z M126.738,8.59 C126.719333,8.33799874 126.640001,8.08833457 126.5,7.841 C126.36,7.59366543 126.147668,7.38600084 125.863,7.218 C125.578332,7.04999916 125.230669,6.966 124.82,6.966 C124.325331,6.966 123.907668,7.11299853 123.567,7.407 C123.226332,7.70100147 122.990667,8.09533086 122.86,8.59 L126.738,8.59 Z M129.856,2.976 L131.396,2.976 L131.396,13 L129.856,13 L129.856,2.976 Z M136.544,13.224 C135.843997,13.224 135.216336,13.0606683 134.661,12.734 C134.105664,12.4073317 133.671668,11.9570029 133.359,11.383 C133.046332,10.8089971 132.89,10.1626703 132.89,9.444 C132.89,8.76266326 133.041665,8.13033625 133.345,7.547 C133.648335,6.96366375 134.070664,6.49933506 134.612,6.154 C135.153336,5.80866494 135.76933,5.636 136.46,5.636 C137.17867,5.636 137.801664,5.79466508 138.329,6.112 C138.856336,6.42933492 139.257665,6.86333058 139.533,7.414 C139.808335,7.96466942 139.946,8.58532988 139.946,9.276 C139.946,9.40666732 139.932,9.56999902 139.904,9.766 L134.43,9.766 C134.486,10.42867 134.721665,10.9396649 135.137,11.299 C135.552335,11.6583351 136.035331,11.838 136.586,11.838 C137.024669,11.838 137.404998,11.7376677 137.727,11.537 C138.049002,11.3363323 138.307999,11.0633351 138.504,10.718 L139.806,11.334 C139.469998,11.9220029 139.031336,12.3839983 138.49,12.72 C137.948664,13.0560017 137.300004,13.224 136.544,13.224 Z M138.378,8.59 C138.359333,8.33799874 138.280001,8.08833457 138.14,7.841 C138,7.59366543 137.787668,7.38600084 137.503,7.218 C137.218332,7.04999916 136.870669,6.966 136.46,6.966 C135.965331,6.966 135.547668,7.11299853 135.207,7.407 C134.866332,7.70100147 134.630667,8.09533086 134.5,8.59 L138.378,8.59 Z M142.154,7.218 L140.852,7.218 L140.852,5.86 L142.154,5.86 L142.154,5.3 C142.154,4.5533296 142.387331,3.96066886 142.854,3.522 C143.320669,3.08333114 143.917996,2.864 144.646,2.864 C145.066002,2.864 145.429999,2.91533282 145.738,3.018 L145.738,4.53 C145.569999,4.46466634 145.413667,4.41100021 145.269,4.369 C145.124333,4.32699979 144.958668,4.306 144.772,4.306 C144.463999,4.306 144.207334,4.40399902 144.002,4.6 C143.796666,4.79600098 143.694,5.06666494 143.694,5.412 L143.694,5.86 L145.486,5.86 L145.486,7.218 L143.694,7.218 L143.694,13 L142.154,13 L142.154,7.218 Z M150.004,13.224 C149.28533,13.224 148.641336,13.058335 148.072,12.727 C147.502664,12.395665 147.059335,11.9406696 146.742,11.362 C146.424665,10.7833304 146.266,10.1393369 146.266,9.43 C146.266,8.72066312 146.424665,8.07666956 146.742,7.498 C147.059335,6.91933044 147.502664,6.46433499 148.072,6.133 C148.641336,5.80166501 149.28533,5.636 150.004,5.636 C150.72267,5.636 151.366664,5.80399832 151.936,6.14 C152.505336,6.47600168 152.948665,6.93333044 153.266,7.512 C153.583335,8.09066956 153.742,8.7299965 153.742,9.43 C153.742,10.1393369 153.583335,10.7833304 153.266,11.362 C152.948665,11.9406696 152.505336,12.395665 151.936,12.727 C151.366664,13.058335 150.72267,13.224 150.004,13.224 Z M150.004,11.81 C150.396002,11.81 150.759998,11.7143343 151.096,11.523 C151.432002,11.3316657 151.700332,11.0563351 151.901,10.697 C152.101668,10.3376649 152.202,9.91533576 152.202,9.43 C152.202,8.94466424 152.101668,8.52466844 151.901,8.17 C151.700332,7.81533156 151.432002,7.54233429 151.096,7.351 C150.759998,7.15966571 150.396002,7.064 150.004,7.064 C149.611998,7.064 149.248002,7.15966571 148.912,7.351 C148.575998,7.54233429 148.307668,7.81533156 148.107,8.17 C147.906332,8.52466844 147.806,8.94466424 147.806,9.43 C147.806,9.91533576 147.906332,10.3376649 148.107,10.697 C148.307668,11.0563351 148.575998,11.3316657 148.912,11.523 C149.248002,11.7143343 149.611998,11.81 150.004,11.81 Z M155.166,5.86 L156.636,5.86 L156.636,6.798 L156.706,6.798 C156.911334,6.46199832 157.216998,6.18433443 157.623,5.965 C158.029002,5.74566557 158.460664,5.636 158.918,5.636 C159.786004,5.636 160.446331,5.89033079 160.899,6.399 C161.351669,6.90766921 161.578,7.60066228 161.578,8.478 L161.578,13 L160.038,13 L160.038,8.688 C160.038,8.1279972 159.900335,7.71733464 159.625,7.456 C159.349665,7.19466536 158.969336,7.064 158.484,7.064 C158.138665,7.064 157.830668,7.15966571 157.56,7.351 C157.289332,7.54233429 157.079334,7.79666508 156.93,8.114 C156.780666,8.43133492 156.706,8.77199818 156.706,9.136 L156.706,13 L155.166,13 L155.166,5.86 Z M166.726,13.224 C166.025997,13.224 165.398336,13.0606683 164.843,12.734 C164.287664,12.4073317 163.853668,11.9570029 163.541,11.383 C163.228332,10.8089971 163.072,10.1626703 163.072,9.444 C163.072,8.76266326 163.223665,8.13033625 163.527,7.547 C163.830335,6.96366375 164.252664,6.49933506 164.794,6.154 C165.335336,5.80866494 165.95133,5.636 166.642,5.636 C167.36067,5.636 167.983664,5.79466508 168.511,6.112 C169.038336,6.42933492 169.439665,6.86333058 169.715,7.414 C169.990335,7.96466942 170.128,8.58532988 170.128,9.276 C170.128,9.40666732 170.114,9.56999902 170.086,9.766 L164.612,9.766 C164.668,10.42867 164.903665,10.9396649 165.319,11.299 C165.734335,11.6583351 166.217331,11.838 166.768,11.838 C167.206669,11.838 167.586998,11.7376677 167.909,11.537 C168.231002,11.3363323 168.489999,11.0633351 168.686,10.718 L169.988,11.334 C169.651998,11.9220029 169.213336,12.3839983 168.672,12.72 C168.130664,13.0560017 167.482004,13.224 166.726,13.224 Z M168.56,8.59 C168.541333,8.33799874 168.462001,8.08833457 168.322,7.841 C168.182,7.59366543 167.969668,7.38600084 167.685,7.218 C167.400332,7.04999916 167.052669,6.966 166.642,6.966 C166.147331,6.966 165.729668,7.11299853 165.389,7.407 C165.048332,7.70100147 164.812667,8.09533086 164.682,8.59 L168.56,8.59 Z M171.678,5.86 L173.148,5.86 L173.148,6.798 L173.218,6.798 C173.423334,6.46199832 173.728998,6.18433443 174.135,5.965 C174.541002,5.74566557 174.972664,5.636 175.43,5.636 C176.298004,5.636 176.958331,5.89033079 177.411,6.399 C177.863669,6.90766921 178.09,7.60066228 178.09,8.478 L178.09,13 L176.55,13 L176.55,8.688 C176.55,8.1279972 176.412335,7.71733464 176.137,7.456 C175.861665,7.19466536 175.481336,7.064 174.996,7.064 C174.650665,7.064 174.342668,7.15966571 174.072,7.351 C173.801332,7.54233429 173.591334,7.79666508 173.442,8.114 C173.292666,8.43133492 173.218,8.77199818 173.218,9.136 L173.218,13 L171.678,13 L171.678,5.86 Z" id="Gempåtelefonen" fill="#3C4043" fill-rule="nonzero"></path>
                    <rect id="Rectangle" fill="#202124" opacity="0.100000001" x="50" y="0" width="1" height="16"></rect>
                    <g id="Gpay-logo-18px-h">
                        <g id="GPay" transform="translate(0.000000, 0.261474)">
                            <g id="Pay" transform="translate(17.615069, 0.825706)" fill="#5F6368">
                                <path d="M1.64941186,1.54761702 L1.64941186,5.63067176 L4.1674047,5.63067176 C4.76721599,5.63067176 5.26322816,5.42908551 5.65562807,5.02591302 C6.05830511,4.6236738 6.26011078,4.1439732 6.26011078,3.58867775 C6.26011078,3.04458155 6.05830511,2.57048056 5.65562807,2.16730807 C5.26322816,1.75386962 4.76721599,1.54668375 4.1674047,1.54668375 L1.64941186,1.54668375 L1.64941186,1.54761702 Z M1.64941186,7.06790702 L1.64941186,11.8042505 L0.145212207,11.8042505 L0.145212207,0.110381756 L4.13461128,0.110381756 C5.14840447,0.110381756 6.00888141,0.448225371 6.71791067,1.12297933 C7.43740394,1.79773329 7.79701042,2.61994385 7.79701042,3.58867775 C7.79701042,4.57981013 7.43731051,5.40762031 6.71791067,6.07117503 C6.01999941,6.73566302 5.15858818,7.06697375 4.13461128,7.06697375 L1.64941186,7.06697375 L1.64941186,7.06790702 Z" id="Fill-1"></path>
                                <path d="M9.31707424,9.35440834 C9.31707424,9.74638159 9.48337706,10.073026 9.81607612,10.3343415 C10.1485883,10.595657 10.5381854,10.7263147 10.9848673,10.7263147 C11.6172851,10.7263147 12.1806593,10.4919707 12.6767649,10.024496 C13.1729639,9.55599458 13.4204561,9.00629876 13.4204561,8.37540847 C12.9514448,8.00490042 12.297445,7.82011303 11.4584566,7.82011303 C10.8475273,7.82011303 10.3383417,7.96756963 9.93005895,8.26154958 C9.52168276,8.55543619 9.31707424,8.91857141 9.31707424,9.35440834 M11.2631909,3.5401384 C12.3749907,3.5401384 13.2522848,3.83691815 13.8961009,4.43047765 C14.5388893,5.02403715 14.8601901,5.83784829 14.8601901,6.87191106 L14.8601901,11.8042412 L13.4214839,11.8042412 L13.4214839,10.6936503 L13.3559904,10.6936503 C12.7346906,11.6081612 11.9059794,12.0655567 10.8708844,12.0655567 C9.98798466,12.0655567 9.24896483,11.8042412 8.65560011,11.2816102 C8.06148796,10.7589792 7.76438517,10.1056904 7.76438517,9.3217439 C7.76438517,8.49393372 8.07727739,7.83588529 8.70418295,7.34601205 C9.33108852,6.85604548 10.1673675,6.61059556 11.2137672,6.61059556 C12.1068507,6.61059556 12.8430677,6.77391775 13.4204561,7.10056213 L13.4204561,6.75711889 C13.4204561,6.23448789 13.2130448,5.7911848 12.7992497,5.42627637 C12.3843335,5.06136793 11.9003736,4.87938035 11.3444738,4.87938035 C10.5045511,4.87938035 9.84036755,5.23308955 9.34986766,5.94144122 L8.0249574,5.10803142 C8.75556866,4.06276941 9.83466841,3.5401384 11.2631909,3.5401384" id="Fill-3"></path>
                                <polygon id="Fill-5" points="23.1164897 3.8014539 18.0966672 15.3320005 16.5437912 15.3320005 18.4077842 11.2974758 15.1049916 3.8014539 16.7399912 3.8014539 19.1270906 9.55039497 19.1597906 9.55039497 21.4814901 3.8014539"></polygon>
                            </g>
                            <g id="G">
                                <path d="M13.1865148,6.87260706 C13.1865148,6.39943935 13.1463406,5.94307048 13.0706634,5.50630029 L6.72686492,5.50630029 L6.72686492,8.09425704 L10.3603012,8.09425704 C10.2042755,8.93783948 9.73246136,9.65561717 9.01679867,10.136251 L9.01679867,11.8170697 L11.1852753,11.8170697 C12.4549693,10.6467495 13.1865148,8.91740087 13.1865148,6.87260706" id="Fill-8" fill="#4285F4"></path>
                                <path d="M6.72685557,13.439083 C8.54217229,13.439083 10.0706634,12.843657 11.185266,11.8170603 L9.01678933,10.1362417 C8.4132409,10.542214 7.63591536,10.7792645 6.72685557,10.7792645 C4.97226741,10.7792645 3.48301633,9.59774511 2.9504736,8.00558709 L0.716596976,8.00558709 L0.716596976,9.73680229 C1.82372529,11.9318525 4.09871047,13.439083 6.72685557,13.439083" id="Fill-10" fill="#34A853"></path>
                                <path d="M2.95048294,8.00556842 C2.81407726,7.59959612 2.73933442,7.166559 2.73933442,6.71952284 C2.73933442,6.27248667 2.81407726,5.83944956 2.95048294,5.43347726 L2.95048294,3.70226205 L0.716606319,3.70226205 C0.258806425,4.60940015 9.34285496e-06,5.63413023 9.34285496e-06,6.71952284 C9.34285496e-06,7.80491544 0.258806425,8.82973885 0.716606319,9.73678363 L2.95048294,8.00556842 Z" id="Fill-12" fill="#FABB05"></path>
                                <path d="M6.72685557,2.65981851 C7.71813249,2.65981851 8.60663799,3.00046194 9.30735212,3.66774974 L9.30735212,3.66868301 L11.2273088,1.75081387 C10.0613205,0.666354532 8.54123801,0 6.72685557,0 C4.09871047,0 1.82372529,1.50723049 0.716596976,3.70228071 L2.9504736,5.43349592 C3.48301633,3.84133789 4.97226741,2.65981851 6.72685557,2.65981851" id="Fill-14" fill="#E94235"></path>
                            </g>
                        </g>
                    </g>
                </g>
            </g>
        </g>
    </g>
</svg>