<?xml version="1.0" encoding="UTF-8"?>
<svg width="280px" height="36px" viewBox="0 0 280 36" version="1.1" xmlns="http://www.w3.org/2000/svg" xmlns:xlink="http://www.w3.org/1999/xlink">
    <!-- Generator: Sketch 58 (84663) - https://sketch.com -->
    <title>Save to Google Pay - Thai (Light with Stroke)</title>
    <desc>Created with Sketch.</desc>
    <g id="Buttons-(Save-to-phone)" stroke="none" stroke-width="1" fill="none" fill-rule="evenodd">
        <g id="Language-Variations---Flatened" transform="translate(-196.000000, -482.000000)">
            <g id="Save-to-Google-Pay---Thai-(Light-with-Stroke)" transform="translate(196.000000, 482.000000)">
                <path d="M4,0.5 C2.06700338,0.5 0.5,2.06700338 0.5,4 L0.5,32 C0.5,33.9329966 2.06700338,35.5 4,35.5 L276,35.5 C277.932997,35.5 279.5,33.9329966 279.5,32 L279.5,4 C279.5,2.06700338 277.932997,0.5 276,0.5 L4,0.5 Z" id="bg-copy-5" stroke="#BDC1C6" fill="#FFFFFF"></path>
                <g id="buttonContent" transform="translate(51.000000, 9.000000)">
                    <path d="M62.453125,6.51328125 C62.7630224,6.84869959 62.9179688,7.24244566 62.9179688,7.69453125 L62.9179688,13.0101563 L65.5976562,13.0101563 C65.7799488,13.0101563 65.9348952,12.9445319 66.0625,12.8132813 C66.1463546,12.7330725 66.1882813,12.5763033 66.1882813,12.3429688 L66.1882813,6.1796875 L67.5117188,6.1796875 L67.5117188,12.4960938 C67.5117188,12.9335959 67.4187509,13.2799466 67.2328125,13.5351563 C66.999478,13.8450536 66.6148464,14 66.0789063,14 L60.921875,14 L60.921875,13.0101563 L61.621875,13.0101563 L61.621875,8.75 C61.4651034,8.77187511 61.3320318,8.7828125 61.2226562,8.7828125 C60.8471335,8.7828125 60.5244805,8.65520961 60.2546875,8.4 C59.9848945,8.14479039 59.85,7.82942896 59.85,7.45390625 C59.85,7.15859227 59.9466136,6.87604302 60.1398437,6.60625 C60.354949,6.31822773 60.6046861,6.15598977 60.8890625,6.11953125 C61.1114594,6.09401029 61.2664058,6.08125 61.3539063,6.08125 C61.827867,6.08125 62.1942695,6.22525898 62.453125,6.51328125 Z M60.6320312,7.45390625 C60.6320312,7.61067787 60.690364,7.7483067 60.8070313,7.86679688 C60.9236985,7.98528705 61.0622388,8.04453125 61.2226562,8.04453125 C61.3830737,8.04453125 61.521614,7.9861985 61.6382812,7.86953125 C61.7549485,7.752864 61.8132813,7.61432372 61.8132813,7.45390625 C61.8132813,7.28619708 61.7558599,7.14309955 61.6410156,7.02460938 C61.5261713,6.9061192 61.3867196,6.846875 61.2226562,6.846875 C61.0549471,6.846875 60.9145839,6.9061192 60.8015625,7.02460938 C60.6885411,7.14309955 60.6320312,7.28619708 60.6320312,7.45390625 Z M68.6765625,3.434375 C69.1833359,3.05156059 69.4367187,2.53568033 69.4367187,1.88671875 L70.7382812,1.88671875 C70.7382812,2.59401395 70.3901076,3.2338513 69.69375,3.80625 C68.9463504,4.42604477 68.1406293,4.7359375 67.2765625,4.7359375 C66.4671835,4.7359375 65.8546896,4.63385519 65.4390625,4.4296875 C64.8812472,4.17812374 64.6023438,3.76068 64.6023438,3.17734375 C64.6023438,2.80911274 64.7281237,2.49375131 64.9796875,2.23125 C65.2640639,1.97968624 65.5940085,1.85390625 65.9695313,1.85390625 C66.3632832,1.85390625 66.6841133,1.95963436 66.9320312,2.17109375 C67.2200535,2.41901166 67.3640625,2.73437309 67.3640625,3.1171875 C67.3640625,3.48177266 67.2583344,3.76432191 67.046875,3.96484375 C67.0833335,3.9684896 67.1143228,3.9703125 67.1398437,3.9703125 C67.7268259,3.9703125 68.2390603,3.79166845 68.6765625,3.434375 Z M65.3734375,3.16640625 C65.3734375,3.33046957 65.4317702,3.47721289 65.5484375,3.60664063 C65.6651047,3.73606836 65.8054679,3.80078125 65.9695313,3.80078125 C66.1408863,3.80078125 66.2894525,3.7388027 66.4152344,3.61484375 C66.5410163,3.4908848 66.6039062,3.34140713 66.6039062,3.16640625 C66.6039062,3.00234293 66.5382819,2.8574225 66.4070313,2.73164063 C66.2757806,2.60585875 66.1299487,2.54296875 65.9695313,2.54296875 C65.8091138,2.54296875 65.6696621,2.6067702 65.5511719,2.734375 C65.4326817,2.8619798 65.3734375,3.00598878 65.3734375,3.16640625 Z M70.8174107,8.75 C70.664285,8.77187511 70.5312134,8.7828125 70.418192,8.7828125 C70.0463151,8.7828125 69.7282193,8.65338671 69.4638951,8.39453125 C69.1995709,8.13567579 69.0674107,7.82213726 69.0674107,7.45390625 C69.0674107,7.15859227 69.1640243,6.87604302 69.3572545,6.60625 C69.5614222,6.31822773 69.8075134,6.15598977 70.0955357,6.11953125 C70.3215785,6.09401029 70.4765249,6.08125 70.5603795,6.08125 C71.0562153,6.08125 71.4463155,6.23984216 71.730692,6.55703125 C71.9968391,6.85963693 72.1299107,7.2387998 72.1299107,7.69453125 L72.1299107,12.403125 C72.3158491,12.0713525 72.5838152,11.8052093 72.933817,11.6046875 C73.2400685,11.4369783 73.500743,11.3203128 73.7158482,11.2546875 C73.8799115,11.2145831 74.1095967,11.1562504 74.4049107,11.0796875 C74.7694959,10.9848954 74.9517857,10.8354177 74.9517857,10.63125 L74.9517857,6.1796875 L76.280692,6.1796875 L76.280692,10.7789063 C76.280692,10.9976573 76.189547,11.1562495 76.0072545,11.2546875 C75.9051706,11.3093753 75.7611616,11.367708 75.5752232,11.4296875 C75.8231411,11.4989587 76.0327744,11.6247387 76.2041295,11.8070313 C76.4556932,12.0804701 76.5814732,12.3648423 76.5814732,12.6601563 C76.5814732,13.0611999 76.4684535,13.3911445 76.2424107,13.65 C76.0054304,13.919793 75.688246,14.0747394 75.2908482,14.1148438 C74.7877207,14.1148438 74.404912,13.9598974 74.1424107,13.65 C73.9564723,13.4312489 73.8434526,13.1651057 73.8033482,12.8515625 C73.8033482,12.3812476 73.8689726,12.1151045 74.0002232,12.053125 C73.6319922,12.053125 73.2364233,12.2901018 72.8135045,12.7640625 C72.529128,13.08125 72.3012657,13.4932266 72.1299107,14 L70.8174107,14 L70.8174107,8.75 Z M69.8330357,7.45390625 C69.8330357,7.60703202 69.8922799,7.7437494 70.0107701,7.8640625 C70.1292603,7.9843756 70.2650662,8.04453125 70.418192,8.04453125 C70.5822553,8.04453125 70.7253528,7.9861985 70.8474888,7.86953125 C70.9696249,7.752864 71.030692,7.61432372 71.030692,7.45390625 C71.030692,7.28255123 70.9714478,7.13854225 70.8529576,7.021875 C70.7344674,6.90520775 70.589547,6.846875 70.418192,6.846875 C70.2577745,6.846875 70.1201457,6.9079421 70.0053013,7.03007813 C69.890457,7.15221415 69.8330357,7.29348878 69.8330357,7.45390625 Z M75.208817,12.1460938 C74.7931899,12.1460938 74.5853795,12.3593729 74.5853795,12.7859375 C74.5853795,13.1723978 74.7877212,13.365625 75.1924107,13.365625 C75.3601199,13.365625 75.5032174,13.3100266 75.6217076,13.1988281 C75.7401978,13.0876297 75.799442,12.9500008 75.799442,12.7859375 C75.799442,12.3593729 75.6025689,12.1460938 75.208817,12.1460938 Z M79.6465402,8.75 C79.4132057,8.77187511 79.2728425,8.7828125 79.2254464,8.7828125 C78.8572154,8.7828125 78.5454998,8.65338671 78.2902902,8.39453125 C78.0350806,8.13567579 77.9074777,7.82213726 77.9074777,7.45390625 C77.9074777,7.15859227 78.0004455,6.87786591 78.1863839,6.61171875 C78.3869058,6.32005063 78.6275284,6.15598977 78.9082589,6.11953125 C79.1306559,6.09401029 79.2837794,6.08125 79.3676339,6.08125 C79.8707615,6.08125 80.2626846,6.23984216 80.5434152,6.55703125 C80.8059165,6.85963693 80.9371652,7.2387998 80.9371652,7.69453125 L80.9371652,9.48828125 L80.7895089,10.6476563 L80.9863839,9.99140625 C81.0119049,9.90390581 81.1303933,9.59219018 81.3418527,9.05625 C81.7319588,8.05364082 82.142111,7.27708609 82.5723214,6.7265625 C82.7728433,6.47135289 82.9168523,6.31276073 83.0043527,6.25078125 C83.1465409,6.14505155 83.3397681,6.0921875 83.5840402,6.0921875 C84.1272721,6.0921875 84.5684135,6.28176894 84.9074777,6.6609375 C85.2283126,7.0218768 85.3887277,7.47942431 85.3887277,8.03359375 L85.3887277,14 L84.0981027,14 L84.0981027,7.90234375 C84.0981027,7.47577912 83.9066984,7.2679687 83.5238839,7.27890625 C83.327008,7.28619795 83.0244068,7.7018188 82.6160714,8.52578125 C82.3426326,9.07630484 82.1147703,9.59583089 81.9324777,10.084375 C81.5678925,11.0578174 81.2798746,12.0950466 81.0684152,13.1960938 C80.9809148,13.6481793 80.9371652,13.9161454 80.9371652,14 L79.6465402,14 L79.6465402,8.75 Z M78.6402902,7.45390625 C78.6402902,7.60703202 78.6995344,7.7437494 78.8180246,7.8640625 C78.9365147,7.9843756 79.0723207,8.04453125 79.2254464,8.04453125 C79.3895098,8.04453125 79.5326073,7.9861985 79.6547433,7.86953125 C79.7768793,7.752864 79.8379464,7.61432372 79.8379464,7.45390625 C79.8379464,7.28255123 79.7787022,7.13854225 79.6602121,7.021875 C79.5417219,6.90520775 79.3968015,6.846875 79.2254464,6.846875 C79.065029,6.846875 78.9274001,6.9079421 78.8125558,7.03007813 C78.6977115,7.15221415 78.6402902,7.29348878 78.6402902,7.45390625 Z M85.3723214,4.94921875 C84.9311734,4.85807246 84.2658155,4.75234435 83.3762277,4.63203125 C83.0371635,4.61015614 82.5869076,4.59921875 82.0254464,4.59921875 C81.0410665,4.59921875 80.0184205,4.69036367 78.9574777,4.87265625 C79.0777908,4.37317459 79.2053937,4.0049491 79.3402902,3.76796875 C79.5007077,3.47630063 79.763205,3.18645977 80.1277902,2.8984375 C80.5762299,2.5447899 81.2087757,2.36796875 82.0254464,2.36796875 C82.528574,2.36796875 82.9624238,2.44635338 83.3270089,2.603125 C83.3780509,2.42812413 83.4746645,2.26953196 83.6168527,2.12734375 C83.8465413,1.9049468 84.1509654,1.79375 84.5301339,1.79375 C85.0624283,1.79375 85.4178935,2.00885202 85.5965402,2.4390625 C85.6621655,2.60312582 85.6949777,2.76536378 85.6949777,2.92578125 C85.6949777,3.1481782 85.6329991,3.34687413 85.5090402,3.521875 C85.366852,3.73333439 85.168156,3.88098916 84.9129464,3.96484375 C85.022322,4.09974026 85.1171127,4.25833242 85.1973214,4.440625 C85.2410717,4.53906299 85.2994044,4.70859255 85.3723214,4.94921875 Z M81.9543527,3.01875 C81.5423715,3.01875 81.2224528,3.09257739 80.9945871,3.24023438 C80.7667213,3.38789136 80.5816972,3.64947729 80.4395089,4.025 C81.1176373,3.99218734 81.7082564,3.97578125 82.2113839,3.97578125 C82.7691992,3.97578125 83.3762244,4.0395827 84.0324777,4.1671875 C83.9668524,4.07239536 83.8994051,3.97578174 83.8301339,3.87734375 C83.3525274,3.30494505 82.7272732,3.01875 81.9543527,3.01875 Z M84.4809152,2.3953125 C84.141851,2.3953125 83.9723214,2.55572756 83.9723214,2.8765625 C83.9723214,3.25937691 84.141851,3.45078125 84.4809152,3.45078125 C84.8418545,3.45078125 85.0223214,3.25937691 85.0223214,2.8765625 C84.9822171,2.55572756 84.8017501,2.3953125 84.4809152,2.3953125 Z M92.5061384,14 L92.5061384,8.7609375 C92.5061384,8.21041391 92.3858271,7.78020988 92.1452009,7.4703125 C91.8353035,7.09114394 91.2793195,6.9015625 90.4772322,6.9015625 C90.1782723,6.9015625 89.9103063,6.93255177 89.6733259,6.99453125 C89.4728041,7.04557317 89.2577021,7.13671809 89.0280134,7.26796875 C88.7655121,7.41380281 88.5795765,7.53775991 88.4702009,7.63984375 C88.3353044,7.77109441 88.2241076,7.87864541 88.1366072,7.9625 L90.1327009,8.26875 L90.0397322,8.8921875 C89.7662933,8.8921875 89.5621287,8.96145764 89.4272322,9.1 C89.1829601,9.30052184 89.0608259,9.58671689 89.0608259,9.95859375 L89.0608259,14 L87.7702009,14 L87.7702009,9.95859375 C87.7702009,9.64140466 87.8412939,9.38984468 87.9834822,9.20390625 C88.1548372,8.99244686 88.3261896,8.87395846 88.4975447,8.8484375 C88.56317,8.8411458 88.6032738,8.81197942 88.6178572,8.7609375 L87.0483259,8.575 L87.1303572,7.73828125 C87.2907746,7.67265592 87.482179,7.51770955 87.7045759,7.2734375 C88.0035357,6.94531086 88.3836101,6.65729291 88.8448103,6.409375 C89.3060105,6.16145709 89.8501457,6.0375 90.4772322,6.0375 C91.2392151,6.0375 91.851709,6.13593652 92.3147322,6.3328125 C92.588171,6.44947975 92.8342623,6.61171771 93.0530134,6.81953125 C93.2535352,7.00546968 93.4230648,7.22968619 93.5616072,7.4921875 C93.6600452,7.68177178 93.7238466,7.86223873 93.7530134,8.03359375 C93.7858261,8.23411559 93.8022322,8.46197789 93.8022322,8.7171875 L93.8022322,14 L92.5061384,14 Z M97.5016741,11.4460937 C97.6730292,11.3841143 97.8443816,11.353125 98.0157366,11.353125 C98.398551,11.353125 98.7202926,11.4852851 98.980971,11.7496094 C99.2416494,12.0139336 99.3719866,12.3374981 99.3719866,12.7203125 C99.3719866,13.0119806 99.2771959,13.292707 99.0876116,13.5625 C98.8797981,13.8468764 98.6373526,14.0072915 98.3602679,14.04375 C98.1342251,14.069271 97.9811016,14.0820312 97.9008929,14.0820312 C97.4378697,14.0820312 97.0368321,13.9106788 96.6977679,13.5679688 C96.3331827,13.1997377 96.1508929,12.5088592 96.1508929,11.4953125 C96.1508929,10.3650985 96.3258911,9.57760639 96.6758929,9.1328125 C97.0769366,8.61874743 97.5982855,8.36171875 98.2399554,8.36171875 C98.6008947,8.36171875 98.9855263,8.45833237 99.3938616,8.6515625 C99.8459472,8.87031359 100.254276,9.30598632 100.618862,9.95859375 C100.742821,10.1773448 100.837611,10.3486973 100.903237,10.4726562 L100.903237,8.83203125 C100.903237,8.2414033 100.812092,7.81302216 100.629799,7.546875 C100.330839,7.11666452 99.762095,6.9015625 98.9235491,6.9015625 C98.1943788,6.9015625 97.6001139,7.04192568 97.1407366,7.32265625 C96.8527144,7.50130298 96.5847483,7.79114383 96.3368304,8.1921875 L95.6204241,7.634375 L96.0962054,7.04921875 C96.3404774,6.8122384 96.6011519,6.62265696 96.8782366,6.48046875 C97.1370921,6.34921809 97.4542764,6.23984419 97.8297991,6.15234375 C98.1615716,6.07578087 98.5370887,6.0375 98.9563616,6.0375 C100.564182,6.0375 101.585005,6.52785968 102.018862,7.50859375 C102.16105,7.83672039 102.232143,8.20676877 102.232143,8.61875 L102.232143,14 L100.903237,14 L100.903237,13.2835938 C100.903237,12.565361 100.693603,11.7796918 100.27433,10.9265625 C99.7165151,9.80364022 99.1131357,9.2421875 98.4641741,9.2421875 C98.0376095,9.2421875 97.7532373,9.46275821 97.6110491,9.90390625 C97.516257,10.1955744 97.4688616,10.5236961 97.4688616,10.8882813 C97.4688616,11.1726577 97.479799,11.3585933 97.5016741,11.4460937 Z M98.5899554,12.7203125 C98.5899554,12.559895 98.534357,12.4195319 98.4231585,12.2992187 C98.31196,12.1789056 98.1761541,12.11875 98.0157366,12.11875 C97.8480275,12.11875 97.7076643,12.1779942 97.5946429,12.2964844 C97.4816215,12.4149746 97.4251116,12.5562492 97.4251116,12.7203125 C97.4251116,12.8843758 97.4825329,13.024739 97.5973773,13.1414062 C97.7122216,13.2580735 97.8516733,13.3164062 98.0157366,13.3164062 C98.1688624,13.3164062 98.3028454,13.2553392 98.4176898,13.1332031 C98.5325341,13.0110671 98.5899554,12.8734383 98.5899554,12.7203125 Z M107.539397,8.75 C107.317,8.77187511 107.189398,8.7828125 107.156585,8.7828125 C106.777416,8.7828125 106.453852,8.65612106 106.185882,8.40273438 C105.917912,8.14934769 105.783929,7.83307481 105.783929,7.45390625 C105.783929,7.15859227 105.882365,6.87604302 106.079241,6.60625 C106.283409,6.31822773 106.527677,6.15598977 106.812054,6.11953125 C107.038096,6.09401029 107.194866,6.08125 107.282366,6.08125 C107.77091,6.08125 108.155542,6.24166506 108.436272,6.5625 C108.70242,6.86875153 108.835491,7.24609151 108.835491,7.69453125 L108.835491,14 L107.167522,14 C107.123772,13.9124996 107.045387,13.7684906 106.932366,13.5679688 C106.895908,13.5023434 106.751899,13.2854185 106.500335,12.9171875 C106.409189,12.7713534 106.257888,12.5416682 106.046429,12.228125 C105.765698,11.834373 105.422993,11.4242209 105.018304,10.9976563 C104.905282,10.880989 104.741221,10.718751 104.526116,10.5109375 L104.504241,10.4890625 C104.187052,10.182811 103.973773,9.99869823 103.864397,9.93671875 C103.725855,9.85651002 103.631064,9.80182306 103.580022,9.77265625 L103.946429,9.19296875 C104.128721,9.19296875 104.651893,9.57395452 105.51596,10.3359375 C105.829503,10.6130222 106.14851,10.9156234 106.472991,11.24375 C106.65893,11.4442718 106.903198,11.7450501 107.205804,12.1460938 L107.539397,12.6 L107.539397,8.75 Z M106.544085,7.45390625 C106.544085,7.62161542 106.60424,7.7619786 106.724554,7.875 C106.844867,7.9880214 106.988876,8.04453125 107.156585,8.04453125 C107.309711,8.04453125 107.445517,7.9843756 107.564007,7.8640625 C107.682497,7.7437494 107.741741,7.60703202 107.741741,7.45390625 C107.741741,7.29713463 107.683408,7.15677145 107.566741,7.0328125 C107.450074,6.90885355 107.313356,6.846875 107.156585,6.846875 C106.98523,6.846875 106.840309,6.90520775 106.721819,7.021875 C106.603329,7.13854225 106.544085,7.28255123 106.544085,7.45390625 Z M113.683371,1.53671875 C113.650558,1.5330729 113.599517,1.53125 113.530246,1.53125 C113.293265,1.53125 113.074517,1.58320261 112.873996,1.68710938 C112.673474,1.79101614 112.540402,1.95234266 112.474777,2.17109375 C112.536756,2.14921864 112.615141,2.13828125 112.709933,2.13828125 C112.979726,2.13828125 113.233109,2.22942617 113.470089,2.41171875 C113.739882,2.62317814 113.874777,2.98593493 113.874777,3.5 C113.874777,3.81354323 113.7572,4.07421771 113.522042,4.28203125 C113.286885,4.48984479 113.010716,4.59375 112.693527,4.59375 C112.379984,4.59375 112.110195,4.50260508 111.884152,4.3203125 C111.523213,4.03229023 111.342746,3.6020862 111.342746,3.0296875 C111.342746,2.58489361 111.4585,2.15195523 111.690011,1.73085938 C111.921523,1.30976352 112.328941,1.02447991 112.912277,0.875 C113.152903,0.813020523 113.426338,0.78203125 113.732589,0.78203125 C114.436239,0.78203125 114.979462,0.986195875 115.362277,1.39453125 C115.701341,1.75547055 115.870871,2.1747372 115.870871,2.65234375 L115.870871,11.4460937 C115.9766,11.4169269 116.109672,11.4023438 116.270089,11.4023438 C116.649258,11.4023438 116.967354,11.5308581 117.224386,11.7878906 C117.481419,12.0449232 117.609933,12.3630189 117.609933,12.7421875 C117.609933,13.099481 117.49509,13.403905 117.265402,13.6554688 C117.035713,13.9070325 116.742227,14.0492186 116.384933,14.0820312 C116.290141,14.1075522 116.193527,14.1203125 116.095089,14.1203125 C115.64665,14.1203125 115.272955,13.9526058 114.973996,13.6171875 C114.700557,13.3145818 114.563839,12.9408876 114.563839,12.4960938 L114.563839,2.65234375 C114.563839,2.35338392 114.516444,2.12552162 114.421652,1.96875 C114.275818,1.7281238 114.029726,1.58411482 113.683371,1.53671875 Z M116.866183,12.7421875 C116.866183,12.5781242 116.80785,12.437761 116.691183,12.3210937 C116.574516,12.2044265 116.434153,12.1460938 116.270089,12.1460938 C116.106026,12.1460938 115.964751,12.2035151 115.846261,12.3183594 C115.727771,12.4332037 115.668527,12.5744783 115.668527,12.7421875 C115.668527,12.9098967 115.72686,13.0520828 115.843527,13.16875 C115.960194,13.2854173 116.10238,13.34375 116.270089,13.34375 C116.437798,13.34375 116.579073,13.2845058 116.693917,13.1660156 C116.808762,13.0475254 116.866183,12.9062508 116.866183,12.7421875 Z M112.649777,2.86015625 C112.350817,2.86015625 112.201339,3.0369774 112.201339,3.390625 C112.201339,3.7515643 112.361754,3.93203125 112.682589,3.93203125 C112.988841,3.93203125 113.141964,3.7515643 113.141964,3.390625 C113.141964,3.0369774 112.977903,2.86015625 112.649777,2.86015625 Z M120.144531,8.75 C119.991406,8.77187511 119.858334,8.7828125 119.745313,8.7828125 C119.373436,8.7828125 119.05534,8.65338671 118.791016,8.39453125 C118.526691,8.13567579 118.394531,7.82213726 118.394531,7.45390625 C118.394531,7.15859227 118.491145,6.87604302 118.684375,6.60625 C118.888543,6.31822773 119.134634,6.15598977 119.422656,6.11953125 C119.648699,6.09401029 119.803645,6.08125 119.8875,6.08125 C120.383336,6.08125 120.773436,6.23984216 121.057813,6.55703125 C121.32396,6.85963693 121.457031,7.2387998 121.457031,7.69453125 L121.457031,12.403125 C121.64297,12.0713525 121.910936,11.8052093 122.260938,11.6046875 C122.567189,11.4369783 122.827864,11.3203128 123.042969,11.2546875 C123.207032,11.2145831 123.436717,11.1562504 123.732031,11.0796875 C124.096616,10.9848954 124.278906,10.8354177 124.278906,10.63125 L124.278906,6.1796875 L125.607813,6.1796875 L125.607813,10.7789063 C125.607813,10.9976573 125.516668,11.1562495 125.334375,11.2546875 C125.232291,11.3093753 125.088282,11.367708 124.902344,11.4296875 C125.150262,11.4989587 125.359895,11.6247387 125.53125,11.8070313 C125.782814,12.0804701 125.908594,12.3648423 125.908594,12.6601563 C125.908594,13.0611999 125.795574,13.3911445 125.569531,13.65 C125.332551,13.919793 125.015367,14.0747394 124.617969,14.1148438 C124.114841,14.1148438 123.732033,13.9598974 123.469531,13.65 C123.283593,13.4312489 123.170573,13.1651057 123.130469,12.8515625 C123.130469,12.3812476 123.196093,12.1151045 123.327344,12.053125 C122.959113,12.053125 122.563544,12.2901018 122.140625,12.7640625 C121.856249,13.08125 121.628386,13.4932266 121.457031,14 L120.144531,14 L120.144531,8.75 Z M119.160156,7.45390625 C119.160156,7.60703202 119.2194,7.7437494 119.337891,7.8640625 C119.456381,7.9843756 119.592187,8.04453125 119.745313,8.04453125 C119.909376,8.04453125 120.052473,7.9861985 120.174609,7.86953125 C120.296745,7.752864 120.357813,7.61432372 120.357813,7.45390625 C120.357813,7.28255123 120.298568,7.13854225 120.180078,7.021875 C120.061588,6.90520775 119.916668,6.846875 119.745313,6.846875 C119.584895,6.846875 119.447266,6.9079421 119.332422,7.03007813 C119.217578,7.15221415 119.160156,7.29348878 119.160156,7.45390625 Z M124.535938,12.1460938 C124.12031,12.1460938 123.9125,12.3593729 123.9125,12.7859375 C123.9125,13.1723978 124.114842,13.365625 124.519531,13.365625 C124.68724,13.365625 124.830338,13.3100266 124.948828,13.1988281 C125.067318,13.0876297 125.126563,12.9500008 125.126563,12.7859375 C125.126563,12.3593729 124.92969,12.1460938 124.535938,12.1460938 Z M132.052567,4.00859375 L132.052567,11.4460937 C132.17288,11.4169269 132.302306,11.4023437 132.440848,11.4023437 C132.823663,11.4023437 133.146316,11.5299466 133.408817,11.7851562 C133.671318,12.0403659 133.802567,12.3593731 133.802567,12.7421875 C133.802567,13.1067727 133.687724,13.4130196 133.458036,13.6609375 C133.228347,13.9088554 132.931215,14.0492186 132.56663,14.0820312 C132.471837,14.1075522 132.373401,14.1203125 132.271317,14.1203125 C131.822877,14.1203125 131.452829,13.9526058 131.161161,13.6171875 C130.887722,13.3072901 130.751005,12.9335959 130.751005,12.4960938 L130.751005,4.00859375 C130.751005,3.6513003 130.410123,3.38698002 129.728348,3.215625 C129.338242,3.12083286 128.75856,3.03880243 127.989286,2.96953125 L128.027567,2.60859375 C128.177047,1.88671514 128.54345,1.38906387 129.126786,1.115625 C129.629913,0.878644648 130.096575,0.76015625 130.526786,0.76015625 C130.792933,0.76015625 131.184856,0.838540883 131.702567,0.9953125 C132.220278,1.15208412 132.583035,1.23046875 132.790848,1.23046875 C133.0971,1.23046875 133.359597,1.08828267 133.578348,0.80390625 L134.497098,1.39453125 C134.285639,1.67161597 134.048662,1.88124929 133.786161,2.0234375 C133.56741,2.1437506 133.310381,2.20390625 133.015067,2.20390625 C132.756212,2.20390625 132.482777,2.15468799 132.194755,2.05625 L131.314286,1.7609375 C131.018972,1.66249951 130.763766,1.61328125 130.548661,1.61328125 C130.0747,1.61328125 129.757516,1.73723834 129.597098,1.98515625 C129.502306,2.13463616 129.440328,2.24583297 129.411161,2.31875 C129.702829,2.31875 130.177694,2.42174376 130.83577,2.62773438 C131.493846,2.83372499 131.877566,3.1062483 131.986942,3.4453125 C132.030692,3.59843827 132.052567,3.7861968 132.052567,4.00859375 Z M133.04788,12.7421875 C133.04788,12.5744783 132.988635,12.4332037 132.870145,12.3183594 C132.751655,12.2035151 132.608557,12.1460938 132.440848,12.1460938 C132.284077,12.1460938 132.146448,12.2053379 132.027958,12.3238281 C131.909467,12.4423183 131.850223,12.58177 131.850223,12.7421875 C131.850223,12.902605 131.908556,13.0429681 132.025223,13.1632813 C132.141891,13.2835944 132.280431,13.34375 132.440848,13.34375 C132.612203,13.34375 132.756212,13.2854173 132.87288,13.16875 C132.989547,13.0520828 133.04788,12.9098967 133.04788,12.7421875 Z M136.266071,8.75 C136.032737,8.77187511 135.892374,8.7828125 135.844978,8.7828125 C135.476747,8.7828125 135.165031,8.65338671 134.909821,8.39453125 C134.654612,8.13567579 134.527009,7.82213726 134.527009,7.45390625 C134.527009,7.15859227 134.619977,6.87786591 134.805915,6.61171875 C135.006437,6.32005063 135.24706,6.15598977 135.52779,6.11953125 C135.750187,6.09401029 135.903311,6.08125 135.987165,6.08125 C136.490293,6.08125 136.882216,6.23984216 137.162946,6.55703125 C137.425448,6.85963693 137.556696,7.2387998 137.556696,7.69453125 L137.556696,9.48828125 L137.40904,10.6476563 L137.605915,9.99140625 C137.631436,9.90390581 137.749925,9.59219018 137.961384,9.05625 C138.35149,8.05364082 138.761642,7.27708609 139.191853,6.7265625 C139.392375,6.47135289 139.536384,6.31276073 139.623884,6.25078125 C139.766072,6.14505155 139.959299,6.0921875 140.203571,6.0921875 C140.746803,6.0921875 141.187945,6.28176894 141.527009,6.6609375 C141.847844,7.0218768 142.008259,7.47942431 142.008259,8.03359375 L142.008259,14 L140.717634,14 L140.717634,7.90234375 C140.717634,7.47577912 140.52623,7.2679687 140.143415,7.27890625 C139.946539,7.28619795 139.643938,7.7018188 139.235603,8.52578125 C138.962164,9.07630484 138.734302,9.59583089 138.552009,10.084375 C138.187424,11.0578174 137.899406,12.0950466 137.687946,13.1960938 C137.600446,13.6481793 137.556696,13.9161454 137.556696,14 L136.266071,14 L136.266071,8.75 Z M135.259821,7.45390625 C135.259821,7.60703202 135.319066,7.7437494 135.437556,7.8640625 C135.556046,7.9843756 135.691852,8.04453125 135.844978,8.04453125 C136.009041,8.04453125 136.152139,7.9861985 136.274275,7.86953125 C136.396411,7.752864 136.457478,7.61432372 136.457478,7.45390625 C136.457478,7.28255123 136.398234,7.13854225 136.279743,7.021875 C136.161253,6.90520775 136.016333,6.846875 135.844978,6.846875 C135.68456,6.846875 135.546931,6.9079421 135.432087,7.03007813 C135.317243,7.15221415 135.259821,7.29348878 135.259821,7.45390625 Z M145.986607,8.815625 C145.534522,8.73177041 145.086089,8.68072926 144.641295,8.6625 C144.440773,8.6552083 144.265775,8.6515625 144.116295,8.6515625 C143.682438,8.6515625 143.447284,8.66432279 143.410826,8.68984375 C143.399888,8.63880183 143.39442,8.58593777 143.39442,8.53125 C143.39442,8.04635174 143.553012,7.55599206 143.870201,7.06015625 C144.27489,6.42942393 144.936603,6.1140625 145.855357,6.1140625 C146.110567,6.1140625 146.467855,6.18059829 146.927232,6.31367187 C147.386609,6.44674546 147.725669,6.51328125 147.94442,6.51328125 C148.370984,6.51328125 148.662648,6.38020966 148.81942,6.1140625 L149.776451,6.61171875 C149.725409,6.75026111 149.619681,6.89427009 149.459263,7.04375 C149.229575,7.25885524 148.972546,7.38098944 148.68817,7.41015625 C148.524106,7.42838551 148.41291,7.4375 148.354576,7.4375 C148.066554,7.4375 147.665516,7.35546957 147.151451,7.19140625 C146.688428,7.04921804 146.334786,6.978125 146.090513,6.978125 C145.649365,6.978125 145.304838,7.0893218 145.05692,7.31171875 C144.896502,7.44661526 144.767076,7.64348829 144.668638,7.90234375 C145.095203,7.90234375 145.5965,7.94609331 146.172545,8.03359375 C146.843381,8.13932345 147.386605,8.28697822 147.802232,8.4765625 C148.217859,8.66614678 148.500409,8.89765488 148.649888,9.17109375 C148.773847,9.38984484 148.835826,9.61588425 148.835826,9.84921875 L148.835826,12.4960938 C148.835826,12.9518252 148.688171,13.3401026 148.392857,13.6609375 C148.115772,13.9635432 147.754839,14.1148438 147.310045,14.1148438 C146.814209,14.1148438 146.425932,13.9598974 146.145201,13.65 C145.915512,13.4020821 145.80067,13.099481 145.80067,12.7421875 C145.80067,12.3557272 145.928273,12.0358086 146.183482,11.7824219 C146.438692,11.5290352 146.759522,11.4023438 147.145982,11.4023438 C147.313691,11.4023438 147.439471,11.4169269 147.523326,11.4460937 L147.523326,9.95859375 C147.523326,9.7216134 147.464993,9.52656327 147.348326,9.3734375 C147.166033,9.1328113 146.712132,8.94687566 145.986607,8.815625 Z M147.145982,13.34375 C147.310046,13.34375 147.449497,13.2845058 147.564342,13.1660156 C147.679186,13.0475254 147.736607,12.9062508 147.736607,12.7421875 C147.736607,12.5781242 147.678274,12.437761 147.561607,12.3210937 C147.44494,12.2044265 147.3064,12.1460938 147.145982,12.1460938 C146.978273,12.1460938 146.835175,12.2035151 146.716685,12.3183594 C146.598195,12.4332037 146.538951,12.5744783 146.538951,12.7421875 C146.538951,12.9098967 146.597284,13.0520828 146.713951,13.16875 C146.830618,13.2854173 146.974627,13.34375 147.145982,13.34375 Z M156.28683,6.33828125 C156.43631,6.24348911 156.558445,6.12135491 156.653237,5.971875 C156.788133,5.80051998 156.85558,5.58177216 156.85558,5.315625 L158.250112,5.67109375 C158.250112,6.00286624 158.122509,6.27265521 157.867299,6.48046875 C157.663131,6.68463644 157.422509,6.8395828 157.145424,6.9453125 C157.40428,7.20052211 157.581101,7.57603919 157.675893,8.071875 C157.708706,8.24687588 157.725112,8.42916572 157.725112,8.61875 L157.725112,14 L156.429018,14 L156.429018,8.68984375 C156.429018,8.15025772 156.264957,7.72369948 155.93683,7.41015625 C155.579537,7.07109205 155.030845,6.9015625 154.290737,6.9015625 C153.667296,6.9015625 153.162353,7.07473785 152.775893,7.42109375 C152.338391,7.81849157 152.119643,8.35806951 152.119643,9.03984375 C152.119643,9.29869921 152.194382,9.78541309 152.343862,10.5 C152.365737,10.7078135 152.407663,11.0122376 152.469643,11.4132813 C152.469643,11.2018219 152.522507,10.859117 152.628237,10.3851563 L152.879799,9.32421875 C153.073029,8.51848555 153.515994,8.1138021 154.208705,8.11015625 C154.234226,8.11015625 154.263393,8.10833335 154.296205,8.1046875 L154.350893,8.1046875 C154.981625,8.1046875 155.413652,8.38905966 155.646987,8.9578125 C155.727195,9.10729241 155.767299,9.28411356 155.767299,9.48828125 C155.767299,9.86380396 155.659748,10.1645822 155.444643,10.390625 C155.145683,10.7005224 154.777458,10.8554688 154.339955,10.8554688 C154.095683,10.8554688 153.860529,10.7807299 153.634487,10.63125 C153.361048,11.3348994 153.184227,12.1989532 153.104018,13.2234375 L153.04933,14 L151.485268,14 C151.485268,13.9671873 151.487091,13.9152347 151.490737,13.8441406 C151.494383,13.7730465 151.496205,13.719271 151.496205,13.6828125 C151.496205,13.2052059 151.450633,12.6710967 151.359487,12.0804688 C151.239174,11.5955705 151.065998,10.8645882 150.839955,9.8875 C150.785268,9.63593624 150.757924,9.35703278 150.757924,9.05078125 C150.757924,8.10285984 151.102452,7.35000279 151.791518,6.7921875 C152.414959,6.28905998 153.253492,6.0375 154.307143,6.0375 C155.12746,6.0375 155.787349,6.13775941 156.28683,6.33828125 Z M154.350893,8.8921875 C154.190475,8.8921875 154.05467,8.95052025 153.943471,9.0671875 C153.832273,9.18385475 153.776674,9.32421793 153.776674,9.48828125 C153.776674,9.63776116 153.835007,9.77265565 153.951674,9.89296875 C154.068341,10.0132819 154.201413,10.0734375 154.350893,10.0734375 C154.514956,10.0734375 154.654408,10.0160162 154.769252,9.90117188 C154.884097,9.78632755 154.941518,9.64869872 154.941518,9.48828125 C154.941518,9.09088343 154.744645,8.8921875 154.350893,8.8921875 Z M158.786049,3.434375 C159.292823,3.05156059 159.546205,2.53568033 159.546205,1.88671875 L160.847768,1.88671875 C160.847768,2.59401395 160.499594,3.2338513 159.803237,3.80625 C159.055837,4.42604477 158.250116,4.7359375 157.386049,4.7359375 C156.57667,4.7359375 155.964176,4.63385519 155.548549,4.4296875 C154.990734,4.17812374 154.71183,3.76068 154.71183,3.17734375 C154.71183,2.80911274 154.83761,2.49375131 155.089174,2.23125 C155.373551,1.97968624 155.703495,1.85390625 156.079018,1.85390625 C156.47277,1.85390625 156.7936,1.95963436 157.041518,2.17109375 C157.32954,2.41901166 157.473549,2.73437309 157.473549,3.1171875 C157.473549,3.48177266 157.367821,3.76432191 157.156362,3.96484375 C157.19282,3.9684896 157.223809,3.9703125 157.24933,3.9703125 C157.836313,3.9703125 158.348547,3.79166845 158.786049,3.434375 Z M155.482924,3.16640625 C155.482924,3.33046957 155.541257,3.47721289 155.657924,3.60664063 C155.774591,3.73606836 155.914955,3.80078125 156.079018,3.80078125 C156.250373,3.80078125 156.398939,3.7388027 156.524721,3.61484375 C156.650503,3.4908848 156.713393,3.34140713 156.713393,3.16640625 C156.713393,3.00234293 156.647769,2.8574225 156.516518,2.73164063 C156.385267,2.60585875 156.239435,2.54296875 156.079018,2.54296875 C155.9186,2.54296875 155.779149,2.6067702 155.660659,2.734375 C155.542168,2.8619798 155.482924,3.00598878 155.482924,3.16640625 Z M165.90346,14 L164.055022,8.334375 L162.201116,14 L160.981585,14 L160.981585,8.75 C160.759188,8.77187511 160.604242,8.7828125 160.516741,8.7828125 C160.144864,8.7828125 159.828591,8.65338671 159.567913,8.39453125 C159.307235,8.13567579 159.176897,7.82213726 159.176897,7.45390625 C159.176897,7.15859227 159.269865,6.87786591 159.455804,6.61171875 C159.659971,6.32005063 159.90424,6.15598977 160.188616,6.11953125 C160.407367,6.09401029 160.562314,6.08125 160.65346,6.08125 C161.156587,6.08125 161.552156,6.23984216 161.840179,6.55703125 C162.069867,6.85599108 162.18471,7.23515395 162.18471,7.69453125 L162.18471,10.346875 L162.14096,11.2054688 L163.754241,6.1796875 L164.394085,6.1796875 L165.99096,11.2054688 L165.963616,10.346875 L165.963616,6.1796875 L167.161272,6.1796875 L167.161272,14 L165.90346,14 Z M159.942522,7.45390625 C159.942522,7.61067787 159.999032,7.7483067 160.112054,7.86679688 C160.225075,7.98528705 160.35997,8.04453125 160.516741,8.04453125 C160.677159,8.04453125 160.814787,7.9861985 160.929632,7.86953125 C161.044476,7.752864 161.101897,7.61432372 161.101897,7.45390625 C161.101897,7.28619708 161.046299,7.14309955 160.935101,7.02460938 C160.823902,6.9061192 160.68445,6.846875 160.516741,6.846875 C160.352678,6.846875 160.21596,6.9079421 160.106585,7.03007813 C159.997209,7.15221415 159.942522,7.29348878 159.942522,7.45390625 Z M170.488839,8.75 C170.255505,8.77187511 170.115142,8.7828125 170.067746,8.7828125 C169.699515,8.7828125 169.387799,8.65338671 169.132589,8.39453125 C168.87738,8.13567579 168.749777,7.82213726 168.749777,7.45390625 C168.749777,7.15859227 168.842745,6.87786591 169.028683,6.61171875 C169.229205,6.32005063 169.469828,6.15598977 169.750558,6.11953125 C169.972955,6.09401029 170.126079,6.08125 170.209933,6.08125 C170.713061,6.08125 171.104984,6.23984216 171.385714,6.55703125 C171.648216,6.85963693 171.779464,7.2387998 171.779464,7.69453125 L171.779464,9.48828125 L171.631808,10.6476563 L171.828683,9.99140625 C171.854204,9.90390581 171.972692,9.59219018 172.184152,9.05625 C172.574258,8.05364082 172.98441,7.27708609 173.414621,6.7265625 C173.615142,6.47135289 173.759151,6.31276073 173.846652,6.25078125 C173.98884,6.14505155 174.182067,6.0921875 174.426339,6.0921875 C174.969571,6.0921875 175.410713,6.28176894 175.749777,6.6609375 C176.070612,7.0218768 176.231027,7.47942431 176.231027,8.03359375 L176.231027,14 L174.940402,14 L174.940402,7.90234375 C174.940402,7.47577912 174.748998,7.2679687 174.366183,7.27890625 C174.169307,7.28619795 173.866706,7.7018188 173.458371,8.52578125 C173.184932,9.07630484 172.957069,9.59583089 172.774777,10.084375 C172.410192,11.0578174 172.122174,12.0950466 171.910714,13.1960938 C171.823214,13.6481793 171.779464,13.9161454 171.779464,14 L170.488839,14 L170.488839,8.75 Z M169.482589,7.45390625 C169.482589,7.60703202 169.541834,7.7437494 169.660324,7.8640625 C169.778814,7.9843756 169.91462,8.04453125 170.067746,8.04453125 C170.231809,8.04453125 170.374906,7.9861985 170.497042,7.86953125 C170.619179,7.752864 170.680246,7.61432372 170.680246,7.45390625 C170.680246,7.28255123 170.621001,7.13854225 170.502511,7.021875 C170.384021,6.90520775 170.239101,6.846875 170.067746,6.846875 C169.907328,6.846875 169.769699,6.9079421 169.654855,7.03007813 C169.540011,7.15221415 169.482589,7.29348878 169.482589,7.45390625 Z M175.635024,2.93130866 C175.984965,3.1573461 176.159933,3.46539638 176.159933,3.85546875 C176.159933,4.22369976 176.03871,4.52721235 175.796261,4.76601563 C175.553812,5.0048189 175.252122,5.12421875 174.891183,5.12421875 C174.519306,5.12421875 174.202122,5.01484484 173.939621,4.79609375 C173.651598,4.55546755 173.507589,4.24375191 173.507589,3.8609375 L173.507589,3.74609375 C173.507589,3.36327934 173.688056,3.04427211 174.048996,2.7890625 C174.307851,2.60676992 174.615921,2.47005254 174.973214,2.37890625 C175.253945,2.30963507 175.54014,2.24036493 175.831808,2.17109375 C176.152643,2.07265576 176.40238,1.93046968 176.581027,1.74453125 C176.839882,1.48202994 176.983891,1.11015866 177.013058,0.62890625 L178.199777,0.91875 C178.199777,1.17760546 178.159673,1.41458226 178.079464,1.6296875 C177.919047,1.93593903 177.685716,2.19114481 177.379464,2.3953125 C177.095088,2.58125093 176.650301,2.7361973 176.045089,2.86015625 C175.834644,2.90575266 175.700122,2.9294162 175.641518,2.9311475 L175.635024,2.93130866 Z M175.641518,2.9311475 C175.639204,2.93121583 175.63701,2.93125 175.634933,2.93125 C175.634963,2.93126955 175.634994,2.93128911 175.635024,2.93130866 L175.641518,2.9311475 Z M174.825558,3.28671875 C174.453681,3.28671875 174.267746,3.47265439 174.267746,3.84453125 L174.267746,3.915625 C174.267746,4.30208527 174.453681,4.4953125 174.825558,4.4953125 C175.204727,4.4953125 175.394308,4.29114788 175.394308,3.8828125 C175.394308,3.48541468 175.204727,3.28671875 174.825558,3.28671875 Z" id="SaveToPhone" fill="#3C4043"></path>
                    <rect id="Rectangle-Copy" fill="#202124" opacity="0.100000001" x="50" y="1" width="1" height="16"></rect>
                    <g id="Gpay-logo-18px-h-Copy" transform="translate(0.000000, 1.000000)">
                        <g id="GPay" transform="translate(0.000000, 0.261474)">
                            <g id="Pay" transform="translate(17.615069, 0.825706)" fill="#5F6368">
                                <path d="M1.64941186,1.54761702 L1.64941186,5.63067176 L4.1674047,5.63067176 C4.76721599,5.63067176 5.26322816,5.42908551 5.65562807,5.02591302 C6.05830511,4.6236738 6.26011078,4.1439732 6.26011078,3.58867775 C6.26011078,3.04458155 6.05830511,2.57048056 5.65562807,2.16730807 C5.26322816,1.75386962 4.76721599,1.54668375 4.1674047,1.54668375 L1.64941186,1.54668375 L1.64941186,1.54761702 Z M1.64941186,7.06790702 L1.64941186,11.8042505 L0.145212207,11.8042505 L0.145212207,0.110381756 L4.13461128,0.110381756 C5.14840447,0.110381756 6.00888141,0.448225371 6.71791067,1.12297933 C7.43740394,1.79773329 7.79701042,2.61994385 7.79701042,3.58867775 C7.79701042,4.57981013 7.43731051,5.40762031 6.71791067,6.07117503 C6.01999941,6.73566302 5.15858818,7.06697375 4.13461128,7.06697375 L1.64941186,7.06697375 L1.64941186,7.06790702 Z" id="Fill-1"></path>
                                <path d="M9.31707424,9.35440834 C9.31707424,9.74638159 9.48337706,10.073026 9.81607612,10.3343415 C10.1485883,10.595657 10.5381854,10.7263147 10.9848673,10.7263147 C11.6172851,10.7263147 12.1806593,10.4919707 12.6767649,10.024496 C13.1729639,9.55599458 13.4204561,9.00629876 13.4204561,8.37540847 C12.9514448,8.00490042 12.297445,7.82011303 11.4584566,7.82011303 C10.8475273,7.82011303 10.3383417,7.96756963 9.93005895,8.26154958 C9.52168276,8.55543619 9.31707424,8.91857141 9.31707424,9.35440834 M11.2631909,3.5401384 C12.3749907,3.5401384 13.2522848,3.83691815 13.8961009,4.43047765 C14.5388893,5.02403715 14.8601901,5.83784829 14.8601901,6.87191106 L14.8601901,11.8042412 L13.4214839,11.8042412 L13.4214839,10.6936503 L13.3559904,10.6936503 C12.7346906,11.6081612 11.9059794,12.0655567 10.8708844,12.0655567 C9.98798466,12.0655567 9.24896483,11.8042412 8.65560011,11.2816102 C8.06148796,10.7589792 7.76438517,10.1056904 7.76438517,9.3217439 C7.76438517,8.49393372 8.07727739,7.83588529 8.70418295,7.34601205 C9.33108852,6.85604548 10.1673675,6.61059556 11.2137672,6.61059556 C12.1068507,6.61059556 12.8430677,6.77391775 13.4204561,7.10056213 L13.4204561,6.75711889 C13.4204561,6.23448789 13.2130448,5.7911848 12.7992497,5.42627637 C12.3843335,5.06136793 11.9003736,4.87938035 11.3444738,4.87938035 C10.5045511,4.87938035 9.84036755,5.23308955 9.34986766,5.94144122 L8.0249574,5.10803142 C8.75556866,4.06276941 9.83466841,3.5401384 11.2631909,3.5401384" id="Fill-3"></path>
                                <polygon id="Fill-5" points="23.1164897 3.8014539 18.0966672 15.3320005 16.5437912 15.3320005 18.4077842 11.2974758 15.1049916 3.8014539 16.7399912 3.8014539 19.1270906 9.55039497 19.1597906 9.55039497 21.4814901 3.8014539"></polygon>
                            </g>
                            <g id="G">
                                <path d="M13.1865148,6.87260706 C13.1865148,6.39943935 13.1463406,5.94307048 13.0706634,5.50630029 L6.72686492,5.50630029 L6.72686492,8.09425704 L10.3603012,8.09425704 C10.2042755,8.93783948 9.73246136,9.65561717 9.01679867,10.136251 L9.01679867,11.8170697 L11.1852753,11.8170697 C12.4549693,10.6467495 13.1865148,8.91740087 13.1865148,6.87260706" id="Fill-8" fill="#4285F4"></path>
                                <path d="M6.72685557,13.439083 C8.54217229,13.439083 10.0706634,12.843657 11.185266,11.8170603 L9.01678933,10.1362417 C8.4132409,10.542214 7.63591536,10.7792645 6.72685557,10.7792645 C4.97226741,10.7792645 3.48301633,9.59774511 2.9504736,8.00558709 L0.716596976,8.00558709 L0.716596976,9.73680229 C1.82372529,11.9318525 4.09871047,13.439083 6.72685557,13.439083" id="Fill-10" fill="#34A853"></path>
                                <path d="M2.95048294,8.00556842 C2.81407726,7.59959612 2.73933442,7.166559 2.73933442,6.71952284 C2.73933442,6.27248667 2.81407726,5.83944956 2.95048294,5.43347726 L2.95048294,3.70226205 L0.716606319,3.70226205 C0.258806425,4.60940015 9.34285496e-06,5.63413023 9.34285496e-06,6.71952284 C9.34285496e-06,7.80491544 0.258806425,8.82973885 0.716606319,9.73678363 L2.95048294,8.00556842 Z" id="Fill-12" fill="#FABB05"></path>
                                <path d="M6.72685557,2.65981851 C7.71813249,2.65981851 8.60663799,3.00046194 9.30735212,3.66774974 L9.30735212,3.66868301 L11.2273088,1.75081387 C10.0613205,0.666354532 8.54123801,0 6.72685557,0 C4.09871047,0 1.82372529,1.50723049 0.716596976,3.70228071 L2.9504736,5.43349592 C3.48301633,3.84133789 4.97226741,2.65981851 6.72685557,2.65981851" id="Fill-14" fill="#E94235"></path>
                            </g>
                        </g>
                    </g>
                </g>
            </g>
        </g>
    </g>
</svg>